<?xml version="1.0" standalone="no"?>
<!DOCTYPE svg PUBLIC "-//W3C//DTD SVG 1.1//EN" "http://www.w3.org/Graphics/SVG/1.1/DTD/svg11.dtd" >
<svg xmlns="http://www.w3.org/2000/svg">
<metadata></metadata>
<defs>
<font id="robotoregular" horiz-adv-x="1309" >
<font-face units-per-em="2048" ascent="1536" descent="-512" />
<missing-glyph horiz-adv-x="496" />
<glyph unicode="&#xfb01;" horiz-adv-x="1111" d="M30 920v140h168v91q0 177 101.5 276t286.5 99q110 0 277 -60l-30 -153q-123 49 -233 49q-117 0 -168.5 -52.5t-51.5 -157.5v-92h217v-140h-217v-920h-182v920h-168zM771 0v1060h183v-1060h-183z" />
<glyph unicode="&#xfb02;" horiz-adv-x="1139" d="M59 920v140h167v116q1 170 95.5 260t267.5 90q99 0 392 -60v-1466h-181v1351q-122 20 -196 20q-196 0 -196 -206v-105h226v-140h-226v-920h-182v920h-167z" />
<glyph horiz-adv-x="0" />
<glyph horiz-adv-x="0" />
<glyph unicode="&#xd;" horiz-adv-x="496" />
<glyph horiz-adv-x="0" />
<glyph unicode=" "  horiz-adv-x="496" />
<glyph unicode="&#x09;" horiz-adv-x="496" />
<glyph unicode="&#xa0;" horiz-adv-x="496" />
<glyph unicode="!" horiz-adv-x="516" d="M157 91q0 44 27 74t80 30t80 -30t27 -74t-27 -73t-80 -29t-80 29t-27 73zM164 1427h190l-14 -1024h-164z" />
<glyph unicode="&#x22;" horiz-adv-x="641" d="M133 1021l1 484h137v-133l-29 -351h-109zM398 1021l1 484h137v-133l-29 -351h-109z" />
<glyph unicode="#" horiz-adv-x="1235" d="M117 402v134h259l68 347h-253v136h279l81 408h140l-80 -408h258l81 408h141l-81 -408h200v-136h-226l-68 -347h221v-134h-246l-79 -402h-141l79 402h-259l-78 -402h-141l79 402h-234zM516 536h259l68 347h-259z" />
<glyph unicode="$" horiz-adv-x="1127" d="M108 420h181q0 -136 71.5 -209.5t203.5 -73.5q128 0 201.5 62t73.5 169q0 90 -63.5 151.5t-212.5 111.5q-209 64 -304.5 166.5t-95.5 259.5q0 161 93.5 264t257.5 123v214h146v-215q164 -23 255.5 -138.5t91.5 -316.5h-180q0 138 -65.5 219.5t-177.5 81.5 q-117 0 -178.5 -60.5t-61.5 -168.5q0 -100 65 -159t214.5 -107.5t233.5 -107t123.5 -136t39.5 -181.5q0 -165 -99.5 -266t-278.5 -120v-187h-145v187q-182 17 -285.5 130t-103.5 307z" />
<glyph unicode="%" horiz-adv-x="1470" d="M103 1084v68q0 129 82 212t210 83q130 0 211 -83.5t81 -216.5v-70q0 -129 -82 -211t-208 -82q-127 0 -210.5 82t-83.5 218zM238 1077q0 -76 43 -125.5t116 -49.5q69 0 112 48t43 131v71q0 77 -42.5 127t-115 50t-114.5 -50t-42 -130v-72zM335 172l697 1116l103 -65 l-697 -1115zM798 279v71q0 128 81.5 211t210 83t211 -82.5t82.5 -218.5v-70q0 -128 -82 -211t-209.5 -83t-210.5 82t-83 218zM933 273q0 -77 43 -126.5t116 -49.5q70 0 112.5 48.5t42.5 131.5v73q0 77 -43 126t-114 49q-70 0 -113.5 -48.5t-43.5 -130.5v-73z" />
<glyph unicode="&#x26;" horiz-adv-x="1247" d="M99 383q0 103 57.5 189.5t218.5 200.5q-95 116 -127 186.5t-32 140.5q0 162 96 254t260 92q147 0 243 -85.5t96 -215.5q0 -87 -43.5 -160t-152.5 -153l-104 -77l317 -380q67 128 67 284h163q0 -250 -120 -415l204 -244h-218l-95 113q-72 -65 -169.5 -99t-198.5 -34 q-209 0 -335.5 111t-126.5 292zM280 383q0 -115 75 -185t206 -70q144 0 263 110l-348 417l-32 -24q-164 -120 -164 -248zM397 1105q0 -94 116 -235l115 82q67 47 91.5 89.5t24.5 103.5q0 65 -49 109t-124 44q-80 0 -127 -54.5t-47 -138.5z" />
<glyph unicode="'" horiz-adv-x="349" d="M101 1036l1 469h146v-109l-21 -360h-126z" />
<glyph unicode="(" horiz-adv-x="686" d="M130 579q0 222 59.5 425.5t177 370.5t244.5 235l37 -119q-143 -110 -235 -335.5t-100 -504.5l-1 -84q0 -378 138 -656q83 -167 198 -261l-37 -111q-131 73 -249 243q-232 334 -232 797z" />
<glyph unicode=")" horiz-adv-x="697" d="M37 -350q151 116 242.5 359.5t93.5 540.5v31q0 206 -43 383t-120 317t-173 218l38 111q130 -71 247 -239t175.5 -369.5t58.5 -432.5q0 -218 -57.5 -418.5t-175.5 -370t-248 -241.5z" />
<glyph unicode="*" horiz-adv-x="864" d="M27 1052l46 148l295 -110l-8 337h150l-10 -342l291 108l45 -149l-301 -89l194 -266l-121 -92l-183 282l-176 -275l-123 89l197 270z" />
<glyph unicode="+" horiz-adv-x="1137" d="M76 594v171h398v417h183v-417h397v-171h-397v-451h-183v451h-398z" />
<glyph unicode="," horiz-adv-x="393" d="M28 -214q93 129 96 265v164h178v-142q0 -99 -48.5 -198t-122.5 -159z" />
<glyph unicode="-" horiz-adv-x="553" d="M36 532v148h478v-148h-478z" />
<glyph unicode="." horiz-adv-x="528" d="M141 95q0 47 28 78.5t84 31.5t85 -31.5t29 -78.5q0 -45 -29 -75.5t-85 -30.5t-84 30.5t-28 75.5z" />
<glyph unicode="/" horiz-adv-x="827" d="M18 -122l595 1549h155l-595 -1549h-155z" />
<glyph unicode="0" horiz-adv-x="1127" d="M113 584v242q0 315 108.5 467.5t341.5 152.5q230 0 338.5 -147t111.5 -455v-235q0 -319 -108.5 -474t-340.5 -155q-228 0 -337.5 151.5t-113.5 452.5zM294 580q0 -231 67 -341.5t203 -110.5q135 0 200 104t68 328v297q0 230 -64.5 335.5t-204.5 105.5t-203.5 -105 t-65.5 -323v-290z" />
<glyph unicode="1" horiz-adv-x="1127" d="M167 1074v165l519 195h28v-1434h-182v1208z" />
<glyph unicode="2" horiz-adv-x="1127" d="M91 1006q0 197 127 318.5t340 121.5q199 0 314.5 -104t115.5 -278q0 -210 -269 -501l-382 -415h717v-148h-935v130l493 549q110 125 152 202.5t42 161.5q0 111 -68 183t-180 72q-136 0 -211 -77t-75 -215h-181z" />
<glyph unicode="3" horiz-adv-x="1127" d="M92 376h182q0 -112 73.5 -180t197.5 -68q131 0 200.5 69t69.5 197q0 124 -76.5 191t-220.5 69h-136v148h136q129 2 202.5 67.5t73.5 177.5q0 251 -250 251q-118 0 -188 -67.5t-70 -177.5h-181q0 169 124 281t315 112q202 0 316.5 -106.5t114.5 -296.5q0 -93 -60 -180.5 t-164 -130.5q117 -37 181.5 -123.5t64.5 -210.5q0 -192 -125.5 -305t-326.5 -113t-327 109t-126 287z" />
<glyph unicode="4" horiz-adv-x="1127" d="M52 331v107l639 989h193v-948h198v-148h-198v-331h-182v331h-650zM258 479h444v700l-22 -39z" />
<glyph unicode="5" horiz-adv-x="1127" d="M151 375h171q17 -122 87.5 -184.5t186.5 -62.5q126 0 198 86.5t72 238.5q0 143 -78 229.5t-207 86.5q-118 0 -186 -52l-48 -39l-145 37l72 712h731v-168h-577l-43 -389q105 62 238 62q195 0 310 -129t115 -348q0 -221 -119.5 -348t-332.5 -127q-189 0 -308.5 105 t-136.5 290z" />
<glyph unicode="6" horiz-adv-x="1127" d="M129 543v69q0 394 168.5 602.5t500.5 213.5h32v-154h-33q-212 -4 -337.5 -125.5t-144.5 -341.5q112 129 307 129q186 0 297.5 -131.5t111.5 -338.5q0 -221 -120 -353.5t-322 -132.5q-205 0 -332.5 157.5t-127.5 405.5zM312 522q0 -176 79 -284t198 -108q122 0 192.5 90.5 t70.5 236.5q0 147 -71 237.5t-189 90.5q-93 0 -171.5 -56t-108.5 -140v-67z" />
<glyph unicode="7" horiz-adv-x="1127" d="M75 1278v149h965v-102l-591 -1325h-190l589 1278h-773z" />
<glyph unicode="8" horiz-adv-x="1127" d="M110 385q0 116 63 209t175 141q-95 47 -150 130.5t-55 188.5q0 181 115.5 286.5t305.5 105.5q188 0 304 -105.5t116 -286.5q0 -106 -56.5 -189.5t-152.5 -130.5q112 -48 177 -140t65 -209q0 -185 -125 -295t-328 -110q-206 0 -330 110.5t-124 294.5zM291 389.5 q0 -121.5 72 -191.5t201 -70q127 0 199.5 70.5t72.5 190.5t-76 195.5t-198.5 75.5t-196.5 -74.5t-74 -196zM324 1052q0 -109 65.5 -176.5t174 -67.5t174 67.5t65.5 176t-68 177.5t-171 69q-107 0 -173.5 -66.5t-66.5 -179.5z" />
<glyph unicode="9" horiz-adv-x="1127" d="M98 953q0 143 54.5 257.5t154.5 175t233 60.5q212 0 334 -158t122 -431v-53q0 -417 -165 -608.5t-497 -196.5h-35v153h38q225 4 345.5 117t130.5 358q-56 -67 -135 -108.5t-173 -41.5q-124 0 -215.5 61t-141.5 171t-50 244zM276 962q0 -146 70 -240.5t188 -94.5 q91 0 168 56t112 138v73q0 178 -77 290t-196 112q-120 0 -192.5 -92t-72.5 -242z" />
<glyph unicode=":" horiz-adv-x="486" d="M131 95q0 47 28 78.5t84 31.5t85 -31.5t29 -78.5q0 -45 -29 -75.5t-85 -30.5t-84 30.5t-28 75.5zM132 960q0 47 28 78.5t84 31.5t85 -31.5t29 -78.5q0 -45 -29 -75.5t-85 -30.5t-84 30.5t-28 75.5z" />
<glyph unicode=";" horiz-adv-x="424" d="M40 -214q93 129 96 265v164h178v-142q0 -99 -48.5 -198t-122.5 -159zM109 960q0 47 28 78.5t84 31.5t85 -31.5t29 -78.5q0 -45 -29 -75.5t-85 -30.5t-84 30.5t-28 75.5z" />
<glyph unicode="&#x3c;" horiz-adv-x="1020" d="M71 563v143l801 370v-192l-613 -253l613 -248v-192z" />
<glyph unicode="=" horiz-adv-x="1101" d="M149 391v157h817v-157h-817zM149 798v158h817v-158h-817z" />
<glyph unicode="&#x3e;" horiz-adv-x="1048" d="M131 192v188l648 257l-648 254v186l837 -370v-143z" />
<glyph unicode="?" horiz-adv-x="947" d="M74 1093q1 158 112.5 255.5t289.5 97.5q186 0 289 -99t103 -273q0 -171 -158 -338l-107 -106q-72 -79 -72 -228h-181q2 116 26.5 184t99.5 150l129 132q82 93 82 200q0 103 -54 161.5t-157 58.5q-100 0 -160.5 -53t-60.5 -142h-181zM342 91q0 44 27 74t80 30t80.5 -30 t27.5 -74t-27.5 -73t-80.5 -29t-80 29t-27 73z" />
<glyph unicode="@" horiz-adv-x="1802" d="M116 468q11 270 120 485t295 332t421 117q244 0 418 -109.5t259.5 -316.5t73.5 -484q-12 -237 -117.5 -374.5t-283.5 -137.5q-183 0 -235 165q-53 -83 -121 -124t-140 -41q-140 0 -211.5 114t-52.5 315q15 161 74 288t152.5 199.5t196.5 72.5q80 0 142.5 -21t141.5 -83 l-51 -543q-19 -226 125 -226q111 0 179.5 110t74.5 286q18 381 -142 581t-487 200q-197 0 -350 -97.5t-241 -281.5t-99 -426q-12 -243 58.5 -421.5t215 -273t349.5 -94.5q88 0 177 21.5t147 55.5l37 -113q-61 -38 -161.5 -62.5t-203.5 -24.5q-245 0 -421.5 110.5t-264 317.5 t-75.5 484zM698 409q-14 -139 25.5 -213.5t126.5 -74.5q58 0 112.5 49.5t90.5 143.5l1 8l45 493q-55 29 -118 29q-115 0 -190 -116.5t-93 -318.5z" />
<glyph unicode="A" d="M27 0l545 1427h165l546 -1427h-193l-136 372h-598l-135 -372h-194zM413 527h485l-243 668z" />
<glyph unicode="B" horiz-adv-x="1249" d="M166 0v1427h466q232 0 349.5 -96t117.5 -284q0 -100 -57 -177t-155 -119q116 -33 183 -123.5t67 -215.5q0 -192 -124.5 -302t-351.5 -110h-495zM354 154h310q132 0 208 68t76 188q0 257 -281 257h-313v-513zM354 818h284q123 0 197 62t74 168q0 117 -68.5 170.5 t-208.5 53.5h-278v-454z" />
<glyph unicode="C" horiz-adv-x="1306" d="M117 647v137q0 199 71 350t201 231.5t302 80.5q227 0 364.5 -126.5t159.5 -351.5h-189q-24 171 -106 247.5t-229 76.5q-180 0 -282.5 -133.5t-102.5 -379.5v-138q0 -232 97 -369.5t271 -137.5q157 0 241 71t111 248h189q-26 -227 -167 -350t-374 -123q-253 0 -405 181.5 t-152 485.5z" />
<glyph unicode="D" horiz-adv-x="1316" d="M166 0v1427h402q187 0 330 -82.5t221 -234.5t79 -349v-91q0 -202 -78 -353.5t-222.5 -233t-336.5 -83.5h-395zM354 154h198q217 0 338 135t121 385v84q0 243 -114 377.5t-324 136.5h-219v-1118z" />
<glyph unicode="E" horiz-adv-x="1140" d="M166 0v1427h896v-155h-708v-459h618v-153h-618v-506h718v-154h-906z" />
<glyph unicode="F" horiz-adv-x="1109" d="M166 0v1427h884v-155h-696v-488h599v-154h-599v-630h-188z" />
<glyph unicode="G" horiz-adv-x="1367" d="M120 645v124q0 323 150 500t423 177q223 0 359.5 -114t166.5 -324h-188q-53 284 -337 284q-189 0 -286.5 -133t-98.5 -385v-116q0 -241 109.5 -382.5t296.5 -141.5q106 0 185.5 23.5t131.5 79.5v321h-330v152h517v-523q-72 -104 -202 -155.5t-303 -51.5q-174 0 -309 82 t-209 233t-76 350z" />
<glyph unicode="H" horiz-adv-x="1430" d="M166 0v1427h188v-614h719v614h189v-1427h-189v660h-719v-660h-188z" />
<glyph unicode="I" horiz-adv-x="545" d="M179 0v1427h189v-1427h-189z" />
<glyph unicode="J" horiz-adv-x="1107" d="M52 394h188q0 -123 67 -191.5t195 -68.5q116 0 188 73.5t73 206.5v1013h190v-1011q0 -204 -123 -320t-328 -116q-213 0 -331.5 109t-118.5 305z" />
<glyph unicode="K" horiz-adv-x="1258" d="M166 0v1427h188v-706l634 706h227l-561 -630l605 -797h-225l-506 663l-174 -181v-482h-188z" />
<glyph unicode="L" horiz-adv-x="1079" d="M166 0v1427h189v-1273h676v-154h-865z" />
<glyph unicode="M" horiz-adv-x="1752" d="M166 0v1427h243l466 -1164l467 1164h244v-1427h-189v556l18 599l-468 -1155h-144l-468 1152l19 -596v-556h-188z" />
<glyph unicode="N" horiz-adv-x="1430" d="M166 0v1427h189l720 -1105v1105h187v-1427h-189l-718 1100v-1100h-189z" />
<glyph unicode="O" horiz-adv-x="1379" d="M116 655v103q0 205 71.5 363t202 241.5t299.5 83.5q171 0 302 -82.5t201.5 -240t70.5 -365.5v-91q0 -209 -70.5 -365.5t-200 -239t-301.5 -82.5q-169 0 -299 83t-202 236.5t-74 355.5zM303 667q0 -246 103.5 -386.5t284.5 -140.5q182 0 282 133t103 381v106 q0 253 -102 389t-285 136q-178 0 -280.5 -136t-105.5 -377v-105z" />
<glyph unicode="P" horiz-adv-x="1266" d="M166 0v1427h526q234 0 367 -119.5t133 -316.5q0 -208 -130 -320t-372 -112h-336v-559h-188zM354 712h338q151 0 231.5 71.5t80.5 205.5q0 127 -80.5 203.5t-220.5 79.5h-349v-560z" />
<glyph unicode="Q" horiz-adv-x="1379" d="M107 655v103q0 205 71.5 363t202.5 241.5t299 83.5q173 0 303.5 -83t201 -239.5t70.5 -364.5v-92q0 -206 -65.5 -355.5t-184.5 -234.5l255 -199l-128 -119l-301 239q-71 -18 -149 -18q-168 0 -298.5 83t-202.5 236.5t-74 355.5zM295 667q0 -245 102.5 -386t284.5 -141 t282 133t103 381v106q0 251 -100.5 388t-286.5 137q-177 0 -279.5 -136t-105.5 -377v-105z" />
<glyph unicode="R" horiz-adv-x="1235" d="M165 0v1427h472q241 0 371 -110t130 -319q0 -134 -72 -233t-201 -148l335 -605v-12h-201l-310 577h-335v-577h-189zM354 731h289q140 0 223 72.5t83 194.5q0 132 -79 202.5t-228 71.5h-288v-541z" />
<glyph unicode="S" horiz-adv-x="1190" d="M78 414h190q0 -130 95.5 -205t254.5 -75q149 0 228.5 61t79.5 166t-73.5 162t-266.5 113q-242 70 -352.5 171t-110.5 250q0 169 135 279t351 110q147 0 262 -56.5t178 -156.5t63 -219h-189q0 130 -82 204t-232 74q-140 0 -217.5 -61.5t-77.5 -170.5q0 -87 74 -147 t251.5 -110t278 -110.5t149 -141t48.5 -188.5q0 -174 -135 -278.5t-362 -104.5q-147 0 -274 56.5t-196.5 154.5t-69.5 223z" />
<glyph unicode="T" horiz-adv-x="1197" d="M48 1272v155h1104v-155h-459v-1272h-187v1272h-458z" />
<glyph unicode="U" horiz-adv-x="1301" d="M137 455v972h186v-966q0 -155 85.5 -241t243.5 -86q159 0 244 85.5t85 240.5v967h189v-970q-1 -202 -127 -330.5t-341 -144.5l-50 -2q-235 0 -374 126.5t-141 348.5z" />
<glyph unicode="V" horiz-adv-x="1276" d="M27 1427h205l406 -1177l408 1177h205l-529 -1427h-166z" />
<glyph unicode="W" horiz-adv-x="1780" d="M60 1427h188l225 -977l28 -188l40 169l282 996h159l275 -996l40 -172l30 192l221 976h190l-346 -1427h-172l-294 1040l-22 109l-23 -109l-305 -1040h-171z" />
<glyph unicode="X" horiz-adv-x="1258" d="M56 0l462 719l-451 708h220l344 -547l342 547h222l-451 -708l461 -719h-223l-351 557l-353 -557h-222z" />
<glyph unicode="Y" horiz-adv-x="1205" d="M15 1427h215l371 -717l372 717h214l-492 -895v-532h-188v532z" />
<glyph unicode="Z" horiz-adv-x="1201" d="M84 0v141l782 1131h-769v155h995v-138l-785 -1135h816v-154h-1039z" />
<glyph unicode="[" horiz-adv-x="532" d="M143 -306v1937h370v-149h-188v-1639h188v-149h-370z" />
<glyph unicode="\" horiz-adv-x="823" d="M39 1427h173l596 -1549h-173z" />
<glyph unicode="]" horiz-adv-x="532" d="M9 -157h189v1639h-189v149h370v-1937h-370v149z" />
<glyph unicode="^" horiz-adv-x="838" d="M63 714l293 713h124l292 -713h-167l-188 473l-186 -473h-168z" />
<glyph unicode="_" horiz-adv-x="905" d="M4 0h898v-148h-898v148z" />
<glyph unicode="`" horiz-adv-x="620" d="M56 1503h218l191 -288h-156z" />
<glyph unicode="a" horiz-adv-x="1091" d="M107 294q0 166 126 257.5t354 91.5h176v83q0 95 -56.5 151.5t-167.5 56.5q-97 0 -162.5 -49t-65.5 -119h-183q0 80 56.5 154t153 117t212.5 43q183 0 287 -91.5t108 -252.5v-488q0 -146 37 -232v-16h-190q-16 31 -26 112q-126 -132 -301 -132q-157 0 -257.5 89 t-100.5 225zM288 319q0 -85 57 -133t146 -48q85 0 161.5 44t110.5 115v217h-142q-333 0 -333 -195z" />
<glyph unicode="b" horiz-adv-x="1126" d="M137 0v1505h181v-561q110 136 303 136t303.5 -146t110.5 -400v-16q0 -243 -112 -390.5t-300 -147.5q-201 0 -310 142l-9 -122h-167zM318 301q84 -167 260 -167q131 0 203.5 101t72.5 304q0 185 -72 286t-206 101q-179 0 -258 -166v-459z" />
<glyph unicode="c" horiz-adv-x="1050" d="M90 520v31q0 155 57 275.5t163 187t252 66.5q178 0 296 -107t126 -277h-172q-7 103 -77.5 169t-172.5 66q-139 0 -215 -99.5t-76 -287.5v-34q0 -184 75.5 -283t216.5 -99q97 0 169.5 59t79.5 147h172q-5 -91 -63 -173.5t-154.5 -131.5t-203.5 -49q-217 0 -345 145 t-128 395z" />
<glyph unicode="d" horiz-adv-x="1131" d="M93 525v14q0 244 115.5 392.5t303.5 148.5q186 0 295 -127v552h181v-1505h-167l-9 114q-108 -134 -302 -134q-185 0 -301 151t-116 394zM274 518q0 -180 74.5 -282t206.5 -102q172 0 252 155v487q-82 150 -250 150q-134 0 -208.5 -103t-74.5 -305z" />
<glyph unicode="e" horiz-adv-x="1063" d="M91 501v33q0 158 60.5 282t168.5 194t235 70q206 0 321 -136t115 -390v-76h-719q4 -157 92 -253.5t223 -96.5q96 0 162.5 39.5t116.5 103.5l111 -86q-133 -205 -400 -205q-215 0 -350.5 142t-135.5 379zM278 627h531v14q-7 138 -74 214t-180 76q-110 0 -184.5 -80 t-92.5 -224z" />
<glyph unicode="f" horiz-adv-x="696" d="M59 920v140h167v109q0 171 91.5 264t257.5 93q63 0 125 -17l-10 -147q-46 9 -98 9q-88 0 -136 -51.5t-48 -147.5v-112h226v-140h-226v-920h-182v920h-167z" />
<glyph unicode="g" horiz-adv-x="1126" d="M94 539q0 248 114.5 394.5t304.5 146.5q194 0 302 -137l9 117h166v-1035q0 -205 -122 -323.5t-328 -118.5q-115 0 -224.5 49t-167.5 134l94 109q117 -145 285 -145q133 0 207 74.5t74 210.5v91q-109 -126 -297 -126q-187 0 -302 150t-115 409zM276 518 q0 -179 73.5 -281.5t206.5 -102.5q171 0 252 156v484q-84 152 -250 152q-133 0 -207.5 -103t-74.5 -305z" />
<glyph unicode="h" horiz-adv-x="1105" d="M137 0v1505h181v-573q121 148 314 148q336 0 339 -379v-701h-181v702q-1 114 -52.5 169t-160.5 55q-88 0 -154.5 -47t-104.5 -123v-756h-181z" />
<glyph unicode="i" horiz-adv-x="487" d="M138 1342q0 44 27 74t80 30t80.5 -30t27.5 -74t-27.5 -73.5t-80.5 -29.5t-80 29.5t-27 73.5zM153 0v1060h181v-1060h-181z" />
<glyph unicode="j" horiz-adv-x="479" d="M-64 -266q32 -7 83 -7q60 0 92 32.5t32 114.5v1186h181v-1182q0 -306 -277 -306q-60 0 -111 17v145zM124 1342q0 43 27 73.5t79 30.5q53 0 80.5 -30t27.5 -74t-27.5 -73.5t-80.5 -29.5t-79.5 29.5t-26.5 73.5z" />
<glyph unicode="k" horiz-adv-x="1017" d="M138 0v1505h181v-910l97 116l331 349h220l-412 -443l460 -617h-212l-370 491l-114 -119v-372h-181z" />
<glyph unicode="l" horiz-adv-x="487" d="M153 0v1505h181v-1505h-181z" />
<glyph unicode="m" horiz-adv-x="1759" d="M136 0v1060h172l5 -117q116 137 314 137q223 0 303 -171q53 77 137.5 124t200.5 47q349 0 355 -370v-710h-181v700q0 113 -52 169.5t-175 56.5q-101 0 -167.5 -60t-77.5 -162v-704h-182v695q0 231 -226 231q-179 0 -244 -152v-774h-182z" />
<glyph unicode="n" horiz-adv-x="1107" d="M137 0v1060h172l6 -133q121 153 317 153q336 0 339 -379v-701h-181v702q-1 114 -52.5 169t-160.5 55q-88 0 -154.5 -47t-104.5 -123v-756h-181z" />
<glyph unicode="o" horiz-adv-x="1144" d="M89 527v13q0 156 61.5 280.5t170.5 192t249 67.5q217 0 350.5 -150t133.5 -399v-13q0 -154 -59 -277t-169.5 -192t-253.5 -69q-215 0 -349 150t-134 397zM271 518q0 -176 82 -283t219 -107q138 0 219.5 108.5t81.5 303.5q0 174 -82.5 282.5t-220.5 108.5 q-134 0 -216.5 -107t-82.5 -306z" />
<glyph unicode="p" horiz-adv-x="1126" d="M137 -408v1468h166l9 -117q110 137 307 137q191 0 302.5 -144t111.5 -401v-17q0 -242 -111 -390t-300 -148q-193 0 -304 123v-511h-181zM318 273q82 -145 249 -145q131 0 208 103.5t77 307.5q0 179 -76.5 283t-210.5 104q-164 0 -247 -146v-507z" />
<glyph unicode="q" horiz-adv-x="1140" d="M93 526v13q0 250 114.5 395.5t307.5 145.5q189 0 297 -126l8 106h167v-1468h-181v506q-110 -118 -292 -118q-193 0 -307 149.5t-114 396.5zM274 518q0 -182 77 -286t208 -104q161 0 247 143v520q-87 140 -245 140q-132 0 -209.5 -104.5t-77.5 -308.5z" />
<glyph unicode="r" horiz-adv-x="679" d="M137 0v1060h177l3 -122q89 142 252 142q53 0 81 -14v-168q-41 7 -89 7q-179 0 -243 -152v-753h-181z" />
<glyph unicode="s" horiz-adv-x="1034" d="M93 326h181q5 -91 73.5 -144.5t179.5 -53.5q103 0 165.5 42t62.5 111q0 74 -55.5 114.5t-193.5 70t-218.5 70.5t-119.5 98t-39 135q0 131 110.5 221t281.5 90q181 0 293 -93t112 -238h-182q0 74 -63.5 128t-159.5 54q-99 0 -154.5 -43t-55.5 -113q0 -65 52 -98.5 t187.5 -64t220 -72.5t125 -101.5t40.5 -144.5q0 -142 -113.5 -228t-295.5 -86q-127 0 -225 45.5t-153.5 126t-55.5 174.5z" />
<glyph unicode="t" horiz-adv-x="655" d="M9 920v140h193v257h181v-257h198v-140h-198v-657q0 -64 26.5 -96t90.5 -32q31 0 86 12v-147q-72 -20 -139 -20q-122 0 -183.5 73.5t-61.5 209.5v657h-193z" />
<glyph unicode="u" horiz-adv-x="1106" d="M133 370v690h182v-685q0 -241 196 -241q207 0 276 155v771h181v-1060h-172l-4 105q-106 -125 -311 -125q-169 0 -258 98.5t-90 291.5z" />
<glyph unicode="v" horiz-adv-x="972" d="M32 1060h186l269 -814l263 814h185l-380 -1060h-139z" />
<glyph unicode="w" horiz-adv-x="1508" d="M42 1060h180l209 -793l247 793h146l252 -810l204 810h181l-309 -1060h-147l-257 804l-251 -804h-147z" />
<glyph unicode="x" horiz-adv-x="994" d="M40 0l358 536l-347 524h210l232 -387l235 387h212l-347 -524l358 -536h-210l-245 397l-245 -397h-211z" />
<glyph unicode="y" horiz-adv-x="949" d="M22 1060h198l264 -794l247 794h194l-426 -1224q-99 -264 -315 -264l-34 3l-68 12v147l49 -4q92 0 143.5 37.5t85.5 136.5l40 108z" />
<glyph unicode="z" horiz-adv-x="994" d="M86 0v133l585 777h-576v150h804v-128l-591 -784h620v-148h-842z" />
<glyph unicode="{" horiz-adv-x="679" d="M63 532v142q207 0 207 237v204q2 180 88 290t261 160l38 -113q-205 -65 -205 -342v-198q0 -222 -164 -309q164 -89 164 -313v-202q3 -269 205 -334l-38 -113q-173 49 -261 161.5t-88 296.5v195q0 238 -207 238z" />
<glyph unicode="|" horiz-adv-x="489" d="M172 -265v1692h146v-1692h-146z" />
<glyph unicode="}" horiz-adv-x="679" d="M19 -246q199 64 205 324v216q0 226 178 309q-178 80 -178 308v199q0 277 -204 342l37 113q173 -49 260.5 -159t88.5 -292v-206q0 -234 207 -234v-142q-207 0 -207 -238v-198q0 -184 -89 -295t-260 -160z" />
<glyph unicode="~" horiz-adv-x="1365" d="M128 427q0 157 90.5 258t226.5 101q74 0 143 -31.5t155 -110.5t149 -88l28 -2q75 0 121.5 56.5t46.5 149.5l150 1q0 -154 -92 -260.5t-226 -106.5q-70 0 -133 26t-145.5 98.5t-119 90t-77.5 17.5q-77 0 -118 -52.5t-41 -144.5z" />
<glyph unicode="&#xa1;" horiz-adv-x="489" d="M136 976q0 44 27.5 73.5t80.5 29.5t80 -29.5t27 -73.5t-27 -74.5t-80 -30.5t-80.5 30.5t-27.5 74.5zM154 -353l13 1023h164l13 -1023h-190z" />
<glyph unicode="&#xa2;" horiz-adv-x="1097" d="M103 516v35q0 208 99 347.5t272 171.5v222h182v-219q147 -22 241 -126t100 -251h-172q-8 103 -78 169t-173 66q-138 0 -214 -99.5t-76 -287.5v-34q0 -184 76 -283t214 -99q98 0 170.5 59.5t80.5 146.5h172q-6 -123 -103 -221.5t-238 -124.5v-228h-182v229 q-175 34 -273 173t-98 354z" />
<glyph unicode="&#xa3;" horiz-adv-x="1166" d="M89 610v153h157l-9 255q0 195 120 311.5t316 116.5q186 0 295 -103.5t109 -277.5h-187q0 105 -62.5 166t-170.5 61q-103 0 -167 -75.5t-64 -198.5l9 -255h313v-153h-308l8 -216q0 -151 -61 -240h718l-1 -154h-1011v154h76q39 9 63.5 73t26.5 158v8l-8 217h-162z" />
<glyph unicode="&#xa4;" horiz-adv-x="1430" d="M103 107l136 138q-102 153 -102 351q0 202 110 361l-144 148l127 134l144 -147q155 117 346 117q192 0 348 -118l146 149l130 -135l-148 -150q107 -160 107 -359q0 -192 -100 -348l141 -141l-130 -133l-133 136q-156 -130 -361 -130q-203 0 -358 128l-132 -133zM305 596 q0 -121 56 -224.5t152.5 -163.5t207 -60t206.5 60.5t151.5 163.5t55.5 224q0 119 -55.5 222.5t-152 163t-206.5 59.5t-206.5 -59t-152.5 -163t-56 -223z" />
<glyph unicode="&#xa5;" horiz-adv-x="1215" d="M30 1427h216l356 -661l356 661h215l-410 -706h306v-122h-376v-162h376v-121h-376v-316h-189v316h-371v121h371v162h-371v122h307z" />
<glyph unicode="&#xa6;" horiz-adv-x="481" d="M144 -265v776h182v-776h-182zM144 684v743h182v-743h-182z" />
<glyph unicode="&#xa7;" horiz-adv-x="1230" d="M88 -63l182 2q0 -127 88.5 -201t241.5 -74q133 0 214.5 57.5t81.5 151.5q0 87 -69.5 138.5t-274.5 111.5q-179 48 -273 102t-139.5 130t-45.5 185q0 182 178 268q-64 49 -99 115.5t-35 164.5q0 162 131 260t348 98q228 0 355.5 -110.5t127.5 -311.5h-182q0 123 -82 198.5 t-219 75.5q-139 0 -218 -56t-79 -152q0 -68 27.5 -107t94 -71t207 -71t223.5 -74.5t138 -83t83.5 -110.5t28.5 -151q0 -185 -182 -268q67 -48 102.5 -114.5t35.5 -164.5q0 -165 -127.5 -262.5t-350.5 -97.5q-110 0 -208.5 27.5t-167.5 83.5q-136 110 -136 311zM276 542 q0 -69 26.5 -108t92 -71.5t204.5 -72.5t182 -57q77 20 118 69.5t41 116.5q0 87 -68 140t-282 118q-88 24 -162 50q-78 -18 -115 -67.5t-37 -117.5z" />
<glyph unicode="&#xa8;" horiz-adv-x="838" d="M100 1344q0 44 27 73.5t80 29.5t80.5 -29.5t27.5 -74t-27.5 -73.5t-80.5 -29t-80 29t-27 74zM521 1342q0 44 27 74t80 30t80.5 -30t27.5 -74t-27.5 -73.5t-80.5 -29.5t-80 29.5t-27 73.5z" />
<glyph unicode="&#xa9;" horiz-adv-x="1576" d="M89 714q0 198 91.5 367.5t254 267t350.5 97.5t350 -97.5t253.5 -267t91.5 -367.5q0 -193 -88.5 -361.5t-250.5 -271t-356 -102.5q-193 0 -355 101.5t-251.5 270t-89.5 363.5zM202 714q0 -168 78.5 -311.5t213 -225t291.5 -81.5t291 81.5t212.5 225t78.5 311.5 q0 167 -77.5 309t-212 224t-292.5 82q-157 0 -292 -81t-213 -224t-78 -310zM433 662v108q0 173 93.5 276.5t245.5 103.5q157 0 241.5 -80.5t84.5 -226.5h-143q0 97 -47 138.5t-136 41.5q-92 0 -145 -67.5t-53 -188.5v-110q0 -118 53 -185.5t145 -67.5q90 0 136 41t46 140 h143q0 -150 -85 -229t-240 -79q-154 0 -246.5 103.5t-92.5 281.5z" />
<glyph unicode="&#xaa;" horiz-adv-x="896" d="M144 900q0 108 82 167t250 59h106v51q0 132 -121 132q-68 0 -106.5 -26.5t-38.5 -76.5l-158 12q0 101 84 164.5t219 63.5q130 0 205.5 -70t75.5 -201v-310q0 -95 25 -174h-161q-12 33 -18 70q-74 -84 -200 -84q-117 0 -180.5 61t-63.5 162zM304 904q0 -93 122 -93 q42 0 85.5 20t70.5 46v139h-110q-81 -1 -124.5 -31.5t-43.5 -80.5z" />
<glyph unicode="&#xab;" horiz-adv-x="941" d="M100 528v19l289 381h138l-253 -391l253 -389h-138zM424 528v19l289 381h138l-253 -391l253 -389h-138z" />
<glyph unicode="&#xac;" horiz-adv-x="1111" d="M124 626v158h815v-416h-182v258h-633z" />
<glyph unicode="&#xad;" horiz-adv-x="553" d="M36 532v148h478v-148h-478z" />
<glyph unicode="&#xae;" horiz-adv-x="1577" d="M88 714q0 198 91.5 367.5t254 267t350.5 97.5t350 -97.5t253.5 -267t91.5 -367.5q0 -193 -88.5 -361.5t-250.5 -271t-356 -102.5q-193 0 -355 101.5t-251.5 270t-89.5 363.5zM201 714q0 -168 78.5 -311.5t213 -225t291.5 -81.5q158 0 293 83t212 225t77 310t-77 309.5 t-212 223.5t-293 82q-157 0 -292 -81t-213 -224t-78 -310zM502 310v832h270q150 0 233 -64.5t83 -186.5q0 -121 -126 -184q120 -49 121 -200v-60q0 -84 17 -122v-15h-143q-13 35 -13 125.5t-3 107.5q-16 94 -129 98h-172v-331h-138zM640 766h153q70 2 113.5 34.5t43.5 85.5 q0 71 -38.5 101t-136.5 30h-135v-251z" />
<glyph unicode="&#xaf;" horiz-adv-x="919" d="M118 1287v140h699v-140h-699z" />
<glyph unicode="&#xb0;" horiz-adv-x="749" d="M127 1192q0 102 73 178t177 76q102 0 174 -75.5t72 -178.5q0 -104 -72 -177.5t-174 -73.5q-103 0 -176.5 73.5t-73.5 177.5zM250 1192q0 -53 36.5 -89.5t90.5 -36.5q53 0 89.5 35t36.5 91q0 57 -36.5 93.5t-89.5 36.5q-54 0 -90.5 -38.5t-36.5 -91.5z" />
<glyph unicode="&#xb1;" horiz-adv-x="1072" d="M95 689v148h377v405h164v-405h357v-148h-357v-406h-164v406h-377zM132 0v149h819v-149h-819z" />
<glyph unicode="&#xb2;" horiz-adv-x="735" d="M65 1181q0 112 81.5 184.5t211 72.5t205 -62.5t75.5 -170.5q0 -102 -105 -206l-82 -78l-173 -142h391v-125h-587v106l294 276q107 100 107 167q0 48 -31.5 78t-89.5 30q-74 0 -108.5 -37t-34.5 -93h-154z" />
<glyph unicode="&#xb3;" horiz-adv-x="735" d="M61 870h155q0 -44 38.5 -73.5t104.5 -29.5q68 0 104 29.5t36 79.5q0 111 -153 113h-86v113h82q73 0 108 30t35 77q0 44 -31 72.5t-99 28.5q-56 0 -93 -25t-37 -65h-153q0 96 79.5 156.5t201.5 60.5q134 0 210.5 -59.5t76.5 -161.5q0 -54 -34.5 -98.5t-98.5 -68.5 q146 -41 146 -181q0 -104 -83.5 -165t-216.5 -61q-130 0 -211 61.5t-81 166.5z" />
<glyph unicode="&#xb4;" horiz-adv-x="629" d="M121 1215l189 288h219l-262 -288h-146z" />
<glyph unicode="&#xb5;" horiz-adv-x="1136" d="M151 -408v1468h181v-620q1 -160 51.5 -236.5t164.5 -76.5q195 0 256 149v784h182v-1060h-164l-9 113q-91 -133 -257 -133q-144 0 -224 72v-460h-181z" />
<glyph unicode="&#xb6;" horiz-adv-x="980" d="M66 968q0 209 130 334t356 125h263v-1427h-182v510h-82q-226 0 -355.5 124.5t-129.5 333.5z" />
<glyph unicode="&#xb7;" horiz-adv-x="523" d="M144 714q0 47 28 78.5t84 31.5t84.5 -31.5t28.5 -78.5q0 -46 -28.5 -76.5t-84.5 -30.5t-84 30.5t-28 76.5z" />
<glyph unicode="&#xb8;" horiz-adv-x="496" d="M114 -321q77 0 119.5 25.5t42.5 71.5q0 43 -31 63.5t-127 29.5l31 131h130l-11 -51q149 -26 149 -169q0 -96 -78 -151t-218 -55z" />
<glyph unicode="&#xb9;" horiz-adv-x="735" d="M120 1194v125l347 115h18v-773h-154v589z" />
<glyph unicode="&#xba;" horiz-adv-x="912" d="M120 1028v73q0 154 92 249.5t243 95.5q152 0 244 -94.5t92 -256.5v-73q0 -156 -91.5 -251t-242.5 -95t-244 95t-93 257zM279 1022q0 -98 47.5 -154t130.5 -56q81 0 127.5 56.5t46.5 155.5v77q0 97 -47.5 152.5t-128.5 55.5q-80 0 -127 -54t-49 -149v-84z" />
<glyph unicode="&#xbb;" horiz-adv-x="940" d="M100 149l253 390l-253 391h139l289 -381v-19l-289 -381h-139zM442 149l253 390l-253 391h139l289 -381v-19l-289 -381h-139z" />
<glyph unicode="&#xbc;" horiz-adv-x="1470" d="M84 1184v126l347 114h18v-773h-154v589zM332 180l697 1116l102 -65l-697 -1115zM764 266l369 507h158v-480h105v-127h-105v-166h-154v166h-367zM919 293h218v283l-16 -27z" />
<glyph unicode="&#xbd;" horiz-adv-x="1557" d="M79 1184v126l347 114h18v-773h-154v589zM289 180l697 1116l102 -65l-697 -1115zM847 527q0 112 81.5 184.5t211 72.5t205 -62t75.5 -170q0 -102 -105 -207l-82 -77l-173 -143h391v-125h-587v106l294 276q107 100 107 168q0 48 -31.5 78t-89.5 30q-74 0 -108.5 -37.5 t-34.5 -93.5h-154z" />
<glyph unicode="&#xbe;" horiz-adv-x="1561" d="M109 872h155q0 -45 38.5 -74t104.5 -29q68 0 104 29t36 79q0 111 -153 113h-86v114h82q73 0 108 30t35 77q0 44 -31 72.5t-99 28.5q-56 0 -93 -25t-37 -66h-153q0 96 79.5 156.5t201.5 60.5q134 0 210.5 -59.5t76.5 -160.5q0 -54 -34.5 -99t-98.5 -69q146 -40 146 -180 q0 -104 -83.5 -165.5t-216.5 -61.5q-130 0 -211 62t-81 167zM457 180l697 1116l102 -65l-697 -1115zM855 266l369 507h158v-480h105v-127h-105v-166h-154v166h-367zM1010 293h218v283l-16 -27z" />
<glyph unicode="&#xbf;" horiz-adv-x="949" d="M67 -5q0 170 156 341l107 111q65 76 65 219h181q-1 -103 -21 -165.5t-67 -120.5t-137 -152.5t-101 -191.5l-2 -36q0 -107 57 -163.5t163 -56.5q98 0 159.5 55.5t61.5 144.5h181q-2 -157 -112 -257t-290 -100q-192 0 -296.5 98.5t-104.5 273.5zM369 977q0 43 27.5 72.5 t80.5 29.5t80 -29.5t27 -72.5q0 -44 -27 -74.5t-80 -30.5t-80.5 30.5t-27.5 74.5z" />
<glyph unicode="&#xc0;" d="M27 0l545 1427h165l546 -1427h-193l-136 372h-598l-135 -372h-194zM354 1807h218l191 -288h-156zM413 527h485l-243 668z" />
<glyph unicode="&#xc1;" d="M27 0l545 1427h165l546 -1427h-193l-136 372h-598l-135 -372h-194zM413 527h485l-243 668zM559 1519l189 288h219l-262 -288h-146z" />
<glyph unicode="&#xc2;" d="M27 0l545 1427h165l546 -1427h-193l-136 372h-598l-135 -372h-194zM363 1531v12l241 266h109l243 -268v-10h-150l-147 167l-146 -167h-150zM413 527h485l-243 668z" />
<glyph unicode="&#xc3;" d="M27 0l545 1427h165l546 -1427h-193l-136 372h-598l-135 -372h-194zM314 1531q0 105 59 173.5t150 68.5q35 0 62 -9.5t74.5 -38t72.5 -37.5t55 -9q42 0 70 33.5t28 77.5l121 -12q0 -106 -60 -171.5t-150 -65.5q-40 0 -69.5 9.5t-77 40t-68.5 37t-49 6.5q-40 0 -68.5 -31 t-28.5 -79zM413 527h485l-243 668z" />
<glyph unicode="&#xc4;" d="M27 0l545 1427h165l546 -1427h-193l-136 372h-598l-135 -372h-194zM344 1648q0 44 27 73.5t80 29.5t80.5 -29.5t27.5 -74t-27.5 -73.5t-80.5 -29t-80 29t-27 74zM413 527h485l-243 668zM765 1646q0 44 27 74t80 30t80.5 -30t27.5 -74t-27.5 -73.5t-80.5 -29.5t-80 29.5 t-27 73.5z" />
<glyph unicode="&#xc5;" d="M27 0l545 1427h165l546 -1427h-193l-136 372h-598l-135 -372h-194zM413 527h485l-243 668zM448 1695q0 84 60 144t150 60t150.5 -60t60.5 -144q0 -85 -61 -142.5t-150 -57.5q-90 0 -150 58t-60 142zM545 1695q0 -46 32.5 -79.5t80.5 -33.5q47 0 80.5 32.5t33.5 80.5 t-33 81.5t-81 33.5q-49 0 -81 -34t-32 -81z" />
<glyph unicode="&#xc6;" horiz-adv-x="1875" d="M-14 0l863 1427h932v-149h-678l20 -462h578v-148h-572l22 -520h690v-148h-865l-15 346h-552l-201 -346h-222zM508 516h447l-31 719z" />
<glyph unicode="&#xc7;" horiz-adv-x="1306" d="M117 647v137q0 199 71 350t201 231.5t302 80.5q227 0 364.5 -126.5t159.5 -351.5h-189q-24 171 -106 247.5t-229 76.5q-180 0 -282.5 -133.5t-102.5 -379.5v-138q0 -232 97 -369.5t271 -137.5q157 0 241 71t111 248h189q-26 -227 -167 -350t-374 -123q-253 0 -405 181.5 t-152 485.5zM571 -330q77 0 119.5 25.5t42.5 71.5q0 43 -31 63.5t-127 29.5l31 131h130l-11 -51q149 -26 149 -169q0 -96 -78 -151t-218 -55z" />
<glyph unicode="&#xc8;" horiz-adv-x="1140" d="M166 0v1427h896v-155h-708v-459h618v-153h-618v-506h718v-154h-906zM302 1819h218l191 -288h-156z" />
<glyph unicode="&#xc9;" horiz-adv-x="1140" d="M166 0v1427h896v-155h-708v-459h618v-153h-618v-506h718v-154h-906zM507 1531l189 288h219l-262 -288h-146z" />
<glyph unicode="&#xca;" horiz-adv-x="1140" d="M166 0v1427h896v-155h-708v-459h618v-153h-618v-506h718v-154h-906zM311 1543v12l241 266h109l243 -268v-10h-150l-147 167l-146 -167h-150z" />
<glyph unicode="&#xcb;" horiz-adv-x="1140" d="M166 0v1427h896v-155h-708v-459h618v-153h-618v-506h718v-154h-906zM292 1660q0 44 27 73.5t80 29.5t80.5 -29.5t27.5 -74t-27.5 -73.5t-80.5 -29t-80 29t-27 74zM713 1658q0 44 27 74t80 30t80.5 -30t27.5 -74t-27.5 -73.5t-80.5 -29.5t-80 29.5t-27 73.5z" />
<glyph unicode="&#xcc;" horiz-adv-x="545" d="M-31 1819h218l191 -288h-156zM179 0v1427h189v-1427h-189z" />
<glyph unicode="&#xcd;" horiz-adv-x="545" d="M173 1531l189 288h219l-262 -288h-146zM179 0v1427h189v-1427h-189z" />
<glyph unicode="&#xce;" horiz-adv-x="545" d="M-22 1543v12l241 266h109l243 -268v-10h-150l-147 167l-146 -167h-150zM179 0v1427h189v-1427h-189z" />
<glyph unicode="&#xcf;" horiz-adv-x="545" d="M-41 1660q0 44 27 73.5t80 29.5t80.5 -29.5t27.5 -74t-27.5 -73.5t-80.5 -29t-80 29t-27 74zM179 0v1427h189v-1427h-189zM380 1658q0 44 27 74t80 30t80.5 -30t27.5 -74t-27.5 -73.5t-80.5 -29.5t-80 29.5t-27 73.5z" />
<glyph unicode="&#xd0;" horiz-adv-x="1345" d="M36 653v148h159v626h403q186 0 329 -82.5t221 -234.5t79 -349v-91q0 -202 -78 -353.5t-222.5 -233t-336.5 -83.5h-395v653h-159zM383 154h197q218 0 339 134t122 378v92q0 243 -114.5 377.5t-323.5 136.5h-220v-471h277v-148h-277v-499z" />
<glyph unicode="&#xd1;" horiz-adv-x="1430" d="M166 0v1427h189l720 -1105v1105h187v-1427h-189l-718 1100v-1100h-189zM367 1531q0 105 59 173.5t150 68.5q35 0 62 -9.5t74.5 -38t72.5 -37.5t55 -9q42 0 70 33.5t28 77.5l121 -12q0 -106 -60 -171.5t-150 -65.5q-40 0 -69.5 9.5t-77 40t-68.5 37t-49 6.5 q-40 0 -68.5 -31t-28.5 -79z" />
<glyph unicode="&#xd2;" horiz-adv-x="1379" d="M116 655v103q0 205 71.5 363t202 241.5t299.5 83.5q171 0 302 -82.5t201.5 -240t70.5 -365.5v-91q0 -209 -70.5 -365.5t-200 -239t-301.5 -82.5q-169 0 -299 83t-202 236.5t-74 355.5zM303 667q0 -246 103.5 -386.5t284.5 -140.5q182 0 282 133t103 381v106 q0 253 -102 389t-285 136q-178 0 -280.5 -136t-105.5 -377v-105zM387 1809h218l191 -288h-156z" />
<glyph unicode="&#xd3;" horiz-adv-x="1379" d="M116 655v103q0 205 71.5 363t202 241.5t299.5 83.5q171 0 302 -82.5t201.5 -240t70.5 -365.5v-91q0 -209 -70.5 -365.5t-200 -239t-301.5 -82.5q-169 0 -299 83t-202 236.5t-74 355.5zM303 667q0 -246 103.5 -386.5t284.5 -140.5q182 0 282 133t103 381v106 q0 253 -102 389t-285 136q-178 0 -280.5 -136t-105.5 -377v-105zM592 1521l189 288h219l-262 -288h-146z" />
<glyph unicode="&#xd4;" horiz-adv-x="1379" d="M116 655v103q0 205 71.5 363t202 241.5t299.5 83.5q171 0 302 -82.5t201.5 -240t70.5 -365.5v-91q0 -209 -70.5 -365.5t-200 -239t-301.5 -82.5q-169 0 -299 83t-202 236.5t-74 355.5zM303 667q0 -246 103.5 -386.5t284.5 -140.5q182 0 282 133t103 381v106 q0 253 -102 389t-285 136q-178 0 -280.5 -136t-105.5 -377v-105zM396 1533v12l241 266h109l243 -268v-10h-150l-147 167l-146 -167h-150z" />
<glyph unicode="&#xd5;" horiz-adv-x="1379" d="M116 655v103q0 205 71.5 363t202 241.5t299.5 83.5q171 0 302 -82.5t201.5 -240t70.5 -365.5v-91q0 -209 -70.5 -365.5t-200 -239t-301.5 -82.5q-169 0 -299 83t-202 236.5t-74 355.5zM303 667q0 -246 103.5 -386.5t284.5 -140.5q182 0 282 133t103 381v106 q0 253 -102 389t-285 136q-178 0 -280.5 -136t-105.5 -377v-105zM347 1533q0 105 59 173.5t150 68.5q35 0 62 -9.5t74.5 -38t72.5 -37.5t55 -9q42 0 70 33.5t28 77.5l121 -12q0 -106 -60 -171.5t-150 -65.5q-40 0 -69.5 9.5t-77 40t-68.5 37t-49 6.5q-40 0 -68.5 -31 t-28.5 -79z" />
<glyph unicode="&#xd6;" horiz-adv-x="1379" d="M116 655v103q0 205 71.5 363t202 241.5t299.5 83.5q171 0 302 -82.5t201.5 -240t70.5 -365.5v-91q0 -209 -70.5 -365.5t-200 -239t-301.5 -82.5q-169 0 -299 83t-202 236.5t-74 355.5zM303 667q0 -246 103.5 -386.5t284.5 -140.5q182 0 282 133t103 381v106 q0 253 -102 389t-285 136q-178 0 -280.5 -136t-105.5 -377v-105zM377 1650q0 44 27 73.5t80 29.5t80.5 -29.5t27.5 -74t-27.5 -73.5t-80.5 -29t-80 29t-27 74zM798 1648q0 44 27 74t80 30t80.5 -30t27.5 -74t-27.5 -73.5t-80.5 -29.5t-80 29.5t-27 73.5z" />
<glyph unicode="&#xd7;" horiz-adv-x="1070" d="M87 322l324 330l-322 328l117 121l322 -329l323 329l116 -121l-321 -328l323 -330l-116 -120l-325 330l-324 -330z" />
<glyph unicode="&#xd8;" horiz-adv-x="1379" d="M116 676v82q0 205 71.5 363t202 241.5t299.5 83.5q210 0 355 -122l101 162h138l-156 -250q134 -183 136 -472v-97q0 -209 -70.5 -365.5t-200 -239t-301.5 -82.5q-168 0 -296 81l-95 -152h-139l141 226q-186 188 -186 541zM303 667q0 -239 96 -377l553 886 q-100 109 -263 109q-178 0 -280.5 -136t-105.5 -377v-105zM483 203q89 -63 208 -63q182 0 282 133t103 381v106q0 178 -55 306z" />
<glyph unicode="&#xd9;" horiz-adv-x="1301" d="M137 455v972h186v-966q0 -155 85.5 -241t243.5 -86q159 0 244 85.5t85 240.5v967h189v-970q-1 -202 -127 -330.5t-341 -144.5l-50 -2q-235 0 -374 126.5t-141 348.5zM349 1807h218l191 -288h-156z" />
<glyph unicode="&#xda;" horiz-adv-x="1301" d="M137 455v972h186v-966q0 -155 85.5 -241t243.5 -86q159 0 244 85.5t85 240.5v967h189v-970q-1 -202 -127 -330.5t-341 -144.5l-50 -2q-235 0 -374 126.5t-141 348.5zM554 1519l189 288h219l-262 -288h-146z" />
<glyph unicode="&#xdb;" horiz-adv-x="1301" d="M137 455v972h186v-966q0 -155 85.5 -241t243.5 -86q159 0 244 85.5t85 240.5v967h189v-970q-1 -202 -127 -330.5t-341 -144.5l-50 -2q-235 0 -374 126.5t-141 348.5zM358 1531v12l241 266h109l243 -268v-10h-150l-147 167l-146 -167h-150z" />
<glyph unicode="&#xdc;" horiz-adv-x="1301" d="M137 455v972h186v-966q0 -155 85.5 -241t243.5 -86q159 0 244 85.5t85 240.5v967h189v-970q-1 -202 -127 -330.5t-341 -144.5l-50 -2q-235 0 -374 126.5t-141 348.5zM339 1648q0 44 27 73.5t80 29.5t80.5 -29.5t27.5 -74t-27.5 -73.5t-80.5 -29t-80 29t-27 74zM760 1646 q0 44 27 74t80 30t80.5 -30t27.5 -74t-27.5 -73.5t-80.5 -29.5t-80 29.5t-27 73.5z" />
<glyph unicode="&#xdd;" horiz-adv-x="1205" d="M15 1427h215l371 -717l372 717h214l-492 -895v-532h-188v532zM505 1519l189 288h219l-262 -288h-146z" />
<glyph unicode="&#xde;" horiz-adv-x="1185" d="M163 0v1427h182v-287h273q144 0 252 -51.5t166.5 -146.5t58.5 -219q0 -190 -129.5 -303t-352.5 -113h-268v-307h-182zM345 456h271q140 0 218 74t78 191q0 121 -78 195t-212 75h-277v-535z" />
<glyph unicode="&#xdf;" horiz-adv-x="1193" d="M136 0v1089q0 204 101.5 319t283.5 115q177 0 273.5 -87.5t96.5 -243.5q0 -123 -63 -222.5t-63 -166.5q0 -50 37 -96.5t129 -117.5t134 -137.5t42 -140.5q0 -156 -99.5 -243.5t-277.5 -87.5q-79 0 -168 22t-126 49l42 152q48 -31 114.5 -53t117.5 -22q105 0 160.5 46 t55.5 127q0 51 -36 98t-129 119t-135.5 139.5t-42.5 147.5q0 87 68 188.5t68 183.5q0 92 -51 144.5t-137 52.5q-213 0 -213 -287v-1087h-182z" />
<glyph unicode="&#xe0;" horiz-adv-x="1091" d="M107 294q0 166 126 257.5t354 91.5h176v83q0 95 -56.5 151.5t-167.5 56.5q-97 0 -162.5 -49t-65.5 -119h-183q0 80 56.5 154t153 117t212.5 43q183 0 287 -91.5t108 -252.5v-488q0 -146 37 -232v-16h-190q-16 31 -26 112q-126 -132 -301 -132q-157 0 -257.5 89 t-100.5 225zM265 1503h218l191 -288h-156zM288 319q0 -85 57 -133t146 -48q85 0 161.5 44t110.5 115v217h-142q-333 0 -333 -195z" />
<glyph unicode="&#xe1;" horiz-adv-x="1091" d="M107 294q0 166 126 257.5t354 91.5h176v83q0 95 -56.5 151.5t-167.5 56.5q-97 0 -162.5 -49t-65.5 -119h-183q0 80 56.5 154t153 117t212.5 43q183 0 287 -91.5t108 -252.5v-488q0 -146 37 -232v-16h-190q-16 31 -26 112q-126 -132 -301 -132q-157 0 -257.5 89 t-100.5 225zM288 319q0 -85 57 -133t146 -48q85 0 161.5 44t110.5 115v217h-142q-333 0 -333 -195zM470 1215l189 288h219l-262 -288h-146z" />
<glyph unicode="&#xe2;" horiz-adv-x="1091" d="M107 294q0 166 126 257.5t354 91.5h176v83q0 95 -56.5 151.5t-167.5 56.5q-97 0 -162.5 -49t-65.5 -119h-183q0 80 56.5 154t153 117t212.5 43q183 0 287 -91.5t108 -252.5v-488q0 -146 37 -232v-16h-190q-16 31 -26 112q-126 -132 -301 -132q-157 0 -257.5 89 t-100.5 225zM274 1227v12l241 266h109l243 -268v-10h-150l-147 167l-146 -167h-150zM288 319q0 -85 57 -133t146 -48q85 0 161.5 44t110.5 115v217h-142q-333 0 -333 -195z" />
<glyph unicode="&#xe3;" horiz-adv-x="1091" d="M107 294q0 166 126 257.5t354 91.5h176v83q0 95 -56.5 151.5t-167.5 56.5q-97 0 -162.5 -49t-65.5 -119h-183q0 80 56.5 154t153 117t212.5 43q183 0 287 -91.5t108 -252.5v-488q0 -146 37 -232v-16h-190q-16 31 -26 112q-126 -132 -301 -132q-157 0 -257.5 89 t-100.5 225zM225 1227q0 105 59 173.5t150 68.5q35 0 62 -9.5t74.5 -38t72.5 -37.5t55 -9q42 0 70 33.5t28 77.5l121 -12q0 -106 -60 -171.5t-150 -65.5q-40 0 -69.5 9.5t-77 40t-68.5 37t-49 6.5q-40 0 -68.5 -31t-28.5 -79zM288 319q0 -85 57 -133t146 -48q85 0 161.5 44 t110.5 115v217h-142q-333 0 -333 -195z" />
<glyph unicode="&#xe4;" horiz-adv-x="1091" d="M107 294q0 166 126 257.5t354 91.5h176v83q0 95 -56.5 151.5t-167.5 56.5q-97 0 -162.5 -49t-65.5 -119h-183q0 80 56.5 154t153 117t212.5 43q183 0 287 -91.5t108 -252.5v-488q0 -146 37 -232v-16h-190q-16 31 -26 112q-126 -132 -301 -132q-157 0 -257.5 89 t-100.5 225zM255 1344q0 44 27 73.5t80 29.5t80.5 -29.5t27.5 -74t-27.5 -73.5t-80.5 -29t-80 29t-27 74zM288 319q0 -85 57 -133t146 -48q85 0 161.5 44t110.5 115v217h-142q-333 0 -333 -195zM676 1342q0 44 27 74t80 30t80.5 -30t27.5 -74t-27.5 -73.5t-80.5 -29.5 t-80 29.5t-27 73.5z" />
<glyph unicode="&#xe5;" horiz-adv-x="1091" d="M107 294q0 166 126 257.5t354 91.5h176v83q0 95 -56.5 151.5t-167.5 56.5q-97 0 -162.5 -49t-65.5 -119h-183q0 80 56.5 154t153 117t212.5 43q183 0 287 -91.5t108 -252.5v-488q0 -146 37 -232v-16h-190q-16 31 -26 112q-126 -132 -301 -132q-157 0 -257.5 89 t-100.5 225zM288 319q0 -85 57 -133t146 -48q85 0 161.5 44t110.5 115v217h-142q-333 0 -333 -195zM359 1391q0 84 60 144t150 60t150.5 -60t60.5 -144q0 -85 -61 -142.5t-150 -57.5q-90 0 -150 58t-60 142zM456 1391q0 -46 32.5 -79.5t80.5 -33.5q47 0 80.5 32.5t33.5 80.5 t-33 81.5t-81 33.5q-49 0 -81 -34t-32 -81z" />
<glyph unicode="&#xe6;" horiz-adv-x="1694" d="M76 298q0 154 111.5 239t327.5 85h219v84q0 104 -54 164.5t-156 60.5q-103 0 -171.5 -54t-68.5 -133l-180 18q0 141 118.5 229.5t301.5 88.5q113 0 199 -40.5t135 -122.5q62 78 147.5 120.5t188.5 42.5q205 0 319 -126t114 -354v-113h-714q7 -172 92.5 -266t231.5 -94 q145 0 263 75l46 30l63 -133q-155 -119 -372 -119q-256 0 -389 177q-64 -84 -174.5 -130.5t-249.5 -46.5q-163 0 -255.5 85t-92.5 233zM259 294q0 -75 52 -121t149 -46q70 0 147.5 36.5t126.5 89.5v232h-223q-115 -2 -183.5 -56t-68.5 -135zM918 627h528v31q0 129 -66 201 t-186 72q-113 0 -186 -84t-90 -220z" />
<glyph unicode="&#xe7;" horiz-adv-x="1050" d="M90 520v31q0 155 57 275.5t163 187t252 66.5q178 0 296 -107t126 -277h-172q-7 103 -77.5 169t-172.5 66q-139 0 -215 -99.5t-76 -287.5v-34q0 -184 75.5 -283t216.5 -99q97 0 169.5 59t79.5 147h172q-5 -91 -63 -173.5t-154.5 -131.5t-203.5 -49q-217 0 -345 145 t-128 395zM427 -330q77 0 119.5 25.5t42.5 71.5q0 43 -31 63.5t-127 29.5l31 131h130l-11 -51q149 -26 149 -169q0 -96 -78 -151t-218 -55z" />
<glyph unicode="&#xe8;" horiz-adv-x="1063" d="M91 501v33q0 158 60.5 282t168.5 194t235 70q206 0 321 -136t115 -390v-76h-719q4 -157 92 -253.5t223 -96.5q96 0 162.5 39.5t116.5 103.5l111 -86q-133 -205 -400 -205q-215 0 -350.5 142t-135.5 379zM249 1503h218l191 -288h-156zM278 627h531v14q-7 138 -74 214 t-180 76q-110 0 -184.5 -80t-92.5 -224z" />
<glyph unicode="&#xe9;" horiz-adv-x="1063" d="M91 501v33q0 158 60.5 282t168.5 194t235 70q206 0 321 -136t115 -390v-76h-719q4 -157 92 -253.5t223 -96.5q96 0 162.5 39.5t116.5 103.5l111 -86q-133 -205 -400 -205q-215 0 -350.5 142t-135.5 379zM278 627h531v14q-7 138 -74 214t-180 76q-110 0 -184.5 -80 t-92.5 -224zM454 1215l189 288h219l-262 -288h-146z" />
<glyph unicode="&#xea;" horiz-adv-x="1063" d="M91 501v33q0 158 60.5 282t168.5 194t235 70q206 0 321 -136t115 -390v-76h-719q4 -157 92 -253.5t223 -96.5q96 0 162.5 39.5t116.5 103.5l111 -86q-133 -205 -400 -205q-215 0 -350.5 142t-135.5 379zM258 1227v12l241 266h109l243 -268v-10h-150l-147 167l-146 -167 h-150zM278 627h531v14q-7 138 -74 214t-180 76q-110 0 -184.5 -80t-92.5 -224z" />
<glyph unicode="&#xeb;" horiz-adv-x="1063" d="M91 501v33q0 158 60.5 282t168.5 194t235 70q206 0 321 -136t115 -390v-76h-719q4 -157 92 -253.5t223 -96.5q96 0 162.5 39.5t116.5 103.5l111 -86q-133 -205 -400 -205q-215 0 -350.5 142t-135.5 379zM239 1344q0 44 27 73.5t80 29.5t80.5 -29.5t27.5 -74t-27.5 -73.5 t-80.5 -29t-80 29t-27 74zM278 627h531v14q-7 138 -74 214t-180 76q-110 0 -184.5 -80t-92.5 -224zM660 1342q0 44 27 74t80 30t80.5 -30t27.5 -74t-27.5 -73.5t-80.5 -29.5t-80 29.5t-27 73.5z" />
<glyph unicode="&#xec;" horiz-adv-x="495" d="M-57 1502h218l191 -288h-156zM152 0v1060h182v-1060h-182z" />
<glyph unicode="&#xed;" horiz-adv-x="495" d="M147 1214l189 288h219l-262 -288h-146zM152 0v1060h182v-1060h-182z" />
<glyph unicode="&#xee;" horiz-adv-x="495" d="M-48 1226v12l241 266h109l243 -268v-10h-150l-147 167l-146 -167h-150zM152 0v1060h182v-1060h-182z" />
<glyph unicode="&#xef;" horiz-adv-x="495" d="M-67 1343q0 44 27 73.5t80 29.5t80.5 -29.5t27.5 -74t-27.5 -73.5t-80.5 -29t-80 29t-27 74zM152 0v1060h182v-1060h-182zM354 1341q0 44 27 74t80 30t80.5 -30t27.5 -74t-27.5 -73.5t-80.5 -29.5t-80 29.5t-27 73.5z" />
<glyph unicode="&#xf0;" horiz-adv-x="1176" d="M123 458q0 144 55 258t156.5 177.5t228.5 63.5q159 0 278 -111q-47 191 -185 329l-214 -145l-72 97l189 128q-130 90 -309 138l56 155q234 -53 405 -189l186 127l71 -98l-164 -113q244 -259 244 -660v-91q0 -155 -57.5 -278.5t-163.5 -194.5t-237 -71q-132 0 -240 63.5 t-167.5 173t-59.5 241.5zM305 458q0 -138 81.5 -234t207.5 -96q122 0 197 111t75 291v92l-2 55q-32 60 -100 95.5t-158 35.5q-142 0 -221.5 -93.5t-79.5 -256.5z" />
<glyph unicode="&#xf1;" horiz-adv-x="1107" d="M137 0v1060h172l6 -133q121 153 317 153q336 0 339 -379v-701h-181v702q-1 114 -52.5 169t-160.5 55q-88 0 -154.5 -47t-104.5 -123v-756h-181zM216 1227q0 105 59 173.5t150 68.5q35 0 62 -9.5t74.5 -38t72.5 -37.5t55 -9q42 0 70 33.5t28 77.5l121 -12 q0 -106 -60 -171.5t-150 -65.5q-40 0 -69.5 9.5t-77 40t-68.5 37t-49 6.5q-40 0 -68.5 -31t-28.5 -79z" />
<glyph unicode="&#xf2;" horiz-adv-x="1144" d="M89 527v13q0 156 61.5 280.5t170.5 192t249 67.5q217 0 350.5 -150t133.5 -399v-13q0 -154 -59 -277t-169.5 -192t-253.5 -69q-215 0 -349 150t-134 397zM259 1503h218l191 -288h-156zM271 518q0 -176 82 -283t219 -107q138 0 219.5 108.5t81.5 303.5q0 174 -82.5 282.5 t-220.5 108.5q-134 0 -216.5 -107t-82.5 -306z" />
<glyph unicode="&#xf3;" horiz-adv-x="1144" d="M89 527v13q0 156 61.5 280.5t170.5 192t249 67.5q217 0 350.5 -150t133.5 -399v-13q0 -154 -59 -277t-169.5 -192t-253.5 -69q-215 0 -349 150t-134 397zM271 518q0 -176 82 -283t219 -107q138 0 219.5 108.5t81.5 303.5q0 174 -82.5 282.5t-220.5 108.5 q-134 0 -216.5 -107t-82.5 -306zM464 1215l189 288h219l-262 -288h-146z" />
<glyph unicode="&#xf4;" horiz-adv-x="1144" d="M89 527v13q0 156 61.5 280.5t170.5 192t249 67.5q217 0 350.5 -150t133.5 -399v-13q0 -154 -59 -277t-169.5 -192t-253.5 -69q-215 0 -349 150t-134 397zM268 1227v12l241 266h109l243 -268v-10h-150l-147 167l-146 -167h-150zM271 518q0 -176 82 -283t219 -107 q138 0 219.5 108.5t81.5 303.5q0 174 -82.5 282.5t-220.5 108.5q-134 0 -216.5 -107t-82.5 -306z" />
<glyph unicode="&#xf5;" horiz-adv-x="1144" d="M89 527v13q0 156 61.5 280.5t170.5 192t249 67.5q217 0 350.5 -150t133.5 -399v-13q0 -154 -59 -277t-169.5 -192t-253.5 -69q-215 0 -349 150t-134 397zM219 1227q0 105 59 173.5t150 68.5q35 0 62 -9.5t74.5 -38t72.5 -37.5t55 -9q42 0 70 33.5t28 77.5l121 -12 q0 -106 -60 -171.5t-150 -65.5q-40 0 -69.5 9.5t-77 40t-68.5 37t-49 6.5q-40 0 -68.5 -31t-28.5 -79zM271 518q0 -176 82 -283t219 -107q138 0 219.5 108.5t81.5 303.5q0 174 -82.5 282.5t-220.5 108.5q-134 0 -216.5 -107t-82.5 -306z" />
<glyph unicode="&#xf6;" horiz-adv-x="1144" d="M89 527v13q0 156 61.5 280.5t170.5 192t249 67.5q217 0 350.5 -150t133.5 -399v-13q0 -154 -59 -277t-169.5 -192t-253.5 -69q-215 0 -349 150t-134 397zM249 1344q0 44 27 73.5t80 29.5t80.5 -29.5t27.5 -74t-27.5 -73.5t-80.5 -29t-80 29t-27 74zM271 518 q0 -176 82 -283t219 -107q138 0 219.5 108.5t81.5 303.5q0 174 -82.5 282.5t-220.5 108.5q-134 0 -216.5 -107t-82.5 -306zM670 1342q0 44 27 74t80 30t80.5 -30t27.5 -74t-27.5 -73.5t-80.5 -29.5t-80 29.5t-27 73.5z" />
<glyph unicode="&#xf7;" horiz-adv-x="1145" d="M70 588v180h978v-180h-978zM452 275q0 47 28 78.5t83.5 31.5t84.5 -31.5t29 -78.5q0 -45 -29 -75.5t-84.5 -30.5t-83.5 30.5t-28 75.5zM452 1076q0 47 28 78.5t83.5 31.5t84.5 -31.5t29 -78.5q0 -46 -29 -76.5t-84.5 -30.5t-83.5 30.5t-28 76.5z" />
<glyph unicode="&#xf8;" horiz-adv-x="1136" d="M89 540q0 156 60.5 280t170.5 192t250 68q108 0 200 -41l72 145h121l-100 -201q191 -151 191 -465q0 -154 -60.5 -278.5t-170.5 -192t-251 -67.5q-102 0 -186 35l-72 -146h-122l98 199q-201 146 -201 472zM270 518q0 -190 96 -298l336 680q-61 31 -132 31 q-135 0 -217.5 -107t-82.5 -306zM454 153q54 -25 118 -25q137 0 218.5 107.5t81.5 288.5v16q0 178 -85 287z" />
<glyph unicode="&#xf9;" horiz-adv-x="1106" d="M133 370v690h182v-685q0 -241 196 -241q207 0 276 155v771h181v-1060h-172l-4 105q-106 -125 -311 -125q-169 0 -258 98.5t-90 291.5zM251 1503h218l191 -288h-156z" />
<glyph unicode="&#xfa;" horiz-adv-x="1106" d="M133 370v690h182v-685q0 -241 196 -241q207 0 276 155v771h181v-1060h-172l-4 105q-106 -125 -311 -125q-169 0 -258 98.5t-90 291.5zM456 1215l189 288h219l-262 -288h-146z" />
<glyph unicode="&#xfb;" horiz-adv-x="1106" d="M133 370v690h182v-685q0 -241 196 -241q207 0 276 155v771h181v-1060h-172l-4 105q-106 -125 -311 -125q-169 0 -258 98.5t-90 291.5zM260 1227v12l241 266h109l243 -268v-10h-150l-147 167l-146 -167h-150z" />
<glyph unicode="&#xfc;" horiz-adv-x="1106" d="M133 370v690h182v-685q0 -241 196 -241q207 0 276 155v771h181v-1060h-172l-4 105q-106 -125 -311 -125q-169 0 -258 98.5t-90 291.5zM241 1344q0 44 27 73.5t80 29.5t80.5 -29.5t27.5 -74t-27.5 -73.5t-80.5 -29t-80 29t-27 74zM662 1342q0 44 27 74t80 30t80.5 -30 t27.5 -74t-27.5 -73.5t-80.5 -29.5t-80 29.5t-27 73.5z" />
<glyph unicode="&#xfd;" horiz-adv-x="949" d="M22 1060h198l264 -794l247 794h194l-426 -1224q-99 -264 -315 -264l-34 3l-68 12v147l49 -4q92 0 143.5 37.5t85.5 136.5l40 108zM398 1215l189 288h219l-262 -288h-146z" />
<glyph unicode="&#xfe;" horiz-adv-x="1156" d="M146 -408v1913h181v-554q111 129 301 129q191 0 302.5 -144t111.5 -401v-17q0 -242 -111 -390t-300 -148q-193 0 -304 123v-511h-181zM327 273q82 -145 249 -145q131 0 207.5 103.5t76.5 307.5q0 179 -76 283t-210 104q-164 0 -247 -146v-507z" />
<glyph unicode="&#xff;" horiz-adv-x="949" d="M22 1060h198l264 -794l247 794h194l-426 -1224q-99 -264 -315 -264l-34 3l-68 12v147l49 -4q92 0 143.5 37.5t85.5 136.5l40 108zM183 1344q0 44 27 73.5t80 29.5t80.5 -29.5t27.5 -74t-27.5 -73.5t-80.5 -29t-80 29t-27 74zM604 1342q0 44 27 74t80 30t80.5 -30 t27.5 -74t-27.5 -73.5t-80.5 -29.5t-80 29.5t-27 73.5z" />
<glyph unicode="&#x100;" d="M27 0l545 1427h165l546 -1427h-193l-136 372h-598l-135 -372h-194zM313 1599v140h699v-140h-699zM413 527h485l-243 668z" />
<glyph unicode="&#x101;" horiz-adv-x="1091" d="M107 294q0 166 126 257.5t354 91.5h176v83q0 95 -56.5 151.5t-167.5 56.5q-97 0 -162.5 -49t-65.5 -119h-183q0 80 56.5 154t153 117t212.5 43q183 0 287 -91.5t108 -252.5v-488q0 -146 37 -232v-16h-190q-16 31 -26 112q-126 -132 -301 -132q-157 0 -257.5 89 t-100.5 225zM224 1295v140h699v-140h-699zM288 319q0 -85 57 -133t146 -48q85 0 161.5 44t110.5 115v217h-142q-333 0 -333 -195z" />
<glyph unicode="&#x102;" d="M27 0l545 1427h165l546 -1427h-193l-136 372h-598l-135 -372h-194zM365 1770h148q0 -69 37.5 -107.5t108.5 -38.5q69 0 107.5 38.5t38.5 107.5h147q0 -118 -80.5 -190.5t-212 -72.5t-213 73t-81.5 190zM413 527h485l-243 668z" />
<glyph unicode="&#x103;" horiz-adv-x="1091" d="M107 294q0 166 126 257.5t354 91.5h176v83q0 95 -56.5 151.5t-167.5 56.5q-97 0 -162.5 -49t-65.5 -119h-183q0 80 56.5 154t153 117t212.5 43q183 0 287 -91.5t108 -252.5v-488q0 -146 37 -232v-16h-190q-16 31 -26 112q-126 -132 -301 -132q-157 0 -257.5 89 t-100.5 225zM276 1466h148q0 -69 37.5 -107.5t108.5 -38.5q69 0 107.5 38.5t38.5 107.5h147q0 -118 -80.5 -190.5t-212 -72.5t-213 73t-81.5 190zM288 319q0 -85 57 -133t146 -48q85 0 161.5 44t110.5 115v217h-142q-333 0 -333 -195z" />
<glyph unicode="&#x104;" d="M27 0l545 1427h165l546 -1427h-37l-57 -44q-111 -89 -111 -174q0 -70 76 -70q47 0 98 25l13 -118q-68 -43 -157 -43q-87 0 -137.5 51t-50.5 135q0 141 166 247l-132 363h-598l-135 -372h-194zM413 527h485l-243 668z" />
<glyph unicode="&#x105;" horiz-adv-x="1091" d="M107 294q0 166 126 257.5t354 91.5h176v83q0 95 -56.5 151.5t-167.5 56.5q-97 0 -162.5 -49t-65.5 -119h-183q0 80 56.5 154t153 117t212.5 43q183 0 287 -91.5t108 -252.5v-488q0 -146 37 -232v-16h-32l-57 -44q-111 -89 -111 -174q0 -70 76 -70q48 0 98 25l13 -118 q-68 -43 -157 -43q-87 0 -137.5 51t-50.5 135q0 141 164 245q-15 37 -22 105q-126 -132 -301 -132q-157 0 -257.5 89t-100.5 225zM288 319q0 -85 57 -133t146 -48q85 0 161.5 44t110.5 115v217h-142q-333 0 -333 -195z" />
<glyph unicode="&#x106;" horiz-adv-x="1306" d="M117 647v137q0 199 71 350t201 231.5t302 80.5q227 0 364.5 -126.5t159.5 -351.5h-189q-24 171 -106 247.5t-229 76.5q-180 0 -282.5 -133.5t-102.5 -379.5v-138q0 -232 97 -369.5t271 -137.5q157 0 241 71t111 248h189q-26 -227 -167 -350t-374 -123q-253 0 -405 181.5 t-152 485.5zM566 1551l189 288h219l-262 -288h-146z" />
<glyph unicode="&#x107;" horiz-adv-x="1050" d="M90 520v31q0 155 57 275.5t163 187t252 66.5q178 0 296 -107t126 -277h-172q-7 103 -77.5 169t-172.5 66q-139 0 -215 -99.5t-76 -287.5v-34q0 -184 75.5 -283t216.5 -99q97 0 169.5 59t79.5 147h172q-5 -91 -63 -173.5t-154.5 -131.5t-203.5 -49q-217 0 -345 145 t-128 395zM422 1215l189 288h219l-262 -288h-146z" />
<glyph unicode="&#x108;" horiz-adv-x="1306" d="M117 647v137q0 199 71 350t201 231.5t302 80.5q227 0 364.5 -126.5t159.5 -351.5h-189q-24 171 -106 247.5t-229 76.5q-180 0 -282.5 -133.5t-102.5 -379.5v-138q0 -232 97 -369.5t271 -137.5q157 0 241 71t111 248h189q-26 -227 -167 -350t-374 -123q-253 0 -405 181.5 t-152 485.5zM370 1563v12l241 266h109l243 -268v-10h-150l-147 167l-146 -167h-150z" />
<glyph unicode="&#x109;" horiz-adv-x="1050" d="M90 520v31q0 155 57 275.5t163 187t252 66.5q178 0 296 -107t126 -277h-172q-7 103 -77.5 169t-172.5 66q-139 0 -215 -99.5t-76 -287.5v-34q0 -184 75.5 -283t216.5 -99q97 0 169.5 59t79.5 147h172q-5 -91 -63 -173.5t-154.5 -131.5t-203.5 -49q-217 0 -345 145 t-128 395zM226 1227v12l241 266h109l243 -268v-10h-150l-147 167l-146 -167h-150z" />
<glyph unicode="&#x10a;" horiz-adv-x="1306" d="M117 647v137q0 199 71 350t201 231.5t302 80.5q227 0 364.5 -126.5t159.5 -351.5h-189q-24 171 -106 247.5t-229 76.5q-180 0 -282.5 -133.5t-102.5 -379.5v-138q0 -232 97 -369.5t271 -137.5q157 0 241 71t111 248h189q-26 -227 -167 -350t-374 -123q-253 0 -405 181.5 t-152 485.5zM559 1676q0 44 27 74.5t80 30.5t80.5 -30.5t27.5 -74.5t-27.5 -73.5t-80.5 -29.5t-80 29.5t-27 73.5z" />
<glyph unicode="&#x10b;" horiz-adv-x="1050" d="M90 520v31q0 155 57 275.5t163 187t252 66.5q178 0 296 -107t126 -277h-172q-7 103 -77.5 169t-172.5 66q-139 0 -215 -99.5t-76 -287.5v-34q0 -184 75.5 -283t216.5 -99q97 0 169.5 59t79.5 147h172q-5 -91 -63 -173.5t-154.5 -131.5t-203.5 -49q-217 0 -345 145 t-128 395zM415 1340q0 44 27 74.5t80 30.5t80.5 -30.5t27.5 -74.5t-27.5 -73.5t-80.5 -29.5t-80 29.5t-27 73.5z" />
<glyph unicode="&#x10c;" horiz-adv-x="1306" d="M117 647v137q0 199 71 350t201 231.5t302 80.5q227 0 364.5 -126.5t159.5 -351.5h-189q-24 171 -106 247.5t-229 76.5q-180 0 -282.5 -133.5t-102.5 -379.5v-138q0 -232 97 -369.5t271 -137.5q157 0 241 71t111 248h189q-26 -227 -167 -350t-374 -123q-253 0 -405 181.5 t-152 485.5zM362 1831v10h154l148 -166l147 166h157v-10l-249 -268h-111z" />
<glyph unicode="&#x10d;" horiz-adv-x="1050" d="M90 520v31q0 155 57 275.5t163 187t252 66.5q178 0 296 -107t126 -277h-172q-7 103 -77.5 169t-172.5 66q-139 0 -215 -99.5t-76 -287.5v-34q0 -184 75.5 -283t216.5 -99q97 0 169.5 59t79.5 147h172q-5 -91 -63 -173.5t-154.5 -131.5t-203.5 -49q-217 0 -345 145 t-128 395zM218 1495v10h154l148 -166l147 166h157v-10l-249 -268h-111z" />
<glyph unicode="&#x10e;" horiz-adv-x="1316" d="M166 0v1427h402q187 0 330 -82.5t221 -234.5t79 -349v-91q0 -202 -78 -353.5t-222.5 -233t-336.5 -83.5h-395zM293 1811v10h154l148 -166l147 166h157v-10l-249 -268h-111zM354 154h198q217 0 338 135t121 385v84q0 243 -114 377.5t-324 136.5h-219v-1118z" />
<glyph unicode="&#x10f;" horiz-adv-x="1278" d="M93 525v14q0 244 115.5 392.5t303.5 148.5q186 0 295 -127v552h181v-1505h-167l-9 114q-108 -134 -302 -134q-185 0 -301 151t-116 394zM274 518q0 -180 74.5 -282t206.5 -102q172 0 252 155v487q-82 150 -250 150q-134 0 -208.5 -103t-74.5 -305zM1050 1186 q71 107 73 231v90h173v-74q0 -89 -38.5 -177t-104.5 -141z" />
<glyph unicode="&#x110;" horiz-adv-x="1345" d="M36 653v148h159v626h403q186 0 329 -82.5t221 -234.5t79 -349v-91q0 -202 -78 -353.5t-222.5 -233t-336.5 -83.5h-395v653h-159zM383 154h197q218 0 339 134t122 378v92q0 243 -114.5 377.5t-323.5 136.5h-220v-471h277v-148h-277v-499z" />
<glyph unicode="&#x111;" horiz-adv-x="1161" d="M93 525v14q0 244 115.5 392.5t303.5 148.5q186 0 295 -127v256h-258v148h258v148h181v-148h184v-148h-184v-1209h-167l-9 114q-108 -134 -302 -134q-185 0 -301 151t-116 394zM274 518q0 -180 74.5 -282t206.5 -102q172 0 252 155v487q-82 150 -250 150 q-134 0 -208.5 -103t-74.5 -305z" />
<glyph unicode="&#x112;" horiz-adv-x="1140" d="M166 0v1427h896v-155h-708v-459h618v-153h-618v-506h718v-154h-906zM261 1610v140h699v-140h-699z" />
<glyph unicode="&#x113;" horiz-adv-x="1063" d="M91 501v33q0 158 60.5 282t168.5 194t235 70q206 0 321 -136t115 -390v-76h-719q4 -157 92 -253.5t223 -96.5q96 0 162.5 39.5t116.5 103.5l111 -86q-133 -205 -400 -205q-215 0 -350.5 142t-135.5 379zM208 1295v140h699v-140h-699zM278 627h531v14q-7 138 -74 214 t-180 76q-110 0 -184.5 -80t-92.5 -224z" />
<glyph unicode="&#x114;" horiz-adv-x="1140" d="M166 0v1427h896v-155h-708v-459h618v-153h-618v-506h718v-154h-906zM313 1782h148q0 -69 37.5 -107.5t108.5 -38.5q69 0 107.5 38.5t38.5 107.5h147q0 -118 -80.5 -190.5t-212 -72.5t-213 73t-81.5 190z" />
<glyph unicode="&#x115;" horiz-adv-x="1063" d="M91 501v33q0 158 60.5 282t168.5 194t235 70q206 0 321 -136t115 -390v-76h-719q4 -157 92 -253.5t223 -96.5q96 0 162.5 39.5t116.5 103.5l111 -86q-133 -205 -400 -205q-215 0 -350.5 142t-135.5 379zM260 1466h148q0 -69 37.5 -107.5t108.5 -38.5q69 0 107.5 38.5 t38.5 107.5h147q0 -118 -80.5 -190.5t-212 -72.5t-213 73t-81.5 190zM278 627h531v14q-7 138 -74 214t-180 76q-110 0 -184.5 -80t-92.5 -224z" />
<glyph unicode="&#x116;" horiz-adv-x="1140" d="M166 0v1427h896v-155h-708v-459h618v-153h-618v-506h718v-154h-906zM501 1656q0 44 27 74.5t80 30.5t80.5 -30.5t27.5 -74.5t-27.5 -73.5t-80.5 -29.5t-80 29.5t-27 73.5z" />
<glyph unicode="&#x117;" horiz-adv-x="1063" d="M91 501v33q0 158 60.5 282t168.5 194t235 70q206 0 321 -136t115 -390v-76h-719q4 -157 92 -253.5t223 -96.5q96 0 162.5 39.5t116.5 103.5l111 -86q-133 -205 -400 -205q-215 0 -350.5 142t-135.5 379zM278 627h531v14q-7 138 -74 214t-180 76q-110 0 -184.5 -80 t-92.5 -224zM448 1340q0 44 27 74.5t80 30.5t80.5 -30.5t27.5 -74.5t-27.5 -73.5t-80.5 -29.5t-80 29.5t-27 73.5z" />
<glyph unicode="&#x118;" horiz-adv-x="1140" d="M166 0v1427h896v-155h-708v-459h618v-153h-618v-506h718v-154h-71l-57 -44q-111 -89 -111 -174q0 -70 76 -70q47 0 98 25l13 -118q-68 -43 -157 -43q-87 0 -137.5 51t-50.5 135q0 135 152 238h-661z" />
<glyph unicode="&#x119;" horiz-adv-x="1063" d="M91 502v32q0 158 60.5 282t168.5 194t235 70q206 0 321 -136t115 -390v-76h-719q4 -157 92 -253.5t223 -96.5q96 0 162.5 39.5t116.5 103.5l111 -86q-70 -108 -182 -161h1l-57 -44q-111 -89 -111 -173q0 -71 77 -71q47 0 98 26l12 -119q-68 -43 -156 -43t-138.5 51 t-50.5 135q0 106 96 194q-213 4 -344 146t-131 376zM278 627h531v14q-7 138 -74 214t-180 76q-110 0 -184.5 -80t-92.5 -224z" />
<glyph unicode="&#x11a;" horiz-adv-x="1140" d="M166 0v1427h896v-155h-708v-459h618v-153h-618v-506h718v-154h-906zM304 1811v10h154l148 -166l147 166h157v-10l-249 -268h-111z" />
<glyph unicode="&#x11b;" horiz-adv-x="1063" d="M91 501v33q0 158 60.5 282t168.5 194t235 70q206 0 321 -136t115 -390v-76h-719q4 -157 92 -253.5t223 -96.5q96 0 162.5 39.5t116.5 103.5l111 -86q-133 -205 -400 -205q-215 0 -350.5 142t-135.5 379zM251 1495v10h154l148 -166l147 166h157v-10l-249 -268h-111z M278 627h531v14q-7 138 -74 214t-180 76q-110 0 -184.5 -80t-92.5 -224z" />
<glyph unicode="&#x11c;" horiz-adv-x="1367" d="M120 645v124q0 323 150 500t423 177q223 0 359.5 -114t166.5 -324h-188q-53 284 -337 284q-189 0 -286.5 -133t-98.5 -385v-116q0 -241 109.5 -382.5t296.5 -141.5q106 0 185.5 23.5t131.5 79.5v321h-330v152h517v-523q-72 -104 -202 -155.5t-303 -51.5q-174 0 -309 82 t-209 233t-76 350zM362 1563v12l241 266h109l243 -268v-10h-150l-147 167l-146 -167h-150z" />
<glyph unicode="&#x11d;" horiz-adv-x="1126" d="M94 539q0 248 114.5 394.5t304.5 146.5q194 0 302 -137l9 117h166v-1035q0 -205 -122 -323.5t-328 -118.5q-115 0 -224.5 49t-167.5 134l94 109q117 -145 285 -145q133 0 207 74.5t74 210.5v91q-109 -126 -297 -126q-187 0 -302 150t-115 409zM249 1227v12l241 266h109 l243 -268v-10h-150l-147 167l-146 -167h-150zM276 518q0 -179 73.5 -281.5t206.5 -102.5q171 0 252 156v484q-84 152 -250 152q-133 0 -207.5 -103t-74.5 -305z" />
<glyph unicode="&#x11e;" horiz-adv-x="1367" d="M120 645v124q0 323 150 500t423 177q223 0 359.5 -114t166.5 -324h-188q-53 284 -337 284q-189 0 -286.5 -133t-98.5 -385v-116q0 -241 109.5 -382.5t296.5 -141.5q106 0 185.5 23.5t131.5 79.5v321h-330v152h517v-523q-72 -104 -202 -155.5t-303 -51.5q-174 0 -309 82 t-209 233t-76 350zM364 1802h148q0 -69 37.5 -107.5t108.5 -38.5q69 0 107.5 38.5t38.5 107.5h147q0 -118 -80.5 -190.5t-212 -72.5t-213 73t-81.5 190z" />
<glyph unicode="&#x11f;" horiz-adv-x="1126" d="M94 539q0 248 114.5 394.5t304.5 146.5q194 0 302 -137l9 117h166v-1035q0 -205 -122 -323.5t-328 -118.5q-115 0 -224.5 49t-167.5 134l94 109q117 -145 285 -145q133 0 207 74.5t74 210.5v91q-109 -126 -297 -126q-187 0 -302 150t-115 409zM251 1466h148 q0 -69 37.5 -107.5t108.5 -38.5q69 0 107.5 38.5t38.5 107.5h147q0 -118 -80.5 -190.5t-212 -72.5t-213 73t-81.5 190zM276 518q0 -179 73.5 -281.5t206.5 -102.5q171 0 252 156v484q-84 152 -250 152q-133 0 -207.5 -103t-74.5 -305z" />
<glyph unicode="&#x120;" horiz-adv-x="1367" d="M120 645v124q0 323 150 500t423 177q223 0 359.5 -114t166.5 -324h-188q-53 284 -337 284q-189 0 -286.5 -133t-98.5 -385v-116q0 -241 109.5 -382.5t296.5 -141.5q106 0 185.5 23.5t131.5 79.5v321h-330v152h517v-523q-72 -104 -202 -155.5t-303 -51.5q-174 0 -309 82 t-209 233t-76 350zM552 1676q0 44 27 74.5t80 30.5t80.5 -30.5t27.5 -74.5t-27.5 -73.5t-80.5 -29.5t-80 29.5t-27 73.5z" />
<glyph unicode="&#x121;" horiz-adv-x="1126" d="M94 539q0 248 114.5 394.5t304.5 146.5q194 0 302 -137l9 117h166v-1035q0 -205 -122 -323.5t-328 -118.5q-115 0 -224.5 49t-167.5 134l94 109q117 -145 285 -145q133 0 207 74.5t74 210.5v91q-109 -126 -297 -126q-187 0 -302 150t-115 409zM276 518 q0 -179 73.5 -281.5t206.5 -102.5q171 0 252 156v484q-84 152 -250 152q-133 0 -207.5 -103t-74.5 -305zM439 1340q0 44 27 74.5t80 30.5t80.5 -30.5t27.5 -74.5t-27.5 -73.5t-80.5 -29.5t-80 29.5t-27 73.5z" />
<glyph unicode="&#x122;" horiz-adv-x="1367" d="M120 645v124q0 323 150 500t423 177q223 0 359.5 -114t166.5 -324h-188q-53 284 -337 284q-189 0 -286.5 -133t-98.5 -385v-116q0 -241 109.5 -382.5t296.5 -141.5q106 0 185.5 23.5t131.5 79.5v321h-330v152h517v-523q-72 -104 -202 -155.5t-303 -51.5q-174 0 -309 82 t-209 233t-76 350zM501 -432q71 107 73 231v90h173v-74q0 -89 -38.5 -177t-104.5 -141z" />
<glyph unicode="&#x123;" horiz-adv-x="1126" d="M94 539q0 248 114.5 394.5t304.5 146.5q194 0 302 -137l9 117h166v-1035q0 -205 -122 -323.5t-328 -118.5q-115 0 -224.5 49t-167.5 134l94 109q117 -145 285 -145q133 0 207 74.5t74 210.5v91q-109 -126 -297 -126q-187 0 -302 150t-115 409zM276 518 q0 -179 73.5 -281.5t206.5 -102.5q171 0 252 156v484q-84 152 -250 152q-133 0 -207.5 -103t-74.5 -305zM449 1229v127q0 76 41 160.5t96 132.5l105 -81q-58 -97 -61 -206v-133h-181z" />
<glyph unicode="&#x124;" horiz-adv-x="1430" d="M166 0v1427h188v-614h719v614h189v-1427h-189v660h-719v-660h-188zM402 1543v12l241 266h109l243 -268v-10h-150l-147 167l-146 -167h-150z" />
<glyph unicode="&#x125;" horiz-adv-x="1105" d="M137 0v1505h181v-573q121 148 314 148q336 0 339 -379v-701h-181v702q-1 114 -52.5 169t-160.5 55q-88 0 -154.5 -47t-104.5 -123v-756h-181zM194 1542v12l241 266h109l243 -268v-10h-150l-147 167l-146 -167h-150z" />
<glyph unicode="&#x126;" horiz-adv-x="1405" d="M28 1004v139h132v284h189v-284h718v284h189v-284h132v-139h-132v-1004h-189v660h-718v-660h-189v1004h-132zM349 813h718v191h-718v-191z" />
<glyph unicode="&#x127;" horiz-adv-x="1134" d="M0 1209v148h167v148h181v-148h275v-148h-275v-277q120 148 314 148q336 0 339 -379v-701h-182v702q-1 114 -52.5 169t-159.5 55q-89 0 -155.5 -47t-103.5 -123v-756h-181v1209h-167z" />
<glyph unicode="&#x128;" horiz-adv-x="545" d="M-71 1542q0 105 59 173.5t150 68.5q35 0 62 -9.5t74.5 -38t72.5 -37.5t55 -9q42 0 70 33.5t28 77.5l121 -12q0 -106 -60 -171.5t-150 -65.5q-40 0 -69.5 9.5t-77 40t-68.5 37t-49 6.5q-40 0 -68.5 -31t-28.5 -79zM179 0v1427h189v-1427h-189z" />
<glyph unicode="&#x129;" horiz-adv-x="495" d="M-97 1225q0 105 59 173.5t150 68.5q35 0 62 -9.5t74.5 -38t72.5 -37.5t55 -9q42 0 70 33.5t28 77.5l121 -12q0 -106 -60 -171.5t-150 -65.5q-40 0 -69.5 9.5t-77 40t-68.5 37t-49 6.5q-40 0 -68.5 -31t-28.5 -79zM152 0v1060h182v-1060h-182z" />
<glyph unicode="&#x12a;" horiz-adv-x="545" d="M-72 1610v140h699v-140h-699zM179 0v1427h189v-1427h-189z" />
<glyph unicode="&#x12b;" horiz-adv-x="495" d="M-98 1293v140h699v-140h-699zM152 0v1060h182v-1060h-182z" />
<glyph unicode="&#x12c;" horiz-adv-x="545" d="M-20 1782h148q0 -69 37.5 -107.5t108.5 -38.5q69 0 107.5 38.5t38.5 107.5h147q0 -118 -80.5 -190.5t-212 -72.5t-213 73t-81.5 190zM179 0v1427h189v-1427h-189z" />
<glyph unicode="&#x12d;" horiz-adv-x="495" d="M-46 1465h148q0 -69 37.5 -107.5t108.5 -38.5q69 0 107.5 38.5t38.5 107.5h147q0 -118 -80.5 -190.5t-212 -72.5t-213 73t-81.5 190zM152 0v1060h182v-1060h-182z" />
<glyph unicode="&#x12e;" horiz-adv-x="545" d="M24 -229q0 87 65.5 162.5t186.5 130.5l73 -55l-56 -44q-111 -89 -111 -174q0 -70 76 -70q47 0 98 25l13 -118q-69 -43 -157 -43q-87 0 -137.5 51t-50.5 135zM179 0v1427h189v-1427h-189z" />
<glyph unicode="&#x12f;" horiz-adv-x="487" d="M-5 -238q0 87 65.5 162.5t186.5 130.5l73 -55l-56 -44q-111 -89 -111 -174q0 -70 76 -70q47 0 98 25l13 -118q-69 -43 -157 -43q-87 0 -137.5 51t-50.5 135zM138 1342q0 44 27 74t80 30t80.5 -30t27.5 -74t-27.5 -73.5t-80.5 -29.5t-80 29.5t-27 73.5zM153 0v1060h181 v-1060h-181z" />
<glyph unicode="&#x130;" horiz-adv-x="545" d="M166 1656q0 44 27 74.5t80 30.5t80.5 -30.5t27.5 -74.5t-27.5 -73.5t-80.5 -29.5t-80 29.5t-27 73.5zM179 0v1427h189v-1427h-189z" />
<glyph unicode="&#x131;" horiz-adv-x="495" d="M152 0v1060h182v-1060h-182z" />
<glyph unicode="&#x132;" horiz-adv-x="1653" d="M179 0v1427h189v-1427h-189zM598 394h188q0 -123 67 -191.5t195 -68.5q116 0 188 73.5t73 206.5v1013h190v-1011q0 -204 -123 -320t-328 -116q-213 0 -331.5 109t-118.5 305z" />
<glyph unicode="&#x133;" horiz-adv-x="966" d="M138 1342q0 44 27 74t80 30t80.5 -30t27.5 -74t-27.5 -73.5t-80.5 -29.5t-80 29.5t-27 73.5zM153 0v1060h181v-1060h-181zM423 -266q32 -7 83 -7q60 0 92 32.5t32 114.5v1186h181v-1182q0 -306 -277 -306q-60 0 -111 17v145zM611 1342q0 43 27 73.5t79 30.5 q53 0 80.5 -30t27.5 -74t-27.5 -73.5t-80.5 -29.5t-79.5 29.5t-26.5 73.5z" />
<glyph unicode="&#x134;" horiz-adv-x="1107" d="M52 394h188q0 -123 67 -191.5t195 -68.5q116 0 188 73.5t73 206.5v1013h190v-1011q0 -204 -123 -320t-328 -116q-213 0 -331.5 109t-118.5 305zM538 1530v12l241 266h109l243 -268v-10h-150l-147 167l-146 -167h-150z" />
<glyph unicode="&#x135;" horiz-adv-x="504" d="M-74 -411l13 144q30 -12 95 -12q64 0 99.5 51t35.5 141v1147h181v-1147q0 -167 -83.5 -254t-232.5 -87q-58 0 -108 17zM-35 1188v12l241 266h109l243 -268v-10h-150l-147 167l-146 -167h-150z" />
<glyph unicode="&#x136;" horiz-adv-x="1258" d="M166 0v1427h188v-706l634 706h227l-561 -630l605 -797h-225l-506 663l-174 -181v-482h-188zM486 -432q71 107 73 231v90h173v-74q0 -89 -38.5 -177t-104.5 -141z" />
<glyph unicode="&#x137;" horiz-adv-x="1017" d="M138 0v1505h181v-910l97 116l331 349h220l-412 -443l460 -617h-212l-370 491l-114 -119v-372h-181zM358 -432q71 107 73 231v90h173v-74q0 -89 -38.5 -177t-104.5 -141z" />
<glyph unicode="&#x138;" horiz-adv-x="1116" d="M151 0v1060h182v-448h89l389 448h219l-443 -514l478 -546h-228l-399 452h-105v-452h-182z" />
<glyph unicode="&#x139;" horiz-adv-x="1079" d="M158 1514l189 288h219l-262 -288h-146zM166 0v1427h189v-1273h676v-154h-865z" />
<glyph unicode="&#x13a;" horiz-adv-x="487" d="M145 1613l189 288h219l-262 -288h-146zM153 0v1505h181v-1505h-181z" />
<glyph unicode="&#x13b;" horiz-adv-x="1079" d="M166 0v1427h189v-1273h676v-154h-865zM447 -432q71 107 73 231v90h173v-74q0 -89 -38.5 -177t-104.5 -141z" />
<glyph unicode="&#x13c;" horiz-adv-x="487" d="M85 -432q71 107 73 231v90h173v-74q0 -89 -38.5 -177t-104.5 -141zM153 0v1505h181v-1505h-181z" />
<glyph unicode="&#x13d;" horiz-adv-x="1079" d="M166 0v1427h189v-1273h676v-154h-865zM550 1107q71 107 73 231v90h173v-74q0 -89 -38.5 -177t-104.5 -141z" />
<glyph unicode="&#x13e;" horiz-adv-x="634" d="M153 0v1505h181v-1505h-181zM425 1186q71 107 73 231v90h173v-74q0 -89 -38.5 -177t-104.5 -141z" />
<glyph unicode="&#x13f;" horiz-adv-x="1079" d="M166 0v1427h189v-1273h676v-154h-865zM573 780q0 44 27 74.5t80 30.5t80.5 -30.5t27.5 -74.5t-27.5 -73.5t-80.5 -29.5t-80 29.5t-27 73.5z" />
<glyph unicode="&#x140;" horiz-adv-x="702" d="M153 0v1505h181v-1505h-181zM444 766q0 44 27 74.5t80 30.5t80.5 -30.5t27.5 -74.5t-27.5 -73.5t-80.5 -29.5t-80 29.5t-27 73.5z" />
<glyph unicode="&#x141;" horiz-adv-x="1080" d="M33 603v122l132 41v661h189v-601l258 82v-122l-258 -82v-550h676v-154h-865v644z" />
<glyph unicode="&#x142;" horiz-adv-x="541" d="M33 608v120l141 54v723h183v-653l155 59v-120l-155 -60v-731h-183v662z" />
<glyph unicode="&#x143;" horiz-adv-x="1430" d="M166 0v1427h189l720 -1105v1105h187v-1427h-189l-718 1100v-1100h-189zM612 1519l189 288h219l-262 -288h-146z" />
<glyph unicode="&#x144;" horiz-adv-x="1107" d="M137 0v1060h172l6 -133q121 153 317 153q336 0 339 -379v-701h-181v702q-1 114 -52.5 169t-160.5 55q-88 0 -154.5 -47t-104.5 -123v-756h-181zM461 1215l189 288h219l-262 -288h-146z" />
<glyph unicode="&#x145;" horiz-adv-x="1430" d="M166 0v1427h189l720 -1105v1105h187v-1427h-189l-718 1100v-1100h-189zM545 -432q71 107 73 231v90h173v-74q0 -89 -38.5 -177t-104.5 -141z" />
<glyph unicode="&#x146;" horiz-adv-x="1107" d="M137 0v1060h172l6 -133q121 153 317 153q336 0 339 -379v-701h-181v702q-1 114 -52.5 169t-160.5 55q-88 0 -154.5 -47t-104.5 -123v-756h-181zM391 -432q71 107 73 231v90h173v-74q0 -89 -38.5 -177t-104.5 -141z" />
<glyph unicode="&#x147;" horiz-adv-x="1430" d="M166 0v1427h189l720 -1105v1105h187v-1427h-189l-718 1100v-1100h-189zM408 1799v10h154l148 -166l147 166h157v-10l-249 -268h-111z" />
<glyph unicode="&#x148;" horiz-adv-x="1107" d="M137 0v1060h172l6 -133q121 153 317 153q336 0 339 -379v-701h-181v702q-1 114 -52.5 169t-160.5 55q-88 0 -154.5 -47t-104.5 -123v-756h-181zM258 1495v10h154l148 -166l147 166h157v-10l-249 -268h-111z" />
<glyph unicode="&#x149;" horiz-adv-x="1107" d="M-67 1188q71 107 73 231v90h173v-74q0 -89 -38.5 -177t-104.5 -141zM137 0v1060h172l6 -133q121 153 317 153q336 0 339 -379v-701h-181v702q-1 114 -52.5 169t-160.5 55q-88 0 -154.5 -47t-104.5 -123v-756h-181z" />
<glyph unicode="&#x14a;" horiz-adv-x="1390" d="M159 0v1427h188l703 -1106v1106h190v-1508q0 -165 -84 -256t-237 -91q-60 0 -112 17l13 151q37 -13 96 -13q134 0 134 203v70l-703 1107v-1107h-188z" />
<glyph unicode="&#x14b;" horiz-adv-x="1136" d="M142 0v1060h163l13 -151q113 171 312 171q176 0 266 -102t92 -301v-764q0 -161 -82 -251t-234 -90q-60 0 -112 17l13 154q35 -13 99 -13q135 0 135 191v743q0 137 -54.5 199.5t-177.5 62.5q-171 0 -251 -130v-796h-182z" />
<glyph unicode="&#x14c;" horiz-adv-x="1379" d="M116 655v103q0 205 71.5 363t202 241.5t299.5 83.5q171 0 302 -82.5t201.5 -240t70.5 -365.5v-91q0 -209 -70.5 -365.5t-200 -239t-301.5 -82.5q-169 0 -299 83t-202 236.5t-74 355.5zM303 667q0 -246 103.5 -386.5t284.5 -140.5q182 0 282 133t103 381v106 q0 253 -102 389t-285 136q-178 0 -280.5 -136t-105.5 -377v-105zM346 1601v140h699v-140h-699z" />
<glyph unicode="&#x14d;" horiz-adv-x="1144" d="M89 527v13q0 156 61.5 280.5t170.5 192t249 67.5q217 0 350.5 -150t133.5 -399v-13q0 -154 -59 -277t-169.5 -192t-253.5 -69q-215 0 -349 150t-134 397zM218 1295v140h699v-140h-699zM271 518q0 -176 82 -283t219 -107q138 0 219.5 108.5t81.5 303.5q0 174 -82.5 282.5 t-220.5 108.5q-134 0 -216.5 -107t-82.5 -306z" />
<glyph unicode="&#x14e;" horiz-adv-x="1379" d="M116 655v103q0 205 71.5 363t202 241.5t299.5 83.5q171 0 302 -82.5t201.5 -240t70.5 -365.5v-91q0 -209 -70.5 -365.5t-200 -239t-301.5 -82.5q-169 0 -299 83t-202 236.5t-74 355.5zM303 667q0 -246 103.5 -386.5t284.5 -140.5q182 0 282 133t103 381v106 q0 253 -102 389t-285 136q-178 0 -280.5 -136t-105.5 -377v-105zM398 1772h148q0 -69 37.5 -107.5t108.5 -38.5q69 0 107.5 38.5t38.5 107.5h147q0 -118 -80.5 -190.5t-212 -72.5t-213 73t-81.5 190z" />
<glyph unicode="&#x14f;" horiz-adv-x="1144" d="M89 527v13q0 156 61.5 280.5t170.5 192t249 67.5q217 0 350.5 -150t133.5 -399v-13q0 -154 -59 -277t-169.5 -192t-253.5 -69q-215 0 -349 150t-134 397zM270 1466h148q0 -69 37.5 -107.5t108.5 -38.5q69 0 107.5 38.5t38.5 107.5h147q0 -118 -80.5 -190.5t-212 -72.5 t-213 73t-81.5 190zM271 518q0 -176 82 -283t219 -107q138 0 219.5 108.5t81.5 303.5q0 174 -82.5 282.5t-220.5 108.5q-134 0 -216.5 -107t-82.5 -306z" />
<glyph unicode="&#x150;" horiz-adv-x="1379" d="M116 655v103q0 205 71.5 363t202 241.5t299.5 83.5q171 0 302 -82.5t201.5 -240t70.5 -365.5v-91q0 -209 -70.5 -365.5t-200 -239t-301.5 -82.5q-169 0 -299 83t-202 236.5t-74 355.5zM303 667q0 -246 103.5 -386.5t284.5 -140.5q182 0 282 133t103 381v106 q0 253 -102 389t-285 136q-178 0 -280.5 -136t-105.5 -377v-105zM448 1513l168 297h193l-214 -297h-147zM723 1513l226 297h203l-264 -297h-165z" />
<glyph unicode="&#x151;" horiz-adv-x="1144" d="M89 527v13q0 156 61.5 280.5t170.5 192t249 67.5q217 0 350.5 -150t133.5 -399v-13q0 -154 -59 -277t-169.5 -192t-253.5 -69q-215 0 -349 150t-134 397zM271 518q0 -176 82 -283t219 -107q138 0 219.5 108.5t81.5 303.5q0 174 -82.5 282.5t-220.5 108.5 q-134 0 -216.5 -107t-82.5 -306zM319 1207l168 297h193l-214 -297h-147zM594 1207l226 297h203l-264 -297h-165z" />
<glyph unicode="&#x152;" horiz-adv-x="1913" d="M102 560v302q0 169 68 302.5t192.5 207.5t283.5 74q121 0 288 -19h821v-155h-708v-459h618v-153h-618v-506h718v-154h-831q-174 -21 -286 -21q-159 0 -283.5 73.5t-193 206.5t-69.5 301zM284 564q0 -206 95.5 -321.5t268.5 -115.5q111 0 210 14v1143q-106 14 -212 14 q-170 0 -265 -112t-97 -315v-307z" />
<glyph unicode="&#x153;" horiz-adv-x="1822" d="M95 527v13q0 157 59.5 281.5t166.5 191.5t246 67q135 0 233.5 -57.5t157.5 -155.5q64 100 160 156.5t206 56.5q203 0 317.5 -124.5t114.5 -354.5v-114h-703q6 -167 86.5 -263.5t211.5 -96.5q185 0 302 106l73 -123q-134 -130 -375 -130q-132 0 -232.5 55t-162.5 153 q-60 -97 -157.5 -152.5t-229.5 -55.5q-215 0 -344.5 149t-129.5 398zM276 518q0 -179 78.5 -285t214.5 -106q135 0 213 105.5t78 307.5q0 178 -78.5 284.5t-214.5 106.5q-132 0 -211.5 -105t-79.5 -308zM1058 636h516v26q0 122 -67 195.5t-183 73.5q-97 0 -170.5 -80 t-95.5 -215z" />
<glyph unicode="&#x154;" horiz-adv-x="1235" d="M165 0v1427h472q241 0 371 -110t130 -319q0 -134 -72 -233t-201 -148l335 -605v-12h-201l-310 577h-335v-577h-189zM354 731h289q140 0 223 72.5t83 194.5q0 132 -79 202.5t-228 71.5h-288v-541zM497 1519l189 288h219l-262 -288h-146z" />
<glyph unicode="&#x155;" horiz-adv-x="679" d="M137 0v1060h177l3 -122q89 142 252 142q53 0 81 -14v-168q-41 7 -89 7q-179 0 -243 -152v-753h-181zM299 1215l189 288h219l-262 -288h-146z" />
<glyph unicode="&#x156;" horiz-adv-x="1235" d="M165 0v1427h472q241 0 371 -110t130 -319q0 -134 -72 -233t-201 -148l335 -605v-12h-201l-310 577h-335v-577h-189zM354 731h289q140 0 223 72.5t83 194.5q0 132 -79 202.5t-228 71.5h-288v-541zM438 -432q71 107 73 231v90h173v-74q0 -89 -38.5 -177t-104.5 -141z" />
<glyph unicode="&#x157;" horiz-adv-x="679" d="M81 -432q71 107 73 231v90h173v-74q0 -89 -38.5 -177t-104.5 -141zM137 0v1060h177l3 -122q89 142 252 142q53 0 81 -14v-168q-41 7 -89 7q-179 0 -243 -152v-753h-181z" />
<glyph unicode="&#x158;" horiz-adv-x="1235" d="M165 0v1427h472q241 0 371 -110t130 -319q0 -134 -72 -233t-201 -148l335 -605v-12h-201l-310 577h-335v-577h-189zM294 1799v10h154l148 -166l147 166h157v-10l-249 -268h-111zM354 731h289q140 0 223 72.5t83 194.5q0 132 -79 202.5t-228 71.5h-288v-541z" />
<glyph unicode="&#x159;" horiz-adv-x="679" d="M97 1495v10h154l148 -166l147 166h157v-10l-249 -268h-111zM137 0v1060h177l3 -122q89 142 252 142q53 0 81 -14v-168q-41 7 -89 7q-179 0 -243 -152v-753h-181z" />
<glyph unicode="&#x15a;" horiz-adv-x="1190" d="M78 414h190q0 -130 95.5 -205t254.5 -75q149 0 228.5 61t79.5 166t-73.5 162t-266.5 113q-242 70 -352.5 171t-110.5 250q0 169 135 279t351 110q147 0 262 -56.5t178 -156.5t63 -219h-189q0 130 -82 204t-232 74q-140 0 -217.5 -61.5t-77.5 -170.5q0 -87 74 -147 t251.5 -110t278 -110.5t149 -141t48.5 -188.5q0 -174 -135 -278.5t-362 -104.5q-147 0 -274 56.5t-196.5 154.5t-69.5 223zM510 1521l189 288h219l-262 -288h-146z" />
<glyph unicode="&#x15b;" horiz-adv-x="1034" d="M93 326h181q5 -91 73.5 -144.5t179.5 -53.5q103 0 165.5 42t62.5 111q0 74 -55.5 114.5t-193.5 70t-218.5 70.5t-119.5 98t-39 135q0 131 110.5 221t281.5 90q181 0 293 -93t112 -238h-182q0 74 -63.5 128t-159.5 54q-99 0 -154.5 -43t-55.5 -113q0 -65 52 -98.5 t187.5 -64t220 -72.5t125 -101.5t40.5 -144.5q0 -142 -113.5 -228t-295.5 -86q-127 0 -225 45.5t-153.5 126t-55.5 174.5zM451 1215l189 288h219l-262 -288h-146z" />
<glyph unicode="&#x15c;" horiz-adv-x="1190" d="M78 414h190q0 -130 95.5 -205t254.5 -75q149 0 228.5 61t79.5 166t-73.5 162t-266.5 113q-242 70 -352.5 171t-110.5 250q0 169 135 279t351 110q147 0 262 -56.5t178 -156.5t63 -219h-189q0 130 -82 204t-232 74q-140 0 -217.5 -61.5t-77.5 -170.5q0 -87 74 -147 t251.5 -110t278 -110.5t149 -141t48.5 -188.5q0 -174 -135 -278.5t-362 -104.5q-147 0 -274 56.5t-196.5 154.5t-69.5 223zM314 1533v12l241 266h109l243 -268v-10h-150l-147 167l-146 -167h-150z" />
<glyph unicode="&#x15d;" horiz-adv-x="1034" d="M93 326h181q5 -91 73.5 -144.5t179.5 -53.5q103 0 165.5 42t62.5 111q0 74 -55.5 114.5t-193.5 70t-218.5 70.5t-119.5 98t-39 135q0 131 110.5 221t281.5 90q181 0 293 -93t112 -238h-182q0 74 -63.5 128t-159.5 54q-99 0 -154.5 -43t-55.5 -113q0 -65 52 -98.5 t187.5 -64t220 -72.5t125 -101.5t40.5 -144.5q0 -142 -113.5 -228t-295.5 -86q-127 0 -225 45.5t-153.5 126t-55.5 174.5zM255 1227v12l241 266h109l243 -268v-10h-150l-147 167l-146 -167h-150z" />
<glyph unicode="&#x15e;" horiz-adv-x="1190" d="M78 414h190q0 -130 95.5 -205t254.5 -75q149 0 228.5 61t79.5 166t-73.5 162t-266.5 113q-242 70 -352.5 171t-110.5 250q0 169 135 279t351 110q147 0 262 -56.5t178 -156.5t63 -219h-189q0 130 -82 204t-232 74q-140 0 -217.5 -61.5t-77.5 -170.5q0 -87 74 -147 t251.5 -110t278 -110.5t149 -141t48.5 -188.5q0 -174 -135 -278.5t-362 -104.5q-147 0 -274 56.5t-196.5 154.5t-69.5 223zM521 -321q77 0 119.5 25.5t42.5 71.5q0 43 -31 63.5t-127 29.5l31 131h130l-11 -51q149 -26 149 -169q0 -96 -78 -151t-218 -55z" />
<glyph unicode="&#x15f;" horiz-adv-x="1034" d="M93 326h181q5 -91 73.5 -144.5t179.5 -53.5q103 0 165.5 42t62.5 111q0 74 -55.5 114.5t-193.5 70t-218.5 70.5t-119.5 98t-39 135q0 131 110.5 221t281.5 90q181 0 293 -93t112 -238h-182q0 74 -63.5 128t-159.5 54q-99 0 -154.5 -43t-55.5 -113q0 -65 52 -98.5 t187.5 -64t220 -72.5t125 -101.5t40.5 -144.5q0 -142 -113.5 -228t-295.5 -86q-127 0 -225 45.5t-153.5 126t-55.5 174.5zM456 -329q77 0 119.5 25.5t42.5 71.5q0 43 -31 63.5t-127 29.5l31 131h130l-11 -51q149 -26 149 -169q0 -96 -78 -151t-218 -55z" />
<glyph unicode="&#x160;" horiz-adv-x="1190" d="M78 414h190q0 -130 95.5 -205t254.5 -75q149 0 228.5 61t79.5 166t-73.5 162t-266.5 113q-242 70 -352.5 171t-110.5 250q0 169 135 279t351 110q147 0 262 -56.5t178 -156.5t63 -219h-189q0 130 -82 204t-232 74q-140 0 -217.5 -61.5t-77.5 -170.5q0 -87 74 -147 t251.5 -110t278 -110.5t149 -141t48.5 -188.5q0 -174 -135 -278.5t-362 -104.5q-147 0 -274 56.5t-196.5 154.5t-69.5 223zM307 1801v10h154l148 -166l147 166h157v-10l-249 -268h-111z" />
<glyph unicode="&#x161;" horiz-adv-x="1034" d="M93 326h181q5 -91 73.5 -144.5t179.5 -53.5q103 0 165.5 42t62.5 111q0 74 -55.5 114.5t-193.5 70t-218.5 70.5t-119.5 98t-39 135q0 131 110.5 221t281.5 90q181 0 293 -93t112 -238h-182q0 74 -63.5 128t-159.5 54q-99 0 -154.5 -43t-55.5 -113q0 -65 52 -98.5 t187.5 -64t220 -72.5t125 -101.5t40.5 -144.5q0 -142 -113.5 -228t-295.5 -86q-127 0 -225 45.5t-153.5 126t-55.5 174.5zM248 1495v10h154l148 -166l147 166h157v-10l-249 -268h-111z" />
<glyph unicode="&#x162;" horiz-adv-x="1197" d="M48 1272v155h1104v-155h-459v-1272h-187v1272h-458zM506 -321q77 0 119.5 25.5t42.5 71.5q0 43 -31 63.5t-127 29.5l31 131h130l-11 -51q149 -26 149 -169q0 -96 -78 -151t-218 -55z" />
<glyph unicode="&#x163;" horiz-adv-x="655" d="M9 920v140h193v257h181v-257h198v-140h-198v-657q0 -64 26.5 -96t90.5 -32q31 0 86 12v-147q-72 -20 -139 -20q-122 0 -183.5 73.5t-61.5 209.5v657h-193zM348 -321q77 0 119.5 25.5t42.5 71.5q0 43 -31 63.5t-127 29.5l31 131h130l-11 -51q149 -26 149 -169 q0 -96 -78 -151t-218 -55z" />
<glyph unicode="&#x164;" horiz-adv-x="1197" d="M48 1272v155h1104v-155h-459v-1272h-187v1272h-458zM296 1799v10h154l148 -166l147 166h157v-10l-249 -268h-111z" />
<glyph unicode="&#x165;" horiz-adv-x="694" d="M9 920v140h193v257h181v-257h198v-140h-198v-657q0 -64 26.5 -96t90.5 -32q31 0 86 12v-147q-72 -20 -139 -20q-122 0 -183.5 73.5t-61.5 209.5v657h-193zM487 1303q71 107 73 231v90h173v-74q0 -89 -38.5 -177t-104.5 -141z" />
<glyph unicode="&#x166;" horiz-adv-x="1197" d="M48 1272v155h1104v-155h-459v-317h226v-148h-226v-807h-187v807h-210v148h210v317h-458z" />
<glyph unicode="&#x167;" horiz-adv-x="655" d="M-12 590v148h214v182h-193v140h193v257h181v-257h198v-140h-198v-182h229v-148h-229v-327q0 -64 26.5 -96t90.5 -32q31 0 86 12v-147q-72 -20 -139 -20q-122 0 -183.5 73.5t-61.5 209.5v327h-214z" />
<glyph unicode="&#x168;" horiz-adv-x="1301" d="M137 455v972h186v-966q0 -155 85.5 -241t243.5 -86q159 0 244 85.5t85 240.5v967h189v-970q-1 -202 -127 -330.5t-341 -144.5l-50 -2q-235 0 -374 126.5t-141 348.5zM309 1531q0 105 59 173.5t150 68.5q35 0 62 -9.5t74.5 -38t72.5 -37.5t55 -9q42 0 70 33.5t28 77.5 l121 -12q0 -106 -60 -171.5t-150 -65.5q-40 0 -69.5 9.5t-77 40t-68.5 37t-49 6.5q-40 0 -68.5 -31t-28.5 -79z" />
<glyph unicode="&#x169;" horiz-adv-x="1106" d="M133 370v690h182v-685q0 -241 196 -241q207 0 276 155v771h181v-1060h-172l-4 105q-106 -125 -311 -125q-169 0 -258 98.5t-90 291.5zM211 1227q0 105 59 173.5t150 68.5q35 0 62 -9.5t74.5 -38t72.5 -37.5t55 -9q42 0 70 33.5t28 77.5l121 -12q0 -106 -60 -171.5 t-150 -65.5q-40 0 -69.5 9.5t-77 40t-68.5 37t-49 6.5q-40 0 -68.5 -31t-28.5 -79z" />
<glyph unicode="&#x16a;" horiz-adv-x="1301" d="M137 455v972h186v-966q0 -155 85.5 -241t243.5 -86q159 0 244 85.5t85 240.5v967h189v-970q-1 -202 -127 -330.5t-341 -144.5l-50 -2q-235 0 -374 126.5t-141 348.5zM308 1599v140h699v-140h-699z" />
<glyph unicode="&#x16b;" horiz-adv-x="1106" d="M133 370v690h182v-685q0 -241 196 -241q207 0 276 155v771h181v-1060h-172l-4 105q-106 -125 -311 -125q-169 0 -258 98.5t-90 291.5zM210 1295v140h699v-140h-699z" />
<glyph unicode="&#x16c;" horiz-adv-x="1301" d="M137 455v972h186v-966q0 -155 85.5 -241t243.5 -86q159 0 244 85.5t85 240.5v967h189v-970q-1 -202 -127 -330.5t-341 -144.5l-50 -2q-235 0 -374 126.5t-141 348.5zM360 1770h148q0 -69 37.5 -107.5t108.5 -38.5q69 0 107.5 38.5t38.5 107.5h147q0 -118 -80.5 -190.5 t-212 -72.5t-213 73t-81.5 190z" />
<glyph unicode="&#x16d;" horiz-adv-x="1106" d="M133 370v690h182v-685q0 -241 196 -241q207 0 276 155v771h181v-1060h-172l-4 105q-106 -125 -311 -125q-169 0 -258 98.5t-90 291.5zM262 1466h148q0 -69 37.5 -107.5t108.5 -38.5q69 0 107.5 38.5t38.5 107.5h147q0 -118 -80.5 -190.5t-212 -72.5t-213 73t-81.5 190z " />
<glyph unicode="&#x16e;" horiz-adv-x="1301" d="M137 455v972h186v-966q0 -155 85.5 -241t243.5 -86q159 0 244 85.5t85 240.5v967h189v-970q-1 -202 -127 -330.5t-341 -144.5l-50 -2q-235 0 -374 126.5t-141 348.5zM443 1695q0 84 60 144t150 60t150.5 -60t60.5 -144q0 -85 -61 -142.5t-150 -57.5q-90 0 -150 58 t-60 142zM540 1695q0 -46 32.5 -79.5t80.5 -33.5q47 0 80.5 32.5t33.5 80.5t-33 81.5t-81 33.5q-49 0 -81 -34t-32 -81z" />
<glyph unicode="&#x16f;" horiz-adv-x="1106" d="M133 370v690h182v-685q0 -241 196 -241q207 0 276 155v771h181v-1060h-172l-4 105q-106 -125 -311 -125q-169 0 -258 98.5t-90 291.5zM345 1391q0 84 60 144t150 60t150.5 -60t60.5 -144q0 -85 -61 -142.5t-150 -57.5q-90 0 -150 58t-60 142zM442 1391q0 -46 32.5 -79.5 t80.5 -33.5q47 0 80.5 32.5t33.5 80.5t-33 81.5t-81 33.5q-49 0 -81 -34t-32 -81z" />
<glyph unicode="&#x170;" horiz-adv-x="1301" d="M137 455v972h186v-966q0 -155 85.5 -241t243.5 -86q159 0 244 85.5t85 240.5v967h189v-970q-1 -202 -127 -330.5t-341 -144.5l-50 -2q-235 0 -374 126.5t-141 348.5zM410 1511l168 297h193l-214 -297h-147zM685 1511l226 297h203l-264 -297h-165z" />
<glyph unicode="&#x171;" horiz-adv-x="1106" d="M133 370v690h182v-685q0 -241 196 -241q207 0 276 155v771h181v-1060h-172l-4 105q-106 -125 -311 -125q-169 0 -258 98.5t-90 291.5zM312 1207l168 297h193l-214 -297h-147zM587 1207l226 297h203l-264 -297h-165z" />
<glyph unicode="&#x172;" horiz-adv-x="1301" d="M137 455v972h186v-966q0 -155 85.5 -241t243.5 -86q159 0 244 85.5t85 240.5v967h189v-971q-1 -145 -68.5 -256t-195.5 -169q-152 -111 -152 -205q0 -71 76 -71q47 0 98 25l13 -118q-69 -43 -157 -43q-87 0 -137.5 51t-50.5 135q0 95 77 176l-21 -1q-235 0 -374 126.5 t-141 348.5z" />
<glyph unicode="&#x173;" horiz-adv-x="1106" d="M133 370v690h182v-685q0 -241 196 -241q207 0 276 155v771h181v-1060h-10l-56 -44q-111 -89 -111 -174q0 -70 76 -70q47 0 98 25l13 -118q-69 -43 -157 -43q-87 0 -137.5 51t-50.5 135q0 140 163 244l-4 99q-106 -125 -311 -125q-169 0 -258 98.5t-90 291.5z" />
<glyph unicode="&#x174;" horiz-adv-x="1780" d="M60 1427h188l225 -977l28 -188l40 169l282 996h159l275 -996l40 -172l30 192l221 976h190l-346 -1427h-172l-294 1040l-22 109l-23 -109l-305 -1040h-171zM610 1531v12l241 266h109l243 -268v-10h-150l-147 167l-146 -167h-150z" />
<glyph unicode="&#x175;" horiz-adv-x="1508" d="M42 1060h180l209 -793l247 793h146l252 -810l204 810h181l-309 -1060h-147l-257 804l-251 -804h-147zM452 1227v12l241 266h109l243 -268v-10h-150l-147 167l-146 -167h-150z" />
<glyph unicode="&#x176;" horiz-adv-x="1205" d="M15 1427h215l371 -717l372 717h214l-492 -895v-532h-188v532zM309 1531v12l241 266h109l243 -268v-10h-150l-147 167l-146 -167h-150z" />
<glyph unicode="&#x177;" horiz-adv-x="949" d="M22 1060h198l264 -794l247 794h194l-426 -1224q-99 -264 -315 -264l-34 3l-68 12v147l49 -4q92 0 143.5 37.5t85.5 136.5l40 108zM202 1227v12l241 266h109l243 -268v-10h-150l-147 167l-146 -167h-150z" />
<glyph unicode="&#x178;" horiz-adv-x="1205" d="M15 1427h215l371 -717l372 717h214l-492 -895v-532h-188v532zM290 1648q0 44 27 73.5t80 29.5t80.5 -29.5t27.5 -74t-27.5 -73.5t-80.5 -29t-80 29t-27 74zM711 1646q0 44 27 74t80 30t80.5 -30t27.5 -74t-27.5 -73.5t-80.5 -29.5t-80 29.5t-27 73.5z" />
<glyph unicode="&#x179;" horiz-adv-x="1201" d="M84 0v141l782 1131h-769v155h995v-138l-785 -1135h816v-154h-1039zM504 1519l189 288h219l-262 -288h-146z" />
<glyph unicode="&#x17a;" horiz-adv-x="994" d="M86 0v133l585 777h-576v150h804v-128l-591 -784h620v-148h-842zM404 1215l189 288h219l-262 -288h-146z" />
<glyph unicode="&#x17b;" horiz-adv-x="1201" d="M84 0v141l782 1131h-769v155h995v-138l-785 -1135h816v-154h-1039zM498 1644q0 44 27 74.5t80 30.5t80.5 -30.5t27.5 -74.5t-27.5 -73.5t-80.5 -29.5t-80 29.5t-27 73.5z" />
<glyph unicode="&#x17c;" horiz-adv-x="994" d="M86 0v133l585 777h-576v150h804v-128l-591 -784h620v-148h-842zM398 1340q0 44 27 74.5t80 30.5t80.5 -30.5t27.5 -74.5t-27.5 -73.5t-80.5 -29.5t-80 29.5t-27 73.5z" />
<glyph unicode="&#x17d;" horiz-adv-x="1201" d="M84 0v141l782 1131h-769v155h995v-138l-785 -1135h816v-154h-1039zM301 1799v10h154l148 -166l147 166h157v-10l-249 -268h-111z" />
<glyph unicode="&#x17e;" horiz-adv-x="994" d="M86 0v133l585 777h-576v150h804v-128l-591 -784h620v-148h-842zM201 1495v10h154l148 -166l147 166h157v-10l-249 -268h-111z" />
<glyph unicode="&#x17f;" horiz-adv-x="497" d="M157 0v1174q1 166 87 259t245 93q58 0 140 -21l-22 -139q-40 11 -90 11q-179 0 -179 -217v-1160h-181z" />
<glyph unicode="&#x18f;" horiz-adv-x="1386" d="M91 637v115h992v7q0 252 -119.5 391.5t-336.5 139.5q-161 0 -298 -57l-59 -26l-47 141l22 12q155 86 382 86q296 0 470.5 -184.5t174.5 -512.5v-83q0 -193 -76.5 -350t-212.5 -246.5t-300 -89.5q-279 0 -435.5 169t-156.5 488zM280 572q0 -213 103.5 -325t299.5 -112 q166 0 274.5 128t123.5 343h-801v-34z" />
<glyph unicode="&#x192;" horiz-adv-x="683" d="M-27 -411l13 144q30 -12 95 -12q64 0 99 51t35 141v1007h-168v140h168v118q2 164 87.5 256t243.5 92q58 0 140 -21l-22 -144q-37 10 -96 10q-167 0 -171 -191v-120h199v-140h-199v-1005q0 -164 -82.5 -253.5t-233.5 -89.5q-59 0 -108 17z" />
<glyph unicode="&#x1a0;" horiz-adv-x="1377" d="M99 660v98q0 205 71.5 362.5t202.5 241.5t299 84q235 0 387 -151q94 6 140 70.5t46 193.5h163q0 -326 -257 -386q95 -169 96 -410v-96q0 -209 -71 -365.5t-200 -239t-302 -82.5q-167 0 -297.5 82.5t-203.5 238.5t-74 359zM286 667q0 -246 103.5 -386.5t284.5 -140.5 q187 0 286.5 138t99.5 390v92q0 252 -101 388.5t-287 136.5q-178 0 -280.5 -136t-105.5 -377v-105z" />
<glyph unicode="&#x1a1;" horiz-adv-x="1146" d="M89 527v13q0 156 60.5 280t170.5 192t250 68q203 0 336 -135q70 8 101.5 57t31.5 174h147q0 -285 -203 -335q71 -135 71 -301v-22q0 -154 -60.5 -278.5t-170.5 -192t-251 -67.5q-217 0 -350 150.5t-133 396.5zM270 518q0 -176 82 -283t220 -107q137 0 218.5 107.5 t81.5 288.5v16q0 177 -82.5 284t-219.5 107q-135 0 -217.5 -107t-82.5 -306z" />
<glyph unicode="&#x1af;" horiz-adv-x="1395" d="M137 455v972h186v-966q0 -155 85.5 -241t243.5 -86q159 0 244 85.5t85 240.5v967h189v-209q113 11 160.5 78t47.5 211h156q0 -206 -87 -308t-277 -114v-629q-1 -195 -120.5 -322.5t-326.5 -149.5l-71 -4q-235 0 -374 126.5t-141 348.5z" />
<glyph unicode="&#x1b0;" horiz-adv-x="1241" d="M133 370v690h182v-685q0 -241 196 -241q207 0 276 155v771h181v-128q67 2 100.5 19t47.5 52.5t14 141.5h139q0 -177 -72 -249t-229 -76v-820h-172l-4 105q-106 -125 -311 -125q-169 0 -258 98.5t-90 291.5z" />
<glyph unicode="&#x1f0;" horiz-adv-x="504" d="M-74 -411l13 144q30 -12 95 -12q64 0 99.5 51t35.5 141v1147h181v-1147q0 -167 -83.5 -254t-232.5 -87q-58 0 -108 17zM-42 1456v10h154l148 -166l147 166h157v-10l-249 -268h-111z" />
<glyph unicode="&#x1fa;" d="M27 0l545 1427h165l546 -1427h-193l-136 372h-598l-135 -372h-194zM413 527h485l-243 668zM494 1510q0 69 49 116.5t119 47.5q67 0 115.5 -46t48.5 -118q0 -70 -47.5 -115t-116.5 -45q-70 0 -119 46t-49 114zM577 1510q0 -34 25 -58.5t60 -24.5t58.5 24t23.5 59 q0 37 -23.5 61.5t-58.5 24.5q-36 0 -60.5 -25.5t-24.5 -60.5zM621 1721l142 180h186l-216 -180h-112z" />
<glyph unicode="&#x1fb;" horiz-adv-x="1091" d="M107 294q0 166 126 257.5t354 91.5h176v83q0 95 -56.5 151.5t-167.5 56.5q-97 0 -162.5 -49t-65.5 -119h-183q0 80 56.5 154t153 117t212.5 43q183 0 287 -91.5t108 -252.5v-488q0 -146 37 -232v-16h-190q-16 31 -26 112q-126 -132 -301 -132q-157 0 -257.5 89 t-100.5 225zM288 319q0 -85 57 -133t146 -48q85 0 161.5 44t110.5 115v217h-142q-333 0 -333 -195zM405 1207q0 69 49 116.5t119 47.5q67 0 115.5 -46t48.5 -118q0 -70 -47.5 -115t-116.5 -45q-70 0 -119 46t-49 114zM488 1207q0 -34 25 -58.5t60 -24.5t58.5 24t23.5 59 q0 37 -23.5 61.5t-58.5 24.5q-36 0 -60.5 -25.5t-24.5 -60.5zM532 1418l142 180h186l-216 -180h-112z" />
<glyph unicode="&#x1fc;" horiz-adv-x="1875" d="M-14 0l863 1427h932v-149h-678l20 -462h578v-148h-572l22 -520h690v-148h-865l-15 346h-552l-201 -346h-222zM508 516h447l-31 719zM820 1531l189 288h219l-262 -288h-146z" />
<glyph unicode="&#x1fd;" horiz-adv-x="1694" d="M76 298q0 154 111.5 239t327.5 85h219v84q0 104 -54 164.5t-156 60.5q-103 0 -171.5 -54t-68.5 -133l-180 18q0 141 118.5 229.5t301.5 88.5q113 0 199 -40.5t135 -122.5q62 78 147.5 120.5t188.5 42.5q205 0 319 -126t114 -354v-113h-714q7 -172 92.5 -266t231.5 -94 q145 0 263 75l46 30l63 -133q-155 -119 -372 -119q-256 0 -389 177q-64 -84 -174.5 -130.5t-249.5 -46.5q-163 0 -255.5 85t-92.5 233zM259 294q0 -75 52 -121t149 -46q70 0 147.5 36.5t126.5 89.5v232h-223q-115 -2 -183.5 -56t-68.5 -135zM742 1216l189 288h219l-262 -288 h-146zM918 627h528v31q0 129 -66 201t-186 72q-113 0 -186 -84t-90 -220z" />
<glyph unicode="&#x1fe;" horiz-adv-x="1379" d="M116 676v82q0 205 71.5 363t202 241.5t299.5 83.5q210 0 355 -122l101 162h138l-156 -250q134 -183 136 -472v-97q0 -209 -70.5 -365.5t-200 -239t-301.5 -82.5q-168 0 -296 81l-95 -152h-139l141 226q-186 188 -186 541zM303 667q0 -239 96 -377l553 886 q-100 109 -263 109q-178 0 -280.5 -136t-105.5 -377v-105zM483 203q89 -63 208 -63q182 0 282 133t103 381v106q0 178 -55 306zM600 1591l189 288h219l-262 -288h-146z" />
<glyph unicode="&#x1ff;" horiz-adv-x="1136" d="M89 540q0 156 60.5 280t170.5 192t250 68q108 0 200 -41l72 145h121l-100 -201q191 -151 191 -465q0 -154 -60.5 -278.5t-170.5 -192t-251 -67.5q-102 0 -186 35l-72 -146h-122l98 199q-201 146 -201 472zM270 518q0 -190 96 -298l336 680q-61 31 -132 31 q-135 0 -217.5 -107t-82.5 -306zM426 1215l189 288h219l-262 -288h-146zM454 153q54 -25 118 -25q137 0 218.5 107.5t81.5 288.5v16q0 178 -85 287z" />
<glyph unicode="&#x218;" horiz-adv-x="1190" d="M78 414h190q0 -130 95.5 -205t254.5 -75q149 0 228.5 61t79.5 166t-73.5 162t-266.5 113q-242 70 -352.5 171t-110.5 250q0 169 135 279t351 110q147 0 262 -56.5t178 -156.5t63 -219h-189q0 130 -82 204t-232 74q-140 0 -217.5 -61.5t-77.5 -170.5q0 -87 74 -147 t251.5 -110t278 -110.5t149 -141t48.5 -188.5q0 -174 -135 -278.5t-362 -104.5q-147 0 -274 56.5t-196.5 154.5t-69.5 223zM456 -432q71 107 73 231v90h173v-74q0 -89 -38.5 -177t-104.5 -141z" />
<glyph unicode="&#x219;" horiz-adv-x="1034" d="M93 326h181q5 -91 73.5 -144.5t179.5 -53.5q103 0 165.5 42t62.5 111q0 74 -55.5 114.5t-193.5 70t-218.5 70.5t-119.5 98t-39 135q0 131 110.5 221t281.5 90q181 0 293 -93t112 -238h-182q0 74 -63.5 128t-159.5 54q-99 0 -154.5 -43t-55.5 -113q0 -65 52 -98.5 t187.5 -64t220 -72.5t125 -101.5t40.5 -144.5q0 -142 -113.5 -228t-295.5 -86q-127 0 -225 45.5t-153.5 126t-55.5 174.5zM391 -432q71 107 73 231v90h173v-74q0 -89 -38.5 -177t-104.5 -141z" />
<glyph unicode="&#x21a;" horiz-adv-x="1197" d="M48 1272v155h1104v-155h-459v-1272h-187v1272h-458zM441 -432q71 107 73 231v90h173v-74q0 -89 -38.5 -177t-104.5 -141z" />
<glyph unicode="&#x21b;" horiz-adv-x="655" d="M9 920v140h193v257h181v-257h198v-140h-198v-657q0 -64 26.5 -96t90.5 -32q31 0 86 12v-147q-72 -20 -139 -20q-122 0 -183.5 73.5t-61.5 209.5v657h-193zM283 -432q71 107 73 231v90h173v-74q0 -89 -38.5 -177t-104.5 -141z" />
<glyph unicode="&#x2c6;" horiz-adv-x="944" d="M166 1227v12l241 266h109l243 -268v-10h-150l-147 167l-146 -167h-150z" />
<glyph unicode="&#x2c7;" horiz-adv-x="890" d="M137 1494v10h154l148 -166l147 166h157v-10l-249 -268h-111z" />
<glyph unicode="&#x2d8;" horiz-adv-x="856" d="M126 1465h148q0 -69 37.5 -107.5t108.5 -38.5q69 0 107.5 38.5t38.5 107.5h147q0 -118 -80.5 -190.5t-212 -72.5t-213 73t-81.5 190z" />
<glyph unicode="&#x2d9;" horiz-adv-x="487" d="M138 1340q0 44 27 74.5t80 30.5t80.5 -30.5t27.5 -74.5t-27.5 -73.5t-80.5 -29.5t-80 29.5t-27 73.5z" />
<glyph unicode="&#x2da;" horiz-adv-x="671" d="M119 1380q0 84 60 144t150 60t150.5 -60t60.5 -144q0 -85 -61 -142.5t-150 -57.5q-90 0 -150 58t-60 142zM216 1380q0 -46 32.5 -79.5t80.5 -33.5q47 0 80.5 32.5t33.5 80.5t-33 81.5t-81 33.5q-49 0 -81 -34t-32 -81z" />
<glyph unicode="&#x2db;" horiz-adv-x="542" d="M49 -238q0 87 65.5 162.5t186.5 130.5l73 -55l-56 -44q-111 -89 -111 -174q0 -70 76 -70q47 0 98 25l13 -118q-69 -43 -157 -43q-87 0 -137.5 51t-50.5 135z" />
<glyph unicode="&#x2dc;" horiz-adv-x="946" d="M121 1223q0 105 59 173.5t150 68.5q35 0 62 -9.5t74.5 -38t72.5 -37.5t55 -9q42 0 70 33.5t28 77.5l121 -12q0 -106 -60 -171.5t-150 -65.5q-40 0 -69.5 9.5t-77 40t-68.5 37t-49 6.5q-40 0 -68.5 -31t-28.5 -79z" />
<glyph unicode="&#x2dd;" horiz-adv-x="748" d="M92 1207l168 297h193l-214 -297h-147zM367 1207l226 297h203l-264 -297h-165z" />
<glyph unicode="&#x3c0;" horiz-adv-x="1195" d="M40 910v150h1074v-150h-153v-640q0 -63 26.5 -95t90.5 -32q47 0 85 12l1 -148q-68 -19 -140 -19q-244 0 -244 288v634h-393v-910h-181v910h-166z" />
<glyph unicode="&#x400;" horiz-adv-x="1140" d="M166 0v1427h896v-155h-708v-459h618v-153h-618v-506h718v-154h-906zM302 1819h218l191 -288h-156z" />
<glyph unicode="&#x401;" horiz-adv-x="1140" d="M166 0v1427h896v-155h-708v-459h618v-153h-618v-506h718v-154h-906zM292 1660q0 44 27 73.5t80 29.5t80.5 -29.5t27.5 -74t-27.5 -73.5t-80.5 -29t-80 29t-27 74zM713 1658q0 44 27 74t80 30t80.5 -30t27.5 -74t-27.5 -73.5t-80.5 -29.5t-80 29.5t-27 73.5z" />
<glyph unicode="&#x402;" horiz-adv-x="1504" d="M41 1272v155h1108v-155h-512v-446q154 47 283 47q239 0 373.5 -118t134.5 -330.5t-127.5 -324t-359.5 -111.5l-2 147q152 0 226.5 71t74.5 216q-2 140 -82 213.5t-239 73.5q-147 0 -282 -46v-664h-189v1272h-407z" />
<glyph unicode="&#x403;" horiz-adv-x="1116" d="M173 0v1427h878v-155h-688v-1272h-190zM513 1531l189 288h219l-262 -288h-146z" />
<glyph unicode="&#x404;" horiz-adv-x="1352" d="M121 647v136q0 197 70 348.5t200.5 233t303.5 81.5q227 0 364.5 -126.5t159.5 -351.5h-188q-25 169 -106.5 246.5t-229.5 77.5q-181 0 -282 -133t-103 -362h558v-154h-558v-2q0 -232 97 -369.5t271 -137.5q157 0 241 71t111 248h189q-26 -227 -167 -350t-374 -123 q-253 0 -405 181.5t-152 485.5z" />
<glyph unicode="&#x405;" horiz-adv-x="1190" d="M78 414h190q0 -130 95.5 -205t254.5 -75q149 0 228.5 61t79.5 166t-73.5 162t-266.5 113q-242 70 -352.5 171t-110.5 250q0 169 135 279t351 110q147 0 262 -56.5t178 -156.5t63 -219h-189q0 130 -82 204t-232 74q-140 0 -217.5 -61.5t-77.5 -170.5q0 -87 74 -147 t251.5 -110t278 -110.5t149 -141t48.5 -188.5q0 -174 -135 -278.5t-362 -104.5q-147 0 -274 56.5t-196.5 154.5t-69.5 223z" />
<glyph unicode="&#x406;" horiz-adv-x="545" d="M179 0v1427h189v-1427h-189z" />
<glyph unicode="&#x407;" horiz-adv-x="545" d="M-41 1660q0 44 27 73.5t80 29.5t80.5 -29.5t27.5 -74t-27.5 -73.5t-80.5 -29t-80 29t-27 74zM179 0v1427h189v-1427h-189zM380 1658q0 44 27 74t80 30t80.5 -30t27.5 -74t-27.5 -73.5t-80.5 -29.5t-80 29.5t-27 73.5z" />
<glyph unicode="&#x408;" horiz-adv-x="1107" d="M52 394h188q0 -123 67 -191.5t195 -68.5q116 0 188 73.5t73 206.5v1013h190v-1011q0 -204 -123 -320t-328 -116q-213 0 -331.5 109t-118.5 305z" />
<glyph unicode="&#x409;" horiz-adv-x="2149" d="M48 0v154l39 2q91 7 140 59.5t74.5 167t36.5 352.5l30 692h869v-554h354q217 -3 345.5 -120.5t128.5 -316.5q0 -194 -126.5 -313t-344.5 -123h-545v1272h-502l-26 -565q-14 -285 -58 -428t-128 -210t-225 -69h-62zM1237 154h344q137 0 216.5 77.5t79.5 206.5 q0 126 -77 202t-212 78h-351v-564z" />
<glyph unicode="&#x40a;" horiz-adv-x="2167" d="M173 0v1427h190v-619h703v619h188v-598h355q222 -3 347.5 -113.5t125.5 -296.5q0 -187 -125.5 -301t-344.5 -118h-546v655h-703v-655h-190zM1254 163h344q140 0 218 69.5t78 188.5q0 114 -74.5 182.5t-209.5 71.5h-356v-512z" />
<glyph unicode="&#x40b;" horiz-adv-x="1632" d="M61 1272v155h1105v-155h-517v-423q157 39 328 39q245 0 363.5 -107t121.5 -323v-458h-189v453q-1 149 -68 214.5t-228 65.5q-166 0 -328 -41v-692h-188v1272h-400z" />
<glyph unicode="&#x40c;" horiz-adv-x="1258" d="M166 0v1427h188v-706l634 706h227l-561 -630l605 -797h-225l-506 663l-174 -181v-482h-188zM492 1513l189 288h219l-262 -288h-146z" />
<glyph unicode="&#x40d;" horiz-adv-x="1430" d="M173 0v1427h190v-1100l702 1100h188v-1427h-188v1100l-702 -1100h-190zM414 1819h218l191 -288h-156z" />
<glyph unicode="&#x40e;" horiz-adv-x="1261" d="M75 1427h211l370 -828l328 828h218l-504 -1189q-51 -114 -95 -161.5t-103.5 -72.5t-148.5 -25q-78 0 -99 9l6 149l89 -4q103 0 153 99l24 51l38 87zM340 1782h148q0 -69 37.5 -107.5t108.5 -38.5q69 0 107.5 38.5t38.5 107.5h147q0 -118 -80.5 -190.5t-212 -72.5t-213 73 t-81.5 190z" />
<glyph unicode="&#x40f;" horiz-adv-x="1430" d="M172 0v1427h190v-1273h703v1273h188v-1427h-439v-352h-189v352h-453z" />
<glyph unicode="&#x410;" d="M27 0l545 1427h165l546 -1427h-193l-136 372h-598l-135 -372h-194zM413 527h485l-243 668z" />
<glyph unicode="&#x411;" horiz-adv-x="1265" d="M159 0v1427h877v-155h-688v-427h355q223 -3 348.5 -115t125.5 -304q0 -193 -126.5 -307.5t-344.5 -118.5h-547zM348 154h344q140 0 218 74.5t78 199.5q0 121 -75 190.5t-213 71.5h-352v-536z" />
<glyph unicode="&#x412;" horiz-adv-x="1249" d="M166 0v1427h466q232 0 349.5 -96t117.5 -284q0 -100 -57 -177t-155 -119q116 -33 183 -123.5t67 -215.5q0 -192 -124.5 -302t-351.5 -110h-495zM354 154h310q132 0 208 68t76 188q0 257 -281 257h-313v-513zM354 818h284q123 0 197 62t74 168q0 117 -68.5 170.5 t-208.5 53.5h-278v-454z" />
<glyph unicode="&#x413;" horiz-adv-x="1116" d="M173 0v1427h878v-155h-688v-1272h-190z" />
<glyph unicode="&#x414;" horiz-adv-x="1509" d="M49 154h117q92 104 146.5 279t67.5 383l32 611h853v-1273h186l-2 -504h-187v350h-1024v-351h-188zM380 154h696v1118h-483l-21 -419q-12 -246 -64.5 -419.5t-127.5 -279.5z" />
<glyph unicode="&#x415;" horiz-adv-x="1140" d="M166 0v1427h896v-155h-708v-459h618v-153h-618v-506h718v-154h-906z" />
<glyph unicode="&#x416;" horiz-adv-x="1821" d="M26 0l481 753l-443 674h222l379 -619h162v619h188v-619h155l379 619h222l-443 -673l480 -754h-234l-406 651h-153v-651h-188v651h-162l-403 -651h-236z" />
<glyph unicode="&#x417;" horiz-adv-x="1190" d="M78 396h189q0 -113 89 -188t226 -75q154 0 245.5 71.5t91.5 189.5q0 251 -310 256h-177v155h176q143 3 216.5 64.5t73.5 174.5t-83 180.5t-233 67.5q-125 0 -210 -69.5t-85 -170.5h-188q0 113 62 203.5t174 140.5t247 50q239 0 371.5 -107t132.5 -298q0 -99 -61 -180.5 t-169 -128.5q251 -84 251 -334q0 -192 -143 -305t-382 -113q-142 0 -258 50.5t-181 144t-65 221.5z" />
<glyph unicode="&#x418;" horiz-adv-x="1430" d="M173 0v1427h190v-1100l702 1100h188v-1427h-188v1100l-702 -1100h-190z" />
<glyph unicode="&#x419;" horiz-adv-x="1430" d="M173 0v1427h190v-1100l702 1100h188v-1427h-188v1100l-702 -1100h-190zM425 1782h148q0 -69 37.5 -107.5t108.5 -38.5q69 0 107.5 38.5t38.5 107.5h147q0 -118 -80.5 -190.5t-212 -72.5t-213 73t-81.5 190z" />
<glyph unicode="&#x41a;" horiz-adv-x="1289" d="M174 0v1427h189v-629h147l498 629h235l-545 -692l585 -735h-230l-517 641h-173v-641h-189z" />
<glyph unicode="&#x41b;" horiz-adv-x="1420" d="M46 0v154l39 2q91 7 140 59.5t74.5 167t36.5 352.5l30 692h879v-1427h-189v1272h-511l-26 -565q-14 -285 -58 -428t-128 -210t-225 -69h-62z" />
<glyph unicode="&#x41c;" horiz-adv-x="1752" d="M166 0v1427h243l466 -1164l467 1164h244v-1427h-189v556l18 599l-468 -1155h-144l-468 1152l19 -596v-556h-188z" />
<glyph unicode="&#x41d;" horiz-adv-x="1430" d="M166 0v1427h188v-614h719v614h189v-1427h-189v660h-719v-660h-188z" />
<glyph unicode="&#x41e;" horiz-adv-x="1379" d="M116 655v103q0 205 71.5 363t202 241.5t299.5 83.5q171 0 302 -82.5t201.5 -240t70.5 -365.5v-91q0 -209 -70.5 -365.5t-200 -239t-301.5 -82.5q-169 0 -299 83t-202 236.5t-74 355.5zM303 667q0 -246 103.5 -386.5t284.5 -140.5q182 0 282 133t103 381v106 q0 253 -102 389t-285 136q-178 0 -280.5 -136t-105.5 -377v-105z" />
<glyph unicode="&#x41f;" horiz-adv-x="1431" d="M174 0v1427h1081v-1427h-189v1272h-703v-1272h-189z" />
<glyph unicode="&#x420;" horiz-adv-x="1266" d="M166 0v1427h526q234 0 367 -119.5t133 -316.5q0 -208 -130 -320t-372 -112h-336v-559h-188zM354 712h338q151 0 231.5 71.5t80.5 205.5q0 127 -80.5 203.5t-220.5 79.5h-349v-560z" />
<glyph unicode="&#x421;" horiz-adv-x="1306" d="M117 647v137q0 199 71 350t201 231.5t302 80.5q227 0 364.5 -126.5t159.5 -351.5h-189q-24 171 -106 247.5t-229 76.5q-180 0 -282.5 -133.5t-102.5 -379.5v-138q0 -232 97 -369.5t271 -137.5q157 0 241 71t111 248h189q-26 -227 -167 -350t-374 -123q-253 0 -405 181.5 t-152 485.5z" />
<glyph unicode="&#x422;" horiz-adv-x="1197" d="M48 1272v155h1104v-155h-459v-1272h-187v1272h-458z" />
<glyph unicode="&#x423;" horiz-adv-x="1261" d="M75 1427h211l370 -828l328 828h218l-504 -1189q-51 -114 -95 -161.5t-103.5 -72.5t-148.5 -25q-78 0 -99 9l6 149l89 -4q103 0 153 99l24 51l38 87z" />
<glyph unicode="&#x424;" horiz-adv-x="1548" d="M81 708.5q0 163.5 74 295t208 206t298 74.5h27v202h182v-202h31q161 -1 294.5 -75.5t207.5 -205.5t74 -293t-74.5 -294.5t-206 -206.5t-291.5 -76h-35v-192h-182v192h-27q-164 0 -298 74.5t-208 206t-74 295zM262 709q0 -202 106.5 -314.5t293.5 -112.5h26v854h-27 q-185 0 -292 -113.5t-107 -313.5zM870 282h28q187 0 292.5 115.5t105.5 312.5q0 196 -105.5 311t-296.5 115h-24v-854z" />
<glyph unicode="&#x425;" horiz-adv-x="1258" d="M56 0l462 719l-451 708h220l344 -547l342 547h222l-451 -708l461 -719h-223l-351 557l-353 -557h-222z" />
<glyph unicode="&#x426;" horiz-adv-x="1467" d="M172 0v1427h189v-1273h703v1273h188v-1269h150l-17 -502h-170v344h-1043z" />
<glyph unicode="&#x427;" horiz-adv-x="1373" d="M147 969v458h189v-453q1 -149 68 -214.5t227 -65.5q186 0 379 53v680h190v-1427h-190v591q-103 -29 -187 -40.5t-192 -11.5q-244 0 -362.5 106t-121.5 324z" />
<glyph unicode="&#x428;" horiz-adv-x="1888" d="M172 0v1427h190v-1273h491v1273h187v-1273h488v1273h188v-1427h-1544z" />
<glyph unicode="&#x429;" horiz-adv-x="1944" d="M172 0v1427h190v-1273h491v1273h187v-1273h488v1273h188v-1279h144l-18 -492h-161v344h-1509z" />
<glyph unicode="&#x42a;" horiz-adv-x="1522" d="M16 1278v149h591v-582h339q234 0 361.5 -112.5t127.5 -306.5q0 -193 -126.5 -308t-348.5 -118h-543v1278h-401zM607 154h344q139 0 217 74.5t78 199.5q0 121 -75 190.5t-213 71.5h-351v-536z" />
<glyph unicode="&#x42b;" horiz-adv-x="1735" d="M174 0v1427h189v-582h354q224 -3 349.5 -115t125.5 -304q0 -193 -126.5 -307.5t-345.5 -118.5h-546zM363 154h344q140 0 218 74.5t78 199.5q0 121 -75 190.5t-214 71.5h-351v-536zM1364 0v1427h188v-1427h-188z" />
<glyph unicode="&#x42c;" horiz-adv-x="1259" d="M160 0v1427h188v-582h355q223 -3 348.5 -115t125.5 -304q0 -193 -126.5 -307.5t-344.5 -118.5h-546zM348 154h344q140 0 218 74.5t78 199.5q0 121 -75 190.5t-213 71.5h-352v-536z" />
<glyph unicode="&#x42d;" horiz-adv-x="1352" d="M144 453h189q28 -177 111.5 -248t240.5 -71q170 0 268.5 132.5t100.5 367.5h-562v155h562q0 232 -101.5 367.5t-284.5 135.5q-147 0 -228.5 -76.5t-106.5 -247.5h-189q23 225 160 351.5t364 126.5q173 0 303.5 -81.5t201 -233t70.5 -348.5v-142q0 -197 -70 -348 t-196.5 -232t-291.5 -81q-233 0 -373.5 123t-167.5 350z" />
<glyph unicode="&#x42e;" horiz-adv-x="1794" d="M179 0v1427h189v-655h203q3 202 73.5 354.5t201 236t299.5 83.5q171 0 302 -82.5t201.5 -240t70.5 -365.5v-91q0 -209 -70.5 -365.5t-200 -239t-301.5 -82.5q-163 0 -292 78.5t-202 224.5t-81 341h-204v-624h-189zM759 667q0 -246 103 -386.5t285 -140.5t282 133t103 381 v106q0 253 -102 389t-285 136q-179 0 -281.5 -136t-104.5 -377v-105z" />
<glyph unicode="&#x42f;" horiz-adv-x="1277" d="M87 0l331 608q-276 108 -276 389q0 203 134 316.5t372 113.5h454v-1427h-190v556h-329l-295 -556h-201zM330 997q0 -130 81 -208.5t225 -78.5h276v562h-267q-153 0 -234 -72.5t-81 -202.5z" />
<glyph unicode="&#x430;" horiz-adv-x="1091" d="M107 294q0 166 126 257.5t354 91.5h176v83q0 95 -56.5 151.5t-167.5 56.5q-97 0 -162.5 -49t-65.5 -119h-183q0 80 56.5 154t153 117t212.5 43q183 0 287 -91.5t108 -252.5v-488q0 -146 37 -232v-16h-190q-16 31 -26 112q-126 -132 -301 -132q-157 0 -257.5 89 t-100.5 225zM288 319q0 -85 57 -133t146 -48q85 0 161.5 44t110.5 115v217h-142q-333 0 -333 -195z" />
<glyph unicode="&#x431;" horiz-adv-x="1109" d="M95 506v88q0 334 124 531t366 240q137 25 185 60t48 97h149q0 -123 -55 -191.5t-177 -96.5l-135 -31q-162 -38 -243 -128.5t-105 -241.5q144 167 351 167q200 0 320 -134t120 -352v-17q0 -150 -58 -268t-166.5 -183.5t-249.5 -65.5q-213 0 -343.5 143t-130.5 383z M277 497q0 -171 79 -270.5t213 -99.5q136 0 214 100t78 292q0 150 -78.5 241t-215.5 91q-133 0 -211.5 -90t-78.5 -248v-16z" />
<glyph unicode="&#x432;" horiz-adv-x="1146" d="M154 0v1060h413q212 0 325 -74t113 -217q0 -73 -44 -132.5t-130 -90.5q96 -23 154.5 -88.5t58.5 -156.5q0 -146 -107.5 -223.5t-303.5 -77.5h-479zM335 146h300q114 0 170 42t56 119q0 159 -233 159h-293v-320zM335 611h234q255 0 255 148.5t-241 153.5h-248v-302z" />
<glyph unicode="&#x433;" horiz-adv-x="841" d="M151 0v1060h671v-150h-489v-910h-182z" />
<glyph unicode="&#x434;" horiz-adv-x="1211" d="M45 -312l1 460h82l63 77q106 138 121 412l16 423h683v-912h137v-460h-182v312h-740v-312h-181zM343 148h487v745h-326l-11 -253q-17 -317 -150 -492z" />
<glyph unicode="&#x435;" horiz-adv-x="1063" d="M91 501v33q0 158 60.5 282t168.5 194t235 70q206 0 321 -136t115 -390v-76h-719q4 -157 92 -253.5t223 -96.5q96 0 162.5 39.5t116.5 103.5l111 -86q-133 -205 -400 -205q-215 0 -350.5 142t-135.5 379zM278 627h531v14q-7 138 -74 214t-180 76q-110 0 -184.5 -80 t-92.5 -224z" />
<glyph unicode="&#x436;" horiz-adv-x="1536" d="M21 0l379 549l-343 511h219l274 -439h124v439h182v-439h123l275 439h220l-344 -512l379 -548h-229l-297 461h-127v-461h-182v461h-127l-297 -461h-229z" />
<glyph unicode="&#x437;" horiz-adv-x="1019" d="M86 314h181q0 -78 69 -133.5t172 -55.5q104 0 167.5 48t63.5 125q0 89 -53.5 128t-166.5 39h-181v152h197q185 5 185 153q0 75 -56.5 118.5t-155.5 43.5q-96 0 -160.5 -50t-64.5 -118h-180q0 139 115.5 227t289.5 88q186 0 290 -80t104 -228q0 -71 -43.5 -131t-122.5 -95 q185 -63 185 -247q0 -146 -112.5 -231.5t-300.5 -85.5q-184 0 -303 90t-119 243z" />
<glyph unicode="&#x438;" horiz-adv-x="1158" d="M153 0v1060h181v-774l489 774h181v-1060h-181v773l-489 -773h-181z" />
<glyph unicode="&#x439;" horiz-adv-x="1158" d="M153 0v1060h181v-774l489 774h181v-1060h-181v773l-489 -773h-181zM285 1446h148q0 -69 37.5 -107.5t108.5 -38.5q69 0 107.5 38.5t38.5 107.5h147q0 -118 -80.5 -190.5t-212 -72.5t-213 73t-81.5 190z" />
<glyph unicode="&#x43a;" horiz-adv-x="1083" d="M153 0v1060h182v-448h119l356 448h220l-419 -509l454 -551h-230l-368 452h-132v-452h-182z" />
<glyph unicode="&#x43b;" horiz-adv-x="1160" d="M43 0v160l52 4q88 9 126.5 101.5t48.5 341.5l20 453h716v-1060h-182v910h-360l-22 -396q-18 -274 -92 -391.5t-234 -122.5h-73z" />
<glyph unicode="&#x43c;" horiz-adv-x="1488" d="M154 0v1060h235l359 -820l360 820h227v-1060h-182v771l-343 -771h-125l-350 788v-788h-181z" />
<glyph unicode="&#x43d;" horiz-adv-x="1157" d="M153 0v1060h182v-459h487v459h182v-1060h-182v453h-487v-453h-182z" />
<glyph unicode="&#x43e;" horiz-adv-x="1144" d="M89 527v13q0 156 61.5 280.5t170.5 192t249 67.5q217 0 350.5 -150t133.5 -399v-13q0 -154 -59 -277t-169.5 -192t-253.5 -69q-215 0 -349 150t-134 397zM271 518q0 -176 82 -283t219 -107q138 0 219.5 108.5t81.5 303.5q0 174 -82.5 282.5t-220.5 108.5 q-134 0 -216.5 -107t-82.5 -306z" />
<glyph unicode="&#x43f;" horiz-adv-x="1158" d="M153 0v1060h851v-1060h-181v910h-488v-910h-182z" />
<glyph unicode="&#x440;" horiz-adv-x="1126" d="M137 -408v1468h166l9 -117q110 137 307 137q191 0 302.5 -144t111.5 -401v-17q0 -242 -111 -390t-300 -148q-193 0 -304 123v-511h-181zM318 273q82 -145 249 -145q131 0 208 103.5t77 307.5q0 179 -76.5 283t-210.5 104q-164 0 -247 -146v-507z" />
<glyph unicode="&#x441;" horiz-adv-x="1050" d="M90 520v31q0 155 57 275.5t163 187t252 66.5q178 0 296 -107t126 -277h-172q-7 103 -77.5 169t-172.5 66q-139 0 -215 -99.5t-76 -287.5v-34q0 -184 75.5 -283t216.5 -99q97 0 169.5 59t79.5 147h172q-5 -91 -63 -173.5t-154.5 -131.5t-203.5 -49q-217 0 -345 145 t-128 395z" />
<glyph unicode="&#x442;" horiz-adv-x="964" d="M39 913v147h886v-147h-356v-913h-181v913h-349z" />
<glyph unicode="&#x443;" horiz-adv-x="949" d="M22 1060h198l264 -794l247 794h194l-426 -1224q-99 -264 -315 -264l-34 3l-68 12v147l49 -4q92 0 143.5 37.5t85.5 136.5l40 108z" />
<glyph unicode="&#x444;" horiz-adv-x="1455" d="M98 496v15q0 265 103 417t282 152q83 0 146 -28v453h181v-459q69 34 161 34q181 0 283.5 -152t102.5 -438q0 -234 -102.5 -372.5t-281.5 -138.5q-95 0 -163 32v-419h-181v416q-65 -29 -148 -29q-178 0 -280.5 138.5t-102.5 378.5zM279 490q0 -178 64 -270.5t183 -92.5 q57 0 103 18v769q-41 17 -101 17q-119 0 -184 -107t-65 -334zM810 144q45 -17 110 -17q122 0 189 94.5t67 289.5q0 199 -68.5 309.5t-189.5 110.5q-61 0 -108 -20v-767z" />
<glyph unicode="&#x445;" horiz-adv-x="994" d="M40 0l358 536l-347 524h210l232 -387l235 387h212l-347 -524l358 -536h-210l-245 397l-245 -397h-211z" />
<glyph unicode="&#x446;" horiz-adv-x="1188" d="M153 0v1060h182v-912h488v912h181v-912h127l-18 -463h-162v315h-798z" />
<glyph unicode="&#x447;" horiz-adv-x="1090" d="M101 745v316h181v-322q5 -237 229 -237q125 0 245 31v527h182v-1060h-182v384q-120 -31 -245 -31q-199 0 -303.5 102t-106.5 290z" />
<glyph unicode="&#x448;" horiz-adv-x="1622" d="M153 0v1060h182v-912h388v912h182v-912h387v912h182v-1060h-1321z" />
<glyph unicode="&#x449;" horiz-adv-x="1660" d="M142 0v1060h182v-912h388v912h182v-912h387v912h182v-912h149l-18 -463h-162v315h-1290z" />
<glyph unicode="&#x44a;" horiz-adv-x="1245" d="M29 911v149h496v-365h276q180 -2 285 -94t105 -250q0 -159 -108 -255t-290 -96h-449v911h-315zM525 148h270q102 0 157.5 52.5t55.5 143.5q0 88 -54 144.5t-152 58.5h-277v-399z" />
<glyph unicode="&#x44b;" horiz-adv-x="1558" d="M154 0v1060h181v-365h276q180 -2 285 -94t105 -250q0 -159 -108 -255t-290 -96h-449zM335 148h270q102 0 157.5 52.5t55.5 143.5q0 88 -54 144.5t-152 58.5h-277v-399zM1197 0v1060h182v-1060h-182z" />
<glyph unicode="&#x44c;" horiz-adv-x="1089" d="M154 0v1060h181v-365h276q180 -2 285 -94t105 -250q0 -159 -108 -255t-290 -96h-449zM335 148h270q102 0 157.5 52.5t55.5 143.5q0 88 -54 144.5t-152 58.5h-277v-399z" />
<glyph unicode="&#x44d;" horiz-adv-x="1078" d="M98 364h172q0 -100 70 -168.5t170 -68.5q116 0 191.5 90.5t87.5 248.5h-398v148h396q-14 144 -87.5 230.5t-189.5 86.5q-97 0 -168.5 -61.5t-71.5 -146.5h-172q0 91 58 174.5t154 133t200 49.5q206 0 334 -149.5t128 -390.5v-30q0 -149 -58 -272t-163.5 -190.5 t-240.5 -67.5q-177 0 -294.5 110t-117.5 274z" />
<glyph unicode="&#x44e;" horiz-adv-x="1637" d="M154 0v1060h181v-449h255q21 211 150.5 340t327.5 129q208 0 340.5 -140t142.5 -365l1 -57q0 -154 -60.5 -278.5t-170.5 -192t-251 -67.5q-205 0 -335 134t-146 348h-254v-462h-181zM768 518q0 -176 82 -283t220 -107t219 109t81 303q0 173 -82.5 282t-219.5 109 q-135 0 -217.5 -107t-82.5 -306z" />
<glyph unicode="&#x44f;" horiz-adv-x="1101" d="M46 0l267 440q-102 37 -156.5 115t-54.5 182q0 145 108.5 233.5t291.5 89.5h446v-1060h-183v413h-273l-250 -413h-196zM284 735q0 -77 53 -124.5t140 -48.5h288v351h-260q-101 0 -161 -49.5t-60 -128.5z" />
<glyph unicode="&#x450;" horiz-adv-x="1063" d="M91 501v33q0 158 60.5 282t168.5 194t235 70q206 0 321 -136t115 -390v-76h-719q4 -157 92 -253.5t223 -96.5q96 0 162.5 39.5t116.5 103.5l111 -86q-133 -205 -400 -205q-215 0 -350.5 142t-135.5 379zM249 1503h218l191 -288h-156zM278 627h531v14q-7 138 -74 214 t-180 76q-110 0 -184.5 -80t-92.5 -224z" />
<glyph unicode="&#x451;" horiz-adv-x="1063" d="M91 501v33q0 158 60.5 282t168.5 194t235 70q206 0 321 -136t115 -390v-76h-719q4 -157 92 -253.5t223 -96.5q96 0 162.5 39.5t116.5 103.5l111 -86q-133 -205 -400 -205q-215 0 -350.5 142t-135.5 379zM239 1344q0 44 27 73.5t80 29.5t80.5 -29.5t27.5 -74t-27.5 -73.5 t-80.5 -29t-80 29t-27 74zM278 627h531v14q-7 138 -74 214t-180 76q-110 0 -184.5 -80t-92.5 -224zM660 1342q0 44 27 74t80 30t80.5 -30t27.5 -74t-27.5 -73.5t-80.5 -29.5t-80 29.5t-27 73.5z" />
<glyph unicode="&#x452;" horiz-adv-x="1105" d="M-24 1185v149h161v171h181v-171h281v-149h-281v-253q121 148 314 148q336 0 339 -379v-788q0 -167 -83 -254t-232 -87q-60 0 -113 17l15 144q34 -12 97.5 -12t99 51t35.5 141v784q0 117 -51.5 173t-161.5 56q-88 0 -154.5 -47t-104.5 -123v-756h-181v1185h-161z" />
<glyph unicode="&#x453;" horiz-adv-x="841" d="M151 0v1060h671v-150h-489v-910h-182zM322 1195l189 288h219l-262 -288h-146z" />
<glyph unicode="&#x454;" horiz-adv-x="1078" d="M101 521v30q0 156 57.5 277t163 186.5t250.5 65.5q179 0 297 -107t126 -277h-173q-8 103 -78 169t-172 66q-127 0 -202.5 -86.5t-85.5 -240.5h396v-149h-396q10 -157 85 -242t203 -85q97 0 169.5 59t80.5 147h173q-5 -92 -64 -174.5t-155 -131t-204 -48.5 q-217 0 -344 145t-127 396z" />
<glyph unicode="&#x455;" horiz-adv-x="1034" d="M93 326h181q5 -91 73.5 -144.5t179.5 -53.5q103 0 165.5 42t62.5 111q0 74 -55.5 114.5t-193.5 70t-218.5 70.5t-119.5 98t-39 135q0 131 110.5 221t281.5 90q181 0 293 -93t112 -238h-182q0 74 -63.5 128t-159.5 54q-99 0 -154.5 -43t-55.5 -113q0 -65 52 -98.5 t187.5 -64t220 -72.5t125 -101.5t40.5 -144.5q0 -142 -113.5 -228t-295.5 -86q-127 0 -225 45.5t-153.5 126t-55.5 174.5z" />
<glyph unicode="&#x456;" horiz-adv-x="487" d="M138 1342q0 44 27 74t80 30t80.5 -30t27.5 -74t-27.5 -73.5t-80.5 -29.5t-80 29.5t-27 73.5zM153 0v1060h181v-1060h-181z" />
<glyph unicode="&#x457;" horiz-adv-x="495" d="M-67 1343q0 44 27 73.5t80 29.5t80.5 -29.5t27.5 -74t-27.5 -73.5t-80.5 -29t-80 29t-27 74zM152 0v1060h182v-1060h-182zM354 1341q0 44 27 74t80 30t80.5 -30t27.5 -74t-27.5 -73.5t-80.5 -29.5t-80 29.5t-27 73.5z" />
<glyph unicode="&#x458;" horiz-adv-x="479" d="M-64 -266q32 -7 83 -7q60 0 92 32.5t32 114.5v1186h181v-1182q0 -306 -277 -306q-60 0 -111 17v145zM124 1342q0 43 27 73.5t79 30.5q53 0 80.5 -30t27.5 -74t-27.5 -73.5t-80.5 -29.5t-79.5 29.5t-26.5 73.5z" />
<glyph unicode="&#x459;" horiz-adv-x="1702" d="M38 0v160l53 4q83 9 121 91t51 289l22 516h686v-403h280q179 -3 282.5 -92t103.5 -234q0 -144 -103.5 -236t-283.5 -95h-461v910h-330l-23 -413q-20 -272 -96 -383.5t-238 -113.5h-64zM971 146h270q99 0 156 51.5t57 135.5q0 80 -55.5 127t-152.5 48h-275v-362z" />
<glyph unicode="&#x45a;" horiz-adv-x="1728" d="M153 0v1060h182v-400h487v400h182v-404h284q176 -4 278.5 -91t102.5 -234q0 -148 -106.5 -239.5t-291.5 -91.5h-449v512h-487v-512h-182zM1004 146h269q99 0 156.5 51.5t57.5 135.5q0 80 -56 127t-153 48h-274v-362z" />
<glyph unicode="&#x45b;" horiz-adv-x="1137" d="M-3 1190v148h140v167h181v-167h302v-148h-302v-258q121 148 314 148q336 0 339 -379v-701h-181v702q-1 114 -52.5 169t-160.5 55q-88 0 -154.5 -47t-104.5 -123v-756h-181v1190h-140z" />
<glyph unicode="&#x45c;" horiz-adv-x="1083" d="M153 0v1060h182v-448h119l356 448h220l-419 -509l454 -551h-230l-368 452h-132v-452h-182zM430 1194l189 288h219l-262 -288h-146z" />
<glyph unicode="&#x45d;" horiz-adv-x="1158" d="M153 0v1060h181v-774l489 774h181v-1060h-181v773l-489 -773h-181zM274 1483h218l191 -288h-156z" />
<glyph unicode="&#x45e;" horiz-adv-x="949" d="M22 1060h198l264 -794l247 794h194l-426 -1224q-99 -264 -315 -264l-34 3l-68 12v147l49 -4q92 0 143.5 37.5t85.5 136.5l40 108zM204 1466h148q0 -69 37.5 -107.5t108.5 -38.5q69 0 107.5 38.5t38.5 107.5h147q0 -118 -80.5 -190.5t-212 -72.5t-213 73t-81.5 190z" />
<glyph unicode="&#x45f;" horiz-adv-x="1158" d="M153 0v1060h182v-912h488v912h181v-1060h-332v-349h-181v349h-338z" />
<glyph unicode="&#x460;" horiz-adv-x="1764" d="M153 386v1041h189v-1038q0 -120 56 -188t152 -68q112 0 175.5 67.5t63.5 188.5v1038h195v-1038q0 -122 60.5 -189t163.5 -67q104 0 164 67.5t60 189.5v1037h188v-1037q0 -194 -110.5 -302t-301.5 -108q-106 0 -190 43t-132 130q-51 -87 -138 -130t-198 -43 q-185 0 -290.5 107.5t-106.5 298.5z" />
<glyph unicode="&#x461;" horiz-adv-x="1547" d="M126 343v717h182v-718q1 -100 45.5 -157.5t125.5 -57.5q96 0 150.5 59t54.5 160v714h182v-714q0 -101 49.5 -160t139.5 -59q88 0 137.5 57.5t50.5 157.5v718h181v-714q0 -173 -99 -270t-270 -97q-194 0 -281 145q-93 -145 -295 -145q-163 0 -257.5 96t-95.5 268z" />
<glyph unicode="&#x462;" horiz-adv-x="1259" d="M-43 1082v148h203v197h188v-197h232v-148h-232v-237h355q223 -3 348.5 -115t125.5 -304q0 -193 -126.5 -307.5t-344.5 -118.5h-546v1082h-203zM348 154h344q140 0 218 74.5t78 199.5q0 121 -75 190.5t-213 71.5h-352v-536z" />
<glyph unicode="&#x463;" horiz-adv-x="1087" d="M-35 1060v148h187v319h182v-319h315v-148h-315v-329h275q183 -2 287 -101t104 -260.5t-104 -264t-284 -105.5h-460v1060h-187zM334 148h269q103 0 158 58.5t55 156.5q0 95 -54 156t-152 63h-276v-434z" />
<glyph unicode="&#x464;" horiz-adv-x="1798" d="M179 0v1427h189v-612h196q4 189 76 333.5t200.5 221.5t297.5 77q225 0 363 -125t161 -353h-188q-25 169 -106.5 246.5t-229.5 77.5q-177 0 -278 -128t-107 -350h531v-148h-531v-25q0 -232 97 -369.5t271 -137.5q160 0 242.5 72t110.5 247h188q-26 -227 -167 -350 t-374 -123q-253 0 -405 181.5t-152 485.5v19h-196v-667h-189z" />
<glyph unicode="&#x465;" horiz-adv-x="1497" d="M150 0v1060h182v-457h187q16 218 141 347.5t330 129.5q178 0 296 -107t126 -277h-172q-8 103 -78 169t-172 66q-130 0 -204.5 -86.5t-83.5 -241.5h428v-148h-428q9 -157 84 -242t204 -85q97 0 169.5 59t80.5 147h172q-5 -92 -63.5 -174.5t-154.5 -131t-204 -48.5 q-205 0 -329.5 128.5t-140.5 346.5h-188v-455h-182z" />
<glyph unicode="&#x466;" horiz-adv-x="1209" d="M39 0l515 1427h167l506 -1427h-193l-147 429h-167v-429h-184v429h-155l-149 -429h-193zM437 590h395l-195 573z" />
<glyph unicode="&#x467;" horiz-adv-x="1072" d="M15 0l433 1060h156l436 -1060h-186l-120 291h-115v-291h-181v291h-121l-117 -291h-185zM376 440h297l-125 309l-24 87l-23 -87z" />
<glyph unicode="&#x468;" horiz-adv-x="1766" d="M197 0v1427h189v-838h383l303 838h168l505 -1427h-193l-147 429h-166v-429h-185v429h-154l-149 -429h-193l154 431h-326v-431h-189zM956 590h394l-195 573z" />
<glyph unicode="&#x469;" horiz-adv-x="1516" d="M184 0v1060h183v-620h265l254 620h156l436 -1060h-186l-120 291h-115v-291h-181v291h-121l-117 -291h-185l118 290h-204v-290h-183zM814 440h297l-125 309l-24 87l-23 -87z" />
<glyph unicode="&#x46a;" horiz-adv-x="1710" d="M144 0v374q3 212 118.5 316t353.5 104h42l-385 633h1178l-384 -633h27q239 0 354.5 -104t118.5 -316v-374h-189v368q-1 142 -62 205.5t-212 65.5h-130l-20 -34v-605h-190v617l-12 22h-134q-154 0 -218 -60.5t-68 -198.5v-380h-188zM577 1272l278 -478h15l277 478h-570z " />
<glyph unicode="&#x46b;" horiz-adv-x="1474" d="M147 0v178q4 201 103 304t305 109l-282 469h940l-282 -469q202 -11 298.5 -114.5t98.5 -306.5v-170h-182v173q-2 144 -58.5 207t-193.5 63h-52l-11 -19v-424h-181v434l-6 9h-61q-137 0 -194.5 -62t-59.5 -208v-173h-182zM561 911l178 -319h8l179 319h-365z" />
<glyph unicode="&#x46c;" horiz-adv-x="2261" d="M178 0v1427h190v-631h839l-383 631h1179l-384 -633h26q240 0 355.5 -104t118.5 -316v-374h-189v368q-1 142 -62 205.5t-212 65.5h-130l-22 -36v-603h-188v616l-14 23h-132q-155 0 -218.5 -60.5t-67.5 -198.5v-380h-189v368q1 176 78 279h-405v-647h-190zM1129 1272 l277 -478h16l276 478h-569z" />
<glyph unicode="&#x46d;" horiz-adv-x="1960" d="M152 0v1060h182v-468h707l-281 468h939l-282 -469q202 -11 298.5 -114.5t98.5 -306.5v-170h-182v173q-2 144 -58.5 207t-193.5 63h-52l-11 -19v-424h-181v434l-6 9h-74q-130 -2 -184.5 -64.5t-56.5 -206.5v-172h-182v172q2 169 71 271h-370v-443h-182zM1047 911l178 -319 h8l179 319h-365z" />
<glyph unicode="&#x46e;" horiz-adv-x="1037" d="M78 -120q0 120 81 184t240 65h51q131 1 209 73.5t78 191.5q0 259 -316 264h-150v149h132q312 0 312 238q0 107 -76.5 170t-209.5 63h-300v149h293q218 0 346.5 -106t128.5 -280q0 -101 -63.5 -181.5t-175.5 -124.5q127 -40 194 -125t67 -212q0 -192 -129.5 -304.5 t-349.5 -112.5h-51q-138 -3 -138 -109q0 -103 127 -168l31 -15l-73 -122q-119 52 -188.5 134t-69.5 179zM230 1878v9h154l147 -166l148 166h157v-9l-249 -269h-112z" />
<glyph unicode="&#x46f;" horiz-adv-x="967" d="M74 -120q0 120 81 184t240 65h53q112 2 177 49q62 45 62 116q0 159 -274 162h-150v149h133q269 0 269 156q0 66 -62 106.5t-172 42.5h-305v150h290q197 0 314 -83t117 -219q0 -72 -50 -130.5t-139 -93.5q210 -65 210 -236q0 -145 -119 -231t-315 -86h-49 q-138 -3 -138 -109q0 -103 127 -168l31 -15l-74 -122q-121 54 -189 136t-68 177zM151 1543v9h154l147 -166l148 166h157v-9l-249 -269h-112z" />
<glyph unicode="&#x470;" horiz-adv-x="1388" d="M88 902v525h188v-519q1 -159 82 -264.5t227 -129.5v913h189v-914q153 22 238.5 127.5t85.5 271.5v515h189v-518q0 -155 -62.5 -275t-178.5 -192.5t-272 -86.5v-355h-189v355q-226 22 -360 168t-137 379z" />
<glyph unicode="&#x471;" horiz-adv-x="1405" d="M93 584v476h182v-488q2 -190 83.5 -301.5t240.5 -136.5v926h181v-927q168 24 263.5 136t95.5 287q-5 227 -125 504h190q116 -231 116 -504q0 -254 -139.5 -403t-400.5 -170v-446h-181v448q-250 26 -378 178t-128 421z" />
<glyph unicode="&#x472;" horiz-adv-x="1365" d="M101 655v103q0 205 71.5 363t202.5 241.5t299 83.5q172 0 301 -82t200.5 -236.5t73.5 -357.5v-103q0 -208 -70.5 -364t-199.5 -239.5t-303 -83.5q-168 0 -298.5 83t-202.5 236.5t-74 355.5zM288 630q8 -231 111.5 -360.5t276.5 -129.5q179 0 278 125.5t106 364.5h-772z M288 778h772q-4 243 -104.5 375t-281.5 132q-178 0 -280 -135t-106 -372z" />
<glyph unicode="&#x473;" horiz-adv-x="1139" d="M89 527v13q0 156 60.5 280t170.5 192t250 68q208 0 340.5 -140t143.5 -365v-57q0 -154 -60.5 -278.5t-170.5 -192t-251 -67.5q-217 0 -350 150.5t-133 396.5zM272 461q13 -152 93.5 -242.5t207 -90.5t205.5 91.5t91 241.5h-597zM274 610h594q-17 148 -97 234.5t-201 86.5 q-122 0 -201.5 -88.5t-94.5 -232.5z" />
<glyph unicode="&#x474;" horiz-adv-x="1264" d="M22 1427h203l342 -1060l33 -128l34 127l259 814q50 148 115.5 207t166.5 59l45 -1l-1 -168q-63 0 -94 -29.5t-62 -111.5l-380 -1136h-167z" />
<glyph unicode="&#x475;" horiz-adv-x="1006" d="M45 1060h185l236 -750l22 -98l25 98l153 532q76 237 244 237q70 0 104 -24l-20 -145q-13 8 -41 8q-31 0 -60.5 -23.5t-44.5 -67.5l-291 -827h-139z" />
<glyph unicode="&#x476;" horiz-adv-x="1264" d="M22 1427h203l342 -1060l33 -128l34 127l259 814q50 148 115.5 207t166.5 59l45 -1l-1 -168q-63 0 -94 -29.5t-62 -111.5l-380 -1136h-167zM94 1733h220l245 -261h-165zM427 1733h202l186 -261h-147z" />
<glyph unicode="&#x477;" horiz-adv-x="1006" d="M-5 1444h220l245 -261h-165zM45 1060h185l236 -750l22 -98l25 98l153 532q76 237 244 237q70 0 104 -24l-20 -145q-13 8 -41 8q-31 0 -60.5 -23.5t-44.5 -67.5l-291 -827h-139zM328 1444h202l186 -261h-147z" />
<glyph unicode="&#x478;" horiz-adv-x="2329" d="M116 655v103q0 205 71.5 363t202 241.5t299.5 83.5q171 0 302 -82.5t201.5 -240t70.5 -365.5v-91q0 -209 -70.5 -365.5t-200 -239t-301.5 -82.5q-169 0 -299 83t-202 236.5t-74 355.5zM303 667q0 -246 103.5 -386.5t284.5 -140.5q182 0 282 133t103 381v106 q0 253 -102 389t-285 136q-178 0 -280.5 -136t-105.5 -377v-105zM1402 1060h198l264 -794l247 794h194l-426 -1224q-99 -264 -315 -264l-34 3l-68 12v147l49 -4q92 0 143.5 37.5t85.5 136.5l40 108z" />
<glyph unicode="&#x479;" horiz-adv-x="2094" d="M89 527v13q0 156 61.5 280.5t170.5 192t249 67.5q217 0 350.5 -150t133.5 -399v-13q0 -154 -59 -277t-169.5 -192t-253.5 -69q-215 0 -349 150t-134 397zM271 518q0 -176 82 -283t219 -107q138 0 219.5 108.5t81.5 303.5q0 174 -82.5 282.5t-220.5 108.5 q-134 0 -216.5 -107t-82.5 -306zM1167 1060h198l264 -794l247 794h194l-426 -1224q-99 -264 -315 -264l-34 3l-68 12v147l49 -4q92 0 143.5 37.5t85.5 136.5l40 108z" />
<glyph unicode="&#x47a;" horiz-adv-x="1365" d="M101 663v95q0 286 132.5 469t358.5 214v115h181v-117q222 -37 349 -217t127 -469v-86q0 -285 -126.5 -464.5t-349.5 -214.5v-126h-181v124q-224 31 -357 211.5t-134 465.5zM288 667q0 -217 80.5 -352.5t223.5 -165.5v100h181v-98q140 33 214 164t74 352v93q0 219 -75 349 t-213 164v-95h-181v98q-144 -30 -224 -164.5t-80 -352.5v-92z" />
<glyph unicode="&#x47b;" horiz-adv-x="1136" d="M89 524v16q0 206 104 352t285 179v110h182v-109q182 -31 288 -176t106 -362v-16q0 -211 -108 -356t-286 -174v-105h-182v106q-176 31 -282.5 175.5t-106.5 359.5zM270 518q0 -143 55.5 -242.5t152.5 -132.5v100h182v-102q97 31 154.5 131t57.5 268q0 142 -56.5 244 t-155.5 133v-96h-182v95q-96 -32 -152 -134t-56 -264z" />
<glyph unicode="&#x47c;" horiz-adv-x="1757" d="M153 408v574q0 208 106 326t291 118v-155q-97 0 -152.5 -77t-55.5 -211v-561q0 -137 56 -213t152 -76q112 0 175.5 67.5t63.5 188.5v419h189v-419q0 -119 63.5 -187.5t176.5 -68.5q97 0 152 76.5t55 213.5v559q0 133 -54.5 211t-152.5 78v155q183 0 289.5 -117.5 t106.5 -327.5v-559q0 -207 -106.5 -325t-289.5 -118q-110 0 -197 42t-138 128q-51 -86 -137 -128t-196 -42q-182 0 -287.5 114t-109.5 315zM581 1587v35q0 108 62.5 161t169.5 53q40 0 75 -8.5t128.5 -48.5t145.5 -53.5t158 -13.5v-124h-42q-78 0 -142 16.5t-154 55.5 t-115.5 45t-49.5 6q-110 0 -110 -110v-14h-126zM775 1351q65 79 68 138v103h154v-100q0 -49 -45 -106.5t-102 -88.5z" />
<glyph unicode="&#x47d;" horiz-adv-x="1540" d="M123 367v299q0 190 94.5 297t258.5 107v-149q-80 0 -125.5 -66.5t-45.5 -188.5v-284q0 -120 45 -187.5t126 -67.5q96 0 150.5 59t54.5 160v230h181v-233q1 -101 56 -158.5t150 -57.5q80 0 125.5 67t45.5 189v283q0 122 -45.5 188.5t-125.5 66.5v149q165 0 259 -107 t94 -298v-283q0 -189 -94 -296t-259 -107q-204 0 -297 146q-46 -73 -122.5 -109.5t-172.5 -36.5q-159 0 -254 102t-99 286zM495 1242v35q0 108 62 161t171 53q40 0 76.5 -9t126 -48t143 -53t161.5 -14v-124h-43q-78 0 -139.5 15.5t-155.5 55.5t-117.5 45.5t-47.5 5.5 q-112 0 -112 -109v-14h-125zM689 997q64 76 67 138v102h154v-100q0 -49 -44.5 -106.5t-102.5 -88.5z" />
<glyph unicode="&#x47e;" horiz-adv-x="1764" d="M153 386v1041h189v-1038q0 -120 56 -188t152 -68q112 0 175.5 67.5t63.5 188.5v1038h195v-1038q0 -122 60.5 -189t163.5 -67q104 0 164 67.5t60 189.5v1037h188v-1037q0 -194 -110.5 -302t-301.5 -108q-106 0 -190 43t-132 130q-51 -87 -138 -130t-198 -43 q-185 0 -290.5 107.5t-106.5 298.5zM493 1654v105h796l1 -105h-325v-122h-164v122h-308z" />
<glyph unicode="&#x47f;" horiz-adv-x="1547" d="M126 343v717h182v-718q1 -100 45.5 -157.5t125.5 -57.5q96 0 150.5 59t54.5 160v714h182v-714q0 -101 49.5 -160t139.5 -59q88 0 137.5 57.5t50.5 157.5v718h181v-714q0 -173 -99 -270t-270 -97q-194 0 -281 145q-93 -145 -295 -145q-163 0 -257.5 96t-95.5 268z M383 1322v105h796l3 -105h-326v-125h-166v125h-307z" />
<glyph unicode="&#x480;" horiz-adv-x="1303" d="M115 597v239q0 173 69.5 314.5t195 219t282.5 77.5q242 0 383 -129t143 -349h-189q-2 155 -91 239.5t-246 84.5t-257.5 -127.5t-100.5 -335.5v-239q0 -198 96.5 -326t250.5 -132h121v-505h-187v356q-212 28 -341 195.5t-129 417.5z" />
<glyph unicode="&#x481;" horiz-adv-x="1073" d="M98 516v35q0 150 58.5 272t163.5 189.5t242 67.5q175 0 292.5 -110.5t117.5 -274.5h-171q0 99 -70 167.5t-169 68.5q-130 0 -206.5 -107t-76.5 -284v-30q0 -165 73.5 -272.5t201.5 -110.5h107v-501h-182v360q-173 30 -277 174t-104 356z" />
<glyph unicode="&#x482;" horiz-adv-x="1251" d="M114 558l66 120l287 -167l201 357l-284 168l69 122l285 -167l184 324h162l-226 -400l287 -167l-71 -120l-282 167l-204 -358l283 -168l-66 -121l-286 167l-178 -315h-165l221 390z" />
<glyph unicode="&#x483;" horiz-adv-x="0" d="M-903 1167l1 229h529l-1 105l161 -1v-211h-527v-123z" />
<glyph unicode="&#x484;" horiz-adv-x="0" d="M-893 1278v123q106 0 158 13.5t146.5 54t129.5 49t73 8.5q109 0 171 -53t62 -161v-35h-125v14q0 109 -112 109q-41 0 -85 -17l-109 -46q-134 -57 -250 -59h-59z" />
<glyph unicode="&#x485;" horiz-adv-x="0" d="M-653 1470v121h176v-138l58 -113l-76 -64z" />
<glyph unicode="&#x486;" horiz-adv-x="0" d="M-592 1340l58 113l-1 138h177v-121l-158 -194z" />
<glyph unicode="&#x488;" horiz-adv-x="0" d="M-1479 477q0 84 57.5 134.5t148.5 50.5q93 0 150 -51t57 -134h-110q0 48 -26 73.5t-71 25.5t-70 -27t-25 -72h-111zM-1316 -31q0 83 57.5 133.5t148.5 50.5q93 0 150 -50.5t57 -133.5h-110q0 48 -26 73.5t-71 25.5q-44 0 -69 -26t-25 -73h-112zM-1306 970 q0 83 56.5 133.5t150 50.5t150 -50.5t56.5 -133.5h-110q0 45 -25 72t-72 27q-45 0 -70 -26t-25 -73h-111zM-745 1242q0 82 56.5 133t149.5 51t150 -51t57 -133h-110q0 45 -25 72t-72 27q-45 0 -70 -26t-25 -73h-111zM-740 -310q0 83 56.5 134t149.5 51t150 -51t57 -134h-110 q0 45 -25 72t-72 27q-45 0 -70 -27t-25 -72h-111zM-175 -31q0 82 56.5 133t147.5 51q93 0 150 -51t57 -133h-110q0 48 -26 73.5t-71 25.5q-44 0 -69 -27t-25 -72h-110zM-166 970q0 83 57 133.5t148 50.5q93 0 150.5 -50t57.5 -134h-111q0 48 -26 73.5t-71 25.5 q-43 0 -68 -26t-25 -73h-112zM17 477q0 84 57 134.5t148 50.5q94 0 150.5 -51t56.5 -134h-110q0 48 -25.5 73.5t-71 25.5t-70.5 -27t-25 -72h-110z" />
<glyph unicode="&#x489;" horiz-adv-x="0" d="M-1462 534v96l339 -69v-137l-13 -11zM-1271 -78l288 196l95 -97l-2 -17l-313 -150zM-1187 1164l64 68l194 -293l-96 -96l-17 2zM-659 -405l69 346h134l11 -14l-119 -332h-95zM-659 1117l120 331h94l-69 -345h-133zM-218 982l2 16l314 150l67 -67l-287 -196zM-177 61 l95 97l16 -2l145 -319l-64 -69zM17 482v136l12 12l327 -121v-96z" />
<glyph unicode="&#x48a;" horiz-adv-x="1430" d="M173 0v1427h190v-1100l702 1100h188v-1427h-188v1100l-702 -1100h-190zM425 1782h148q0 -69 37.5 -107.5t108.5 -38.5q69 0 107.5 38.5t38.5 107.5h147q0 -118 -80.5 -190.5t-212 -72.5t-213 73t-81.5 190zM1155 -280q93 129 96 265v164h178v-142q0 -99 -48.5 -198 t-122.5 -159z" />
<glyph unicode="&#x48b;" horiz-adv-x="1158" d="M153 0v1060h181v-774l489 774h181v-1060h-181v773l-489 -773h-181zM285 1446h148q0 -69 37.5 -107.5t108.5 -38.5q69 0 107.5 38.5t38.5 107.5h147q0 -118 -80.5 -190.5t-212 -72.5t-213 73t-81.5 190zM907 -280q93 129 96 265v164h178v-142q0 -99 -48.5 -198 t-122.5 -159z" />
<glyph unicode="&#x48c;" horiz-adv-x="1259" d="M-43 1082v148h203v197h188v-197h232v-148h-232v-237h355q223 -3 348.5 -115t125.5 -304q0 -193 -126.5 -307.5t-344.5 -118.5h-546v1082h-203zM348 154h344q140 0 218 74.5t78 199.5q0 121 -75 190.5t-213 71.5h-352v-536z" />
<glyph unicode="&#x48d;" horiz-adv-x="1087" d="M-35 1278v149h187v189h182v-189h315v-149h-315v-547h275q183 -2 287 -101t104 -260.5t-104 -264t-284 -105.5h-460v1278h-187zM334 148h269q103 0 158 58.5t55 156.5q0 95 -54 156t-152 63h-276v-434z" />
<glyph unicode="&#x48e;" horiz-adv-x="1280" d="M165 0v1427h526q231 0 366 -118.5t135 -317.5q0 -183 -101 -292l123 -135l-107 -101l-136 149q-115 -53 -280 -53h-337v-559h-189zM354 712h337q96 0 164 29l-108 118l108 100l111 -123q37 64 37 153q0 127 -81 204t-223 79h-345v-560z" />
<glyph unicode="&#x48f;" horiz-adv-x="1137" d="M137 -408v1468h166l9 -117q110 137 307 137q191 0 302.5 -144t111.5 -401v-17q0 -233 -104 -381l109 -122l-108 -100l-108 120q-87 -55 -200 -55q-193 0 -304 123v-511h-181zM318 273q82 -145 249 -145q81 0 140 39l-100 112l107 101l89 -101q49 96 49 260 q0 179 -76.5 283t-210.5 104q-164 0 -247 -146v-507z" />
<glyph unicode="&#x490;" horiz-adv-x="1100" d="M159 0v1427h698v329h181v-478h-3v-6h-688v-1272h-188z" />
<glyph unicode="&#x491;" horiz-adv-x="893" d="M142 0v1060h494v310h181v-460h-493v-910h-182z" />
<glyph unicode="&#x492;" horiz-adv-x="1116" d="M3 670v148h170v609h878v-155h-688v-454h263v-148h-263v-670h-190v670h-170z" />
<glyph unicode="&#x493;" horiz-adv-x="841" d="M-4 469v148h155v443h671v-150h-489v-293h286v-148h-286v-469h-182v469h-155z" />
<glyph unicode="&#x494;" horiz-adv-x="1218" d="M173 0v1427h878v-155h-688v-456h174q278 0 433 -149.5t155 -415.5q0 -259 -120 -396.5t-343 -137.5l-2 144q142 0 212.5 95.5t70.5 294.5q-1 199 -101 303t-302 104h-177v-658h-190z" />
<glyph unicode="&#x495;" horiz-adv-x="1008" d="M142 0v1060h671v-150h-489v-278h106q234 0 371.5 -127.5t137.5 -337.5q0 -96 -48 -194t-131.5 -164t-197.5 -86l-48 143q126 32 185 107t59 194q0 142 -87.5 224t-236.5 82h-110v-473h-182z" />
<glyph unicode="&#x496;" horiz-adv-x="1821" d="M26 0l481 753l-443 674h222l379 -619h162v619h188v-619h155l379 619h222l-443 -673l480 -754h-234l-406 651h-153v-651h-188v651h-162l-403 -651h-236zM1701 150h182v-502h-182v502z" />
<glyph unicode="&#x497;" horiz-adv-x="1536" d="M21 0l379 549l-343 511h219l274 -439h124v439h182v-439h123l275 439h220l-344 -512l379 -548h-229l-297 461h-127v-461h-182v461h-127l-297 -461h-229zM1383 150h182v-502h-182v502z" />
<glyph unicode="&#x498;" horiz-adv-x="1190" d="M78 396h189q0 -113 89 -188t226 -75q154 0 245.5 71.5t91.5 189.5q0 251 -310 256h-177v155h176q143 3 216.5 64.5t73.5 174.5t-83 180.5t-233 67.5q-125 0 -210 -69.5t-85 -170.5h-188q0 113 62 203.5t174 140.5t247 50q239 0 371.5 -107t132.5 -298q0 -99 -61 -180.5 t-169 -128.5q251 -84 251 -334q0 -192 -143 -305t-382 -113q-142 0 -258 50.5t-181 144t-65 221.5zM505 79h182v-502h-182v502z" />
<glyph unicode="&#x499;" horiz-adv-x="1019" d="M86 314h181q0 -78 69 -133.5t172 -55.5q104 0 167.5 48t63.5 125q0 89 -53.5 128t-166.5 39h-181v152h197q185 5 185 153q0 75 -56.5 118.5t-155.5 43.5q-96 0 -160.5 -50t-64.5 -118h-180q0 139 115.5 227t289.5 88q186 0 290 -80t104 -228q0 -71 -43.5 -131t-122.5 -95 q185 -63 185 -247q0 -146 -112.5 -231.5t-300.5 -85.5q-184 0 -303 90t-119 243zM418 80h182v-502h-182v502z" />
<glyph unicode="&#x49a;" horiz-adv-x="1289" d="M174 0v1427h189v-629h147l498 629h235l-545 -692l585 -735h-230l-517 641h-173v-641h-189zM1139 149h182v-502h-182v502z" />
<glyph unicode="&#x49b;" horiz-adv-x="1083" d="M153 0v1060h182v-448h119l356 448h220l-419 -509l454 -551h-230l-368 452h-132v-452h-182zM948 150h182v-502h-182v502z" />
<glyph unicode="&#x49c;" horiz-adv-x="1263" d="M160 0v1427h189v-628h102v251h145v-251h75l317 628h221l-392 -676l436 -751h-236l-343 641h-78v-239h-145v239h-102v-641h-189z" />
<glyph unicode="&#x49d;" horiz-adv-x="1127" d="M151 0v1060h182v-448h99v208h145v-208h41l254 448h220l-332 -503l368 -557h-230l-272 452h-49v-190h-145v190h-99v-452h-182z" />
<glyph unicode="&#x49e;" d="M11 1057v148h183v222h188v-222h252v-148h-252v-259h147l499 629h234l-545 -692l585 -735h-230l-516 641h-174v-641h-188v1057h-183z" />
<glyph unicode="&#x49f;" horiz-adv-x="1041" d="M-44 1193v148h207v164h182v-164h234v-148h-234v-552h123l309 419h215l-371 -483l422 -577h-215l-358 491h-125v-491h-182v1193h-207z" />
<glyph unicode="&#x4a0;" horiz-adv-x="1642" d="M67 1278v149h654v-629h147l498 629h234l-545 -691l587 -736h-232l-516 641h-173v-641h-189v1278h-465z" />
<glyph unicode="&#x4a1;" horiz-adv-x="1382" d="M61 910v150h585v-448h119l356 448h221l-421 -509l456 -551h-230l-368 452h-133v-452h-182v910h-403z" />
<glyph unicode="&#x4a2;" horiz-adv-x="1430" d="M166 0v1427h188v-614h719v614h189v-1427h-189v660h-719v-660h-188zM1238 150h182v-502h-182v502z" />
<glyph unicode="&#x4a3;" horiz-adv-x="1157" d="M153 0v1060h182v-459h487v459h182v-1060h-182v453h-487v-453h-182zM980 150h182v-502h-182v502z" />
<glyph unicode="&#x4a4;" horiz-adv-x="1959" d="M165 0v1427h189v-614h719v614h813v-149h-625v-1278h-188v660h-719v-660h-189z" />
<glyph unicode="&#x4a5;" horiz-adv-x="1430" d="M142 0v1060h182v-459h487v459h546v-150h-364v-910h-182v453h-487v-453h-182z" />
<glyph unicode="&#x4a6;" horiz-adv-x="2055" d="M172 0v1427h1081v-611h116q278 0 433 -149.5t155 -415.5q0 -259 -120 -396.5t-343 -137.5l-2 144q142 0 212.5 95.5t70.5 294.5q-1 199 -101 303t-302 104h-119v-658h-189v1272h-703v-1272h-189z" />
<glyph unicode="&#x4a7;" horiz-adv-x="1744" d="M142 0v1060h852v-428h157q243 0 385 -127.5t142 -337.5l-3 -38q-20 -159 -122.5 -269.5t-252.5 -136.5l-47 143q122 31 182 104.5t60 196.5q0 143 -92 224.5t-249 81.5h-160v-473h-182v910h-488v-910h-182z" />
<glyph unicode="&#x4a8;" horiz-adv-x="1487" d="M111 662v168q0 174 57 316t160 221.5t233 79.5l1 -161q-116 0 -188.5 -124.5t-72.5 -337.5v-162q0 -232 115.5 -377.5t302.5 -145.5q69 0 124 13q-119 95 -183.5 230.5t-64.5 302.5v222q0 151 51 275t143.5 193.5t208.5 69.5q178 0 290.5 -151t112.5 -399v-231 q0 -154 -54 -284.5t-154 -223.5q102 -26 220 -26v-157q-211 0 -386 71q-139 -65 -308 -65q-174 0 -313 87.5t-217 245t-78 350.5zM783 683q0 -149 59 -265t173 -189q96 71 147 184t51 251v244q0 174 -59 275t-156 101q-95 0 -155 -103t-60 -277v-221z" />
<glyph unicode="&#x4a9;" horiz-adv-x="1210" d="M107 558v56q0 201 96.5 333.5t248.5 132.5v-155q-72 0 -117.5 -84.5t-45.5 -228.5v-54q0 -190 83 -307.5t217 -117.5q45 0 88 11q-189 159 -189 426v92q0 189 85 304t225 115q137 0 224 -122t87 -324v-96q0 -222 -125 -376q77 -21 172 -21v-154q-174 0 -311 56 q-116 -65 -256 -65q-137 0 -247.5 73t-172.5 207.5t-62 298.5zM669 559q0 -210 156 -324q100 113 103 295v115q0 127 -35.5 204.5t-94.5 77.5t-93.5 -69t-35.5 -189v-110z" />
<glyph unicode="&#x4aa;" horiz-adv-x="1306" d="M117 647v137q0 199 71 350t201 231.5t302 80.5q227 0 364.5 -126.5t159.5 -351.5h-189q-24 171 -106 247.5t-229 76.5q-180 0 -282.5 -133.5t-102.5 -379.5v-138q0 -232 97 -369.5t271 -137.5q157 0 241 71t111 248h189q-26 -227 -167 -350t-374 -123q-253 0 -405 181.5 t-152 485.5zM576 79h182v-502h-182v502z" />
<glyph unicode="&#x4ab;" horiz-adv-x="1050" d="M90 520v31q0 155 57 275.5t163 187t252 66.5q178 0 296 -107t126 -277h-172q-7 103 -77.5 169t-172.5 66q-139 0 -215 -99.5t-76 -287.5v-34q0 -184 75.5 -283t216.5 -99q97 0 169.5 59t79.5 147h172q-5 -91 -63 -173.5t-154.5 -131.5t-203.5 -49q-217 0 -345 145 t-128 395zM432 79h182v-502h-182v502z" />
<glyph unicode="&#x4ac;" horiz-adv-x="1197" d="M48 1272v155h1104v-155h-459v-1272h-187v1272h-458zM665 150h182v-502h-182v502z" />
<glyph unicode="&#x4ad;" horiz-adv-x="964" d="M39 913v147h886v-147h-356v-913h-181v913h-349zM546 150h182v-502h-182v502z" />
<glyph unicode="&#x4ae;" horiz-adv-x="1205" d="M15 1427h215l371 -717l372 717h214l-492 -895v-532h-188v532z" />
<glyph unicode="&#x4af;" horiz-adv-x="1005" d="M45 1060h185l282 -790l274 790h185l-371 -1004v-464h-183v471z" />
<glyph unicode="&#x4b0;" horiz-adv-x="1205" d="M15 1427h215l371 -717l372 717h214l-423 -768h151v-148h-220v-511h-188v511h-215v148h145z" />
<glyph unicode="&#x4b1;" horiz-adv-x="1005" d="M45 1060h185l282 -790l274 790h185l-342 -923h196v-148h-225v-397h-183v397h-215v148h187z" />
<glyph unicode="&#x4b2;" horiz-adv-x="1258" d="M56 0l462 719l-451 708h220l344 -547l342 547h222l-451 -708l461 -719h-223l-351 557l-353 -557h-222zM1064 150h182v-502h-182v502z" />
<glyph unicode="&#x4b3;" horiz-adv-x="994" d="M40 0l358 536l-347 524h210l232 -387l235 387h212l-347 -524l358 -536h-210l-245 397l-245 -397h-211zM827 150h182v-502h-182v502z" />
<glyph unicode="&#x4b4;" horiz-adv-x="1799" d="M51 1278v148h367v1h190v-1h377v-148h-377v-1124h703v1273h189v-1269h149l-17 -502h-169v344h-1045v1278h-367z" />
<glyph unicode="&#x4b5;" horiz-adv-x="1344" d="M30 912v148h694v-148h-244v-764h488v912h183v-912h125l-18 -463h-161v315h-798v912h-269z" />
<glyph unicode="&#x4b6;" horiz-adv-x="1373" d="M147 969v458h189v-453q1 -149 68 -214.5t227 -65.5q186 0 379 53v680h190v-1427h-190v591q-103 -29 -187 -40.5t-192 -11.5q-244 0 -362.5 106t-121.5 324zM1172 150h182v-502h-182v502z" />
<glyph unicode="&#x4b7;" horiz-adv-x="1090" d="M101 745v316h181v-322q5 -237 229 -237q125 0 245 31v527h182v-1060h-182v384q-120 -31 -245 -31q-199 0 -303.5 102t-106.5 290zM913 150h182v-502h-182v502z" />
<glyph unicode="&#x4b8;" horiz-adv-x="1363" d="M147 965v462h189v-453q1 -151 68 -215.5t224 -64.5v304h146v-296q119 12 236 45v680h190v-1427h-190v591q-111 -33 -236 -46v-233h-146v227q-243 0 -360 106.5t-121 319.5z" />
<glyph unicode="&#x4b9;" horiz-adv-x="1107" d="M128 745v316h182v-324q5 -207 176 -232v274h147v-272q82 9 150 26v527h182v-1060h-182v384q-69 -18 -150 -27v-133h-147v131q-172 13 -264 112.5t-94 277.5z" />
<glyph unicode="&#x4ba;" horiz-adv-x="1364" d="M135 0v1427h189v-591q182 52 380 52q244 0 362.5 -106t121.5 -324v-458h-189v453q-1 149 -68.5 214.5t-226.5 65.5q-184 0 -380 -54v-679h-189z" />
<glyph unicode="&#x4bb;" horiz-adv-x="1105" d="M137 0v1505h181v-573q121 148 314 148q336 0 339 -379v-701h-181v702q-1 114 -52.5 169t-160.5 55q-88 0 -154.5 -47t-104.5 -123v-756h-181z" />
<glyph unicode="&#x4bc;" horiz-adv-x="1551" d="M62 1059h149q0 -88 39 -149t124 -81q0 176 70 317t193.5 220.5t270.5 79.5q253 0 392.5 -171.5t139.5 -486.5v-106h-876v-91q0 -216 108.5 -337t308.5 -121q175 0 338 82l46 -141q-63 -44 -165.5 -70t-218.5 -26q-280 0 -443.5 165.5t-163.5 456.5v89q-150 19 -231 115.5 t-81 254.5zM564 819h687v33q0 212 -87.5 324.5t-255.5 112.5q-154 0 -249 -127t-95 -343z" />
<glyph unicode="&#x4bd;" horiz-adv-x="1188" d="M-33 839h144q0 -144 99 -191q19 127 84 225.5t163 152.5t207 54q207 0 322 -136t115 -390v-76h-719q4 -157 92 -253.5t223 -96.5q170 0 279 143l111 -86q-133 -205 -400 -205q-216 0 -351 142t-135 387q-118 28 -176 113.5t-58 216.5zM388 627h531v14q-8 138 -74.5 214 t-180.5 76q-109 0 -183.5 -80t-92.5 -224z" />
<glyph unicode="&#x4be;" horiz-adv-x="1551" d="M62 1059h149q0 -88 39 -149t124 -81q0 176 70 317t193.5 220.5t270.5 79.5q253 0 392.5 -171.5t139.5 -486.5v-106h-876v-91q0 -216 108.5 -337t308.5 -121q175 0 338 82l46 -141q-63 -44 -165.5 -70t-218.5 -26q-280 0 -443.5 165.5t-163.5 456.5v89q-150 19 -231 115.5 t-81 254.5zM564 819h687v33q0 212 -87.5 324.5t-255.5 112.5q-154 0 -249 -127t-95 -343zM860 83h182v-502h-182v502z" />
<glyph unicode="&#x4bf;" horiz-adv-x="1188" d="M-33 839h144q0 -144 99 -191q19 127 84 225.5t163 152.5t207 54q207 0 322 -136t115 -390v-76h-719q4 -157 92 -253.5t223 -96.5q170 0 279 143l111 -86q-133 -205 -400 -205q-216 0 -351 142t-135 387q-118 28 -176 113.5t-58 216.5zM388 627h531v14q-8 138 -74.5 214 t-180.5 76q-109 0 -183.5 -80t-92.5 -224zM604 87h182v-502h-182v502z" />
<glyph unicode="&#x4c0;" horiz-adv-x="545" d="M179 0v1427h189v-1427h-189z" />
<glyph unicode="&#x4c1;" horiz-adv-x="1821" d="M26 0l481 753l-443 674h222l379 -619h162v619h188v-619h155l379 619h222l-443 -673l480 -754h-234l-406 651h-153v-651h-188v651h-162l-403 -651h-236zM620 1782h148q0 -69 37.5 -107.5t108.5 -38.5q69 0 107.5 38.5t38.5 107.5h147q0 -118 -80.5 -190.5t-212 -72.5 t-213 73t-81.5 190z" />
<glyph unicode="&#x4c2;" horiz-adv-x="1536" d="M21 0l379 549l-343 511h219l274 -439h124v439h182v-439h123l275 439h220l-344 -512l379 -548h-229l-297 461h-127v-461h-182v461h-127l-297 -461h-229zM470 1446h148q0 -69 37.5 -107.5t108.5 -38.5q69 0 107.5 38.5t38.5 107.5h147q0 -118 -80.5 -190.5t-212 -72.5 t-213 73t-81.5 190z" />
<glyph unicode="&#x4c3;" horiz-adv-x="1263" d="M160 0v1427h189v-613h130l503 613h221l-509 -619q243 -22 374.5 -170t131.5 -393q0 -259 -122 -398t-347 -139l-2 149q141 0 211.5 94.5t70.5 291.5q-2 198 -99.5 301t-292.5 104h-270v-648h-189z" />
<glyph unicode="&#x4c4;" horiz-adv-x="1091" d="M151 0v1060h182v-448h89l386 448h220l-402 -460q191 -31 292 -141.5t101 -286.5q0 -92 -49 -188.5t-133 -157t-194 -79.5l-47 143q243 56 243 282q0 135 -85 206.5t-246 73.5h-175v-452h-182z" />
<glyph unicode="&#x4c5;" horiz-adv-x="1420" d="M46 0v154l39 2q91 7 140 59.5t74.5 167t36.5 352.5l30 692h879v-1427h-189v1272h-511l-26 -565q-14 -285 -58 -428t-128 -210t-225 -69h-62zM1145 -280q93 129 96 265v164h178v-142q0 -99 -48.5 -198t-122.5 -159z" />
<glyph unicode="&#x4c6;" horiz-adv-x="1160" d="M43 0v160l52 4q88 9 126.5 101.5t48.5 341.5l20 453h716v-1060h-182v910h-360l-22 -396q-18 -274 -92 -391.5t-234 -122.5h-73zM909 -280q93 129 96 265v164h178v-142q0 -99 -48.5 -198t-122.5 -159z" />
<glyph unicode="&#x4c7;" horiz-adv-x="1428" d="M173 0v1427h190v-645h701v645h188v-1508q0 -165 -83.5 -256t-236.5 -91q-59 0 -112 17l14 151q36 -13 96 -13q64 0 99 50.5t35 140.5v710h-701v-628h-190z" />
<glyph unicode="&#x4c8;" horiz-adv-x="1136" d="M142 0v1060h182v-459h487v459h182v-1147q0 -167 -84 -254t-233 -87q-59 0 -110 17l15 144q17 -6 76 -11l19 -1q65 0 100 51t35 141v540h-487v-453h-182z" />
<glyph unicode="&#x4c9;" horiz-adv-x="1430" d="M166 0v1427h188v-614h719v614h189v-1427h-189v660h-719v-660h-188zM1164 -280q93 129 96 265v164h178v-142q0 -99 -48.5 -198t-122.5 -159z" />
<glyph unicode="&#x4ca;" horiz-adv-x="1157" d="M153 0v1060h182v-459h487v459h182v-1060h-182v453h-487v-453h-182zM906 -280q93 129 96 265v164h178v-142q0 -99 -48.5 -198t-122.5 -159z" />
<glyph unicode="&#x4cb;" horiz-adv-x="1373" d="M147 969v458h189v-453q1 -149 68 -214.5t227 -65.5q186 0 379 53v680h190v-1427h-190v591q-103 -29 -187 -40.5t-192 -11.5q-244 0 -362.5 106t-121.5 324zM852 150h182v-502h-182v502z" />
<glyph unicode="&#x4cc;" horiz-adv-x="1090" d="M101 745v316h181v-322q5 -237 229 -237q125 0 245 31v527h182v-1060h-182v384q-120 -31 -245 -31q-199 0 -303.5 102t-106.5 290zM592 150h182v-502h-182v502z" />
<glyph unicode="&#x4cd;" horiz-adv-x="1752" d="M166 0v1427h243l466 -1164l467 1164h244v-1427h-189v556l18 599l-468 -1155h-144l-468 1152l19 -596v-556h-188zM1474 -280q93 129 96 265v164h178v-142q0 -99 -48.5 -198t-122.5 -159z" />
<glyph unicode="&#x4ce;" horiz-adv-x="1488" d="M154 0v1060h235l359 -820l360 820h227v-1060h-182v771l-343 -771h-125l-350 788v-788h-181zM1237 -280q93 129 96 265v164h178v-142q0 -99 -48.5 -198t-122.5 -159z" />
<glyph unicode="&#x4cf;" horiz-adv-x="545" d="M179 0v1427h189v-1427h-189z" />
<glyph unicode="&#x4d0;" d="M27 0l545 1427h165l546 -1427h-193l-136 372h-598l-135 -372h-194zM365 1770h148q0 -69 37.5 -107.5t108.5 -38.5q69 0 107.5 38.5t38.5 107.5h147q0 -118 -80.5 -190.5t-212 -72.5t-213 73t-81.5 190zM413 527h485l-243 668z" />
<glyph unicode="&#x4d1;" horiz-adv-x="1091" d="M107 294q0 166 126 257.5t354 91.5h176v83q0 95 -56.5 151.5t-167.5 56.5q-97 0 -162.5 -49t-65.5 -119h-183q0 80 56.5 154t153 117t212.5 43q183 0 287 -91.5t108 -252.5v-488q0 -146 37 -232v-16h-190q-16 31 -26 112q-126 -132 -301 -132q-157 0 -257.5 89 t-100.5 225zM276 1466h148q0 -69 37.5 -107.5t108.5 -38.5q69 0 107.5 38.5t38.5 107.5h147q0 -118 -80.5 -190.5t-212 -72.5t-213 73t-81.5 190zM288 319q0 -85 57 -133t146 -48q85 0 161.5 44t110.5 115v217h-142q-333 0 -333 -195z" />
<glyph unicode="&#x4d2;" d="M27 0l545 1427h165l546 -1427h-193l-136 372h-598l-135 -372h-194zM344 1648q0 44 27 73.5t80 29.5t80.5 -29.5t27.5 -74t-27.5 -73.5t-80.5 -29t-80 29t-27 74zM413 527h485l-243 668zM765 1646q0 44 27 74t80 30t80.5 -30t27.5 -74t-27.5 -73.5t-80.5 -29.5t-80 29.5 t-27 73.5z" />
<glyph unicode="&#x4d3;" horiz-adv-x="1091" d="M107 294q0 166 126 257.5t354 91.5h176v83q0 95 -56.5 151.5t-167.5 56.5q-97 0 -162.5 -49t-65.5 -119h-183q0 80 56.5 154t153 117t212.5 43q183 0 287 -91.5t108 -252.5v-488q0 -146 37 -232v-16h-190q-16 31 -26 112q-126 -132 -301 -132q-157 0 -257.5 89 t-100.5 225zM255 1344q0 44 27 73.5t80 29.5t80.5 -29.5t27.5 -74t-27.5 -73.5t-80.5 -29t-80 29t-27 74zM288 319q0 -85 57 -133t146 -48q85 0 161.5 44t110.5 115v217h-142q-333 0 -333 -195zM676 1342q0 44 27 74t80 30t80.5 -30t27.5 -74t-27.5 -73.5t-80.5 -29.5 t-80 29.5t-27 73.5z" />
<glyph unicode="&#x4d4;" horiz-adv-x="1875" d="M-14 0l863 1427h932v-149h-678l20 -462h578v-148h-572l22 -520h690v-148h-865l-15 346h-552l-201 -346h-222zM508 516h447l-31 719z" />
<glyph unicode="&#x4d5;" horiz-adv-x="1694" d="M76 298q0 154 111.5 239t327.5 85h219v84q0 104 -54 164.5t-156 60.5q-103 0 -171.5 -54t-68.5 -133l-180 18q0 141 118.5 229.5t301.5 88.5q113 0 199 -40.5t135 -122.5q62 78 147.5 120.5t188.5 42.5q205 0 319 -126t114 -354v-113h-714q7 -172 92.5 -266t231.5 -94 q145 0 263 75l46 30l63 -133q-155 -119 -372 -119q-256 0 -389 177q-64 -84 -174.5 -130.5t-249.5 -46.5q-163 0 -255.5 85t-92.5 233zM259 294q0 -75 52 -121t149 -46q70 0 147.5 36.5t126.5 89.5v232h-223q-115 -2 -183.5 -56t-68.5 -135zM918 627h528v31q0 129 -66 201 t-186 72q-113 0 -186 -84t-90 -220z" />
<glyph unicode="&#x4d6;" horiz-adv-x="1140" d="M166 0v1427h896v-155h-708v-459h618v-153h-618v-506h718v-154h-906zM313 1782h148q0 -69 37.5 -107.5t108.5 -38.5q69 0 107.5 38.5t38.5 107.5h147q0 -118 -80.5 -190.5t-212 -72.5t-213 73t-81.5 190z" />
<glyph unicode="&#x4d7;" horiz-adv-x="1063" d="M91 501v33q0 158 60.5 282t168.5 194t235 70q206 0 321 -136t115 -390v-76h-719q4 -157 92 -253.5t223 -96.5q96 0 162.5 39.5t116.5 103.5l111 -86q-133 -205 -400 -205q-215 0 -350.5 142t-135.5 379zM260 1466h148q0 -69 37.5 -107.5t108.5 -38.5q69 0 107.5 38.5 t38.5 107.5h147q0 -118 -80.5 -190.5t-212 -72.5t-213 73t-81.5 190zM278 627h531v14q-7 138 -74 214t-180 76q-110 0 -184.5 -80t-92.5 -224z" />
<glyph unicode="&#x4d8;" horiz-adv-x="1386" d="M91 637v115h992v7q0 252 -119.5 391.5t-336.5 139.5q-161 0 -298 -57l-59 -26l-47 141l22 12q155 86 382 86q296 0 470.5 -184.5t174.5 -512.5v-83q0 -193 -76.5 -350t-212.5 -246.5t-300 -89.5q-279 0 -435.5 169t-156.5 488zM280 572q0 -213 103.5 -325t299.5 -112 q166 0 274.5 128t123.5 343h-801v-34z" />
<glyph unicode="&#x4d9;" horiz-adv-x="1057" d="M96 459v113h703q-7 165 -86 263t-212 98q-183 0 -303 -106l-72 123q138 131 375 131q215 0 347.5 -147t132.5 -391v-35q0 -146 -61 -267.5t-166.5 -191t-225.5 -68.5q-204 0 -318 124.5t-114 353.5zM278 399q0 -123 67.5 -196.5t182.5 -73.5q96 0 170 80.5t95 214.5h-515 v-25z" />
<glyph unicode="&#x4da;" horiz-adv-x="1386" d="M91 637v115h992v7q0 252 -119.5 391.5t-336.5 139.5q-161 0 -298 -57l-59 -26l-47 141l22 12q155 86 382 86q296 0 470.5 -184.5t174.5 -512.5v-83q0 -193 -76.5 -350t-212.5 -246.5t-300 -89.5q-279 0 -435.5 169t-156.5 488zM280 572q0 -213 103.5 -325t299.5 -112 q166 0 274.5 128t123.5 343h-801v-34zM307 1614q0 44 27 73.5t80 29.5t80.5 -29.5t27.5 -74t-27.5 -73.5t-80.5 -29t-80 29t-27 74zM728 1612q0 44 27 74t80 30t80.5 -30t27.5 -74t-27.5 -73.5t-80.5 -29.5t-80 29.5t-27 73.5z" />
<glyph unicode="&#x4db;" horiz-adv-x="1057" d="M96 459v113h703q-7 165 -86 263t-212 98q-183 0 -303 -106l-72 123q138 131 375 131q215 0 347.5 -147t132.5 -391v-35q0 -146 -61 -267.5t-166.5 -191t-225.5 -68.5q-204 0 -318 124.5t-114 353.5zM232 1345q0 44 27 73.5t80 29.5t80.5 -29.5t27.5 -74t-27.5 -73.5 t-80.5 -29t-80 29t-27 74zM278 399q0 -123 67.5 -196.5t182.5 -73.5q96 0 170 80.5t95 214.5h-515v-25zM653 1343q0 44 27 74t80 30t80.5 -30t27.5 -74t-27.5 -73.5t-80.5 -29.5t-80 29.5t-27 73.5z" />
<glyph unicode="&#x4dc;" horiz-adv-x="1821" d="M26 0l481 753l-443 674h222l379 -619h162v619h188v-619h155l379 619h222l-443 -673l480 -754h-234l-406 651h-153v-651h-188v651h-162l-403 -651h-236zM599 1660q0 44 27 73.5t80 29.5t80.5 -29.5t27.5 -74t-27.5 -73.5t-80.5 -29t-80 29t-27 74zM1020 1658q0 44 27 74 t80 30t80.5 -30t27.5 -74t-27.5 -73.5t-80.5 -29.5t-80 29.5t-27 73.5z" />
<glyph unicode="&#x4dd;" horiz-adv-x="1536" d="M21 0l379 549l-343 511h219l274 -439h124v439h182v-439h123l275 439h220l-344 -512l379 -548h-229l-297 461h-127v-461h-182v461h-127l-297 -461h-229zM449 1324q0 44 27 73.5t80 29.5t80.5 -29.5t27.5 -74t-27.5 -73.5t-80.5 -29t-80 29t-27 74zM870 1322q0 44 27 74 t80 30t80.5 -30t27.5 -74t-27.5 -73.5t-80.5 -29.5t-80 29.5t-27 73.5z" />
<glyph unicode="&#x4de;" horiz-adv-x="1190" d="M78 396h189q0 -113 89 -188t226 -75q154 0 245.5 71.5t91.5 189.5q0 251 -310 256h-177v155h176q143 3 216.5 64.5t73.5 174.5t-83 180.5t-233 67.5q-125 0 -210 -69.5t-85 -170.5h-188q0 113 62 203.5t174 140.5t247 50q239 0 371.5 -107t132.5 -298q0 -99 -61 -180.5 t-169 -128.5q251 -84 251 -334q0 -192 -143 -305t-382 -113q-142 0 -258 50.5t-181 144t-65 221.5zM279 1680q0 44 27 73.5t80 29.5t80.5 -29.5t27.5 -74t-27.5 -73.5t-80.5 -29t-80 29t-27 74zM700 1678q0 44 27 74t80 30t80.5 -30t27.5 -74t-27.5 -73.5t-80.5 -29.5 t-80 29.5t-27 73.5z" />
<glyph unicode="&#x4df;" horiz-adv-x="1019" d="M86 314h181q0 -78 69 -133.5t172 -55.5q104 0 167.5 48t63.5 125q0 89 -53.5 128t-166.5 39h-181v152h197q185 5 185 153q0 75 -56.5 118.5t-155.5 43.5q-96 0 -160.5 -50t-64.5 -118h-180q0 139 115.5 227t289.5 88q186 0 290 -80t104 -228q0 -71 -43.5 -131t-122.5 -95 q185 -63 185 -247q0 -146 -112.5 -231.5t-300.5 -85.5q-184 0 -303 90t-119 243zM192 1344q0 44 27 73.5t80 29.5t80.5 -29.5t27.5 -74t-27.5 -73.5t-80.5 -29t-80 29t-27 74zM613 1342q0 44 27 74t80 30t80.5 -30t27.5 -74t-27.5 -73.5t-80.5 -29.5t-80 29.5t-27 73.5z" />
<glyph unicode="&#x4e0;" horiz-adv-x="1168" d="M102 396h188q0 -112 76.5 -187.5t197.5 -75.5q134 0 214 71.5t80 189.5q0 154 -81.5 223.5t-236.5 69.5h-138v148l379 437h-637v155h858l1 -123l-397 -472q212 -14 326.5 -127t114.5 -307q0 -191 -132 -305t-351 -114q-132 0 -239 51.5t-165 145t-58 220.5z" />
<glyph unicode="&#x4e1;" horiz-adv-x="1168" d="M103 28h182q0 -110 77.5 -188t200.5 -78q138 0 218 73t80 191q0 285 -304 292h-157v148l364 444h-619v150h852l1 -115l-390 -485q207 -16 321 -126.5t114 -303.5q0 -191 -131.5 -304t-348.5 -113q-130 0 -235.5 50t-165 143.5t-59.5 221.5z" />
<glyph unicode="&#x4e2;" horiz-adv-x="1430" d="M173 0v1427h190v-1100l702 1100h188v-1427h-188v1100l-702 -1100h-190zM373 1610v140h699v-140h-699z" />
<glyph unicode="&#x4e3;" horiz-adv-x="1158" d="M153 0v1060h181v-774l489 774h181v-1060h-181v773l-489 -773h-181zM233 1275v140h699v-140h-699z" />
<glyph unicode="&#x4e4;" horiz-adv-x="1430" d="M173 0v1427h190v-1100l702 1100h188v-1427h-188v1100l-702 -1100h-190zM404 1660q0 44 27 73.5t80 29.5t80.5 -29.5t27.5 -74t-27.5 -73.5t-80.5 -29t-80 29t-27 74zM825 1658q0 44 27 74t80 30t80.5 -30t27.5 -74t-27.5 -73.5t-80.5 -29.5t-80 29.5t-27 73.5z" />
<glyph unicode="&#x4e5;" horiz-adv-x="1158" d="M153 0v1060h181v-774l489 774h181v-1060h-181v773l-489 -773h-181zM264 1324q0 44 27 73.5t80 29.5t80.5 -29.5t27.5 -74t-27.5 -73.5t-80.5 -29t-80 29t-27 74zM685 1322q0 44 27 74t80 30t80.5 -30t27.5 -74t-27.5 -73.5t-80.5 -29.5t-80 29.5t-27 73.5z" />
<glyph unicode="&#x4e6;" horiz-adv-x="1379" d="M116 655v103q0 205 71.5 363t202 241.5t299.5 83.5q171 0 302 -82.5t201.5 -240t70.5 -365.5v-91q0 -209 -70.5 -365.5t-200 -239t-301.5 -82.5q-169 0 -299 83t-202 236.5t-74 355.5zM303 667q0 -246 103.5 -386.5t284.5 -140.5q182 0 282 133t103 381v106 q0 253 -102 389t-285 136q-178 0 -280.5 -136t-105.5 -377v-105zM377 1650q0 44 27 73.5t80 29.5t80.5 -29.5t27.5 -74t-27.5 -73.5t-80.5 -29t-80 29t-27 74zM798 1648q0 44 27 74t80 30t80.5 -30t27.5 -74t-27.5 -73.5t-80.5 -29.5t-80 29.5t-27 73.5z" />
<glyph unicode="&#x4e7;" horiz-adv-x="1144" d="M89 527v13q0 156 61.5 280.5t170.5 192t249 67.5q217 0 350.5 -150t133.5 -399v-13q0 -154 -59 -277t-169.5 -192t-253.5 -69q-215 0 -349 150t-134 397zM249 1344q0 44 27 73.5t80 29.5t80.5 -29.5t27.5 -74t-27.5 -73.5t-80.5 -29t-80 29t-27 74zM271 518 q0 -176 82 -283t219 -107q138 0 219.5 108.5t81.5 303.5q0 174 -82.5 282.5t-220.5 108.5q-134 0 -216.5 -107t-82.5 -306zM670 1342q0 44 27 74t80 30t80.5 -30t27.5 -74t-27.5 -73.5t-80.5 -29.5t-80 29.5t-27 73.5z" />
<glyph unicode="&#x4e8;" horiz-adv-x="1365" d="M101 655v103q0 205 71.5 363t202.5 241.5t299 83.5q172 0 301 -82t200.5 -236.5t73.5 -357.5v-103q0 -208 -70.5 -364t-199.5 -239.5t-303 -83.5q-168 0 -298.5 83t-202.5 236.5t-74 355.5zM288 630q8 -231 111.5 -360.5t276.5 -129.5q179 0 278 125.5t106 364.5h-772z M288 778h772q-4 243 -104.5 375t-281.5 132q-178 0 -280 -135t-106 -372z" />
<glyph unicode="&#x4e9;" horiz-adv-x="1139" d="M89 527v13q0 156 60.5 280t170.5 192t250 68q208 0 340.5 -140t143.5 -365v-57q0 -154 -60.5 -278.5t-170.5 -192t-251 -67.5q-217 0 -350 150.5t-133 396.5zM272 461q13 -152 93.5 -242.5t207 -90.5t205.5 91.5t91 241.5h-597zM274 610h594q-17 148 -97 234.5t-201 86.5 q-122 0 -201.5 -88.5t-94.5 -232.5z" />
<glyph unicode="&#x4ea;" horiz-adv-x="1365" d="M101 655v103q0 205 71.5 363t202.5 241.5t299 83.5q172 0 301 -82t200.5 -236.5t73.5 -357.5v-103q0 -208 -70.5 -364t-199.5 -239.5t-303 -83.5q-168 0 -298.5 83t-202.5 236.5t-74 355.5zM288 630q8 -231 111.5 -360.5t276.5 -129.5q179 0 278 125.5t106 364.5h-772z M288 778h772q-4 243 -104.5 375t-281.5 132q-178 0 -280 -135t-106 -372zM365 1655q0 44 27 73.5t80 29.5t80.5 -29.5t27.5 -74t-27.5 -73.5t-80.5 -29t-80 29t-27 74zM786 1653q0 44 27 74t80 30t80.5 -30t27.5 -74t-27.5 -73.5t-80.5 -29.5t-80 29.5t-27 73.5z" />
<glyph unicode="&#x4eb;" horiz-adv-x="1139" d="M89 527v13q0 156 60.5 280t170.5 192t250 68q208 0 340.5 -140t143.5 -365v-57q0 -154 -60.5 -278.5t-170.5 -192t-251 -67.5q-217 0 -350 150.5t-133 396.5zM233 1346q0 44 27 73.5t80 29.5t80.5 -29.5t27.5 -74t-27.5 -73.5t-80.5 -29t-80 29t-27 74zM272 461 q13 -152 93.5 -242.5t207 -90.5t205.5 91.5t91 241.5h-597zM274 610h594q-17 148 -97 234.5t-201 86.5q-122 0 -201.5 -88.5t-94.5 -232.5zM654 1344q0 44 27 74t80 30t80.5 -30t27.5 -74t-27.5 -73.5t-80.5 -29.5t-80 29.5t-27 73.5z" />
<glyph unicode="&#x4ec;" horiz-adv-x="1352" d="M144 453h189q28 -177 111.5 -248t240.5 -71q170 0 268.5 132.5t100.5 367.5h-562v155h562q0 232 -101.5 367.5t-284.5 135.5q-147 0 -228.5 -76.5t-106.5 -247.5h-189q23 225 160 351.5t364 126.5q173 0 303.5 -81.5t201 -233t70.5 -348.5v-142q0 -197 -70 -348 t-196.5 -232t-291.5 -81q-233 0 -373.5 123t-167.5 350zM364 1681q0 44 27 73.5t80 29.5t80.5 -29.5t27.5 -74t-27.5 -73.5t-80.5 -29t-80 29t-27 74zM785 1679q0 44 27 74t80 30t80.5 -30t27.5 -74t-27.5 -73.5t-80.5 -29.5t-80 29.5t-27 73.5z" />
<glyph unicode="&#x4ed;" horiz-adv-x="1078" d="M98 364h172q0 -100 70 -168.5t170 -68.5q116 0 191.5 90.5t87.5 248.5h-398v148h396q-14 144 -87.5 230.5t-189.5 86.5q-97 0 -168.5 -61.5t-71.5 -146.5h-172q0 91 58 174.5t154 133t200 49.5q206 0 334 -149.5t128 -390.5v-30q0 -149 -58 -272t-163.5 -190.5 t-240.5 -67.5q-177 0 -294.5 110t-117.5 274zM222 1344q0 44 27 73.5t80 29.5t80.5 -29.5t27.5 -74t-27.5 -73.5t-80.5 -29t-80 29t-27 74zM643 1342q0 44 27 74t80 30t80.5 -30t27.5 -74t-27.5 -73.5t-80.5 -29.5t-80 29.5t-27 73.5z" />
<glyph unicode="&#x4ee;" horiz-adv-x="1261" d="M75 1427h211l370 -828l328 828h218l-504 -1189q-51 -114 -95 -161.5t-103.5 -72.5t-148.5 -25q-78 0 -99 9l6 149l89 -4q103 0 153 99l24 51l38 87zM288 1610v140h699v-140h-699z" />
<glyph unicode="&#x4ef;" horiz-adv-x="949" d="M22 1060h198l264 -794l247 794h194l-426 -1224q-99 -264 -315 -264l-34 3l-68 12v147l49 -4q92 0 143.5 37.5t85.5 136.5l40 108zM152 1295v140h699v-140h-699z" />
<glyph unicode="&#x4f0;" horiz-adv-x="1261" d="M75 1427h211l370 -828l328 828h218l-504 -1189q-51 -114 -95 -161.5t-103.5 -72.5t-148.5 -25q-78 0 -99 9l6 149l89 -4q103 0 153 99l24 51l38 87zM319 1660q0 44 27 73.5t80 29.5t80.5 -29.5t27.5 -74t-27.5 -73.5t-80.5 -29t-80 29t-27 74zM740 1658q0 44 27 74t80 30 t80.5 -30t27.5 -74t-27.5 -73.5t-80.5 -29.5t-80 29.5t-27 73.5z" />
<glyph unicode="&#x4f1;" horiz-adv-x="949" d="M22 1060h198l264 -794l247 794h194l-426 -1224q-99 -264 -315 -264l-34 3l-68 12v147l49 -4q92 0 143.5 37.5t85.5 136.5l40 108zM183 1344q0 44 27 73.5t80 29.5t80.5 -29.5t27.5 -74t-27.5 -73.5t-80.5 -29t-80 29t-27 74zM604 1342q0 44 27 74t80 30t80.5 -30 t27.5 -74t-27.5 -73.5t-80.5 -29.5t-80 29.5t-27 73.5z" />
<glyph unicode="&#x4f2;" horiz-adv-x="1261" d="M75 1427h211l370 -828l328 828h218l-504 -1189q-51 -114 -95 -161.5t-103.5 -72.5t-148.5 -25q-78 0 -99 9l6 149l89 -4q103 0 153 99l24 51l38 87zM389 1523l168 297h193l-214 -297h-147zM664 1523l226 297h203l-264 -297h-165z" />
<glyph unicode="&#x4f3;" horiz-adv-x="949" d="M22 1060h198l264 -794l247 794h194l-426 -1224q-99 -264 -315 -264l-34 3l-68 12v147l49 -4q92 0 143.5 37.5t85.5 136.5l40 108zM254 1207l168 297h193l-214 -297h-147zM529 1207l226 297h203l-264 -297h-165z" />
<glyph unicode="&#x4f4;" horiz-adv-x="1373" d="M147 969v458h189v-453q1 -149 68 -214.5t227 -65.5q186 0 379 53v680h190v-1427h-190v591q-103 -29 -187 -40.5t-192 -11.5q-244 0 -362.5 106t-121.5 324zM360 1660q0 44 27 73.5t80 29.5t80.5 -29.5t27.5 -74t-27.5 -73.5t-80.5 -29t-80 29t-27 74zM781 1658 q0 44 27 74t80 30t80.5 -30t27.5 -74t-27.5 -73.5t-80.5 -29.5t-80 29.5t-27 73.5z" />
<glyph unicode="&#x4f5;" horiz-adv-x="1090" d="M101 745v316h181v-322q5 -237 229 -237q125 0 245 31v527h182v-1060h-182v384q-120 -31 -245 -31q-199 0 -303.5 102t-106.5 290zM198 1324q0 44 27 73.5t80 29.5t80.5 -29.5t27.5 -74t-27.5 -73.5t-80.5 -29t-80 29t-27 74zM619 1322q0 44 27 74t80 30t80.5 -30 t27.5 -74t-27.5 -73.5t-80.5 -29.5t-80 29.5t-27 73.5z" />
<glyph unicode="&#x4f6;" horiz-adv-x="1116" d="M173 0v1427h878v-155h-688v-1272h-190zM335 150h182v-502h-182v502z" />
<glyph unicode="&#x4f7;" horiz-adv-x="841" d="M151 0v1060h671v-150h-489v-910h-182zM310 150h182v-502h-182v502z" />
<glyph unicode="&#x4f8;" horiz-adv-x="1735" d="M175 0v1427h188v-582h355q223 -3 348.5 -115t125.5 -304q0 -193 -126.5 -307.5t-344.5 -118.5h-546zM363 154h344q140 0 218 74.5t78 199.5q0 121 -75 190.5t-213 71.5h-352v-536zM558 1660q0 44 27 73.5t80 29.5t80.5 -29.5t27.5 -74t-27.5 -73.5t-80.5 -29t-80 29 t-27 74zM979 1658q0 44 27 74t80 30t80.5 -30t27.5 -74t-27.5 -73.5t-80.5 -29.5t-80 29.5t-27 73.5zM1364 0v1427h189v-1427h-189z" />
<glyph unicode="&#x4f9;" horiz-adv-x="1558" d="M154 0v1060h181v-365h276q180 -2 285 -94t105 -250q0 -159 -108 -255t-290 -96h-449zM335 148h270q102 0 157.5 52.5t55.5 143.5q0 88 -54 144.5t-152 58.5h-277v-399zM458 1324q0 44 27 73.5t80 29.5t80.5 -29.5t27.5 -74t-27.5 -73.5t-80.5 -29t-80 29t-27 74z M879 1322q0 44 27 74t80 30t80.5 -30t27.5 -74t-27.5 -73.5t-80.5 -29.5t-80 29.5t-27 73.5zM1197 0v1060h182v-1060h-182z" />
<glyph unicode="&#x4fa;" horiz-adv-x="1182" d="M57 701v148h623v-148h-623zM162 -411l14 154q30 -13 95 -13q135 0 135 191v228h181v-240q-1 -165 -84.5 -251t-231.5 -86q-58 0 -109 17zM240 0v1427h878v-155h-688v-1272h-190z" />
<glyph unicode="&#x4fb;" horiz-adv-x="824" d="M58 526v148h623v-148h-623zM147 -411l14 154q30 -13 95 -13q135 0 135 191v228h181v-240q-1 -165 -84.5 -251t-231.5 -86q-58 0 -109 17zM228 0v1060h671v-150h-489v-910h-182z" />
<glyph unicode="&#x4fc;" horiz-adv-x="1258" d="M56 0l462 719l-451 708h220l344 -547l342 547h222l-451 -708l461 -719h-223l-351 557l-353 -557h-222zM843 -411l14 154q30 -13 95 -13q135 0 135 191v228h181v-240q-1 -165 -84.5 -251t-231.5 -86q-58 0 -109 17z" />
<glyph unicode="&#x4fd;" horiz-adv-x="994" d="M40 0l358 536l-347 524h210l232 -387l235 387h212l-347 -524l358 -536h-210l-245 397l-245 -397h-211zM606 -411l14 154q30 -13 95 -13q135 0 135 191v228h181v-240q-1 -165 -84.5 -251t-231.5 -86q-58 0 -109 17z" />
<glyph unicode="&#x4fe;" horiz-adv-x="1258" d="M56 0l422 657h-157v148h143l-397 622h220l344 -547l342 547h222l-397 -622h147v-148h-161l421 -657h-223l-351 557l-353 -557h-222z" />
<glyph unicode="&#x4ff;" horiz-adv-x="994" d="M40 0l315 471h-167v148h155l-292 441h210l232 -387l235 387h212l-292 -441h163v-148h-175l315 -471h-210l-245 397l-245 -397h-211z" />
<glyph unicode="&#x1e00;" d="M27 0l545 1427h165l546 -1427h-193l-136 372h-598l-135 -372h-194zM413 527h485l-243 668zM498 -237q0 68 49 115.5t122 47.5q70 0 118 -47t48 -116t-47 -114.5t-119 -45.5q-74 0 -122.5 46t-48.5 114zM584 -237q0 -34 25.5 -57.5t59.5 -23.5t57.5 23.5t23.5 57.5 q0 35 -23.5 59.5t-57.5 24.5q-36 0 -60.5 -25.5t-24.5 -58.5z" />
<glyph unicode="&#x1e01;" horiz-adv-x="1091" d="M107 294q0 166 126 257.5t354 91.5h176v83q0 95 -56.5 151.5t-167.5 56.5q-97 0 -162.5 -49t-65.5 -119h-183q0 80 56.5 154t153 117t212.5 43q183 0 287 -91.5t108 -252.5v-488q0 -146 37 -232v-16h-190q-16 31 -26 112q-126 -132 -301 -132q-157 0 -257.5 89 t-100.5 225zM288 319q0 -85 57 -133t146 -48q85 0 161.5 44t110.5 115v217h-142q-333 0 -333 -195zM318 -237q0 68 49 115.5t122 47.5q70 0 118 -47t48 -116t-47 -114.5t-119 -45.5q-74 0 -122.5 46t-48.5 114zM404 -237q0 -34 25.5 -57.5t59.5 -23.5t57.5 23.5t23.5 57.5 q0 35 -23.5 59.5t-57.5 24.5q-36 0 -60.5 -25.5t-24.5 -58.5z" />
<glyph unicode="&#x1e3e;" horiz-adv-x="1752" d="M166 0v1427h243l466 -1164l467 1164h244v-1427h-189v556l18 599l-468 -1155h-144l-468 1152l19 -596v-556h-188zM773 1519l189 288h219l-262 -288h-146z" />
<glyph unicode="&#x1e3f;" horiz-adv-x="1759" d="M136 0v1060h172l5 -117q116 137 314 137q223 0 303 -171q53 77 137.5 124t200.5 47q349 0 355 -370v-710h-181v700q0 113 -52 169.5t-175 56.5q-101 0 -167.5 -60t-77.5 -162v-704h-182v695q0 231 -226 231q-179 0 -244 -152v-774h-182zM792 1215l189 288h219l-262 -288 h-146z" />
<glyph unicode="&#x1e80;" horiz-adv-x="1780" d="M60 1427h188l225 -977l28 -188l40 169l282 996h159l275 -996l40 -172l30 192l221 976h190l-346 -1427h-172l-294 1040l-22 109l-23 -109l-305 -1040h-171zM601 1807h218l191 -288h-156z" />
<glyph unicode="&#x1e81;" horiz-adv-x="1508" d="M42 1060h180l209 -793l247 793h146l252 -810l204 810h181l-309 -1060h-147l-257 804l-251 -804h-147zM443 1503h218l191 -288h-156z" />
<glyph unicode="&#x1e82;" horiz-adv-x="1780" d="M60 1427h188l225 -977l28 -188l40 169l282 996h159l275 -996l40 -172l30 192l221 976h190l-346 -1427h-172l-294 1040l-22 109l-23 -109l-305 -1040h-171zM806 1519l189 288h219l-262 -288h-146z" />
<glyph unicode="&#x1e83;" horiz-adv-x="1508" d="M42 1060h180l209 -793l247 793h146l252 -810l204 810h181l-309 -1060h-147l-257 804l-251 -804h-147zM648 1215l189 288h219l-262 -288h-146z" />
<glyph unicode="&#x1e84;" horiz-adv-x="1780" d="M60 1427h188l225 -977l28 -188l40 169l282 996h159l275 -996l40 -172l30 192l221 976h190l-346 -1427h-172l-294 1040l-22 109l-23 -109l-305 -1040h-171zM591 1648q0 44 27 73.5t80 29.5t80.5 -29.5t27.5 -74t-27.5 -73.5t-80.5 -29t-80 29t-27 74zM1012 1646 q0 44 27 74t80 30t80.5 -30t27.5 -74t-27.5 -73.5t-80.5 -29.5t-80 29.5t-27 73.5z" />
<glyph unicode="&#x1e85;" horiz-adv-x="1508" d="M42 1060h180l209 -793l247 793h146l252 -810l204 810h181l-309 -1060h-147l-257 804l-251 -804h-147zM433 1344q0 44 27 73.5t80 29.5t80.5 -29.5t27.5 -74t-27.5 -73.5t-80.5 -29t-80 29t-27 74zM854 1342q0 44 27 74t80 30t80.5 -30t27.5 -74t-27.5 -73.5t-80.5 -29.5 t-80 29.5t-27 73.5z" />
<glyph unicode="&#x1ea0;" d="M27 0l545 1427h165l546 -1427h-193l-136 372h-598l-135 -372h-194zM413 527h485l-243 668zM558 -240q0 44 27 74.5t80 30.5t80.5 -30.5t27.5 -74.5t-27.5 -73.5t-80.5 -29.5t-80 29.5t-27 73.5z" />
<glyph unicode="&#x1ea1;" horiz-adv-x="1091" d="M107 294q0 166 126 257.5t354 91.5h176v83q0 95 -56.5 151.5t-167.5 56.5q-97 0 -162.5 -49t-65.5 -119h-183q0 80 56.5 154t153 117t212.5 43q183 0 287 -91.5t108 -252.5v-488q0 -146 37 -232v-16h-190q-16 31 -26 112q-126 -132 -301 -132q-157 0 -257.5 89 t-100.5 225zM288 319q0 -85 57 -133t146 -48q85 0 161.5 44t110.5 115v217h-142q-333 0 -333 -195zM378 -240q0 44 27 74.5t80 30.5t80.5 -30.5t27.5 -74.5t-27.5 -73.5t-80.5 -29.5t-80 29.5t-27 73.5z" />
<glyph unicode="&#x1ea2;" d="M27 0l545 1427h165l546 -1427h-193l-136 372h-598l-135 -372h-194zM413 527h485l-243 668zM576 1834l7 104q146 0 221.5 -50.5t75.5 -133.5q0 -60 -38 -99t-114 -50l-1 -70h-129l-1 150q74 5 108 19.5t34 53t-44.5 57.5t-118.5 19z" />
<glyph unicode="&#x1ea3;" horiz-adv-x="1091" d="M107 294q0 166 126 257.5t354 91.5h176v83q0 95 -56.5 151.5t-167.5 56.5q-97 0 -162.5 -49t-65.5 -119h-183q0 80 56.5 154t153 117t212.5 43q183 0 287 -91.5t108 -252.5v-488q0 -146 37 -232v-16h-190q-16 31 -26 112q-126 -132 -301 -132q-157 0 -257.5 89 t-100.5 225zM288 319q0 -85 57 -133t146 -48q85 0 161.5 44t110.5 115v217h-142q-333 0 -333 -195zM487 1531l7 104q146 0 221.5 -50.5t75.5 -133.5q0 -60 -38 -99t-114 -50l-1 -70h-129l-1 150q74 5 108 19.5t34 53t-44.5 57.5t-118.5 19z" />
<glyph unicode="&#x1ea4;" d="M27 0l545 1427h165l546 -1427h-193l-136 372h-598l-135 -372h-194zM299 1520l286 258h149l284 -258h-193l-166 156l-166 -156h-194zM413 527h485l-243 668zM946 1693l139 254h196l-197 -254h-138z" />
<glyph unicode="&#x1ea5;" horiz-adv-x="1091" d="M107 294q0 166 126 257.5t354 91.5h176v83q0 95 -56.5 151.5t-167.5 56.5q-97 0 -162.5 -49t-65.5 -119h-183q0 80 56.5 154t153 117t212.5 43q183 0 287 -91.5t108 -252.5v-488q0 -146 37 -232v-16h-190q-16 31 -26 112q-126 -132 -301 -132q-157 0 -257.5 89 t-100.5 225zM210 1217l286 258h149l284 -258h-193l-166 156l-166 -156h-194zM288 319q0 -85 57 -133t146 -48q85 0 161.5 44t110.5 115v217h-142q-333 0 -333 -195zM857 1390l139 254h196l-197 -254h-138z" />
<glyph unicode="&#x1ea6;" d="M27 0l545 1427h165l546 -1427h-193l-136 372h-598l-135 -372h-194zM36 1944h195l138 -253h-137zM298 1517l284 257h149l285 -257h-193l-166 155l-167 -155h-192zM413 527h485l-243 668z" />
<glyph unicode="&#x1ea7;" horiz-adv-x="1091" d="M-53 1640h195l138 -253h-137zM107 294q0 166 126 257.5t354 91.5h176v83q0 95 -56.5 151.5t-167.5 56.5q-97 0 -162.5 -49t-65.5 -119h-183q0 80 56.5 154t153 117t212.5 43q183 0 287 -91.5t108 -252.5v-488q0 -146 37 -232v-16h-190q-16 31 -26 112 q-126 -132 -301 -132q-157 0 -257.5 89t-100.5 225zM209 1213l284 257h149l285 -257h-193l-166 155l-167 -155h-192zM288 319q0 -85 57 -133t146 -48q85 0 161.5 44t110.5 115v217h-142q-333 0 -333 -195z" />
<glyph unicode="&#x1ea8;" d="M27 0l545 1427h165l546 -1427h-193l-136 372h-598l-135 -372h-194zM299 1504l266 257h185l267 -257h-166l-193 182l-193 -182h-166zM413 527h485l-243 668zM918 1895l5 90q126 0 191.5 -43t65.5 -115q0 -57 -36.5 -89.5t-94.5 -39.5l-1 -59h-112l-1 129q64 3 92.5 16 t28.5 45q0 66 -138 66z" />
<glyph unicode="&#x1ea9;" horiz-adv-x="1091" d="M107 294q0 166 126 257.5t354 91.5h176v83q0 95 -56.5 151.5t-167.5 56.5q-97 0 -162.5 -49t-65.5 -119h-183q0 80 56.5 154t153 117t212.5 43q183 0 287 -91.5t108 -252.5v-488q0 -146 37 -232v-16h-190q-16 31 -26 112q-126 -132 -301 -132q-157 0 -257.5 89 t-100.5 225zM210 1202l266 257h185l267 -257h-166l-193 182l-193 -182h-166zM288 319q0 -85 57 -133t146 -48q85 0 161.5 44t110.5 115v217h-142q-333 0 -333 -195zM829 1593l5 90q126 0 191.5 -43t65.5 -115q0 -57 -36.5 -89.5t-94.5 -39.5l-1 -59h-112l-1 129 q64 3 92.5 16t28.5 45q0 66 -138 66z" />
<glyph unicode="&#x1eaa;" d="M27 0l545 1427h165l546 -1427h-193l-136 372h-598l-135 -372h-194zM298 1484l295 239h128l295 -239h-166l-193 155l-193 -155h-166zM398 1809q0 62 47 110t110 48q41 0 101.5 -34t98.5 -34q30 0 55.5 22t25.5 49l76 -23q0 -60 -47 -106t-110 -46q-53 0 -107 34.5 t-93 34.5q-29 0 -55.5 -22.5t-26.5 -50.5zM413 527h485l-243 668z" />
<glyph unicode="&#x1eab;" horiz-adv-x="1091" d="M107 294q0 166 126 257.5t354 91.5h176v83q0 95 -56.5 151.5t-167.5 56.5q-97 0 -162.5 -49t-65.5 -119h-183q0 80 56.5 154t153 117t212.5 43q183 0 287 -91.5t108 -252.5v-488q0 -146 37 -232v-16h-190q-16 31 -26 112q-126 -132 -301 -132q-157 0 -257.5 89 t-100.5 225zM209 1181l295 239h128l295 -239h-166l-193 155l-193 -155h-166zM288 319q0 -85 57 -133t146 -48q85 0 161.5 44t110.5 115v217h-142q-333 0 -333 -195zM309 1506q0 62 47 110t110 48q41 0 101.5 -34t98.5 -34q30 0 55.5 22t25.5 49l76 -23q0 -60 -47 -106 t-110 -46q-53 0 -107 34.5t-93 34.5q-29 0 -55.5 -22.5t-26.5 -50.5z" />
<glyph unicode="&#x1eac;" d="M27 0l545 1427h165l546 -1427h-193l-136 372h-598l-135 -372h-194zM363 1531v12l241 266h109l243 -268v-10h-150l-147 167l-146 -167h-150zM413 527h485l-243 668zM558 -240q0 44 27 74.5t80 30.5t80.5 -30.5t27.5 -74.5t-27.5 -73.5t-80.5 -29.5t-80 29.5t-27 73.5z" />
<glyph unicode="&#x1ead;" horiz-adv-x="1091" d="M107 294q0 166 126 257.5t354 91.5h176v83q0 95 -56.5 151.5t-167.5 56.5q-97 0 -162.5 -49t-65.5 -119h-183q0 80 56.5 154t153 117t212.5 43q183 0 287 -91.5t108 -252.5v-488q0 -146 37 -232v-16h-190q-16 31 -26 112q-126 -132 -301 -132q-157 0 -257.5 89 t-100.5 225zM274 1227v12l241 266h109l243 -268v-10h-150l-147 167l-146 -167h-150zM288 319q0 -85 57 -133t146 -48q85 0 161.5 44t110.5 115v217h-142q-333 0 -333 -195zM378 -240q0 44 27 74.5t80 30.5t80.5 -30.5t27.5 -74.5t-27.5 -73.5t-80.5 -29.5t-80 29.5t-27 73.5 z" />
<glyph unicode="&#x1eae;" d="M27 0l545 1427h165l546 -1427h-193l-136 372h-598l-135 -372h-194zM355 1722h149q0 -54 39 -84t110 -30q70 0 108.5 31t38.5 83h150q0 -93 -82 -149t-215 -56t-215.5 56t-82.5 149zM413 527h485l-243 668zM596 1741l110 195h150l-161 -195h-99z" />
<glyph unicode="&#x1eaf;" horiz-adv-x="1091" d="M107 294q0 166 126 257.5t354 91.5h176v83q0 95 -56.5 151.5t-167.5 56.5q-97 0 -162.5 -49t-65.5 -119h-183q0 80 56.5 154t153 117t212.5 43q183 0 287 -91.5t108 -252.5v-488q0 -146 37 -232v-16h-190q-16 31 -26 112q-126 -132 -301 -132q-157 0 -257.5 89 t-100.5 225zM266 1419h149q0 -54 39 -84t110 -30q70 0 108.5 31t38.5 83h150q0 -93 -82 -149t-215 -56t-215.5 56t-82.5 149zM288 319q0 -85 57 -133t146 -48q85 0 161.5 44t110.5 115v217h-142q-333 0 -333 -195zM507 1438l110 195h150l-161 -195h-99z" />
<glyph unicode="&#x1eb0;" d="M27 0l545 1427h165l546 -1427h-193l-136 372h-598l-135 -372h-194zM355 1722h149q0 -54 39 -84t110 -30q70 0 108.5 31t38.5 83h150q0 -93 -82 -149t-215 -56t-215.5 56t-82.5 149zM413 527h485l-243 668zM461 1936h151l110 -195h-99z" />
<glyph unicode="&#x1eb1;" horiz-adv-x="1091" d="M107 294q0 166 126 257.5t354 91.5h176v83q0 95 -56.5 151.5t-167.5 56.5q-97 0 -162.5 -49t-65.5 -119h-183q0 80 56.5 154t153 117t212.5 43q183 0 287 -91.5t108 -252.5v-488q0 -146 37 -232v-16h-190q-16 31 -26 112q-126 -132 -301 -132q-157 0 -257.5 89 t-100.5 225zM266 1419h149q0 -54 39 -84t110 -30q70 0 108.5 31t38.5 83h150q0 -93 -82 -149t-215 -56t-215.5 56t-82.5 149zM288 319q0 -85 57 -133t146 -48q85 0 161.5 44t110.5 115v217h-142q-333 0 -333 -195zM372 1633h151l110 -195h-99z" />
<glyph unicode="&#x1eb2;" d="M27 0l545 1427h165l546 -1427h-193l-136 372h-598l-135 -372h-194zM359 1738h144q0 -52 36 -82.5t108 -30.5q67 0 104.5 30t37.5 83h144q0 -92 -79 -148t-207 -56q-130 0 -209 56.5t-79 147.5zM413 527h485l-243 668zM571 1990l7 80q141 0 213.5 -38t72.5 -103 q0 -49 -39.5 -78t-106.5 -36l-1 -60h-125l-1 121q72 4 104.5 15.5t32.5 40.5q0 58 -157 58z" />
<glyph unicode="&#x1eb3;" horiz-adv-x="1091" d="M107 294q0 166 126 257.5t354 91.5h176v83q0 95 -56.5 151.5t-167.5 56.5q-97 0 -162.5 -49t-65.5 -119h-183q0 80 56.5 154t153 117t212.5 43q183 0 287 -91.5t108 -252.5v-488q0 -146 37 -232v-16h-190q-16 31 -26 112q-126 -132 -301 -132q-157 0 -257.5 89 t-100.5 225zM270 1434h144q0 -52 36 -82.5t108 -30.5q67 0 104.5 30t37.5 83h144q0 -92 -79 -148t-207 -56q-130 0 -209 56.5t-79 147.5zM288 319q0 -85 57 -133t146 -48q85 0 161.5 44t110.5 115v217h-142q-333 0 -333 -195zM482 1686l7 80q141 0 213.5 -38t72.5 -103 q0 -49 -39.5 -78t-106.5 -36l-1 -60h-125l-1 121q72 4 104.5 15.5t32.5 40.5q0 58 -157 58z" />
<glyph unicode="&#x1eb4;" d="M27 0l545 1427h165l546 -1427h-193l-136 372h-598l-135 -372h-194zM361 1743h147q0 -53 36.5 -84.5t106.5 -31.5t106.5 31.5t36.5 84.5h147q0 -93 -79 -151t-211 -58t-211 58t-79 151zM391 1835q0 74 47 126t114 52q48 0 111 -36.5t106 -36.5q34 0 57.5 25t23.5 62 l82 -23q0 -73 -47 -124.5t-116 -51.5q-57 0 -115 37t-102 37q-33 0 -56.5 -25t-23.5 -63zM413 527h485l-243 668z" />
<glyph unicode="&#x1eb5;" horiz-adv-x="1091" d="M107 294q0 166 126 257.5t354 91.5h176v83q0 95 -56.5 151.5t-167.5 56.5q-97 0 -162.5 -49t-65.5 -119h-183q0 80 56.5 154t153 117t212.5 43q183 0 287 -91.5t108 -252.5v-488q0 -146 37 -232v-16h-190q-16 31 -26 112q-126 -132 -301 -132q-157 0 -257.5 89 t-100.5 225zM272 1440h147q0 -53 36.5 -84.5t106.5 -31.5t106.5 31.5t36.5 84.5h147q0 -93 -79 -151t-211 -58t-211 58t-79 151zM288 319q0 -85 57 -133t146 -48q85 0 161.5 44t110.5 115v217h-142q-333 0 -333 -195zM302 1532q0 74 47 126t114 52q48 0 111 -36.5t106 -36.5 q34 0 57.5 25t23.5 62l82 -23q0 -73 -47 -124.5t-116 -51.5q-57 0 -115 37t-102 37q-33 0 -56.5 -25t-23.5 -63z" />
<glyph unicode="&#x1eb6;" d="M27 0l545 1427h165l546 -1427h-193l-136 372h-598l-135 -372h-194zM365 1770h148q0 -69 37.5 -107.5t108.5 -38.5q69 0 107.5 38.5t38.5 107.5h147q0 -118 -80.5 -190.5t-212 -72.5t-213 73t-81.5 190zM413 527h485l-243 668zM558 -240q0 44 27 74.5t80 30.5t80.5 -30.5 t27.5 -74.5t-27.5 -73.5t-80.5 -29.5t-80 29.5t-27 73.5z" />
<glyph unicode="&#x1eb7;" horiz-adv-x="1091" d="M107 294q0 166 126 257.5t354 91.5h176v83q0 95 -56.5 151.5t-167.5 56.5q-97 0 -162.5 -49t-65.5 -119h-183q0 80 56.5 154t153 117t212.5 43q183 0 287 -91.5t108 -252.5v-488q0 -146 37 -232v-16h-190q-16 31 -26 112q-126 -132 -301 -132q-157 0 -257.5 89 t-100.5 225zM276 1466h148q0 -69 37.5 -107.5t108.5 -38.5q69 0 107.5 38.5t38.5 107.5h147q0 -118 -80.5 -190.5t-212 -72.5t-213 73t-81.5 190zM288 319q0 -85 57 -133t146 -48q85 0 161.5 44t110.5 115v217h-142q-333 0 -333 -195zM378 -240q0 44 27 74.5t80 30.5 t80.5 -30.5t27.5 -74.5t-27.5 -73.5t-80.5 -29.5t-80 29.5t-27 73.5z" />
<glyph unicode="&#x1eb8;" horiz-adv-x="1140" d="M166 0v1427h896v-155h-708v-459h618v-153h-618v-506h718v-154h-906zM494 -240q0 44 27 74.5t80 30.5t80.5 -30.5t27.5 -74.5t-27.5 -73.5t-80.5 -29.5t-80 29.5t-27 73.5z" />
<glyph unicode="&#x1eb9;" horiz-adv-x="1063" d="M91 501v33q0 158 60.5 282t168.5 194t235 70q206 0 321 -136t115 -390v-76h-719q4 -157 92 -253.5t223 -96.5q96 0 162.5 39.5t116.5 103.5l111 -86q-133 -205 -400 -205q-215 0 -350.5 142t-135.5 379zM278 627h531v14q-7 138 -74 214t-180 76q-110 0 -184.5 -80 t-92.5 -224zM443 -240q0 44 27 74.5t80 30.5t80.5 -30.5t27.5 -74.5t-27.5 -73.5t-80.5 -29.5t-80 29.5t-27 73.5z" />
<glyph unicode="&#x1eba;" horiz-adv-x="1140" d="M166 0v1427h896v-155h-708v-459h618v-153h-618v-506h718v-154h-906zM524 1846l7 104q146 0 221.5 -50.5t75.5 -133.5q0 -60 -38 -99t-114 -50l-1 -70h-129l-1 150q74 5 108 19.5t34 53t-44.5 57.5t-118.5 19z" />
<glyph unicode="&#x1ebb;" horiz-adv-x="1063" d="M91 501v33q0 158 60.5 282t168.5 194t235 70q206 0 321 -136t115 -390v-76h-719q4 -157 92 -253.5t223 -96.5q96 0 162.5 39.5t116.5 103.5l111 -86q-133 -205 -400 -205q-215 0 -350.5 142t-135.5 379zM278 627h531v14q-7 138 -74 214t-180 76q-110 0 -184.5 -80 t-92.5 -224zM471 1531l7 104q146 0 221.5 -50.5t75.5 -133.5q0 -60 -38 -99t-114 -50l-1 -70h-129l-1 150q74 5 108 19.5t34 53t-44.5 57.5t-118.5 19z" />
<glyph unicode="&#x1ebc;" horiz-adv-x="1140" d="M166 0v1427h896v-155h-708v-459h618v-153h-618v-506h718v-154h-906zM262 1542q0 105 59 173.5t150 68.5q35 0 62 -9.5t74.5 -38t72.5 -37.5t55 -9q42 0 70 33.5t28 77.5l121 -12q0 -106 -60 -171.5t-150 -65.5q-40 0 -69.5 9.5t-77 40t-68.5 37t-49 6.5q-40 0 -68.5 -31 t-28.5 -79z" />
<glyph unicode="&#x1ebd;" horiz-adv-x="1063" d="M91 501v33q0 158 60.5 282t168.5 194t235 70q206 0 321 -136t115 -390v-76h-719q4 -157 92 -253.5t223 -96.5q96 0 162.5 39.5t116.5 103.5l111 -86q-133 -205 -400 -205q-215 0 -350.5 142t-135.5 379zM209 1227q0 105 59 173.5t150 68.5q35 0 62 -9.5t74.5 -38 t72.5 -37.5t55 -9q42 0 70 33.5t28 77.5l121 -12q0 -106 -60 -171.5t-150 -65.5q-40 0 -69.5 9.5t-77 40t-68.5 37t-49 6.5q-40 0 -68.5 -31t-28.5 -79zM278 627h531v14q-7 138 -74 214t-180 76q-110 0 -184.5 -80t-92.5 -224z" />
<glyph unicode="&#x1ebe;" horiz-adv-x="1140" d="M166 0v1427h896v-155h-708v-459h618v-153h-618v-506h718v-154h-906zM247 1532l286 258h149l284 -258h-193l-166 156l-166 -156h-194zM894 1705l139 254h196l-197 -254h-138z" />
<glyph unicode="&#x1ebf;" horiz-adv-x="1063" d="M91 501v33q0 158 60.5 282t168.5 194t235 70q206 0 321 -136t115 -390v-76h-719q4 -157 92 -253.5t223 -96.5q96 0 162.5 39.5t116.5 103.5l111 -86q-133 -205 -400 -205q-215 0 -350.5 142t-135.5 379zM194 1217l286 258h149l284 -258h-193l-166 156l-166 -156h-194z M278 627h531v14q-7 138 -74 214t-180 76q-110 0 -184.5 -80t-92.5 -224zM841 1390l139 254h196l-197 -254h-138z" />
<glyph unicode="&#x1ec0;" horiz-adv-x="1140" d="M-16 1955h195l138 -253h-137zM166 0v1427h896v-155h-708v-459h618v-153h-618v-506h718v-154h-906zM246 1528l284 257h149l285 -257h-193l-166 155l-167 -155h-192z" />
<glyph unicode="&#x1ec1;" horiz-adv-x="1063" d="M-69 1640h195l138 -253h-137zM91 501v33q0 158 60.5 282t168.5 194t235 70q206 0 321 -136t115 -390v-76h-719q4 -157 92 -253.5t223 -96.5q96 0 162.5 39.5t116.5 103.5l111 -86q-133 -205 -400 -205q-215 0 -350.5 142t-135.5 379zM193 1213l284 257h149l285 -257h-193 l-166 155l-167 -155h-192zM278 627h531v14q-7 138 -74 214t-180 76q-110 0 -184.5 -80t-92.5 -224z" />
<glyph unicode="&#x1ec2;" horiz-adv-x="1140" d="M166 0v1427h896v-155h-708v-459h618v-153h-618v-506h718v-154h-906zM247 1516l266 257h185l267 -257h-166l-193 182l-193 -182h-166zM866 1907l5 90q126 0 191.5 -43t65.5 -115q0 -57 -36.5 -89.5t-94.5 -39.5l-1 -59h-112l-1 129q64 3 92.5 16t28.5 45q0 66 -138 66z " />
<glyph unicode="&#x1ec3;" horiz-adv-x="1063" d="M91 501v33q0 158 60.5 282t168.5 194t235 70q206 0 321 -136t115 -390v-76h-719q4 -157 92 -253.5t223 -96.5q96 0 162.5 39.5t116.5 103.5l111 -86q-133 -205 -400 -205q-215 0 -350.5 142t-135.5 379zM194 1202l266 257h185l267 -257h-166l-193 182l-193 -182h-166z M278 627h531v14q-7 138 -74 214t-180 76q-110 0 -184.5 -80t-92.5 -224zM813 1593l5 90q126 0 191.5 -43t65.5 -115q0 -57 -36.5 -89.5t-94.5 -39.5l-1 -59h-112l-1 129q64 3 92.5 16t28.5 45q0 66 -138 66z" />
<glyph unicode="&#x1ec4;" horiz-adv-x="1140" d="M166 0v1427h896v-155h-708v-459h618v-153h-618v-506h718v-154h-906zM246 1496l295 239h128l295 -239h-166l-193 155l-193 -155h-166zM346 1821q0 62 47 110t110 48q41 0 101.5 -34t98.5 -34q30 0 55.5 22t25.5 49l76 -23q0 -60 -47 -106t-110 -46q-53 0 -107 34.5 t-93 34.5q-29 0 -55.5 -22.5t-26.5 -50.5z" />
<glyph unicode="&#x1ec5;" horiz-adv-x="1063" d="M91 501v33q0 158 60.5 282t168.5 194t235 70q206 0 321 -136t115 -390v-76h-719q4 -157 92 -253.5t223 -96.5q96 0 162.5 39.5t116.5 103.5l111 -86q-133 -205 -400 -205q-215 0 -350.5 142t-135.5 379zM193 1181l295 239h128l295 -239h-166l-193 155l-193 -155h-166z M278 627h531v14q-7 138 -74 214t-180 76q-110 0 -184.5 -80t-92.5 -224zM293 1506q0 62 47 110t110 48q41 0 101.5 -34t98.5 -34q30 0 55.5 22t25.5 49l76 -23q0 -60 -47 -106t-110 -46q-53 0 -107 34.5t-93 34.5q-29 0 -55.5 -22.5t-26.5 -50.5z" />
<glyph unicode="&#x1ec6;" horiz-adv-x="1140" d="M166 0v1427h896v-155h-708v-459h618v-153h-618v-506h718v-154h-906zM311 1543v12l241 266h109l243 -268v-10h-150l-147 167l-146 -167h-150zM494 -240q0 44 27 74.5t80 30.5t80.5 -30.5t27.5 -74.5t-27.5 -73.5t-80.5 -29.5t-80 29.5t-27 73.5z" />
<glyph unicode="&#x1ec7;" horiz-adv-x="1063" d="M91 501v33q0 158 60.5 282t168.5 194t235 70q206 0 321 -136t115 -390v-76h-719q4 -157 92 -253.5t223 -96.5q96 0 162.5 39.5t116.5 103.5l111 -86q-133 -205 -400 -205q-215 0 -350.5 142t-135.5 379zM258 1227v12l241 266h109l243 -268v-10h-150l-147 167l-146 -167 h-150zM278 627h531v14q-7 138 -74 214t-180 76q-110 0 -184.5 -80t-92.5 -224zM443 -240q0 44 27 74.5t80 30.5t80.5 -30.5t27.5 -74.5t-27.5 -73.5t-80.5 -29.5t-80 29.5t-27 73.5z" />
<glyph unicode="&#x1ec8;" horiz-adv-x="545" d="M179 0v1427h189v-1427h-189zM190 1846l7 104q146 0 221.5 -50.5t75.5 -133.5q0 -60 -38 -99t-114 -50l-1 -70h-129l-1 150q74 5 108 19.5t34 53t-44.5 57.5t-118.5 19z" />
<glyph unicode="&#x1ec9;" horiz-adv-x="495" d="M152 0v1060h182v-1060h-182zM164 1529l7 104q146 0 221.5 -50.5t75.5 -133.5q0 -60 -38 -99t-114 -50l-1 -70h-129l-1 150q74 5 108 19.5t34 53t-44.5 57.5t-118.5 19z" />
<glyph unicode="&#x1eca;" horiz-adv-x="545" d="M160 -240q0 44 27 74.5t80 30.5t80.5 -30.5t27.5 -74.5t-27.5 -73.5t-80.5 -29.5t-80 29.5t-27 73.5zM179 0v1427h189v-1427h-189z" />
<glyph unicode="&#x1ecb;" horiz-adv-x="487" d="M130 -240q0 44 27 74.5t80 30.5t80.5 -30.5t27.5 -74.5t-27.5 -73.5t-80.5 -29.5t-80 29.5t-27 73.5zM138 1342q0 44 27 74t80 30t80.5 -30t27.5 -74t-27.5 -73.5t-80.5 -29.5t-80 29.5t-27 73.5zM153 0v1060h181v-1060h-181z" />
<glyph unicode="&#x1ecc;" horiz-adv-x="1379" d="M116 655v103q0 205 71.5 363t202 241.5t299.5 83.5q171 0 302 -82.5t201.5 -240t70.5 -365.5v-91q0 -209 -70.5 -365.5t-200 -239t-301.5 -82.5q-169 0 -299 83t-202 236.5t-74 355.5zM303 667q0 -246 103.5 -386.5t284.5 -140.5q182 0 282 133t103 381v106 q0 253 -102 389t-285 136q-178 0 -280.5 -136t-105.5 -377v-105zM580 -240q0 44 27 74.5t80 30.5t80.5 -30.5t27.5 -74.5t-27.5 -73.5t-80.5 -29.5t-80 29.5t-27 73.5z" />
<glyph unicode="&#x1ecd;" horiz-adv-x="1144" d="M89 527v13q0 156 61.5 280.5t170.5 192t249 67.5q217 0 350.5 -150t133.5 -399v-13q0 -154 -59 -277t-169.5 -192t-253.5 -69q-215 0 -349 150t-134 397zM271 518q0 -176 82 -283t219 -107q138 0 219.5 108.5t81.5 303.5q0 174 -82.5 282.5t-220.5 108.5 q-134 0 -216.5 -107t-82.5 -306zM459 -240q0 44 27 74.5t80 30.5t80.5 -30.5t27.5 -74.5t-27.5 -73.5t-80.5 -29.5t-80 29.5t-27 73.5z" />
<glyph unicode="&#x1ece;" horiz-adv-x="1379" d="M116 655v103q0 205 71.5 363t202 241.5t299.5 83.5q171 0 302 -82.5t201.5 -240t70.5 -365.5v-91q0 -209 -70.5 -365.5t-200 -239t-301.5 -82.5q-169 0 -299 83t-202 236.5t-74 355.5zM303 667q0 -246 103.5 -386.5t284.5 -140.5q182 0 282 133t103 381v106 q0 253 -102 389t-285 136q-178 0 -280.5 -136t-105.5 -377v-105zM609 1836l7 104q146 0 221.5 -50.5t75.5 -133.5q0 -60 -38 -99t-114 -50l-1 -70h-129l-1 150q74 5 108 19.5t34 53t-44.5 57.5t-118.5 19z" />
<glyph unicode="&#x1ecf;" horiz-adv-x="1144" d="M89 527v13q0 156 61.5 280.5t170.5 192t249 67.5q217 0 350.5 -150t133.5 -399v-13q0 -154 -59 -277t-169.5 -192t-253.5 -69q-215 0 -349 150t-134 397zM271 518q0 -176 82 -283t219 -107q138 0 219.5 108.5t81.5 303.5q0 174 -82.5 282.5t-220.5 108.5 q-134 0 -216.5 -107t-82.5 -306zM481 1531l7 104q146 0 221.5 -50.5t75.5 -133.5q0 -60 -38 -99t-114 -50l-1 -70h-129l-1 150q74 5 108 19.5t34 53t-44.5 57.5t-118.5 19z" />
<glyph unicode="&#x1ed0;" horiz-adv-x="1379" d="M116 655v103q0 205 71.5 363t202 241.5t299.5 83.5q171 0 302 -82.5t201.5 -240t70.5 -365.5v-91q0 -209 -70.5 -365.5t-200 -239t-301.5 -82.5q-169 0 -299 83t-202 236.5t-74 355.5zM303 667q0 -246 103.5 -386.5t284.5 -140.5q182 0 282 133t103 381v106 q0 253 -102 389t-285 136q-178 0 -280.5 -136t-105.5 -377v-105zM332 1522l286 258h149l284 -258h-193l-166 156l-166 -156h-194zM979 1695l139 254h196l-197 -254h-138z" />
<glyph unicode="&#x1ed1;" horiz-adv-x="1144" d="M89 527v13q0 156 61.5 280.5t170.5 192t249 67.5q217 0 350.5 -150t133.5 -399v-13q0 -154 -59 -277t-169.5 -192t-253.5 -69q-215 0 -349 150t-134 397zM204 1217l286 258h149l284 -258h-193l-166 156l-166 -156h-194zM271 518q0 -176 82 -283t219 -107 q138 0 219.5 108.5t81.5 303.5q0 174 -82.5 282.5t-220.5 108.5q-134 0 -216.5 -107t-82.5 -306zM851 1390l139 254h196l-197 -254h-138z" />
<glyph unicode="&#x1ed2;" horiz-adv-x="1379" d="M69 1946h195l138 -253h-137zM116 655v103q0 205 71.5 363t202 241.5t299.5 83.5q171 0 302 -82.5t201.5 -240t70.5 -365.5v-91q0 -209 -70.5 -365.5t-200 -239t-301.5 -82.5q-169 0 -299 83t-202 236.5t-74 355.5zM303 667q0 -246 103.5 -386.5t284.5 -140.5 q182 0 282 133t103 381v106q0 253 -102 389t-285 136q-178 0 -280.5 -136t-105.5 -377v-105zM331 1519l284 257h149l285 -257h-193l-166 155l-167 -155h-192z" />
<glyph unicode="&#x1ed3;" horiz-adv-x="1144" d="M-59 1640h195l138 -253h-137zM89 527v13q0 156 61.5 280.5t170.5 192t249 67.5q217 0 350.5 -150t133.5 -399v-13q0 -154 -59 -277t-169.5 -192t-253.5 -69q-215 0 -349 150t-134 397zM203 1213l284 257h149l285 -257h-193l-166 155l-167 -155h-192zM271 518 q0 -176 82 -283t219 -107q138 0 219.5 108.5t81.5 303.5q0 174 -82.5 282.5t-220.5 108.5q-134 0 -216.5 -107t-82.5 -306z" />
<glyph unicode="&#x1ed4;" horiz-adv-x="1379" d="M116 655v103q0 205 71.5 363t202 241.5t299.5 83.5q171 0 302 -82.5t201.5 -240t70.5 -365.5v-91q0 -209 -70.5 -365.5t-200 -239t-301.5 -82.5q-169 0 -299 83t-202 236.5t-74 355.5zM303 667q0 -246 103.5 -386.5t284.5 -140.5q182 0 282 133t103 381v106 q0 253 -102 389t-285 136q-178 0 -280.5 -136t-105.5 -377v-105zM332 1506l266 257h185l267 -257h-166l-193 182l-193 -182h-166zM951 1897l5 90q126 0 191.5 -43t65.5 -115q0 -57 -36.5 -89.5t-94.5 -39.5l-1 -59h-112l-1 129q64 3 92.5 16t28.5 45q0 66 -138 66z" />
<glyph unicode="&#x1ed5;" horiz-adv-x="1144" d="M89 527v13q0 156 61.5 280.5t170.5 192t249 67.5q217 0 350.5 -150t133.5 -399v-13q0 -154 -59 -277t-169.5 -192t-253.5 -69q-215 0 -349 150t-134 397zM204 1202l266 257h185l267 -257h-166l-193 182l-193 -182h-166zM271 518q0 -176 82 -283t219 -107 q138 0 219.5 108.5t81.5 303.5q0 174 -82.5 282.5t-220.5 108.5q-134 0 -216.5 -107t-82.5 -306zM823 1593l5 90q126 0 191.5 -43t65.5 -115q0 -57 -36.5 -89.5t-94.5 -39.5l-1 -59h-112l-1 129q64 3 92.5 16t28.5 45q0 66 -138 66z" />
<glyph unicode="&#x1ed6;" horiz-adv-x="1379" d="M116 655v103q0 205 71.5 363t202 241.5t299.5 83.5q171 0 302 -82.5t201.5 -240t70.5 -365.5v-91q0 -209 -70.5 -365.5t-200 -239t-301.5 -82.5q-169 0 -299 83t-202 236.5t-74 355.5zM303 667q0 -246 103.5 -386.5t284.5 -140.5q182 0 282 133t103 381v106 q0 253 -102 389t-285 136q-178 0 -280.5 -136t-105.5 -377v-105zM331 1486l295 239h128l295 -239h-166l-193 155l-193 -155h-166zM431 1811q0 62 47 110t110 48q41 0 101.5 -34t98.5 -34q30 0 55.5 22t25.5 49l76 -23q0 -60 -47 -106t-110 -46q-53 0 -107 34.5t-93 34.5 q-29 0 -55.5 -22.5t-26.5 -50.5z" />
<glyph unicode="&#x1ed7;" horiz-adv-x="1144" d="M89 527v13q0 156 61.5 280.5t170.5 192t249 67.5q217 0 350.5 -150t133.5 -399v-13q0 -154 -59 -277t-169.5 -192t-253.5 -69q-215 0 -349 150t-134 397zM203 1181l295 239h128l295 -239h-166l-193 155l-193 -155h-166zM271 518q0 -176 82 -283t219 -107 q138 0 219.5 108.5t81.5 303.5q0 174 -82.5 282.5t-220.5 108.5q-134 0 -216.5 -107t-82.5 -306zM303 1506q0 62 47 110t110 48q41 0 101.5 -34t98.5 -34q30 0 55.5 22t25.5 49l76 -23q0 -60 -47 -106t-110 -46q-53 0 -107 34.5t-93 34.5q-29 0 -55.5 -22.5t-26.5 -50.5z " />
<glyph unicode="&#x1ed8;" horiz-adv-x="1379" d="M116 655v103q0 205 71.5 363t202 241.5t299.5 83.5q171 0 302 -82.5t201.5 -240t70.5 -365.5v-91q0 -209 -70.5 -365.5t-200 -239t-301.5 -82.5q-169 0 -299 83t-202 236.5t-74 355.5zM303 667q0 -246 103.5 -386.5t284.5 -140.5q182 0 282 133t103 381v106 q0 253 -102 389t-285 136q-178 0 -280.5 -136t-105.5 -377v-105zM396 1533v12l241 266h109l243 -268v-10h-150l-147 167l-146 -167h-150zM580 -240q0 44 27 74.5t80 30.5t80.5 -30.5t27.5 -74.5t-27.5 -73.5t-80.5 -29.5t-80 29.5t-27 73.5z" />
<glyph unicode="&#x1ed9;" horiz-adv-x="1144" d="M89 527v13q0 156 61.5 280.5t170.5 192t249 67.5q217 0 350.5 -150t133.5 -399v-13q0 -154 -59 -277t-169.5 -192t-253.5 -69q-215 0 -349 150t-134 397zM268 1227v12l241 266h109l243 -268v-10h-150l-147 167l-146 -167h-150zM271 518q0 -176 82 -283t219 -107 q138 0 219.5 108.5t81.5 303.5q0 174 -82.5 282.5t-220.5 108.5q-134 0 -216.5 -107t-82.5 -306zM459 -240q0 44 27 74.5t80 30.5t80.5 -30.5t27.5 -74.5t-27.5 -73.5t-80.5 -29.5t-80 29.5t-27 73.5z" />
<glyph unicode="&#x1eda;" horiz-adv-x="1377" d="M99 660v98q0 205 71.5 362.5t202.5 241.5t299 84q235 0 387 -151q94 6 140 70.5t46 193.5h163q0 -326 -257 -386q95 -169 96 -410v-96q0 -209 -71 -365.5t-200 -239t-302 -82.5q-167 0 -297.5 82.5t-203.5 238.5t-74 359zM286 667q0 -246 103.5 -386.5t284.5 -140.5 q187 0 286.5 138t99.5 390v92q0 252 -101 388.5t-287 136.5q-178 0 -280.5 -136t-105.5 -377v-105zM588 1514l189 288h219l-262 -288h-146z" />
<glyph unicode="&#x1edb;" horiz-adv-x="1146" d="M89 527v13q0 156 60.5 280t170.5 192t250 68q203 0 336 -135q70 8 101.5 57t31.5 174h147q0 -285 -203 -335q71 -135 71 -301v-22q0 -154 -60.5 -278.5t-170.5 -192t-251 -67.5q-217 0 -350 150.5t-133 396.5zM270 518q0 -176 82 -283t220 -107q137 0 218.5 107.5 t81.5 288.5v16q0 177 -82.5 284t-219.5 107q-135 0 -217.5 -107t-82.5 -306zM471 1215l189 288h219l-262 -288h-146z" />
<glyph unicode="&#x1edc;" horiz-adv-x="1377" d="M99 660v98q0 205 71.5 362.5t202.5 241.5t299 84q235 0 387 -151q94 6 140 70.5t46 193.5h163q0 -326 -257 -386q95 -169 96 -410v-96q0 -209 -71 -365.5t-200 -239t-302 -82.5q-167 0 -297.5 82.5t-203.5 238.5t-74 359zM286 667q0 -246 103.5 -386.5t284.5 -140.5 q187 0 286.5 138t99.5 390v92q0 252 -101 388.5t-287 136.5q-178 0 -280.5 -136t-105.5 -377v-105zM383 1802h218l191 -288h-156z" />
<glyph unicode="&#x1edd;" horiz-adv-x="1146" d="M89 527v13q0 156 60.5 280t170.5 192t250 68q203 0 336 -135q70 8 101.5 57t31.5 174h147q0 -285 -203 -335q71 -135 71 -301v-22q0 -154 -60.5 -278.5t-170.5 -192t-251 -67.5q-217 0 -350 150.5t-133 396.5zM266 1503h218l191 -288h-156zM270 518q0 -176 82 -283 t220 -107q137 0 218.5 107.5t81.5 288.5v16q0 177 -82.5 284t-219.5 107q-135 0 -217.5 -107t-82.5 -306z" />
<glyph unicode="&#x1ede;" horiz-adv-x="1377" d="M99 660v98q0 205 71.5 362.5t202.5 241.5t299 84q235 0 387 -151q94 6 140 70.5t46 193.5h163q0 -326 -257 -386q95 -169 96 -410v-96q0 -209 -71 -365.5t-200 -239t-302 -82.5q-167 0 -297.5 82.5t-203.5 238.5t-74 359zM286 667q0 -246 103.5 -386.5t284.5 -140.5 q187 0 286.5 138t99.5 390v92q0 252 -101 388.5t-287 136.5q-178 0 -280.5 -136t-105.5 -377v-105zM605 1830l7 104q146 0 221.5 -50.5t75.5 -133.5q0 -60 -38 -99t-114 -50l-1 -70h-129l-1 150q74 5 108 19.5t34 53t-44.5 57.5t-118.5 19z" />
<glyph unicode="&#x1edf;" horiz-adv-x="1146" d="M89 527v13q0 156 60.5 280t170.5 192t250 68q203 0 336 -135q70 8 101.5 57t31.5 174h147q0 -285 -203 -335q71 -135 71 -301v-22q0 -154 -60.5 -278.5t-170.5 -192t-251 -67.5q-217 0 -350 150.5t-133 396.5zM270 518q0 -176 82 -283t220 -107q137 0 218.5 107.5 t81.5 288.5v16q0 177 -82.5 284t-219.5 107q-135 0 -217.5 -107t-82.5 -306zM488 1531l7 104q146 0 221.5 -50.5t75.5 -133.5q0 -60 -38 -99t-114 -50l-1 -70h-129l-1 150q74 5 108 19.5t34 53t-44.5 57.5t-118.5 19z" />
<glyph unicode="&#x1ee0;" horiz-adv-x="1377" d="M99 660v98q0 205 71.5 362.5t202.5 241.5t299 84q235 0 387 -151q94 6 140 70.5t46 193.5h163q0 -326 -257 -386q95 -169 96 -410v-96q0 -209 -71 -365.5t-200 -239t-302 -82.5q-167 0 -297.5 82.5t-203.5 238.5t-74 359zM286 667q0 -246 103.5 -386.5t284.5 -140.5 q187 0 286.5 138t99.5 390v92q0 252 -101 388.5t-287 136.5q-178 0 -280.5 -136t-105.5 -377v-105zM343 1526q0 105 59 173.5t150 68.5q35 0 62 -9.5t74.5 -38t72.5 -37.5t55 -9q42 0 70 33.5t28 77.5l121 -12q0 -106 -60 -171.5t-150 -65.5q-40 0 -69.5 9.5t-77 40 t-68.5 37t-49 6.5q-40 0 -68.5 -31t-28.5 -79z" />
<glyph unicode="&#x1ee1;" horiz-adv-x="1146" d="M89 527v13q0 156 60.5 280t170.5 192t250 68q203 0 336 -135q70 8 101.5 57t31.5 174h147q0 -285 -203 -335q71 -135 71 -301v-22q0 -154 -60.5 -278.5t-170.5 -192t-251 -67.5q-217 0 -350 150.5t-133 396.5zM226 1227q0 105 59 173.5t150 68.5q35 0 62 -9.5t74.5 -38 t72.5 -37.5t55 -9q42 0 70 33.5t28 77.5l121 -12q0 -106 -60 -171.5t-150 -65.5q-40 0 -69.5 9.5t-77 40t-68.5 37t-49 6.5q-40 0 -68.5 -31t-28.5 -79zM270 518q0 -176 82 -283t220 -107q137 0 218.5 107.5t81.5 288.5v16q0 177 -82.5 284t-219.5 107q-135 0 -217.5 -107 t-82.5 -306z" />
<glyph unicode="&#x1ee2;" horiz-adv-x="1377" d="M99 660v98q0 205 71.5 362.5t202.5 241.5t299 84q235 0 387 -151q94 6 140 70.5t46 193.5h163q0 -326 -257 -386q95 -169 96 -410v-96q0 -209 -71 -365.5t-200 -239t-302 -82.5q-167 0 -297.5 82.5t-203.5 238.5t-74 359zM286 667q0 -246 103.5 -386.5t284.5 -140.5 q187 0 286.5 138t99.5 390v92q0 252 -101 388.5t-287 136.5q-178 0 -280.5 -136t-105.5 -377v-105zM565 -240q0 44 27 74.5t80 30.5t80.5 -30.5t27.5 -74.5t-27.5 -73.5t-80.5 -29.5t-80 29.5t-27 73.5z" />
<glyph unicode="&#x1ee3;" horiz-adv-x="1146" d="M89 527v13q0 156 60.5 280t170.5 192t250 68q203 0 336 -135q70 8 101.5 57t31.5 174h147q0 -285 -203 -335q71 -135 71 -301v-22q0 -154 -60.5 -278.5t-170.5 -192t-251 -67.5q-217 0 -350 150.5t-133 396.5zM270 518q0 -176 82 -283t220 -107q137 0 218.5 107.5 t81.5 288.5v16q0 177 -82.5 284t-219.5 107q-135 0 -217.5 -107t-82.5 -306zM457 -240q0 44 27 74.5t80 30.5t80.5 -30.5t27.5 -74.5t-27.5 -73.5t-80.5 -29.5t-80 29.5t-27 73.5z" />
<glyph unicode="&#x1ee4;" horiz-adv-x="1301" d="M137 455v972h186v-966q0 -155 85.5 -241t243.5 -86q159 0 244 85.5t85 240.5v967h189v-970q-1 -202 -127 -330.5t-341 -144.5l-50 -2q-235 0 -374 126.5t-141 348.5zM539 -240q0 44 27 74.5t80 30.5t80.5 -30.5t27.5 -74.5t-27.5 -73.5t-80.5 -29.5t-80 29.5t-27 73.5z " />
<glyph unicode="&#x1ee5;" horiz-adv-x="1106" d="M133 370v690h182v-685q0 -241 196 -241q207 0 276 155v771h181v-1060h-172l-4 105q-106 -125 -311 -125q-169 0 -258 98.5t-90 291.5zM385 -240q0 44 27 74.5t80 30.5t80.5 -30.5t27.5 -74.5t-27.5 -73.5t-80.5 -29.5t-80 29.5t-27 73.5z" />
<glyph unicode="&#x1ee6;" horiz-adv-x="1301" d="M137 455v972h186v-966q0 -155 85.5 -241t243.5 -86q159 0 244 85.5t85 240.5v967h189v-970q-1 -202 -127 -330.5t-341 -144.5l-50 -2q-235 0 -374 126.5t-141 348.5zM571 1834l7 104q146 0 221.5 -50.5t75.5 -133.5q0 -60 -38 -99t-114 -50l-1 -70h-129l-1 150 q74 5 108 19.5t34 53t-44.5 57.5t-118.5 19z" />
<glyph unicode="&#x1ee7;" horiz-adv-x="1106" d="M133 370v690h182v-685q0 -241 196 -241q207 0 276 155v771h181v-1060h-172l-4 105q-106 -125 -311 -125q-169 0 -258 98.5t-90 291.5zM473 1531l7 104q146 0 221.5 -50.5t75.5 -133.5q0 -60 -38 -99t-114 -50l-1 -70h-129l-1 150q74 5 108 19.5t34 53t-44.5 57.5 t-118.5 19z" />
<glyph unicode="&#x1ee8;" horiz-adv-x="1395" d="M137 455v972h186v-966q0 -155 85.5 -241t243.5 -86q159 0 244 85.5t85 240.5v967h189v-209q113 11 160.5 78t47.5 211h156q0 -206 -87 -308t-277 -114v-629q-1 -195 -120.5 -322.5t-326.5 -149.5l-71 -4q-235 0 -374 126.5t-141 348.5zM580 1531l189 288h219l-262 -288 h-146z" />
<glyph unicode="&#x1ee9;" horiz-adv-x="1241" d="M133 370v690h182v-685q0 -241 196 -241q207 0 276 155v771h181v-128q67 2 100.5 19t47.5 52.5t14 141.5h139q0 -177 -72 -249t-229 -76v-820h-172l-4 105q-106 -125 -311 -125q-169 0 -258 98.5t-90 291.5zM469 1195l189 288h219l-262 -288h-146z" />
<glyph unicode="&#x1eea;" horiz-adv-x="1395" d="M137 455v972h186v-966q0 -155 85.5 -241t243.5 -86q159 0 244 85.5t85 240.5v967h189v-209q113 11 160.5 78t47.5 211h156q0 -206 -87 -308t-277 -114v-629q-1 -195 -120.5 -322.5t-326.5 -149.5l-71 -4q-235 0 -374 126.5t-141 348.5zM374 1819h218l191 -288h-156z" />
<glyph unicode="&#x1eeb;" horiz-adv-x="1241" d="M133 370v690h182v-685q0 -241 196 -241q207 0 276 155v771h181v-128q67 2 100.5 19t47.5 52.5t14 141.5h139q0 -177 -72 -249t-229 -76v-820h-172l-4 105q-106 -125 -311 -125q-169 0 -258 98.5t-90 291.5zM264 1483h218l191 -288h-156z" />
<glyph unicode="&#x1eec;" horiz-adv-x="1395" d="M137 455v972h186v-966q0 -155 85.5 -241t243.5 -86q159 0 244 85.5t85 240.5v967h189v-209q113 11 160.5 78t47.5 211h156q0 -206 -87 -308t-277 -114v-629q-1 -195 -120.5 -322.5t-326.5 -149.5l-71 -4q-235 0 -374 126.5t-141 348.5zM596 1846l7 104q146 0 221.5 -50.5 t75.5 -133.5q0 -60 -38 -99t-114 -50l-1 -70h-129l-1 150q74 5 108 19.5t34 53t-44.5 57.5t-118.5 19z" />
<glyph unicode="&#x1eed;" horiz-adv-x="1241" d="M133 370v690h182v-685q0 -241 196 -241q207 0 276 155v771h181v-128q67 2 100.5 19t47.5 52.5t14 141.5h139q0 -177 -72 -249t-229 -76v-820h-172l-4 105q-106 -125 -311 -125q-169 0 -258 98.5t-90 291.5zM486 1511l7 104q146 0 221.5 -50.5t75.5 -133.5q0 -60 -38 -99 t-114 -50l-1 -70h-129l-1 150q74 5 108 19.5t34 53t-44.5 57.5t-118.5 19z" />
<glyph unicode="&#x1eee;" horiz-adv-x="1395" d="M137 455v972h186v-966q0 -155 85.5 -241t243.5 -86q159 0 244 85.5t85 240.5v967h189v-209q113 11 160.5 78t47.5 211h156q0 -206 -87 -308t-277 -114v-629q-1 -195 -120.5 -322.5t-326.5 -149.5l-71 -4q-235 0 -374 126.5t-141 348.5zM335 1542q0 105 59 173.5t150 68.5 q35 0 62 -9.5t74.5 -38t72.5 -37.5t55 -9q42 0 70 33.5t28 77.5l121 -12q0 -106 -60 -171.5t-150 -65.5q-40 0 -69.5 9.5t-77 40t-68.5 37t-49 6.5q-40 0 -68.5 -31t-28.5 -79z" />
<glyph unicode="&#x1eef;" horiz-adv-x="1241" d="M133 370v690h182v-685q0 -241 196 -241q207 0 276 155v771h181v-128q67 2 100.5 19t47.5 52.5t14 141.5h139q0 -177 -72 -249t-229 -76v-820h-172l-4 105q-106 -125 -311 -125q-169 0 -258 98.5t-90 291.5zM224 1207q0 105 59 173.5t150 68.5q35 0 62 -9.5t74.5 -38 t72.5 -37.5t55 -9q42 0 70 33.5t28 77.5l121 -12q0 -106 -60 -171.5t-150 -65.5q-40 0 -69.5 9.5t-77 40t-68.5 37t-49 6.5q-40 0 -68.5 -31t-28.5 -79z" />
<glyph unicode="&#x1ef0;" horiz-adv-x="1395" d="M137 455v972h186v-966q0 -155 85.5 -241t243.5 -86q159 0 244 85.5t85 240.5v967h189v-209q113 11 160.5 78t47.5 211h156q0 -206 -87 -308t-277 -114v-629q-1 -195 -120.5 -322.5t-326.5 -149.5l-71 -4q-235 0 -374 126.5t-141 348.5zM565 -240q0 44 27 74.5t80 30.5 t80.5 -30.5t27.5 -74.5t-27.5 -73.5t-80.5 -29.5t-80 29.5t-27 73.5z" />
<glyph unicode="&#x1ef1;" horiz-adv-x="1241" d="M133 370v690h182v-685q0 -241 196 -241q207 0 276 155v771h181v-128q67 2 100.5 19t47.5 52.5t14 141.5h139q0 -177 -72 -249t-229 -76v-820h-172l-4 105q-106 -125 -311 -125q-169 0 -258 98.5t-90 291.5zM391 -240q0 44 27 74.5t80 30.5t80.5 -30.5t27.5 -74.5 t-27.5 -73.5t-80.5 -29.5t-80 29.5t-27 73.5z" />
<glyph unicode="&#x1ef2;" horiz-adv-x="1205" d="M15 1427h215l371 -717l372 717h214l-492 -895v-532h-188v532zM300 1807h218l191 -288h-156z" />
<glyph unicode="&#x1ef3;" horiz-adv-x="949" d="M22 1060h198l264 -794l247 794h194l-426 -1224q-99 -264 -315 -264l-34 3l-68 12v147l49 -4q92 0 143.5 37.5t85.5 136.5l40 108zM193 1503h218l191 -288h-156z" />
<glyph unicode="&#x1ef4;" horiz-adv-x="1205" d="M15 1427h215l371 -717l372 717h214l-492 -895v-532h-188v532zM489 -240q0 44 27 74.5t80 30.5t80.5 -30.5t27.5 -74.5t-27.5 -73.5t-80.5 -29.5t-80 29.5t-27 73.5z" />
<glyph unicode="&#x1ef5;" horiz-adv-x="949" d="M22 1060h198l264 -794l247 794h194l-426 -1224q-99 -264 -315 -264l-34 3l-68 12v147l49 -4q92 0 143.5 37.5t85.5 136.5l40 108zM584 -394q0 44 27 74.5t80 30.5t80.5 -30.5t27.5 -74.5t-27.5 -73.5t-80.5 -29.5t-80 29.5t-27 73.5z" />
<glyph unicode="&#x1ef6;" horiz-adv-x="1205" d="M15 1427h215l371 -717l372 717h214l-492 -895v-532h-188v532zM522 1834l7 104q146 0 221.5 -50.5t75.5 -133.5q0 -60 -38 -99t-114 -50l-1 -70h-129l-1 150q74 5 108 19.5t34 53t-44.5 57.5t-118.5 19z" />
<glyph unicode="&#x1ef7;" horiz-adv-x="949" d="M22 1060h198l264 -794l247 794h194l-426 -1224q-99 -264 -315 -264l-34 3l-68 12v147l49 -4q92 0 143.5 37.5t85.5 136.5l40 108zM415 1531l7 104q146 0 221.5 -50.5t75.5 -133.5q0 -60 -38 -99t-114 -50l-1 -70h-129l-1 150q74 5 108 19.5t34 53t-44.5 57.5t-118.5 19z " />
<glyph unicode="&#x1ef8;" horiz-adv-x="1205" d="M15 1427h215l371 -717l372 717h214l-492 -895v-532h-188v532zM260 1531q0 105 59 173.5t150 68.5q35 0 62 -9.5t74.5 -38t72.5 -37.5t55 -9q42 0 70 33.5t28 77.5l121 -12q0 -106 -60 -171.5t-150 -65.5q-40 0 -69.5 9.5t-77 40t-68.5 37t-49 6.5q-40 0 -68.5 -31 t-28.5 -79z" />
<glyph unicode="&#x1ef9;" horiz-adv-x="949" d="M22 1060h198l264 -794l247 794h194l-426 -1224q-99 -264 -315 -264l-34 3l-68 12v147l49 -4q92 0 143.5 37.5t85.5 136.5l40 108zM153 1227q0 105 59 173.5t150 68.5q35 0 62 -9.5t74.5 -38t72.5 -37.5t55 -9q42 0 70 33.5t28 77.5l121 -12q0 -106 -60 -171.5t-150 -65.5 q-40 0 -69.5 9.5t-77 40t-68.5 37t-49 6.5q-40 0 -68.5 -31t-28.5 -79z" />
<glyph unicode="&#x2000;" horiz-adv-x="1023" />
<glyph unicode="&#x2001;" horiz-adv-x="2047" />
<glyph unicode="&#x2002;" horiz-adv-x="1023" />
<glyph unicode="&#x2003;" horiz-adv-x="2047" />
<glyph unicode="&#x2004;" horiz-adv-x="683" />
<glyph unicode="&#x2005;" horiz-adv-x="511" />
<glyph unicode="&#x2006;" horiz-adv-x="341" />
<glyph unicode="&#x2007;" horiz-adv-x="1127" />
<glyph unicode="&#x2008;" horiz-adv-x="548" />
<glyph unicode="&#x2009;" horiz-adv-x="409" />
<glyph unicode="&#x200a;" horiz-adv-x="204" />
<glyph unicode="&#x200b;" horiz-adv-x="0" />
<glyph unicode="&#x2010;" horiz-adv-x="552" d="M36 532v148h478v-148h-478z" />
<glyph unicode="&#x2011;" horiz-adv-x="552" d="M36 532v148h478v-148h-478z" />
<glyph unicode="&#x2012;" horiz-adv-x="553" d="M36 532v148h478v-148h-478z" />
<glyph unicode="&#x2013;" horiz-adv-x="1317" d="M152 638v148h982v-148h-982z" />
<glyph unicode="&#x2014;" horiz-adv-x="1567" d="M70 638v148h1309v-148h-1309z" />
<glyph unicode="&#x2015;" horiz-adv-x="1567" d="M70 638v148h1309v-148h-1309z" />
<glyph unicode="&#x2017;" horiz-adv-x="915" d="M13 0h898v-148h-898v148zM13 -248h898v-148h-898v148z" />
<glyph unicode="&#x2018;" horiz-adv-x="400" d="M94 1052v113q0 100 47.5 198t123.5 161l103 -71q-91 -124 -94 -268v-133h-180z" />
<glyph unicode="&#x2019;" horiz-adv-x="400" d="M47 1096q91 127 94 268v141h179v-127q-1 -98 -48.5 -195.5t-121.5 -157.5z" />
<glyph unicode="&#x201a;" horiz-adv-x="398" d="M35 -206q89 125 92 268v115h182v-98q0 -99 -48.5 -198t-122.5 -158z" />
<glyph unicode="&#x201b;" horiz-adv-x="400" d="M77 1373v132h180v-144q4 -141 95 -265l-104 -71q-76 63 -122.5 158t-48.5 190z" />
<glyph unicode="&#x201c;" horiz-adv-x="709" d="M102 1052v113q0 100 47.5 198t123.5 161l103 -71q-91 -124 -94 -268v-133h-180zM411 1052v113q0 100 47.5 198t123.5 161l103 -71q-91 -124 -94 -268v-133h-180z" />
<glyph unicode="&#x201d;" horiz-adv-x="716" d="M59 1096q91 127 94 268v141h179v-127q-1 -98 -48.5 -195.5t-121.5 -157.5zM360 1096q91 127 94 268v141h179v-127q-1 -98 -48.5 -195.5t-121.5 -157.5z" />
<glyph unicode="&#x201e;" horiz-adv-x="690" d="M35 -224q89 134 92 284v181h182v-161q0 -105 -48.5 -208.5t-122.5 -166.5zM325 -224q90 134 92 284v181h183v-161q0 -104 -47.5 -206.5t-124.5 -168.5z" />
<glyph unicode="&#x2020;" horiz-adv-x="1106" d="M69 910v150h392v367h182v-367h396v-150h-396v-910h-182v910h-392z" />
</font>
</defs>
</svg>
