<?xml version="1.0" standalone="no"?>
<!DOCTYPE svg PUBLIC "-//W3C//DTD SVG 1.1//EN" "http://www.w3.org/Graphics/SVG/1.1/DTD/svg11.dtd" >
<svg xmlns="http://www.w3.org/2000/svg">
<metadata></metadata>
<defs>
<font id="robotothin" horiz-adv-x="1098" >
<font-face units-per-em="2048" ascent="1536" descent="-512" />
<missing-glyph horiz-adv-x="480" />
<glyph unicode="&#xfb01;" horiz-adv-x="1045" d="M65 1006v54h184v134q1 157 84 244.5t232 87.5q143 0 263 -56l-8 -51l-58 24q-81 30 -196 30q-122 0 -193 -75t-71 -208v-130h280v-54h-280v-1006h-53v1006h-184zM813 0v1060h53v-1060h-53z" />
<glyph unicode="&#xfb02;" horiz-adv-x="1045" d="M65 1006v54h184v155q1 147 74 229t203 82q121 0 340 -60v-1466h-53v1431q-186 42 -286 42q-105 0 -165 -68t-60 -194v-151h280v-54h-280v-1006h-53v1006h-184z" />
<glyph horiz-adv-x="0" />
<glyph horiz-adv-x="0" />
<glyph unicode="&#xd;" horiz-adv-x="480" />
<glyph horiz-adv-x="0" />
<glyph unicode=" "  horiz-adv-x="480" />
<glyph unicode="&#x09;" horiz-adv-x="480" />
<glyph unicode="&#xa0;" horiz-adv-x="480" />
<glyph unicode="!" horiz-adv-x="389" d="M144 48q0 23 15.5 39t38 16t39 -16t16.5 -39t-16.5 -38.5t-39 -15.5t-38 15.5t-15.5 38.5zM164 393v1034h53v-1034h-53z" />
<glyph unicode="&#x22;" horiz-adv-x="510" d="M147 1100q5 262 5 405h54v-140l-10 -265h-49zM344 1100l6 262v143h53v-140l-10 -265h-49z" />
<glyph unicode="#" d="M50 402v51h275l93 513h-294v53h304l74 408h55l-75 -408h358l74 408h55l-74 -408h249v-53h-259l-94 -513h279v-51h-288l-73 -402h-55l73 402h-357l-72 -402h-55l73 402h-266zM380 453h356l94 513h-358z" />
<glyph unicode="$" d="M119 401h53q0 -174 108 -272t294 -98q154 0 254 88.5t100 217.5q0 89 -34 147.5t-114 107.5t-237.5 103.5t-232 106t-110 120t-35.5 166.5q0 160 104.5 256.5t273.5 101.5v184h54v-184q180 -9 278 -119.5t98 -300.5h-53q0 167 -94.5 268.5t-258.5 101.5 q-158 0 -253.5 -85.5t-95.5 -220.5q0 -96 31.5 -152t105.5 -101.5t208.5 -91.5t206 -82t118.5 -83t70 -105t23 -136q0 -156 -101.5 -252.5t-271.5 -106.5v-184h-54v183q-208 8 -321.5 118.5t-113.5 303.5z" />
<glyph unicode="%" horiz-adv-x="1496" d="M112 1083v69q0 127 76.5 211t189.5 84q115 0 190.5 -84.5t75.5 -214.5v-71q0 -124 -75 -208.5t-189 -84.5t-191 83.5t-77 215.5zM166 1077q0 -102 58 -170.5t156 -68.5q94 0 152 67.5t58 176.5v70q0 106 -58.5 174t-153.5 68q-93 0 -152.5 -68t-59.5 -180v-69zM369 159 l697 1115l44 -30l-696 -1116zM853 278v72q0 126 75.5 210t189.5 84q115 0 191 -84t76 -217v-70q0 -126 -76 -210t-189 -84q-114 0 -190.5 83.5t-76.5 215.5zM906 273q0 -104 58.5 -172t155.5 -68q96 0 153.5 68.5t57.5 176.5v72q0 111 -57.5 175.5t-155.5 64.5 q-97 0 -154.5 -66t-57.5 -178v-73z" />
<glyph unicode="&#x26;" horiz-adv-x="1222" d="M113 345q0 96 55 189.5t196 212.5l50 39q-87 106 -124.5 190t-37.5 168q0 138 82.5 220.5t216.5 82.5q122 0 196 -72t74 -186q0 -134 -184 -286l-153 -122l466 -528q112 157 112 366h54q0 -232 -130 -407l186 -212h-66l-153 172q-193 -192 -415 -192q-197 0 -311 98.5 t-114 266.5zM166 345q0 -139 101 -225.5t271 -86.5q109 0 207.5 46.5t172.5 133.5l-473 536l-51 -40q-116 -100 -172 -187.5t-56 -176.5zM306 1146q0 -155 147 -329l171 137q142 118 142 235q0 90 -60 148t-155 58q-111 0 -178 -69.5t-67 -179.5z" />
<glyph unicode="'" horiz-adv-x="333" d="M133 1100l9 238v167h54v-165l-14 -240h-49z" />
<glyph unicode="(" horiz-adv-x="594" d="M145 574q0 212 52 417t147.5 367.5t206.5 232.5l18 -43q-96 -63 -181 -212t-136 -345t-54 -387v-51q0 -194 49 -393.5t136 -356t186 -221.5l-18 -43q-114 72 -207.5 227.5t-146 361.5t-52.5 446z" />
<glyph unicode=")" horiz-adv-x="610" d="M27 -418q102 68 189.5 227t135 355t47.5 414q0 198 -50 397.5t-137 354t-185 218.5l19 43q111 -70 206.5 -232.5t147.5 -367.5t52 -436q0 -221 -52.5 -427t-146 -361.5t-207.5 -227.5z" />
<glyph unicode="*" horiz-adv-x="838" d="M29 1118l18 53l355 -130l1 386h55l-7 -387l345 140l19 -52l-352 -134l244 -311l-46 -32l-238 315l-223 -318l-44 31l229 318z" />
<glyph unicode="+" horiz-adv-x="1127" d="M72 636v52h452v494h54v-494h472v-52h-472v-493h-54v493h-452z" />
<glyph unicode="," horiz-adv-x="375" d="M90 -219q80 102 86 211l1 164h53v-143q-4 -156 -104 -263z" />
<glyph unicode="-" horiz-adv-x="594" d="M60 626v53h460v-53h-460z" />
<glyph unicode="." horiz-adv-x="430" d="M144 48q0 23 15.5 39t38 16t39 -16t16.5 -39t-16.5 -38.5t-39 -15.5t-38 15.5t-15.5 38.5z" />
<glyph unicode="/" horiz-adv-x="766" d="M41 -122l596 1549h58l-596 -1549h-58z" />
<glyph unicode="0" d="M122 586v259q0 284 112.5 443t314.5 159q203 0 315 -159t112 -447v-259q0 -287 -111.5 -444.5t-313.5 -157.5q-201 0 -315 159t-114 447zM175 584q0 -259 99 -405t277 -146t275 146t97 410v256q0 259 -97.5 404.5t-276.5 145.5q-181 0 -277.5 -146t-96.5 -409v-256z" />
<glyph unicode="1" d="M183 1206v58l452 167h11v-1431h-53v1360z" />
<glyph unicode="2" d="M115 1024q0 115 52.5 213t147 153.5t210.5 55.5q190 0 296 -100.5t106 -282.5q0 -166 -187 -399l-89 -108l-431 -503h784v-53h-854v53l487 561q120 141 178 249.5t58 199.5q0 157 -91 244t-257 87q-100 0 -182 -48t-128.5 -133t-46.5 -189h-53z" />
<glyph unicode="3" d="M101 397h53q0 -157 115.5 -260.5t292.5 -103.5q175 0 273.5 91t98.5 250q0 158 -105.5 241.5t-308.5 84.5h-111v55h119q168 3 271.5 89t103.5 219q0 152 -93 241.5t-257 89.5q-161 0 -265 -94.5t-104 -246.5h-53q0 113 55 203.5t152 140t215 49.5q185 0 294 -104 t109 -283q0 -113 -72.5 -202.5t-194.5 -126.5q140 -32 219 -121.5t79 -230.5q0 -182 -116.5 -290t-308.5 -108q-130 0 -239.5 56t-165.5 148t-56 213z" />
<glyph unicode="4" d="M80 389v29l681 1009h64v-985h247v-53h-247v-389h-53v389h-692zM163 442h609v921l-82 -135z" />
<glyph unicode="5" d="M178 375h54q16 -167 110 -254.5t260 -87.5q176 0 262 106.5t86 313.5q0 178 -99.5 285t-267.5 107q-103 0 -179.5 -27.5t-136.5 -86.5l-41 16l67 680h696v-52h-648l-58 -572q51 42 135 68.5t164 26.5q192 0 307 -121.5t115 -321.5q0 -233 -104 -354t-298 -121 q-184 0 -296.5 105t-127.5 290z" />
<glyph unicode="6" d="M125 471v176q0 380 179.5 589.5t518.5 209.5v-52q-300 0 -465.5 -177.5t-178.5 -498.5q57 101 165 160.5t236 59.5q188 0 300.5 -128.5t112.5 -339.5q0 -136 -51 -248.5t-144 -177t-208 -64.5q-131 0 -237 61t-166 173.5t-62 256.5zM178 483q0 -202 115 -326.5 t297 -124.5q152 0 251 127t99 311q0 191 -98 303t-269 112q-137 0 -251 -79t-144 -197v-126z" />
<glyph unicode="7" d="M75 1374v53h912v-33l-628 -1394h-54l621 1374h-851z" />
<glyph unicode="8" d="M98 371q0 127 81 224.5t221 134.5q-118 35 -190 125t-72 209q0 177 113.5 279.5t298.5 102.5q186 0 301 -104.5t115 -277.5q0 -119 -74 -209t-191 -125q140 -37 223 -135t83 -224q0 -181 -123.5 -286t-329.5 -105q-210 0 -333 105t-123 286zM151 367q0 -151 109 -242.5 t294 -91.5q180 0 290 92t110 242q0 147 -113 242t-289 95q-178 0 -289.5 -95t-111.5 -242zM191 1069q0 -139 100 -225.5t261 -86.5q158 0 259.5 87.5t101.5 224.5q0 139 -104.5 232t-258.5 93q-158 0 -258.5 -89.5t-100.5 -235.5z" />
<glyph unicode="9" d="M101 939q0 140 54 257t151 183.5t214 66.5q221 0 336.5 -143.5t116.5 -413.5v-164q0 -361 -160.5 -551t-473.5 -194h-47l2 53h42q286 3 435 174.5t149 502.5q-52 -113 -161 -182t-246 -69q-118 0 -212 63t-147 174t-53 243zM154 939q0 -117 46 -216.5t127.5 -155 t185.5 -55.5q145 0 256.5 85t150.5 226v61q0 248 -102.5 379t-293.5 131q-105 0 -190 -62t-132.5 -168.5t-47.5 -224.5z" />
<glyph unicode=":" horiz-adv-x="356" d="M118 48q0 23 15.5 39t38 16t39 -16t16.5 -39t-16.5 -38.5t-39 -15.5t-38 15.5t-15.5 38.5zM122 991q0 23 15.5 39t38 16t39 -16t16.5 -39t-16.5 -38.5t-39 -15.5t-38 15.5t-15.5 38.5z" />
<glyph unicode=";" horiz-adv-x="356" d="M79 -219q80 102 86 211l1 164h53v-143q-4 -156 -104 -263zM123 991q0 23 15.5 39t38 16t39 -16t16.5 -39t-16.5 -38.5t-39 -15.5t-38 15.5t-15.5 38.5z" />
<glyph unicode="&#x3c;" horiz-adv-x="1031" d="M80 631v49l821 371v-57l-749 -338l749 -338v-58z" />
<glyph unicode="=" horiz-adv-x="1119" d="M144 427v53h817v-53h-817zM144 826v53h817v-53h-817z" />
<glyph unicode="&#x3e;" horiz-adv-x="1031" d="M112 260v58l743 337l-743 338v58l819 -371v-49z" />
<glyph unicode="?" horiz-adv-x="875" d="M91 1094q2 158 103 255t255 97t245 -97t91 -261q0 -113 -44 -200.5t-172 -203.5q-129 -101 -129 -292h-53q2 110 34 180t120 152.5t123.5 132t51.5 103.5t16 130q0 142 -75.5 223.5t-207.5 81.5q-141 0 -222 -84.5t-83 -216.5h-53zM364 48q0 23 15.5 39t38 16t38.5 -16 t16 -39t-16 -38.5t-38.5 -15.5t-38 15.5t-15.5 38.5z" />
<glyph unicode="@" horiz-adv-x="1863" d="M129 468q12 275 121 482.5t299.5 320t434.5 112.5q384 0 576.5 -225t174.5 -645q-5 -151 -54 -277.5t-128.5 -191t-180.5 -64.5q-98 0 -159 60t-71 166q-108 -226 -327 -226q-133 0 -198 122t-48 325q24 246 142.5 393.5t286.5 147.5q112 0 194 -64l51 -44l-48 -573 q-11 -120 36.5 -186.5t143.5 -66.5q131 0 212 126.5t92 352.5q21 402 -157 608t-542 206q-220 0 -399 -110t-282 -306t-116 -443q-11 -249 71 -444.5t248.5 -304.5t392.5 -109q88 0 174 21t149 57l24 -45q-63 -41 -162.5 -64t-188.5 -23q-245 0 -421.5 110.5t-264 317.5 t-76.5 484zM621 273q11 -113 61.5 -176.5t130.5 -63.5q123 0 202.5 76t129.5 228l42 497q-68 80 -192.5 80t-219 -98t-133.5 -270q-33 -149 -21 -273z" />
<glyph unicode="A" horiz-adv-x="1198" d="M32 0l534 1427h65l534 -1427h-58l-159 426h-699l-159 -426h-58zM269 479h659l-329 884z" />
<glyph unicode="B" horiz-adv-x="1210" d="M196 0v1427h375q231 0 349 -93.5t118 -272.5q0 -129 -66 -214.5t-185 -108.5q135 -18 225 -117.5t90 -227.5q0 -182 -118 -287.5t-328 -105.5h-460zM249 53h413q181 0 284.5 89.5t103.5 248.5q0 135 -100 223t-268 91h-433v-652zM249 758h342q195 0 294 74.5t99 232.5 q0 304 -401 309h-334v-616z" />
<glyph unicode="C" horiz-adv-x="1300" d="M141 600v220q0 183 64 326.5t182 221.5t271 78q223 0 355.5 -117.5t152.5 -336.5h-53q-22 197 -137 299.5t-318 102.5q-208 0 -336 -157t-128 -421v-209q0 -169 57 -299t163 -202.5t244 -72.5q204 0 319.5 101t135.5 303h53q-20 -220 -151.5 -338.5t-356.5 -118.5 q-152 0 -269.5 77t-182 218.5t-65.5 324.5z" />
<glyph unicode="D" horiz-adv-x="1313" d="M196 0v1427h395q166 0 300 -78.5t210.5 -220t78.5 -317.5v-185q0 -178 -75 -321t-209.5 -223.5t-299.5 -81.5h-400zM249 53h342q150 0 273 73t192.5 204t70.5 290v184q0 159 -68 289.5t-190 204.5t-270 76h-350v-1321z" />
<glyph unicode="E" horiz-adv-x="1142" d="M196 0v1427h868v-53h-815v-614h715v-52h-715v-655h815v-53h-868z" />
<glyph unicode="F" horiz-adv-x="1148" d="M196 0v1427h884v-53h-831v-617h731v-55h-731v-702h-53z" />
<glyph unicode="G" horiz-adv-x="1377" d="M165 596v245q0 175 67.5 314.5t190 215t275.5 75.5q212 0 346 -108.5t156 -296.5h-53q-27 170 -142.5 261.5t-306.5 91.5q-216 0 -348 -154t-132 -405v-227q0 -168 62 -299.5t175 -203.5t259 -72q144 0 266 42.5t169 101.5v416h-437v54h489v-494q-53 -75 -188.5 -124 t-298.5 -49q-158 0 -282.5 77.5t-194.5 218.5t-72 320z" />
<glyph unicode="H" horiz-adv-x="1409" d="M196 0v1427h53v-667h911v667h53v-1427h-53v708h-911v-708h-53z" />
<glyph unicode="I" horiz-adv-x="523" d="M235 0v1427h53v-1427h-53z" />
<glyph unicode="J" horiz-adv-x="1102" d="M88 393h53q0 -174 89.5 -267t269.5 -93q157 0 256.5 105t101.5 285v1004h53v-994q0 -207 -112.5 -330t-298.5 -123q-200 0 -306 107t-106 306z" />
<glyph unicode="K" horiz-adv-x="1274" d="M196 0v1427h53v-825l235 230l592 595h76l-636 -640l685 -787h-68l-656 751l-228 -211v-540h-53z" />
<glyph unicode="L" horiz-adv-x="1035" d="M196 0v1427h54v-1374h732v-53h-786z" />
<glyph unicode="M" horiz-adv-x="1720" d="M196 0v1427h75l587 -1350l589 1350h78v-1427h-53v1348l-592 -1348h-42l-589 1342v-1342h-53z" />
<glyph unicode="N" horiz-adv-x="1420" d="M196 0v1427h54l921 -1334v1334h53v-1427h-53l-921 1337v-1337h-54z" />
<glyph unicode="O" horiz-adv-x="1336" d="M130 614v206q0 184 66.5 327.5t189.5 221t281 77.5q160 0 283 -77.5t189.5 -221t66.5 -327.5v-213q0 -186 -66 -328.5t-188.5 -220.5t-282.5 -78q-241 0 -390 171.5t-149 462.5zM184 607q0 -171 59.5 -302t169 -201.5t256.5 -70.5q224 0 354 156t130 425v208 q0 259 -131 415.5t-355 156.5q-220 0 -351.5 -155.5t-131.5 -423.5v-208z" />
<glyph unicode="P" horiz-adv-x="1205" d="M196 0v1427h446q218 0 339 -110.5t121 -306.5q0 -194 -118 -299.5t-335 -107.5h-400v-603h-53zM249 656h393q193 0 300.5 93t107.5 259q0 173 -107.5 269.5t-300.5 96.5h-393v-718z" />
<glyph unicode="Q" horiz-adv-x="1336" d="M130 614v206q0 184 66.5 327.5t189.5 221t281 77.5q160 0 283 -77.5t189.5 -221t66.5 -327.5v-213q0 -200 -77.5 -351t-222.5 -224l261 -255l-38 -35l-278 268q-89 -30 -182 -30q-241 0 -390 171.5t-149 462.5zM184 607q0 -171 59.5 -302t169 -201.5t256.5 -70.5 q224 0 354 156t130 425v208q0 259 -131 415.5t-355 156.5q-220 0 -351.5 -155.5t-131.5 -423.5v-208z" />
<glyph unicode="R" horiz-adv-x="1313" d="M191 0v1427h455q214 0 341 -111t127 -301q0 -146 -90.5 -255t-230.5 -136l381 -610v-14h-56l-379 611h-495v-611h-53zM244 663h450q164 0 265.5 100t101.5 252q0 167 -112 263t-307 96h-398v-711z" />
<glyph unicode="S" horiz-adv-x="1186" d="M94 403h53q0 -176 131.5 -273t341.5 -97q188 0 309.5 86t121.5 223q0 91 -43 154.5t-134.5 112t-276.5 99.5t-278 102.5t-136 120.5t-43 167q0 155 131.5 251.5t341.5 96.5q138 0 247 -53t169 -149.5t60 -218.5h-53q0 160 -117.5 264.5t-305.5 104.5t-304 -84t-116 -210 q0 -129 101 -207.5t333 -138.5t340 -140q137 -100 137 -270q0 -108 -60.5 -190.5t-172 -128t-251.5 -45.5q-154 0 -277.5 51.5t-186 146.5t-62.5 225z" />
<glyph unicode="T" horiz-adv-x="1199" d="M54 1374v53h1092v-53h-520v-1374h-53v1374h-519z" />
<glyph unicode="U" horiz-adv-x="1337" d="M181 457v970h53v-964q0 -198 119 -314t316 -116t315.5 116t118.5 315v963h53v-966q0 -227 -131 -354t-355.5 -127t-356 127t-132.5 350z" />
<glyph unicode="V" horiz-adv-x="1198" d="M34 1427h58l479 -1288l29 -86l28 86l479 1288h58l-533 -1427h-65z" />
<glyph unicode="W" horiz-adv-x="1817" d="M60 1427h59l296 -1104l64 -235l65 235l337 1104h59l335 -1104l64 -235l66 235l294 1104h58l-384 -1427h-60l-354 1190l-50 151l-48 -151l-356 -1190h-60z" />
<glyph unicode="X" horiz-adv-x="1198" d="M53 0l512 728l-493 699h66l461 -658l460 658h67l-494 -699l513 -728h-66l-480 687l-482 -687h-64z" />
<glyph unicode="Y" horiz-adv-x="1198" d="M32 1427h71l494 -837l500 837h64l-538 -885v-542h-53v542z" />
<glyph unicode="Z" horiz-adv-x="1199" d="M92 0v43l911 1332h-872v52h945v-37l-911 -1337h942v-53h-1015z" />
<glyph unicode="[" horiz-adv-x="430" d="M177 -306v1937h278v-53h-225v-1831h225v-53h-278z" />
<glyph unicode="\" horiz-adv-x="758" d="M56 1427h57l596 -1549h-57z" />
<glyph unicode="]" horiz-adv-x="430" d="M-8 -253h224v1831h-224v53h278v-1937h-278v53z" />
<glyph unicode="^" horiz-adv-x="832" d="M89 714l293 713h51l293 -713h-60l-258 640l-261 -640h-58z" />
<glyph unicode="_" horiz-adv-x="828" d="M-1 0h829v-53h-829v53z" />
<glyph unicode="`" horiz-adv-x="526" d="M146 1486h65l184 -261h-58z" />
<glyph unicode="a" horiz-adv-x="1059" d="M90 269q0 146 132 233.5t350 89.5h262v155q0 133 -84 206.5t-239 73.5q-145 0 -242 -74.5t-97 -184.5l-53 2q0 130 113.5 220t278.5 90q171 0 272 -86t104 -241v-507q0 -174 27 -237v-9h-60q-20 68 -20 194q-63 -102 -171.5 -158t-246.5 -56q-146 0 -236 80t-90 209z M143 265q0 -97 77.5 -165t195.5 -68q149 0 256.5 67t161.5 187v252h-245q-227 0 -348 -90q-98 -74 -98 -183z" />
<glyph unicode="b" d="M167 0v1505h53v-638q55 105 147 159t212 54q186 0 293 -142.5t107 -400.5v-17q0 -248 -107 -394t-291 -146q-119 0 -213.5 49.5t-147.5 138.5v-168h-53zM220 269q42 -113 134.5 -174.5t227.5 -61.5q164 0 253 130.5t89 377.5q0 228 -90.5 357t-253.5 129 q-133 0 -225.5 -68.5t-134.5 -203.5v-486z" />
<glyph unicode="c" horiz-adv-x="1018" d="M95 515v36q0 241 117 385t314 144q169 0 278.5 -101t116.5 -269h-53q-7 144 -100.5 230.5t-241.5 86.5q-177 0 -277.5 -128t-100.5 -355v-34q0 -223 101.5 -350t278.5 -127q144 0 237.5 76.5t102.5 211.5h53q-8 -153 -118.5 -247t-274.5 -94q-199 0 -316 144.5 t-117 390.5z" />
<glyph unicode="d" d="M120 527v14q0 254 106.5 396.5t292.5 142.5q120 0 211.5 -54t148.5 -161v640h53v-1505h-53v170q-54 -91 -148 -140.5t-214 -49.5q-184 0 -290.5 146t-106.5 401zM174 520q0 -225 89.5 -356t252.5 -131q132 0 225 58.5t138 171.5v497q-91 267 -361 267q-162 0 -253 -128.5 t-91 -378.5z" />
<glyph unicode="e" horiz-adv-x="1011" d="M85 507v44q0 147 59 269.5t162 191t224 68.5q178 0 290.5 -126.5t112.5 -332.5v-56h-795v-57q0 -130 54.5 -240t150 -173t207.5 -63q107 0 182 36t132 110l38 -26q-119 -172 -352 -172q-129 0 -236 69.5t-168 190t-61 267.5zM141 618h739v13q0 108 -45.5 200.5 t-125.5 144t-179 51.5q-155 0 -262.5 -115t-126.5 -294z" />
<glyph unicode="f" horiz-adv-x="632" d="M65 1006v54h184v155q1 147 74 229t203 82q73 0 126 -17l-8 -51q-51 15 -117 15q-105 0 -165 -68t-60 -194v-151h280v-54h-280v-1006h-53v1006h-184z" />
<glyph unicode="g" horiz-adv-x="1100" d="M119 527v14q0 254 106.5 396.5t292.5 142.5q119 0 211 -54.5t148 -159.5v194h54v-1041q0 -210 -108 -328t-293 -118q-107 0 -195.5 46t-151.5 132l37 35q62 -78 135.5 -119.5t172.5 -41.5q164 0 255 99.5t94 280.5v163q-55 -91 -148.5 -139.5t-212.5 -48.5 q-184 0 -290.5 146t-106.5 401zM172 520q0 -227 90.5 -357t252.5 -130q135 0 229 62.5t133 174.5v482q-86 275 -360 275q-163 0 -254 -128.5t-91 -378.5z" />
<glyph unicode="h" d="M169 0v1505h52v-692q52 124 153 195.5t224 71.5q170 0 253 -96.5t84 -291.5v-692h-53v694q-1 170 -69.5 252t-217.5 82q-137 0 -237.5 -97.5t-136.5 -251.5v-679h-52z" />
<glyph unicode="i" horiz-adv-x="413" d="M154 1392q0 22 15.5 38t38 16t39 -16t16.5 -38.5t-16.5 -38t-39 -15.5t-38 15.5t-15.5 38.5zM181 0v1060h53v-1060h-53z" />
<glyph unicode="j" horiz-adv-x="436" d="M-140 -409l3 51q47 -17 93 -17q110 0 168 65t58 184v1186h53v-1186q0 -147 -73.5 -224.5t-205.5 -77.5q-48 0 -96 19zM160 1392q0 22 15.5 38t38 16t39 -16t16.5 -38.5t-16.5 -38t-39 -15.5t-38 15.5t-15.5 38.5z" />
<glyph unicode="k" horiz-adv-x="949" d="M169 0v1505h52v-1008l125 117l482 446h76l-488 -451l518 -609h-69l-488 573l-2 -2l-154 -132v-439h-52z" />
<glyph unicode="l" horiz-adv-x="413" d="M181 0v1505h53v-1505h-53z" />
<glyph unicode="m" horiz-adv-x="1799" d="M158 0v1060h54v-251q54 130 154 200.5t221 70.5q133 0 218 -59t111 -192q47 115 153 183t237 68q172 0 255.5 -97t84.5 -291v-692h-53v688q0 174 -70 258q-68 82 -213 82h-7q-193 -3 -305 -154q-65 -87 -71 -168v-706h-53v712q-1 160 -70 238t-220 78q-174 0 -285 -154 q-66 -92 -87 -204v-670h-54z" />
<glyph unicode="n" d="M169 0v1060h52v-247q52 124 153 195.5t224 71.5q170 0 253 -96.5t84 -291.5v-692h-53v694q-1 170 -69.5 252t-217.5 82q-137 0 -237.5 -97.5t-136.5 -251.5v-679h-52z" />
<glyph unicode="o" horiz-adv-x="1104" d="M88 504v47q0 152 58.5 273t164.5 188.5t241 67.5q133 0 239 -65.5t165 -186t60 -271.5v-47q0 -153 -57.5 -273.5t-164 -188.5t-241 -68t-240.5 67t-165 187t-60 270zM141 510q0 -133 52.5 -243t146 -172t214.5 -62q181 0 295 136.5t114 350.5v31q0 130 -52.5 241 t-146.5 173t-212 62q-182 0 -296.5 -138t-114.5 -348v-31z" />
<glyph unicode="p" d="M167 -408v1468h53v-189q54 101 147.5 155t211.5 54q186 0 293 -142.5t107 -400.5v-17q0 -248 -107 -394t-291 -146q-120 0 -214.5 49t-146.5 136v-573h-53zM220 264q41 -110 134.5 -170.5t227.5 -60.5q163 0 253 129.5t90 378.5q0 228 -90.5 357t-254.5 129 q-133 0 -226 -69t-134 -198v-496z" />
<glyph unicode="q" d="M120 527v14q0 254 106.5 396.5t292.5 142.5q119 0 212 -54t148 -155v189h53v-1468h-53v573q-57 -90 -150.5 -137.5t-211.5 -47.5q-184 0 -290.5 146t-106.5 401zM174 520q0 -225 89.5 -356t252.5 -131q132 0 225 58.5t138 171.5v497q-46 132 -139 199.5t-222 67.5 q-162 0 -253 -128.5t-91 -378.5z" />
<glyph unicode="r" horiz-adv-x="671" d="M169 0v1060h52v-220q44 111 130 175.5t216 64.5q46 0 75 -11l-6 -47l-69 6q-135 0 -226 -87.5t-120 -245.5v-695h-52z" />
<glyph unicode="s" horiz-adv-x="998" d="M106 270h53q8 -112 98.5 -174.5t245.5 -62.5q142 0 230.5 66.5t88.5 160.5q0 193 -329 262q-198 42 -275.5 108.5t-77.5 181.5q0 117 98.5 192.5t256.5 75.5q171 0 275 -82t104 -221h-54q0 107 -90 178.5t-235 71.5q-139 0 -220.5 -60.5t-81.5 -152.5q0 -71 30.5 -111.5 t99 -73.5t200 -63.5t208 -71.5t110.5 -97.5t34 -137.5q0 -126 -103 -202.5t-269 -76.5q-179 0 -288 81t-109 209z" />
<glyph unicode="t" horiz-adv-x="635" d="M37 1006v54h196v287h54v-287h241v-54h-241v-752q0 -113 37 -167t123 -54q43 0 105 9l9 -50q-33 -12 -111 -12q-116 0 -166 64.5t-51 202.5v759h-196z" />
<glyph unicode="u" d="M165 377v683h53v-685q2 -168 76 -255t218 -87q151 0 246.5 71.5t120.5 210.5v745h54v-1060h-54v172q-47 -89 -137 -140.5t-228 -51.5q-174 0 -260.5 101.5t-88.5 295.5z" />
<glyph unicode="v" horiz-adv-x="958" d="M42 1060h57l381 -976l381 976h57l-412 -1060h-52z" />
<glyph unicode="w" horiz-adv-x="1519" d="M81 1060h61l217 -753l57 -229l311 982h54l309 -982l60 229l215 753h62l-309 -1060h-53l-261 797l-50 190l-54 -190l-258 -797h-53z" />
<glyph unicode="x" horiz-adv-x="958" d="M54 0l392 544l-372 516h66l339 -470l338 470h67l-372 -516l392 -544h-66l-360 498l-358 -498h-66z" />
<glyph unicode="y" horiz-adv-x="958" d="M42 1060h58l393 -978l7 20l366 958h59l-474 -1244l-24 -59q-76 -185 -253 -185q-56 0 -78 11l-1 49q31 -8 72 -8q83 0 138 48.5t95 157.5l65 176z" />
<glyph unicode="z" horiz-adv-x="958" d="M85 0v43l697 963h-666v54h738v-47l-697 -960h754v-53h-826z" />
<glyph unicode="{" horiz-adv-x="646" d="M72 532v65q245 0 245 274v242q1 182 78.5 292.5t233.5 159.5l15 -44q-275 -89 -275 -419v-223q0 -267 -206 -315q206 -51 206 -314v-225q0 -318 280 -412l-20 -45q-157 49 -234.5 159.5t-77.5 292.5v236q0 276 -245 276z" />
<glyph unicode="|" horiz-adv-x="397" d="M177 -265v1692h53v-1692h-53z" />
<glyph unicode="}" horiz-adv-x="646" d="M0 -387q278 95 278 409v228q0 263 207 314q-207 48 -207 315v223q0 331 -273 419l14 44q156 -49 233 -159t79 -288v-244q0 -277 245 -277v-65q-245 0 -245 -279v-232q0 -183 -77 -293t-235 -160z" />
<glyph unicode="~" horiz-adv-x="1383" d="M157 453q0 140 70 223t192 83q71 0 132.5 -29t157 -114t144.5 -107.5t104 -22.5q99 0 154 66t55 186l55 -1q0 -135 -72 -219t-192 -84q-69 0 -129 27.5t-155.5 113t-144.5 108.5t-109 23q-98 0 -153 -64t-55 -189h-54z" />
<glyph unicode="&#xa1;" horiz-adv-x="397" d="M139 1027q0 23 16.5 38.5t39 15.5t38 -15.5t15.5 -38.5t-15.5 -39t-38 -16t-39 16t-16.5 39zM175 -352v1034h53v-1034h-53z" />
<glyph unicode="&#xa2;" horiz-adv-x="1087" d="M131 515v36q0 235 110 376.5t297 151.5v213h54v-213q160 -11 259.5 -110t105.5 -259h-52q-7 144 -101 230.5t-241 86.5q-178 0 -278.5 -128t-100.5 -355v-34q0 -223 101.5 -350t278.5 -127q145 0 238.5 76.5t102.5 211.5h52q-7 -147 -110 -239.5t-255 -100.5v-221h-54 v221q-187 10 -297 152t-110 382z" />
<glyph unicode="&#xa3;" horiz-adv-x="1127" d="M93 654v53h205l-9 311q0 200 97 314t262 114q169 0 267.5 -101.5t98.5 -277.5h-53q0 156 -83.5 241.5t-229.5 85.5q-144 0 -225 -98t-81 -278l9 -311h362v-53h-360l10 -325q4 -190 -66 -276h742l1 -53h-943v53h118q47 14 72 92.5t23 183.5l-10 325h-207z" />
<glyph unicode="&#xa4;" horiz-adv-x="1471" d="M112 13l175 178q-141 173 -141 405q0 241 151 415l-185 189l39 39l184 -188q168 158 395 158q116 0 216.5 -42.5t178.5 -117.5l187 191l40 -40l-189 -192q149 -174 149 -412q0 -229 -138 -401l178 -182l-40 -39l-176 179q-80 -81 -183.5 -127t-222 -46t-223 45.5 t-184.5 125.5l-172 -176zM200 596q0 -151 72 -282.5t194.5 -206.5t263.5 -75q140 0 262.5 75t194.5 206.5t72 282.5q0 150 -71 279.5t-194 205.5t-264 76t-264.5 -76t-194.5 -205.5t-71 -279.5z" />
<glyph unicode="&#xa5;" horiz-adv-x="1182" d="M57 1427h64l443 -704l23 -50h5l23 50l442 704h65l-479 -765h415v-53h-443v-236h443v-54h-443v-319h-52v319h-441v54h441v236h-441v53h412z" />
<glyph unicode="&#xa6;" horiz-adv-x="390" d="M169 -265v737h52v-737h-52zM169 684v743h52v-743h-52z" />
<glyph unicode="&#xa7;" horiz-adv-x="1198" d="M113 -63l53 2q0 -176 113.5 -273.5t308.5 -97.5q179 0 283 78t104 206q0 86 -35.5 138.5t-116 92.5t-228.5 80q-266 62 -371 150t-105 227q0 107 75.5 176.5t204.5 89.5q-127 50 -181.5 122.5t-54.5 177.5q0 154 120 247t323 93q210 0 327.5 -110t117.5 -312h-53 q0 164 -107 267t-285 103q-181 0 -285.5 -75.5t-104.5 -209.5q0 -89 35 -142t116 -94t237 -85q204 -51 292.5 -97t132 -110.5t43.5 -158.5q0 -103 -80.5 -172.5t-217.5 -88.5q139 -53 197 -125t58 -182q0 -157 -119 -248t-322 -91q-221 0 -348 110t-127 312zM172 542 q0 -91 38 -144t130.5 -95.5t338.5 -110.5q154 2 247 65t93 162q0 84 -40 138.5t-131 99t-270 94.5q-58 12 -106 29q-140 -5 -220 -69t-80 -169z" />
<glyph unicode="&#xa8;" horiz-adv-x="887" d="M180 1393q0 22 16 38t38.5 16t38.5 -16t16 -38.5t-16 -38t-38.5 -15.5t-38.5 15.5t-16 38.5zM616 1393q0 22 16 38t38.5 16t38.5 -16t16 -38.5t-16 -38t-38.5 -15.5t-38.5 15.5t-16 38.5z" />
<glyph unicode="&#xa9;" horiz-adv-x="1632" d="M121 714q0 198 91.5 367.5t253.5 267t350 97.5t350.5 -97.5t254 -267t91.5 -367.5q0 -195 -89 -363.5t-251.5 -270t-355.5 -101.5t-355 101.5t-251 270t-89 363.5zM175 714q0 -184 87 -342t235.5 -248.5t318.5 -90.5q173 0 322 92.5t234 249.5t85 339q0 184 -85 340 t-234.5 247.5t-321.5 91.5q-169 0 -318 -89.5t-236 -246.5t-87 -343zM496 679v74q0 169 87 274t226 105q141 0 217 -81t76 -226h-50q0 129 -63 192t-179.5 63t-188 -90t-71.5 -242v-73q0 -146 71 -235.5t188 -89.5q242 0 242 254h51q0 -149 -77 -228.5t-216 -79.5 q-141 0 -227 105.5t-86 277.5z" />
<glyph unicode="&#xaa;" horiz-adv-x="880" d="M164 1218q0 100 79 164t206 64q114 0 181.5 -70.5t67.5 -199.5v-310q0 -90 25 -175h-57q-17 53 -21 116q-38 -59 -102.5 -94.5t-133.5 -35.5q-119 0 -181.5 56t-62.5 149q0 107 81.5 167t230.5 60h167v68q0 102 -48.5 159.5t-146.5 57.5q-107 0 -169.5 -43.5 t-62.5 -132.5h-53zM218 886q0 -155 192 -155q68 0 141 46t93 104v175h-164q-262 0 -262 -170z" />
<glyph unicode="&#xab;" horiz-adv-x="886" d="M142 506v19l289 362h69l-289 -372l289 -372h-69zM424 506v19l289 362h69l-289 -372l289 -372h-69z" />
<glyph unicode="&#xac;" horiz-adv-x="1078" d="M120 686v52h777v-350h-53v298h-724z" />
<glyph unicode="&#xad;" horiz-adv-x="594" d="M60 626v53h460v-53h-460z" />
<glyph unicode="&#xae;" horiz-adv-x="1640" d="M113 714q0 198 91.5 367.5t253.5 267t350.5 97.5t350.5 -97.5t253.5 -267t91.5 -367.5q0 -195 -89 -363.5t-251 -270t-355.5 -101.5t-355.5 101.5t-251 270t-89 363.5zM167 714q0 -182 85 -339t234 -249.5t322 -92.5t322 92.5t234 249.5t85 339q0 184 -85 340 t-234.5 247.5t-321.5 91.5t-321.5 -91.5t-234.5 -247.5t-85 -340zM581 319v814h234q284 0 284 -235q0 -141 -150 -202q129 -38 129 -204q0 -109 17 -157v-16h-58q-14 36 -14 173q0 90 -37.5 130t-129.5 42h-221v-345h-54zM635 719h201q94 0 151.5 49.5t57.5 130.5 q0 96 -50.5 137t-165.5 43h-194v-360z" />
<glyph unicode="&#xaf;" horiz-adv-x="794" d="M90 1375v52h615v-52h-615z" />
<glyph unicode="&#xb0;" horiz-adv-x="767" d="M153 1211q0 95 67.5 165t163.5 70q94 0 161 -70t67 -165q0 -96 -67 -164t-161 -68q-96 0 -163.5 67.5t-67.5 164.5zM207 1211q0 -75 50 -126t127 -51q75 0 124 49.5t49 127.5q0 81 -49.5 131.5t-123.5 50.5q-76 0 -126.5 -52t-50.5 -130z" />
<glyph unicode="&#xb1;" horiz-adv-x="1055" d="M71 736v53h434v453h53v-453h410v-53h-410v-453h-53v453h-434zM120 -1v53h818v-53h-818z" />
<glyph unicode="&#xb2;" horiz-adv-x="713" d="M84 1201q0 101 74 167.5t191 66.5q114 0 179 -58t65 -154q0 -92 -111 -213l-65 -68l-245 -243h466v-48h-532v43l284 289q77 75 113.5 132t36.5 107q0 76 -48 120.5t-143 44.5q-100 0 -156 -51t-56 -135h-53z" />
<glyph unicode="&#xb3;" horiz-adv-x="713" d="M78 863h53q0 -76 64 -126t165 -50t156 45t55 125q0 163 -248 163h-58v48h73q99 1 157 44.5t58 111.5q0 75 -52.5 119t-145.5 44q-89 0 -148.5 -45.5t-59.5 -120.5h-52q0 94 74 154t186 60q116 0 183.5 -57t67.5 -157q0 -56 -39.5 -104.5t-112.5 -70.5q84 -20 127 -69 t43 -119q0 -98 -72.5 -158t-191.5 -60q-122 0 -202 62t-80 161z" />
<glyph unicode="&#xb4;" horiz-adv-x="500" d="M123 1225l186 261h64l-191 -261h-59z" />
<glyph unicode="&#xb5;" d="M168 -408v1468h51v-647q2 -186 77 -283t222 -97q173 0 260.5 89t102.5 284v654h53v-1060h-50l-3 199q-94 -219 -354 -219q-111 0 -189 49t-119 139v-576h-51z" />
<glyph unicode="&#xb6;" horiz-adv-x="927" d="M97 968q0 209 130.5 334t353.5 125h174v-1427h-53v510h-125q-147 0 -255.5 56.5t-166.5 161t-58 240.5z" />
<glyph unicode="&#xb7;" horiz-adv-x="462" d="M175 692q0 22 16 38.5t38.5 16.5t38.5 -16.5t16 -39t-16 -38t-38.5 -15.5t-38.5 15.5t-16 38.5z" />
<glyph unicode="&#xb8;" horiz-adv-x="480" d="M79 -378q99 0 166 38.5t67 99.5q0 55 -38 82.5t-148 38.5l25 119h52l-11 -74q174 -16 174 -166q0 -83 -74.5 -134.5t-205.5 -51.5z" />
<glyph unicode="&#xb9;" horiz-adv-x="713" d="M128 1279v52l288 95h8v-775h-53v707z" />
<glyph unicode="&#xba;" horiz-adv-x="895" d="M145 1008v110q0 147 82 237.5t216 90.5t216.5 -90t82.5 -243v-109q0 -148 -82 -238t-215 -90q-134 0 -217 89.5t-83 242.5zM198 1004q0 -129 65 -202t182 -73q114 0 179.5 75t65.5 203v111q0 126 -67 201t-180 75q-112 0 -178.5 -74.5t-66.5 -207.5v-108z" />
<glyph unicode="&#xbb;" horiz-adv-x="879" d="M126 168l287 371l-287 382h68l289 -372v-19l-289 -362h-68zM410 168l287 371l-287 382h68l289 -372v-19l-289 -362h-68z" />
<glyph unicode="&#xbc;" horiz-adv-x="1437" d="M142 1279v52l288 95h8v-775h-53v708zM334 167l696 1115l45 -30l-697 -1116zM733 231l408 542h59v-525h144v-48h-144v-200h-52v200h-414zM801 248h347v464l-43 -69z" />
<glyph unicode="&#xbd;" horiz-adv-x="1477" d="M119 1279v52l288 95h8v-775h-53v708zM292 167l696 1115l45 -30l-697 -1116zM810 551q0 101 74 167t191 66q114 0 179 -58t65 -154q0 -92 -111 -212l-65 -69l-245 -243h466v-48h-532v43l284 289q77 76 113.5 132.5t36.5 106.5q0 76 -48 120.5t-143 44.5q-100 0 -156 -51 t-56 -134h-53z" />
<glyph unicode="&#xbe;" horiz-adv-x="1554" d="M121 864h53q0 -77 64 -127t165 -50t156 45t55 125q0 163 -248 163h-58v48h73q99 1 157 45t58 111q0 76 -52.5 119.5t-145.5 43.5q-89 0 -148.5 -45.5t-59.5 -120.5h-52q0 94 74 154t186 60q116 0 183.5 -57t67.5 -157q0 -56 -39.5 -104.5t-112.5 -70.5q84 -20 127 -69 t43 -119q0 -98 -72.5 -158t-191.5 -60q-122 0 -202 62.5t-80 161.5zM493 167l696 1115l45 -30l-697 -1116zM871 231l408 542h59v-525h144v-48h-144v-200h-52v200h-414zM939 248h347v464l-43 -69z" />
<glyph unicode="&#xbf;" horiz-adv-x="893" d="M106 -15q0 119 51 218.5t197 232.5q50 39 72 79.5t24 97.5l1 68h53q-2 -100 -11.5 -135.5t-33 -68t-78.5 -82.5l-76 -75q-78 -77 -112 -157.5t-34 -179.5q0 -146 77.5 -225t215.5 -79q135 0 213 80.5t82 219.5h53q-2 -163 -95.5 -257.5t-252.5 -94.5q-162 0 -254 98.5 t-92 259.5zM418 1025.5q0 22.5 16.5 38t39 15.5t38 -15.5t15.5 -38.5q0 -22 -15.5 -38.5t-38 -16.5t-39 16.5t-16.5 39z" />
<glyph unicode="&#xc0;" horiz-adv-x="1198" d="M32 0l534 1427h65l534 -1427h-58l-159 426h-699l-159 -426h-58zM269 479h659l-329 884zM393 1799h65l184 -261h-58z" />
<glyph unicode="&#xc1;" horiz-adv-x="1198" d="M32 0l534 1427h65l534 -1427h-58l-159 426h-699l-159 -426h-58zM269 479h659l-329 884zM560 1538l186 261h64l-191 -261h-59z" />
<glyph unicode="&#xc2;" horiz-adv-x="1198" d="M32 0l534 1427h65l534 -1427h-58l-159 426h-699l-159 -426h-58zM269 479h659l-329 884zM355 1552v13l225 235h40l229 -238v-10h-67l-183 192l-181 -192h-63z" />
<glyph unicode="&#xc3;" horiz-adv-x="1198" d="M32 0l534 1427h65l534 -1427h-58l-159 426h-699l-159 -426h-58zM269 479h659l-329 884zM295 1587q0 79 49 127.5t124 48.5q76 0 150 -61t131 -61q53 0 86 35.5t33 93.5h53q0 -81 -49.5 -132t-122.5 -51q-79 0 -150 61.5t-131 61.5q-55 0 -87 -33.5t-32 -89.5h-54z" />
<glyph unicode="&#xc4;" horiz-adv-x="1198" d="M32 0l534 1427h65l534 -1427h-58l-159 426h-699l-159 -426h-58zM269 479h659l-329 884zM339 1706q0 22 16 38t38.5 16t38.5 -16t16 -38.5t-16 -38t-38.5 -15.5t-38.5 15.5t-16 38.5zM775 1706q0 22 16 38t38.5 16t38.5 -16t16 -38.5t-16 -38t-38.5 -15.5t-38.5 15.5 t-16 38.5z" />
<glyph unicode="&#xc5;" horiz-adv-x="1198" d="M32 0l534 1427h65l534 -1427h-58l-159 426h-699l-159 -426h-58zM269 479h659l-329 884zM434 1667.5q0 73.5 49.5 122t117.5 48.5q71 0 119.5 -50t48.5 -120.5t-48.5 -118.5t-119.5 -48q-67 0 -117 46.5t-50 120zM487 1667q0 -51 32 -82t82 -31t82.5 31t32.5 82 q0 53 -32.5 85.5t-82.5 32.5t-82 -32.5t-32 -85.5z" />
<glyph unicode="&#xc6;" horiz-adv-x="1779" d="M49 0l863 1427h761v-53h-682l25 -604h576v-53h-574l28 -664h687v-53h-737l-18 416h-614l-251 -416h-64zM395 468h581l-38 902z" />
<glyph unicode="&#xc7;" horiz-adv-x="1300" d="M141 600v220q0 183 64 326.5t182 221.5t271 78q223 0 355.5 -117.5t152.5 -336.5h-53q-22 197 -137 299.5t-318 102.5q-208 0 -336 -157t-128 -421v-209q0 -169 57 -299t163 -202.5t244 -72.5q204 0 319.5 101t135.5 303h53q-20 -220 -151.5 -338.5t-356.5 -118.5 q-152 0 -269.5 77t-182 218.5t-65.5 324.5zM568 -387q99 0 166 38.5t67 99.5q0 55 -38 82.5t-148 38.5l25 119h52l-11 -74q174 -16 174 -166q0 -83 -74.5 -134.5t-205.5 -51.5z" />
<glyph unicode="&#xc8;" horiz-adv-x="1142" d="M196 0v1427h868v-53h-815v-614h715v-52h-715v-655h815v-53h-868zM400 1799h65l184 -261h-58z" />
<glyph unicode="&#xc9;" horiz-adv-x="1142" d="M196 0v1427h868v-53h-815v-614h715v-52h-715v-655h815v-53h-868zM567 1538l186 261h64l-191 -261h-59z" />
<glyph unicode="&#xca;" horiz-adv-x="1142" d="M196 0v1427h868v-53h-815v-614h715v-52h-715v-655h815v-53h-868zM362 1552v13l225 235h40l229 -238v-10h-67l-183 192l-181 -192h-63z" />
<glyph unicode="&#xcb;" horiz-adv-x="1142" d="M196 0v1427h868v-53h-815v-614h715v-52h-715v-655h815v-53h-868zM346 1706q0 22 16 38t38.5 16t38.5 -16t16 -38.5t-16 -38t-38.5 -15.5t-38.5 15.5t-16 38.5zM782 1706q0 22 16 38t38.5 16t38.5 -16t16 -38.5t-16 -38t-38.5 -15.5t-38.5 15.5t-16 38.5z" />
<glyph unicode="&#xcc;" horiz-adv-x="523" d="M57 1799h65l184 -261h-58zM235 0v1427h53v-1427h-53z" />
<glyph unicode="&#xcd;" horiz-adv-x="523" d="M223 1538l186 261h64l-191 -261h-59zM235 0v1427h53v-1427h-53z" />
<glyph unicode="&#xce;" horiz-adv-x="523" d="M19 1552v13l225 235h40l229 -238v-10h-67l-183 192l-181 -192h-63zM235 0v1427h53v-1427h-53z" />
<glyph unicode="&#xcf;" horiz-adv-x="523" d="M3 1706q0 22 16 38t38.5 16t38.5 -16t16 -38.5t-16 -38t-38.5 -15.5t-38.5 15.5t-16 38.5zM235 0v1427h53v-1427h-53zM439 1706q0 22 16 38t38.5 16t38.5 -16t16 -38.5t-16 -38t-38.5 -15.5t-38.5 15.5t-16 38.5z" />
<glyph unicode="&#xd0;" horiz-adv-x="1342" d="M59 699v53h166v675h395q166 0 300 -78.5t210.5 -220t78.5 -317.5v-185q0 -178 -75 -321t-209 -223.5t-300 -81.5h-400v699h-166zM278 53h333q242 0 393.5 162.5t151.5 418.5v170q0 159 -68 289.5t-190 204.5t-270 76h-350v-622h356v-53h-356v-646z" />
<glyph unicode="&#xd1;" horiz-adv-x="1420" d="M196 0v1427h54l921 -1334v1334h53v-1427h-53l-921 1337v-1337h-54zM406 1587q0 79 49 127.5t124 48.5q76 0 150 -61t131 -61q53 0 86 35.5t33 93.5h53q0 -81 -49.5 -132t-122.5 -51q-79 0 -150 61.5t-131 61.5q-55 0 -87 -33.5t-32 -89.5h-54z" />
<glyph unicode="&#xd2;" horiz-adv-x="1336" d="M130 614v206q0 184 66.5 327.5t189.5 221t281 77.5q160 0 283 -77.5t189.5 -221t66.5 -327.5v-213q0 -186 -66 -328.5t-188.5 -220.5t-282.5 -78q-241 0 -390 171.5t-149 462.5zM184 607q0 -171 59.5 -302t169 -201.5t256.5 -70.5q224 0 354 156t130 425v208 q0 259 -131 415.5t-355 156.5q-220 0 -351.5 -155.5t-131.5 -423.5v-208zM456 1819h65l184 -261h-58z" />
<glyph unicode="&#xd3;" horiz-adv-x="1336" d="M130 614v206q0 184 66.5 327.5t189.5 221t281 77.5q160 0 283 -77.5t189.5 -221t66.5 -327.5v-213q0 -186 -66 -328.5t-188.5 -220.5t-282.5 -78q-241 0 -390 171.5t-149 462.5zM184 607q0 -171 59.5 -302t169 -201.5t256.5 -70.5q224 0 354 156t130 425v208 q0 259 -131 415.5t-355 156.5q-220 0 -351.5 -155.5t-131.5 -423.5v-208zM623 1558l186 261h64l-191 -261h-59z" />
<glyph unicode="&#xd4;" horiz-adv-x="1336" d="M130 614v206q0 184 66.5 327.5t189.5 221t281 77.5q160 0 283 -77.5t189.5 -221t66.5 -327.5v-213q0 -186 -66 -328.5t-188.5 -220.5t-282.5 -78q-241 0 -390 171.5t-149 462.5zM184 607q0 -171 59.5 -302t169 -201.5t256.5 -70.5q224 0 354 156t130 425v208 q0 259 -131 415.5t-355 156.5q-220 0 -351.5 -155.5t-131.5 -423.5v-208zM418 1552v13l225 235h40l229 -238v-10h-67l-183 192l-181 -192h-63z" />
<glyph unicode="&#xd5;" horiz-adv-x="1336" d="M130 614v206q0 184 66.5 327.5t189.5 221t281 77.5q160 0 283 -77.5t189.5 -221t66.5 -327.5v-213q0 -186 -66 -328.5t-188.5 -220.5t-282.5 -78q-241 0 -390 171.5t-149 462.5zM184 607q0 -171 59.5 -302t169 -201.5t256.5 -70.5q224 0 354 156t130 425v208 q0 259 -131 415.5t-355 156.5q-220 0 -351.5 -155.5t-131.5 -423.5v-208zM358 1608q0 79 49 127.5t124 48.5q76 0 150 -61t131 -61q53 0 86 35.5t33 93.5h53q0 -81 -49.5 -132t-122.5 -51q-79 0 -150 61.5t-131 61.5q-55 0 -87 -33.5t-32 -89.5h-54z" />
<glyph unicode="&#xd6;" horiz-adv-x="1336" d="M130 614v206q0 184 66.5 327.5t189.5 221t281 77.5q160 0 283 -77.5t189.5 -221t66.5 -327.5v-213q0 -186 -66 -328.5t-188.5 -220.5t-282.5 -78q-241 0 -390 171.5t-149 462.5zM184 607q0 -171 59.5 -302t169 -201.5t256.5 -70.5q224 0 354 156t130 425v208 q0 259 -131 415.5t-355 156.5q-220 0 -351.5 -155.5t-131.5 -423.5v-208zM401 1726q0 22 16 38t38.5 16t38.5 -16t16 -38.5t-16 -38t-38.5 -15.5t-38.5 15.5t-16 38.5zM837 1726q0 22 16 38t38.5 16t38.5 -16t16 -38.5t-16 -38t-38.5 -15.5t-38.5 15.5t-16 38.5z" />
<glyph unicode="&#xd7;" horiz-adv-x="1030" d="M96 35l376 385l-350 357l39 38l349 -356l349 356l39 -38l-350 -357l377 -385l-38 -36l-376 383l-377 -383z" />
<glyph unicode="&#xd8;" horiz-adv-x="1336" d="M130 616v204q0 184 66.5 327.5t189.5 221t281 77.5q227 0 375 -153l109 172h64l-137 -215q127 -169 128 -428v-215q0 -186 -66 -328.5t-188.5 -220.5t-282.5 -78q-191 0 -327 110l-104 -164h-65l128 201q-171 173 -171 489zM184 607q0 -279 146 -435l682 1076 q-129 146 -345 146q-220 0 -351.5 -155.5t-131.5 -423.5v-208zM370 134q122 -101 299 -101q224 0 354 156t130 425v208q0 232 -104 380z" />
<glyph unicode="&#xd9;" horiz-adv-x="1337" d="M181 457v970h53v-964q0 -198 119 -314t316 -116t315.5 116t118.5 315v963h53v-966q0 -227 -131 -354t-355.5 -127t-356 127t-132.5 350zM476 1799h65l184 -261h-58z" />
<glyph unicode="&#xda;" horiz-adv-x="1337" d="M181 457v970h53v-964q0 -198 119 -314t316 -116t315.5 116t118.5 315v963h53v-966q0 -227 -131 -354t-355.5 -127t-356 127t-132.5 350zM643 1538l186 261h64l-191 -261h-59z" />
<glyph unicode="&#xdb;" horiz-adv-x="1337" d="M181 457v970h53v-964q0 -198 119 -314t316 -116t315.5 116t118.5 315v963h53v-966q0 -227 -131 -354t-355.5 -127t-356 127t-132.5 350zM438 1552v13l225 235h40l229 -238v-10h-67l-183 192l-181 -192h-63z" />
<glyph unicode="&#xdc;" horiz-adv-x="1337" d="M181 457v970h53v-964q0 -198 119 -314t316 -116t315.5 116t118.5 315v963h53v-966q0 -227 -131 -354t-355.5 -127t-356 127t-132.5 350zM422 1706q0 22 16 38t38.5 16t38.5 -16t16 -38.5t-16 -38t-38.5 -15.5t-38.5 15.5t-16 38.5zM858 1706q0 22 16 38t38.5 16t38.5 -16 t16 -38.5t-16 -38t-38.5 -15.5t-38.5 15.5t-16 38.5z" />
<glyph unicode="&#xdd;" horiz-adv-x="1198" d="M32 1427h71l494 -837l500 837h64l-538 -885v-542h-53v542zM556 1527l186 261h64l-191 -261h-59z" />
<glyph unicode="&#xde;" horiz-adv-x="1194" d="M196 0v1427h53v-307h369q202 -2 319 -110.5t117 -286.5q0 -176 -115.5 -284t-312.5 -112h-377v-327h-53zM249 380h363q178 0 283.5 96t105.5 245q0 150 -101.5 246t-272.5 100h-378v-687z" />
<glyph unicode="&#xdf;" horiz-adv-x="1159" d="M161 0v1120q0 187 82.5 285.5t239.5 98.5q124 0 214.5 -78t90.5 -194q0 -98 -58.5 -203t-58.5 -217q0 -57 42 -109t141 -126t143 -141t44 -145q0 -88 -51 -159t-136.5 -112t-172.5 -41q-89 0 -178.5 27t-127.5 61l25 48q43 -35 122.5 -59.5t150.5 -24.5q133 0 224 77.5 t91 191.5q0 64 -41 119.5t-142 130t-144 135t-43 129.5q0 109 55.5 220t55.5 200q0 88 -71.5 152.5t-164.5 64.5q-275 0 -279 -321v-1130h-53z" />
<glyph unicode="&#xe0;" horiz-adv-x="1059" d="M90 269q0 146 132 233.5t350 89.5h262v155q0 133 -84 206.5t-239 73.5q-145 0 -242 -74.5t-97 -184.5l-53 2q0 130 113.5 220t278.5 90q171 0 272 -86t104 -241v-507q0 -174 27 -237v-9h-60q-20 68 -20 194q-63 -102 -171.5 -158t-246.5 -56q-146 0 -236 80t-90 209z M143 265q0 -97 77.5 -165t195.5 -68q149 0 256.5 67t161.5 187v252h-245q-227 0 -348 -90q-98 -74 -98 -183zM359 1486h65l184 -261h-58z" />
<glyph unicode="&#xe1;" horiz-adv-x="1059" d="M90 269q0 146 132 233.5t350 89.5h262v155q0 133 -84 206.5t-239 73.5q-145 0 -242 -74.5t-97 -184.5l-53 2q0 130 113.5 220t278.5 90q171 0 272 -86t104 -241v-507q0 -174 27 -237v-9h-60q-20 68 -20 194q-63 -102 -171.5 -158t-246.5 -56q-146 0 -236 80t-90 209z M143 265q0 -97 77.5 -165t195.5 -68q149 0 256.5 67t161.5 187v252h-245q-227 0 -348 -90q-98 -74 -98 -183zM526 1225l186 261h64l-191 -261h-59z" />
<glyph unicode="&#xe2;" horiz-adv-x="1059" d="M90 269q0 146 132 233.5t350 89.5h262v155q0 133 -84 206.5t-239 73.5q-145 0 -242 -74.5t-97 -184.5l-53 2q0 130 113.5 220t278.5 90q171 0 272 -86t104 -241v-507q0 -174 27 -237v-9h-60q-20 68 -20 194q-63 -102 -171.5 -158t-246.5 -56q-146 0 -236 80t-90 209z M143 265q0 -97 77.5 -165t195.5 -68q149 0 256.5 67t161.5 187v252h-245q-227 0 -348 -90q-98 -74 -98 -183zM321 1239v13l225 235h40l229 -238v-10h-67l-183 192l-181 -192h-63z" />
<glyph unicode="&#xe3;" horiz-adv-x="1059" d="M90 269q0 146 132 233.5t350 89.5h262v155q0 133 -84 206.5t-239 73.5q-145 0 -242 -74.5t-97 -184.5l-53 2q0 130 113.5 220t278.5 90q171 0 272 -86t104 -241v-507q0 -174 27 -237v-9h-60q-20 68 -20 194q-63 -102 -171.5 -158t-246.5 -56q-146 0 -236 80t-90 209z M143 265q0 -97 77.5 -165t195.5 -68q149 0 256.5 67t161.5 187v252h-245q-227 0 -348 -90q-98 -74 -98 -183zM260 1274q0 79 49 127.5t124 48.5q76 0 150 -61t131 -61q53 0 86 35.5t33 93.5h53q0 -81 -49.5 -132t-122.5 -51q-79 0 -150 61.5t-131 61.5q-55 0 -87 -33.5 t-32 -89.5h-54z" />
<glyph unicode="&#xe4;" horiz-adv-x="1059" d="M90 269q0 146 132 233.5t350 89.5h262v155q0 133 -84 206.5t-239 73.5q-145 0 -242 -74.5t-97 -184.5l-53 2q0 130 113.5 220t278.5 90q171 0 272 -86t104 -241v-507q0 -174 27 -237v-9h-60q-20 68 -20 194q-63 -102 -171.5 -158t-246.5 -56q-146 0 -236 80t-90 209z M143 265q0 -97 77.5 -165t195.5 -68q149 0 256.5 67t161.5 187v252h-245q-227 0 -348 -90q-98 -74 -98 -183zM304 1393q0 22 16 38t38.5 16t38.5 -16t16 -38.5t-16 -38t-38.5 -15.5t-38.5 15.5t-16 38.5zM740 1393q0 22 16 38t38.5 16t38.5 -16t16 -38.5t-16 -38 t-38.5 -15.5t-38.5 15.5t-16 38.5z" />
<glyph unicode="&#xe5;" horiz-adv-x="1059" d="M90 269q0 146 132 233.5t350 89.5h262v155q0 133 -84 206.5t-239 73.5q-145 0 -242 -74.5t-97 -184.5l-53 2q0 130 113.5 220t278.5 90q171 0 272 -86t104 -241v-507q0 -174 27 -237v-9h-60q-20 68 -20 194q-63 -102 -171.5 -158t-246.5 -56q-146 0 -236 80t-90 209z M143 265q0 -97 77.5 -165t195.5 -68q149 0 256.5 67t161.5 187v252h-245q-227 0 -348 -90q-98 -74 -98 -183zM400 1354.5q0 73.5 49.5 122t117.5 48.5q71 0 119.5 -50t48.5 -120.5t-48.5 -118.5t-119.5 -48q-67 0 -117 46.5t-50 120zM453 1354q0 -51 32 -82t82 -31t82.5 31 t32.5 82q0 53 -32.5 85.5t-82.5 32.5t-82 -32.5t-32 -85.5z" />
<glyph unicode="&#xe6;" horiz-adv-x="1700" d="M91 278q0 155 108.5 246t306.5 93h291v89q0 152 -70.5 236.5t-215.5 84.5q-155 0 -247.5 -74.5t-92.5 -196.5l-52 6q0 143 109 230.5t283 87.5q138 0 223.5 -72.5t108.5 -209.5q55 134 156.5 208t228.5 74q182 0 289 -114t107 -323v-78h-771v-75q0 -214 102 -335.5 t288 -121.5q200 0 325 128l29 -41q-77 -78 -162 -109t-192 -31q-144 0 -242.5 66.5t-149.5 178.5v-11h1q-47 -105 -159.5 -169.5t-253.5 -64.5q-165 0 -256.5 80.5t-91.5 217.5zM145 274q0 -113 75 -178t218 -65q79 0 155.5 28t133 74t70.5 87v344h-295 q-164 -3 -260.5 -81.5t-96.5 -208.5zM856 619h715v32q0 170 -91.5 273t-251.5 103q-150 0 -252 -111t-120 -297z" />
<glyph unicode="&#xe7;" horiz-adv-x="1018" d="M95 515v36q0 241 117 385t314 144q169 0 278.5 -101t116.5 -269h-53q-7 144 -100.5 230.5t-241.5 86.5q-177 0 -277.5 -128t-100.5 -355v-34q0 -223 101.5 -350t278.5 -127q144 0 237.5 76.5t102.5 211.5h53q-8 -153 -118.5 -247t-274.5 -94q-199 0 -316 144.5 t-117 390.5zM440 -387q99 0 166 38.5t67 99.5q0 55 -38 82.5t-148 38.5l25 119h52l-11 -74q174 -16 174 -166q0 -83 -74.5 -134.5t-205.5 -51.5z" />
<glyph unicode="&#xe8;" horiz-adv-x="1011" d="M85 507v44q0 147 59 269.5t162 191t224 68.5q178 0 290.5 -126.5t112.5 -332.5v-56h-795v-57q0 -130 54.5 -240t150 -173t207.5 -63q107 0 182 36t132 110l38 -26q-119 -172 -352 -172q-129 0 -236 69.5t-168 190t-61 267.5zM141 618h739v13q0 108 -45.5 200.5 t-125.5 144t-179 51.5q-155 0 -262.5 -115t-126.5 -294zM349 1485h65l184 -261h-58z" />
<glyph unicode="&#xe9;" horiz-adv-x="1011" d="M85 507v44q0 147 59 269.5t162 191t224 68.5q178 0 290.5 -126.5t112.5 -332.5v-56h-795v-57q0 -130 54.5 -240t150 -173t207.5 -63q107 0 182 36t132 110l38 -26q-119 -172 -352 -172q-129 0 -236 69.5t-168 190t-61 267.5zM141 618h739v13q0 108 -45.5 200.5 t-125.5 144t-179 51.5q-155 0 -262.5 -115t-126.5 -294zM516 1224l186 261h64l-191 -261h-59z" />
<glyph unicode="&#xea;" horiz-adv-x="1011" d="M85 507v44q0 147 59 269.5t162 191t224 68.5q178 0 290.5 -126.5t112.5 -332.5v-56h-795v-57q0 -130 54.5 -240t150 -173t207.5 -63q107 0 182 36t132 110l38 -26q-119 -172 -352 -172q-129 0 -236 69.5t-168 190t-61 267.5zM141 618h739v13q0 108 -45.5 200.5 t-125.5 144t-179 51.5q-155 0 -262.5 -115t-126.5 -294zM311 1239v13l225 235h40l229 -238v-10h-67l-183 192l-181 -192h-63z" />
<glyph unicode="&#xeb;" horiz-adv-x="1011" d="M85 507v44q0 147 59 269.5t162 191t224 68.5q178 0 290.5 -126.5t112.5 -332.5v-56h-795v-57q0 -130 54.5 -240t150 -173t207.5 -63q107 0 182 36t132 110l38 -26q-119 -172 -352 -172q-129 0 -236 69.5t-168 190t-61 267.5zM141 618h739v13q0 108 -45.5 200.5 t-125.5 144t-179 51.5q-155 0 -262.5 -115t-126.5 -294zM295 1392q0 22 16 38t38.5 16t38.5 -16t16 -38.5t-16 -38t-38.5 -15.5t-38.5 15.5t-16 38.5zM731 1392q0 22 16 38t38.5 16t38.5 -16t16 -38.5t-16 -38t-38.5 -15.5t-38.5 15.5t-16 38.5z" />
<glyph unicode="&#xec;" horiz-adv-x="397" d="M-1 1463h65l184 -261h-58zM177 0v1060h53v-1060h-53z" />
<glyph unicode="&#xed;" horiz-adv-x="397" d="M165 1202l186 261h64l-191 -261h-59zM177 0v1060h53v-1060h-53z" />
<glyph unicode="&#xee;" horiz-adv-x="397" d="M-39 1239v13l225 235h40l229 -238v-10h-67l-183 192l-181 -192h-63zM177 0v1060h53v-1060h-53z" />
<glyph unicode="&#xef;" horiz-adv-x="397" d="M-55 1370q0 22 16 38t38.5 16t38.5 -16t16 -38.5t-16 -38t-38.5 -15.5t-38.5 15.5t-16 38.5zM177 0v1060h53v-1060h-53zM381 1370q0 22 16 38t38.5 16t38.5 -16t16 -38.5t-16 -38t-38.5 -15.5t-38.5 15.5t-16 38.5z" />
<glyph unicode="&#xf0;" horiz-adv-x="1159" d="M170 456q0 226 110.5 352t308.5 126q111 0 210.5 -43.5t157.5 -126.5q-19 165 -76 283.5t-144 206.5l-230 -128l-28 47l216 121q-135 118 -364 202l20 49q247 -90 394 -224l198 111l28 -47l-185 -103q119 -123 176.5 -289t57.5 -390v-79q0 -156 -50.5 -279.5t-143.5 -194 t-210 -70.5q-126 0 -228.5 62t-160 171.5t-57.5 242.5zM223 456q0 -113 50.5 -211t141 -153t205.5 -55q153 0 248 131t99 342v95l-1 54q-45 102 -146 160t-231 58q-173 0 -269.5 -111t-96.5 -310z" />
<glyph unicode="&#xf1;" d="M169 0v1060h52v-247q52 124 153 195.5t224 71.5q170 0 253 -96.5t84 -291.5v-692h-53v694q-1 170 -69.5 252t-217.5 82q-137 0 -237.5 -97.5t-136.5 -251.5v-679h-52zM261 1272q0 79 49 127.5t124 48.5q76 0 150 -61t131 -61q53 0 86 35.5t33 93.5h53q0 -81 -49.5 -132 t-122.5 -51q-79 0 -150 61.5t-131 61.5q-55 0 -87 -33.5t-32 -89.5h-54z" />
<glyph unicode="&#xf2;" horiz-adv-x="1104" d="M88 504v47q0 152 58.5 273t164.5 188.5t241 67.5q133 0 239 -65.5t165 -186t60 -271.5v-47q0 -153 -57.5 -273.5t-164 -188.5t-241 -68t-240.5 67t-165 187t-60 270zM141 510q0 -133 52.5 -243t146 -172t214.5 -62q181 0 295 136.5t114 350.5v31q0 130 -52.5 241 t-146.5 173t-212 62q-182 0 -296.5 -138t-114.5 -348v-31zM349 1484h65l184 -261h-58z" />
<glyph unicode="&#xf3;" horiz-adv-x="1104" d="M88 504v47q0 152 58.5 273t164.5 188.5t241 67.5q133 0 239 -65.5t165 -186t60 -271.5v-47q0 -153 -57.5 -273.5t-164 -188.5t-241 -68t-240.5 67t-165 187t-60 270zM141 510q0 -133 52.5 -243t146 -172t214.5 -62q181 0 295 136.5t114 350.5v31q0 130 -52.5 241 t-146.5 173t-212 62q-182 0 -296.5 -138t-114.5 -348v-31zM516 1223l186 261h64l-191 -261h-59z" />
<glyph unicode="&#xf4;" horiz-adv-x="1104" d="M88 504v47q0 152 58.5 273t164.5 188.5t241 67.5q133 0 239 -65.5t165 -186t60 -271.5v-47q0 -153 -57.5 -273.5t-164 -188.5t-241 -68t-240.5 67t-165 187t-60 270zM141 510q0 -133 52.5 -243t146 -172t214.5 -62q181 0 295 136.5t114 350.5v31q0 130 -52.5 241 t-146.5 173t-212 62q-182 0 -296.5 -138t-114.5 -348v-31zM311 1239v13l225 235h40l229 -238v-10h-67l-183 192l-181 -192h-63z" />
<glyph unicode="&#xf5;" horiz-adv-x="1104" d="M88 504v47q0 152 58.5 273t164.5 188.5t241 67.5q133 0 239 -65.5t165 -186t60 -271.5v-47q0 -153 -57.5 -273.5t-164 -188.5t-241 -68t-240.5 67t-165 187t-60 270zM141 510q0 -133 52.5 -243t146 -172t214.5 -62q181 0 295 136.5t114 350.5v31q0 130 -52.5 241 t-146.5 173t-212 62q-182 0 -296.5 -138t-114.5 -348v-31zM251 1272q0 79 49 127.5t124 48.5q76 0 150 -61t131 -61q53 0 86 35.5t33 93.5h53q0 -81 -49.5 -132t-122.5 -51q-79 0 -150 61.5t-131 61.5q-55 0 -87 -33.5t-32 -89.5h-54z" />
<glyph unicode="&#xf6;" horiz-adv-x="1104" d="M88 504v47q0 152 58.5 273t164.5 188.5t241 67.5q133 0 239 -65.5t165 -186t60 -271.5v-47q0 -153 -57.5 -273.5t-164 -188.5t-241 -68t-240.5 67t-165 187t-60 270zM141 510q0 -133 52.5 -243t146 -172t214.5 -62q181 0 295 136.5t114 350.5v31q0 130 -52.5 241 t-146.5 173t-212 62q-182 0 -296.5 -138t-114.5 -348v-31zM295 1391q0 22 16 38t38.5 16t38.5 -16t16 -38.5t-16 -38t-38.5 -15.5t-38.5 15.5t-16 38.5zM731 1391q0 22 16 38t38.5 16t38.5 -16t16 -38.5t-16 -38t-38.5 -15.5t-38.5 15.5t-16 38.5z" />
<glyph unicode="&#xf7;" horiz-adv-x="1135" d="M72 672v51h978v-51h-978zM518 295q0 23 16 39t38.5 16t38.5 -16t16 -39t-16 -38.5t-38.5 -15.5t-38.5 15.5t-16 38.5zM518 1057q0 23 16 39t38.5 16t38.5 -16t16 -38.5t-16 -38t-38.5 -15.5t-38.5 15.5t-16 37.5z" />
<glyph unicode="&#xf8;" d="M85 512v39q0 152 58.5 273t165 188.5t240.5 67.5q117 0 219 -54l83 169h61l-97 -199q93 -69 145.5 -183.5t52.5 -261.5v-41q0 -153 -57.5 -273.5t-164 -188.5t-240.5 -68q-110 0 -206 47l-82 -169h-62l96 197q-101 67 -156.5 187.5t-55.5 269.5zM138 510 q0 -130 48.5 -236t133.5 -169l424 870q-86 52 -195 52q-181 0 -296 -138t-115 -348v-31zM368 75q82 -42 183 -42q181 0 295 136.5t114 350.5v31q0 119 -44.5 223t-125.5 170z" />
<glyph unicode="&#xf9;" d="M165 377v683h53v-685q2 -168 76 -255t218 -87q151 0 246.5 71.5t120.5 210.5v745h54v-1060h-54v172q-47 -89 -137 -140.5t-228 -51.5q-174 0 -260.5 101.5t-88.5 295.5zM362 1486h65l184 -261h-58z" />
<glyph unicode="&#xfa;" d="M165 377v683h53v-685q2 -168 76 -255t218 -87q151 0 246.5 71.5t120.5 210.5v745h54v-1060h-54v172q-47 -89 -137 -140.5t-228 -51.5q-174 0 -260.5 101.5t-88.5 295.5zM529 1225l186 261h64l-191 -261h-59z" />
<glyph unicode="&#xfb;" d="M165 377v683h53v-685q2 -168 76 -255t218 -87q151 0 246.5 71.5t120.5 210.5v745h54v-1060h-54v172q-47 -89 -137 -140.5t-228 -51.5q-174 0 -260.5 101.5t-88.5 295.5zM323 1239v13l225 235h40l229 -238v-10h-67l-183 192l-181 -192h-63z" />
<glyph unicode="&#xfc;" d="M165 377v683h53v-685q2 -168 76 -255t218 -87q151 0 246.5 71.5t120.5 210.5v745h54v-1060h-54v172q-47 -89 -137 -140.5t-228 -51.5q-174 0 -260.5 101.5t-88.5 295.5zM307 1393q0 22 16 38t38.5 16t38.5 -16t16 -38.5t-16 -38t-38.5 -15.5t-38.5 15.5t-16 38.5z M743 1393q0 22 16 38t38.5 16t38.5 -16t16 -38.5t-16 -38t-38.5 -15.5t-38.5 15.5t-16 38.5z" />
<glyph unicode="&#xfd;" horiz-adv-x="958" d="M42 1060h58l393 -978l7 20l366 958h59l-474 -1244l-24 -59q-76 -185 -253 -185q-56 0 -78 11l-1 49q31 -8 72 -8q83 0 138 48.5t95 157.5l65 176zM469 1225l186 261h64l-191 -261h-59z" />
<glyph unicode="&#xfe;" d="M167 -408v1913h53v-634q54 101 147.5 155t211.5 54q186 0 293 -142.5t107 -400.5v-17q0 -248 -107 -394t-291 -146q-120 0 -214.5 49t-146.5 136v-573h-53zM220 264q41 -110 134.5 -170.5t227.5 -60.5q163 0 253 129.5t90 378.5q0 228 -90.5 357t-254.5 129 q-133 0 -226 -69t-134 -198v-496z" />
<glyph unicode="&#xff;" horiz-adv-x="958" d="M42 1060h58l393 -978l7 20l366 958h59l-474 -1244l-24 -59q-76 -185 -253 -185q-56 0 -78 11l-1 49q31 -8 72 -8q83 0 138 48.5t95 157.5l65 176zM248 1393q0 22 16 38t38.5 16t38.5 -16t16 -38.5t-16 -38t-38.5 -15.5t-38.5 15.5t-16 38.5zM684 1393q0 22 16 38t38.5 16 t38.5 -16t16 -38.5t-16 -38t-38.5 -15.5t-38.5 15.5t-16 38.5z" />
<glyph unicode="&#x100;" horiz-adv-x="1198" d="M32 0l534 1427h65l534 -1427h-58l-159 426h-699l-159 -426h-58zM269 479h659l-329 884zM285 1698v52h615v-52h-615z" />
<glyph unicode="&#x101;" horiz-adv-x="1059" d="M90 269q0 146 132 233.5t350 89.5h262v155q0 133 -84 206.5t-239 73.5q-145 0 -242 -74.5t-97 -184.5l-53 2q0 130 113.5 220t278.5 90q171 0 272 -86t104 -241v-507q0 -174 27 -237v-9h-60q-20 68 -20 194q-63 -102 -171.5 -158t-246.5 -56q-146 0 -236 80t-90 209z M143 265q0 -97 77.5 -165t195.5 -68q149 0 256.5 67t161.5 187v252h-245q-227 0 -348 -90q-98 -74 -98 -183zM251 1385v52h615v-52h-615z" />
<glyph unicode="&#x102;" horiz-adv-x="1198" d="M32 0l534 1427h65l534 -1427h-58l-159 426h-699l-159 -426h-58zM269 479h659l-329 884zM325 1774h53q0 -89 56 -138.5t164 -49.5q105 0 162.5 50.5t57.5 137.5h53q0 -109 -74 -176t-199 -67t-199 67t-74 176z" />
<glyph unicode="&#x103;" horiz-adv-x="1059" d="M90 269q0 146 132 233.5t350 89.5h262v155q0 133 -84 206.5t-239 73.5q-145 0 -242 -74.5t-97 -184.5l-53 2q0 130 113.5 220t278.5 90q171 0 272 -86t104 -241v-507q0 -174 27 -237v-9h-60q-20 68 -20 194q-63 -102 -171.5 -158t-246.5 -56q-146 0 -236 80t-90 209z M143 265q0 -97 77.5 -165t195.5 -68q149 0 256.5 67t161.5 187v252h-245q-227 0 -348 -90q-98 -74 -98 -183zM291 1460h53q0 -89 56 -138.5t164 -49.5q105 0 162.5 50.5t57.5 137.5h53q0 -109 -74 -176t-199 -67t-199 67t-74 176z" />
<glyph unicode="&#x104;" horiz-adv-x="1198" d="M32 0l534 1427h65l534 -1427q-110 -85 -147 -137.5t-37 -103.5q0 -93 91 -93q56 0 108 37l16 -47q-55 -43 -124 -43q-66 0 -105 35.5t-39 110.5q0 107 176 247l-156 420h-699l-159 -426h-58zM269 479h659l-329 884z" />
<glyph unicode="&#x105;" horiz-adv-x="1059" d="M90 269q0 146 132 233.5t350 89.5h262v155q0 133 -84 206.5t-239 73.5q-145 0 -242 -74.5t-97 -184.5l-53 2q0 130 113.5 220t278.5 90q171 0 272 -86t104 -241v-507q0 -174 27 -237v-9q-109 -85 -146.5 -137.5t-37.5 -103.5q0 -93 91 -93q56 0 108 37l16 -47 q-55 -43 -124 -43q-65 0 -104.5 35.5t-39.5 110.5q0 111 176 245q-19 70 -19 190q-63 -102 -171.5 -158t-246.5 -56q-146 0 -236 80t-90 209zM143 265q0 -97 77.5 -165t195.5 -68q149 0 256.5 67t161.5 187v252h-245q-227 0 -348 -90q-98 -74 -98 -183z" />
<glyph unicode="&#x106;" horiz-adv-x="1300" d="M141 600v220q0 183 64 326.5t182 221.5t271 78q223 0 355.5 -117.5t152.5 -336.5h-53q-22 197 -137 299.5t-318 102.5q-208 0 -336 -157t-128 -421v-209q0 -169 57 -299t163 -202.5t244 -72.5q204 0 319.5 101t135.5 303h53q-20 -220 -151.5 -338.5t-356.5 -118.5 q-152 0 -269.5 77t-182 218.5t-65.5 324.5zM625 1558l186 261h64l-191 -261h-59z" />
<glyph unicode="&#x107;" horiz-adv-x="1018" d="M95 515v36q0 241 117 385t314 144q169 0 278.5 -101t116.5 -269h-53q-7 144 -100.5 230.5t-241.5 86.5q-177 0 -277.5 -128t-100.5 -355v-34q0 -223 101.5 -350t278.5 -127q144 0 237.5 76.5t102.5 211.5h53q-8 -153 -118.5 -247t-274.5 -94q-199 0 -316 144.5 t-117 390.5zM496 1223l186 261h64l-191 -261h-59z" />
<glyph unicode="&#x108;" horiz-adv-x="1300" d="M141 600v220q0 183 64 326.5t182 221.5t271 78q223 0 355.5 -117.5t152.5 -336.5h-53q-22 197 -137 299.5t-318 102.5q-208 0 -336 -157t-128 -421v-209q0 -169 57 -299t163 -202.5t244 -72.5q204 0 319.5 101t135.5 303h53q-20 -220 -151.5 -338.5t-356.5 -118.5 q-152 0 -269.5 77t-182 218.5t-65.5 324.5zM419 1572v13l225 235h40l229 -238v-10h-67l-183 192l-181 -192h-63z" />
<glyph unicode="&#x109;" horiz-adv-x="1018" d="M95 515v36q0 241 117 385t314 144q169 0 278.5 -101t116.5 -269h-53q-7 144 -100.5 230.5t-241.5 86.5q-177 0 -277.5 -128t-100.5 -355v-34q0 -223 101.5 -350t278.5 -127q144 0 237.5 76.5t102.5 211.5h53q-8 -153 -118.5 -247t-274.5 -94q-199 0 -316 144.5 t-117 390.5zM291 1237v13l225 235h40l229 -238v-10h-67l-183 192l-181 -192h-63z" />
<glyph unicode="&#x10a;" horiz-adv-x="1300" d="M141 600v220q0 183 64 326.5t182 221.5t271 78q223 0 355.5 -117.5t152.5 -336.5h-53q-22 197 -137 299.5t-318 102.5q-208 0 -336 -157t-128 -421v-209q0 -169 57 -299t163 -202.5t244 -72.5q204 0 319.5 101t135.5 303h53q-20 -220 -151.5 -338.5t-356.5 -118.5 q-152 0 -269.5 77t-182 218.5t-65.5 324.5zM618 1702q0 23 15.5 39t38 16t39 -16t16.5 -38.5t-16.5 -38.5t-39 -16t-38 16t-15.5 38z" />
<glyph unicode="&#x10b;" horiz-adv-x="1018" d="M95 515v36q0 241 117 385t314 144q169 0 278.5 -101t116.5 -269h-53q-7 144 -100.5 230.5t-241.5 86.5q-177 0 -277.5 -128t-100.5 -355v-34q0 -223 101.5 -350t278.5 -127q144 0 237.5 76.5t102.5 211.5h53q-8 -153 -118.5 -247t-274.5 -94q-199 0 -316 144.5 t-117 390.5zM489 1367q0 23 15.5 39t38 16t39 -16t16.5 -38.5t-16.5 -38.5t-39 -16t-38 16t-15.5 38z" />
<glyph unicode="&#x10c;" horiz-adv-x="1300" d="M141 600v220q0 183 64 326.5t182 221.5t271 78q223 0 355.5 -117.5t152.5 -336.5h-53q-22 197 -137 299.5t-318 102.5q-208 0 -336 -157t-128 -421v-209q0 -169 57 -299t163 -202.5t244 -72.5q204 0 319.5 101t135.5 303h53q-20 -220 -151.5 -338.5t-356.5 -118.5 q-152 0 -269.5 77t-182 218.5t-65.5 324.5zM418 1803v11h56l189 -213l190 213h52v-13l-213 -245h-58z" />
<glyph unicode="&#x10d;" horiz-adv-x="1018" d="M95 515v36q0 241 117 385t314 144q169 0 278.5 -101t116.5 -269h-53q-7 144 -100.5 230.5t-241.5 86.5q-177 0 -277.5 -128t-100.5 -355v-34q0 -223 101.5 -350t278.5 -127q144 0 237.5 76.5t102.5 211.5h53q-8 -153 -118.5 -247t-274.5 -94q-199 0 -316 144.5 t-117 390.5zM290 1467v11h56l189 -213l190 213h52v-13l-213 -245h-58z" />
<glyph unicode="&#x10e;" horiz-adv-x="1313" d="M196 0v1427h395q166 0 300 -78.5t210.5 -220t78.5 -317.5v-185q0 -178 -75 -321t-209.5 -223.5t-299.5 -81.5h-400zM249 53h342q150 0 273 73t192.5 204t70.5 290v184q0 159 -68 289.5t-190 204.5t-270 76h-350v-1321zM332 1783v11h56l189 -213l190 213h52v-13l-213 -245 h-58z" />
<glyph unicode="&#x10f;" horiz-adv-x="1245" d="M120 527v14q0 254 106.5 396.5t292.5 142.5q120 0 211.5 -54t148.5 -161v640h53v-1505h-53v170q-54 -91 -148 -140.5t-214 -49.5q-184 0 -290.5 146t-106.5 401zM174 520q0 -225 89.5 -356t252.5 -131q132 0 225 58.5t138 171.5v497q-91 267 -361 267q-162 0 -253 -128.5 t-91 -378.5zM1053 1224q61 85 67 173l1 109h53v-78q-1 -140 -85 -235z" />
<glyph unicode="&#x110;" horiz-adv-x="1342" d="M59 699v53h166v675h395q166 0 300 -78.5t210.5 -220t78.5 -317.5v-185q0 -178 -75 -321t-209 -223.5t-300 -81.5h-400v699h-166zM278 53h333q242 0 393.5 162.5t151.5 418.5v170q0 159 -68 289.5t-190 204.5t-270 76h-350v-622h356v-53h-356v-646z" />
<glyph unicode="&#x111;" horiz-adv-x="1127" d="M120 527v14q0 254 106.5 396.5t292.5 142.5q120 0 211.5 -54t148.5 -161v390h-365v53h365v197h53v-197h157v-53h-157v-1255h-53v170q-54 -91 -148 -140.5t-214 -49.5q-184 0 -290.5 146t-106.5 401zM174 520q0 -225 89.5 -356t252.5 -131q132 0 225 58.5t138 171.5v497 q-91 267 -361 267q-162 0 -253 -128.5t-91 -378.5z" />
<glyph unicode="&#x112;" horiz-adv-x="1142" d="M196 0v1427h868v-53h-815v-614h715v-52h-715v-655h815v-53h-868zM292 1698v52h615v-52h-615z" />
<glyph unicode="&#x113;" horiz-adv-x="1011" d="M85 507v44q0 147 59 269.5t162 191t224 68.5q178 0 290.5 -126.5t112.5 -332.5v-56h-795v-57q0 -130 54.5 -240t150 -173t207.5 -63q107 0 182 36t132 110l38 -26q-119 -172 -352 -172q-129 0 -236 69.5t-168 190t-61 267.5zM141 618h739v13q0 108 -45.5 200.5 t-125.5 144t-179 51.5q-155 0 -262.5 -115t-126.5 -294zM241 1384v52h615v-52h-615z" />
<glyph unicode="&#x114;" horiz-adv-x="1142" d="M196 0v1427h868v-53h-815v-614h715v-52h-715v-655h815v-53h-868zM332 1774h53q0 -89 56 -138.5t164 -49.5q105 0 162.5 50.5t57.5 137.5h53q0 -109 -74 -176t-199 -67t-199 67t-74 176z" />
<glyph unicode="&#x115;" horiz-adv-x="1011" d="M85 507v44q0 147 59 269.5t162 191t224 68.5q178 0 290.5 -126.5t112.5 -332.5v-56h-795v-57q0 -130 54.5 -240t150 -173t207.5 -63q107 0 182 36t132 110l38 -26q-119 -172 -352 -172q-129 0 -236 69.5t-168 190t-61 267.5zM141 618h739v13q0 108 -45.5 200.5 t-125.5 144t-179 51.5q-155 0 -262.5 -115t-126.5 -294zM281 1459h53q0 -89 56 -138.5t164 -49.5q105 0 162.5 50.5t57.5 137.5h53q0 -109 -74 -176t-199 -67t-199 67t-74 176z" />
<glyph unicode="&#x116;" horiz-adv-x="1142" d="M196 0v1427h868v-53h-815v-614h715v-52h-715v-655h815v-53h-868zM560 1682q0 23 15.5 39t38 16t39 -16t16.5 -38.5t-16.5 -38.5t-39 -16t-38 16t-15.5 38z" />
<glyph unicode="&#x117;" horiz-adv-x="1011" d="M85 507v44q0 147 59 269.5t162 191t224 68.5q178 0 290.5 -126.5t112.5 -332.5v-56h-795v-57q0 -130 54.5 -240t150 -173t207.5 -63q107 0 182 36t132 110l38 -26q-119 -172 -352 -172q-129 0 -236 69.5t-168 190t-61 267.5zM141 618h739v13q0 108 -45.5 200.5 t-125.5 144t-179 51.5q-155 0 -262.5 -115t-126.5 -294zM509 1368q0 23 15.5 39t38 16t39 -16t16.5 -38.5t-16.5 -38.5t-39 -16t-38 16t-15.5 38z" />
<glyph unicode="&#x118;" horiz-adv-x="1142" d="M196 0v1427h868v-53h-815v-614h715v-52h-715v-655h815v-53h-58q-109 -85 -146.5 -137.5t-37.5 -103.5q0 -93 91 -93q56 0 108 37l16 -47q-55 -43 -124 -43q-65 0 -104.5 35.5t-39.5 110.5q0 108 170 241h-743z" />
<glyph unicode="&#x119;" horiz-adv-x="1011" d="M85 507v44q0 147 59 269.5t162 191t224 68.5q178 0 290.5 -126.5t112.5 -332.5v-56h-795v-57q0 -130 54.5 -240t150 -173t207.5 -63q107 0 182 36t132 110l38 -26q-39 -55 -91 -93l4 -2q-109 -85 -146.5 -137.5t-37.5 -103.5q0 -93 91 -93q56 0 108 37l16 -47 q-55 -43 -124 -43q-65 0 -104.5 35.5t-39.5 110.5q0 80 101 181q-63 -17 -129 -17q-129 0 -236 69.5t-168 190t-61 267.5zM141 618h739v13q0 108 -45.5 200.5t-125.5 144t-179 51.5q-155 0 -262.5 -115t-126.5 -294z" />
<glyph unicode="&#x11a;" horiz-adv-x="1142" d="M196 0v1427h868v-53h-815v-614h715v-52h-715v-655h815v-53h-868zM360 1783v11h56l189 -213l190 213h52v-13l-213 -245h-58z" />
<glyph unicode="&#x11b;" horiz-adv-x="1011" d="M85 507v44q0 147 59 269.5t162 191t224 68.5q178 0 290.5 -126.5t112.5 -332.5v-56h-795v-57q0 -130 54.5 -240t150 -173t207.5 -63q107 0 182 36t132 110l38 -26q-119 -172 -352 -172q-129 0 -236 69.5t-168 190t-61 267.5zM141 618h739v13q0 108 -45.5 200.5 t-125.5 144t-179 51.5q-155 0 -262.5 -115t-126.5 -294zM309 1468v11h56l189 -213l190 213h52v-13l-213 -245h-58z" />
<glyph unicode="&#x11c;" horiz-adv-x="1377" d="M165 596v245q0 175 67.5 314.5t190 215t275.5 75.5q212 0 346 -108.5t156 -296.5h-53q-27 170 -142.5 261.5t-306.5 91.5q-216 0 -348 -154t-132 -405v-227q0 -168 62 -299.5t175 -203.5t259 -72q144 0 266 42.5t169 101.5v416h-437v54h489v-494q-53 -75 -188.5 -124 t-298.5 -49q-158 0 -282.5 77.5t-194.5 218.5t-72 320zM444 1572v13l225 235h40l229 -238v-10h-67l-183 192l-181 -192h-63z" />
<glyph unicode="&#x11d;" horiz-adv-x="1100" d="M119 527v14q0 254 106.5 396.5t292.5 142.5q119 0 211 -54.5t148 -159.5v194h54v-1041q0 -210 -108 -328t-293 -118q-107 0 -195.5 46t-151.5 132l37 35q62 -78 135.5 -119.5t172.5 -41.5q164 0 255 99.5t94 280.5v163q-55 -91 -148.5 -139.5t-212.5 -48.5 q-184 0 -290.5 146t-106.5 401zM172 520q0 -227 90.5 -357t252.5 -130q135 0 229 62.5t133 174.5v482q-86 275 -360 275q-163 0 -254 -128.5t-91 -378.5zM311 1239v13l225 235h40l229 -238v-10h-67l-183 192l-181 -192h-63z" />
<glyph unicode="&#x11e;" horiz-adv-x="1377" d="M165 596v245q0 175 67.5 314.5t190 215t275.5 75.5q212 0 346 -108.5t156 -296.5h-53q-27 170 -142.5 261.5t-306.5 91.5q-216 0 -348 -154t-132 -405v-227q0 -168 62 -299.5t175 -203.5t259 -72q144 0 266 42.5t169 101.5v416h-437v54h489v-494q-53 -75 -188.5 -124 t-298.5 -49q-158 0 -282.5 77.5t-194.5 218.5t-72 320zM414 1794h53q0 -89 56 -138.5t164 -49.5q105 0 162.5 50.5t57.5 137.5h53q0 -109 -74 -176t-199 -67t-199 67t-74 176z" />
<glyph unicode="&#x11f;" horiz-adv-x="1100" d="M119 527v14q0 254 106.5 396.5t292.5 142.5q119 0 211 -54.5t148 -159.5v194h54v-1041q0 -210 -108 -328t-293 -118q-107 0 -195.5 46t-151.5 132l37 35q62 -78 135.5 -119.5t172.5 -41.5q164 0 255 99.5t94 280.5v163q-55 -91 -148.5 -139.5t-212.5 -48.5 q-184 0 -290.5 146t-106.5 401zM172 520q0 -227 90.5 -357t252.5 -130q135 0 229 62.5t133 174.5v482q-86 275 -360 275q-163 0 -254 -128.5t-91 -378.5zM281 1458h53q0 -89 56 -138.5t164 -49.5q105 0 162.5 50.5t57.5 137.5h53q0 -109 -74 -176t-199 -67t-199 67t-74 176z " />
<glyph unicode="&#x120;" horiz-adv-x="1377" d="M165 596v245q0 175 67.5 314.5t190 215t275.5 75.5q212 0 346 -108.5t156 -296.5h-53q-27 170 -142.5 261.5t-306.5 91.5q-216 0 -348 -154t-132 -405v-227q0 -168 62 -299.5t175 -203.5t259 -72q144 0 266 42.5t169 101.5v416h-437v54h489v-494q-53 -75 -188.5 -124 t-298.5 -49q-158 0 -282.5 77.5t-194.5 218.5t-72 320zM642 1702q0 23 15.5 39t38 16t39 -16t16.5 -38.5t-16.5 -38.5t-39 -16t-38 16t-15.5 38z" />
<glyph unicode="&#x121;" horiz-adv-x="1100" d="M119 527v14q0 254 106.5 396.5t292.5 142.5q119 0 211 -54.5t148 -159.5v194h54v-1041q0 -210 -108 -328t-293 -118q-107 0 -195.5 46t-151.5 132l37 35q62 -78 135.5 -119.5t172.5 -41.5q164 0 255 99.5t94 280.5v163q-55 -91 -148.5 -139.5t-212.5 -48.5 q-184 0 -290.5 146t-106.5 401zM172 520q0 -227 90.5 -357t252.5 -130q135 0 229 62.5t133 174.5v482q-86 275 -360 275q-163 0 -254 -128.5t-91 -378.5zM509 1367q0 23 15.5 39t38 16t39 -16t16.5 -38.5t-16.5 -38.5t-39 -16t-38 16t-15.5 38z" />
<glyph unicode="&#x122;" horiz-adv-x="1377" d="M165 596v245q0 175 67.5 314.5t190 215t275.5 75.5q212 0 346 -108.5t156 -296.5h-53q-27 170 -142.5 261.5t-306.5 91.5q-216 0 -348 -154t-132 -405v-227q0 -168 62 -299.5t175 -203.5t259 -72q144 0 266 42.5t169 101.5v416h-437v54h489v-494q-53 -75 -188.5 -124 t-298.5 -49q-158 0 -282.5 77.5t-194.5 218.5t-72 320zM621 -378q61 85 67 173l1 109h53v-78q-1 -140 -85 -235z" />
<glyph unicode="&#x123;" horiz-adv-x="1100" d="M119 527v14q0 254 106.5 396.5t292.5 142.5q119 0 211 -54.5t148 -159.5v194h54v-1041q0 -210 -108 -328t-293 -118q-107 0 -195.5 46t-151.5 132l37 35q62 -78 135.5 -119.5t172.5 -41.5q164 0 255 99.5t94 280.5v163q-55 -91 -148.5 -139.5t-212.5 -48.5 q-184 0 -290.5 146t-106.5 401zM172 520q0 -227 90.5 -357t252.5 -130q135 0 229 62.5t133 174.5v482q-86 275 -360 275q-163 0 -254 -128.5t-91 -378.5zM528 1248v136q2 80 58 174l43 -16q-46 -93 -48 -153v-141h-53z" />
<glyph unicode="&#x124;" horiz-adv-x="1409" d="M196 0v1427h53v-667h911v667h53v-1427h-53v708h-911v-708h-53zM457 1552v13l225 235h40l229 -238v-10h-67l-183 192l-181 -192h-63z" />
<glyph unicode="&#x125;" d="M169 0v1505h52v-692q52 124 153 195.5t224 71.5q170 0 253 -96.5t84 -291.5v-692h-53v694q-1 170 -69.5 252t-217.5 82q-137 0 -237.5 -97.5t-136.5 -251.5v-679h-52zM219 1551v13l225 235h40l229 -238v-10h-67l-183 192l-181 -192h-63z" />
<glyph unicode="&#x126;" horiz-adv-x="1361" d="M20 1007v52h136v368h53v-368h911v368h53v-368h152v-52h-152v-1007h-53v708h-911v-708h-53v1007h-136zM209 760h911v247h-911v-247z" />
<glyph unicode="&#x127;" horiz-adv-x="1127" d="M30 1255v53h168v197h53v-197h355v-53h-355v-442q52 124 153 195.5t223 71.5q171 0 253.5 -96.5t83.5 -291.5v-692h-53v694q-1 170 -69.5 252t-217.5 82q-137 0 -237.5 -97.5t-135.5 -251.5v-679h-53v1255h-168z" />
<glyph unicode="&#x128;" horiz-adv-x="523" d="M-41 1587q0 79 49 127.5t124 48.5q76 0 150 -61t131 -61q53 0 86 35.5t33 93.5h53q0 -81 -49.5 -132t-122.5 -51q-79 0 -150 61.5t-131 61.5q-55 0 -87 -33.5t-32 -89.5h-54zM235 0v1427h53v-1427h-53z" />
<glyph unicode="&#x129;" horiz-adv-x="397" d="M-99 1252q0 79 49 127.5t124 48.5q76 0 150 -61t131 -61q53 0 86 35.5t33 93.5h53q0 -81 -49.5 -132t-122.5 -51q-79 0 -150 61.5t-131 61.5q-55 0 -87 -33.5t-32 -89.5h-54zM177 0v1060h53v-1060h-53z" />
<glyph unicode="&#x12a;" horiz-adv-x="523" d="M-51 1698v52h615v-52h-615zM235 0v1427h53v-1427h-53z" />
<glyph unicode="&#x12b;" horiz-adv-x="397" d="M-109 1363v52h615v-52h-615zM177 0v1060h53v-1060h-53z" />
<glyph unicode="&#x12c;" horiz-adv-x="523" d="M-11 1774h53q0 -89 56 -138.5t164 -49.5q105 0 162.5 50.5t57.5 137.5h53q0 -109 -74 -176t-199 -67t-199 67t-74 176zM235 0v1427h53v-1427h-53z" />
<glyph unicode="&#x12d;" horiz-adv-x="397" d="M-69 1438h53q0 -89 56 -138.5t164 -49.5q105 0 162.5 50.5t57.5 137.5h53q0 -109 -74 -176t-199 -67t-199 67t-74 176zM177 0v1060h53v-1060h-53z" />
<glyph unicode="&#x12e;" horiz-adv-x="523" d="M53 -231q0 114 195 251l42 -20q-110 -75 -147.5 -127.5t-37.5 -103.5q0 -93 92 -93q56 0 107 37l16 -47q-55 -43 -123 -43q-66 0 -105 35.5t-39 110.5zM235 0v1427h53v-1427h-53z" />
<glyph unicode="&#x12f;" horiz-adv-x="413" d="M-3 -231q0 114 195 251l42 -20q-110 -75 -147.5 -127.5t-37.5 -103.5q0 -93 92 -93q56 0 107 37l16 -47q-55 -43 -123 -43q-66 0 -105 35.5t-39 110.5zM154 1392q0 22 15.5 38t38 16t39 -16t16.5 -38.5t-16.5 -38t-39 -15.5t-38 15.5t-15.5 38.5zM181 0v1060h53v-1060 h-53z" />
<glyph unicode="&#x130;" horiz-adv-x="523" d="M216 1682q0 23 15.5 39t38 16t39 -16t16.5 -38.5t-16.5 -38.5t-39 -16t-38 16t-15.5 38zM235 0v1427h53v-1427h-53z" />
<glyph unicode="&#x131;" horiz-adv-x="397" d="M177 0v1060h53v-1060h-53z" />
<glyph unicode="&#x132;" horiz-adv-x="1625" d="M235 0v1427h53v-1427h-53zM611 393h53q0 -174 89.5 -267t269.5 -93q157 0 256.5 105t101.5 285v1004h53v-994q0 -207 -112.5 -330t-298.5 -123q-200 0 -306 107t-106 306z" />
<glyph unicode="&#x133;" horiz-adv-x="849" d="M154 1392q0 22 15.5 38t38 16t39 -16t16.5 -38.5t-16.5 -38t-39 -15.5t-38 15.5t-15.5 38.5zM181 0v1060h53v-1060h-53zM274 -409l3 51q47 -17 93 -17q110 0 168 65t58 184v1186h53v-1186q0 -147 -73.5 -224.5t-205.5 -77.5q-48 0 -96 19zM574 1392q0 22 15.5 38t38 16 t39 -16t16.5 -38.5t-16.5 -38t-39 -15.5t-38 15.5t-15.5 38.5z" />
<glyph unicode="&#x134;" horiz-adv-x="1102" d="M88 393h53q0 -174 89.5 -267t269.5 -93q157 0 256.5 105t101.5 285v1004h53v-994q0 -207 -112.5 -330t-298.5 -123q-200 0 -306 107t-106 306zM639 1552v13l225 235h40l229 -238v-10h-67l-183 192l-181 -192h-63z" />
<glyph unicode="&#x135;" horiz-adv-x="413" d="M-154 -409l13 51q47 -17 97 -17q110 0 168 74.5t58 213.5v1147h53v-1147q0 -167 -73.5 -254t-205.5 -87q-53 0 -110 19zM-39 1239v13l225 235h40l229 -238v-10h-67l-183 192l-181 -192h-63z" />
<glyph unicode="&#x136;" horiz-adv-x="1274" d="M196 0v1427h53v-825l235 230l592 595h76l-636 -640l685 -787h-68l-656 751l-228 -211v-540h-53zM517 -378q61 85 67 173l1 109h53v-78q-1 -140 -85 -235z" />
<glyph unicode="&#x137;" horiz-adv-x="949" d="M169 0v1505h52v-1008l125 117l482 446h76l-488 -451l518 -609h-69l-488 573l-2 -2l-154 -132v-439h-52zM415 -378q61 85 67 173l1 109h53v-78q-1 -140 -85 -235z" />
<glyph unicode="&#x138;" horiz-adv-x="1062" d="M168 0v1060h53v-490h175l479 490h68l-498 -518l559 -542h-69l-549 518h-165v-518h-53z" />
<glyph unicode="&#x139;" horiz-adv-x="1035" d="M188 1476l186 261h64l-191 -261h-59zM196 0v1427h54v-1374h732v-53h-786z" />
<glyph unicode="&#x13a;" horiz-adv-x="413" d="M170 1597l186 261h64l-191 -261h-59zM181 0v1505h53v-1505h-53z" />
<glyph unicode="&#x13b;" horiz-adv-x="1035" d="M196 0v1427h54v-1374h732v-53h-786zM519 -378q61 85 67 173l1 109h53v-78q-1 -140 -85 -235z" />
<glyph unicode="&#x13c;" horiz-adv-x="413" d="M118 -378q61 85 67 173l1 109h53v-78q-1 -140 -85 -235zM181 0v1505h53v-1505h-53z" />
<glyph unicode="&#x13d;" horiz-adv-x="1035" d="M196 0v1427h54v-1374h732v-53h-786zM529 1144q61 85 67 173l1 109h53v-78q-1 -140 -85 -235z" />
<glyph unicode="&#x13e;" horiz-adv-x="560" d="M181 0v1505h53v-1505h-53zM381 1224q61 85 67 173l1 109h53v-78q-1 -140 -85 -235z" />
<glyph unicode="&#x13f;" horiz-adv-x="1035" d="M196 0v1427h54v-1374h732v-53h-786zM595 742q0 23 15.5 39t38 16t39 -16t16.5 -38.5t-16.5 -38.5t-39 -16t-38 16t-15.5 38z" />
<glyph unicode="&#x140;" horiz-adv-x="629" d="M181 0v1505h53v-1505h-53zM395 780q0 23 15.5 39t38 16t39 -16t16.5 -38.5t-16.5 -38.5t-39 -16t-38 16t-15.5 38z" />
<glyph unicode="&#x141;" horiz-adv-x="1039" d="M8 645v56l180 57v669h54v-652l344 109v-56l-344 -109v-666h732v-53h-786v702z" />
<glyph unicode="&#x142;" horiz-adv-x="494" d="M17 670v58l210 83v694h53v-672l197 78v-57l-197 -79v-775h-53v754z" />
<glyph unicode="&#x143;" horiz-adv-x="1420" d="M196 0v1427h54l921 -1334v1334h53v-1427h-53l-921 1337v-1337h-54zM672 1538l186 261h64l-191 -261h-59z" />
<glyph unicode="&#x144;" d="M169 0v1060h52v-247q52 124 153 195.5t224 71.5q170 0 253 -96.5t84 -291.5v-692h-53v694q-1 170 -69.5 252t-217.5 82q-137 0 -237.5 -97.5t-136.5 -251.5v-679h-52zM527 1223l186 261h64l-191 -261h-59z" />
<glyph unicode="&#x145;" horiz-adv-x="1420" d="M196 0v1427h54l921 -1334v1334h53v-1427h-53l-921 1337v-1337h-54zM618 -378q61 85 67 173l1 109h53v-78q-1 -140 -85 -235z" />
<glyph unicode="&#x146;" d="M169 0v1060h52v-247q52 124 153 195.5t224 71.5q170 0 253 -96.5t84 -291.5v-692h-53v694q-1 170 -69.5 252t-217.5 82q-137 0 -237.5 -97.5t-136.5 -251.5v-679h-52zM473 -378q61 85 67 173l1 109h53v-78q-1 -140 -85 -235z" />
<glyph unicode="&#x147;" horiz-adv-x="1420" d="M196 0v1427h54l921 -1334v1334h53v-1427h-53l-921 1337v-1337h-54zM465 1783v11h56l189 -213l190 213h52v-13l-213 -245h-58z" />
<glyph unicode="&#x148;" d="M169 0v1060h52v-247q52 124 153 195.5t224 71.5q170 0 253 -96.5t84 -291.5v-692h-53v694q-1 170 -69.5 252t-217.5 82q-137 0 -237.5 -97.5t-136.5 -251.5v-679h-52zM320 1467v11h56l189 -213l190 213h52v-13l-213 -245h-58z" />
<glyph unicode="&#x149;" d="M-26 1224q61 85 67 173l1 109h53v-78q-1 -140 -85 -235zM169 0v1060h52v-247q52 124 153 195.5t224 71.5q170 0 253 -96.5t84 -291.5v-692h-53v694q-1 170 -69.5 252t-217.5 82q-137 0 -237.5 -97.5t-136.5 -251.5v-679h-52z" />
<glyph unicode="&#x14a;" horiz-adv-x="1421" d="M196 0v1427h53l923 -1336v1336h53v-1514q0 -167 -74 -254t-205 -87q-53 0 -110 19l13 51q47 -17 97 -17q108 0 167 74.5t59 213.5v87l-923 1337v-1337h-53z" />
<glyph unicode="&#x14b;" d="M167 0v1060h47l6 -219q47 111 138 175t230 64q173 0 259 -107.5t88 -336.5v-723q0 -167 -74 -254t-205 -87q-64 0 -131 19l13 51q56 -18 118 -18q108 0 167 75t59 214v713q0 202 -70.5 301.5t-222.5 99.5q-155 0 -250 -93t-119 -268v-666h-53z" />
<glyph unicode="&#x14c;" horiz-adv-x="1336" d="M130 614v206q0 184 66.5 327.5t189.5 221t281 77.5q160 0 283 -77.5t189.5 -221t66.5 -327.5v-213q0 -186 -66 -328.5t-188.5 -220.5t-282.5 -78q-241 0 -390 171.5t-149 462.5zM184 607q0 -171 59.5 -302t169 -201.5t256.5 -70.5q224 0 354 156t130 425v208 q0 259 -131 415.5t-355 156.5q-220 0 -351.5 -155.5t-131.5 -423.5v-208zM348 1719v52h615v-52h-615z" />
<glyph unicode="&#x14d;" horiz-adv-x="1104" d="M88 504v47q0 152 58.5 273t164.5 188.5t241 67.5q133 0 239 -65.5t165 -186t60 -271.5v-47q0 -153 -57.5 -273.5t-164 -188.5t-241 -68t-240.5 67t-165 187t-60 270zM141 510q0 -133 52.5 -243t146 -172t214.5 -62q181 0 295 136.5t114 350.5v31q0 130 -52.5 241 t-146.5 173t-212 62q-182 0 -296.5 -138t-114.5 -348v-31zM241 1383v52h615v-52h-615z" />
<glyph unicode="&#x14e;" horiz-adv-x="1336" d="M130 614v206q0 184 66.5 327.5t189.5 221t281 77.5q160 0 283 -77.5t189.5 -221t66.5 -327.5v-213q0 -186 -66 -328.5t-188.5 -220.5t-282.5 -78q-241 0 -390 171.5t-149 462.5zM184 607q0 -171 59.5 -302t169 -201.5t256.5 -70.5q224 0 354 156t130 425v208 q0 259 -131 415.5t-355 156.5q-220 0 -351.5 -155.5t-131.5 -423.5v-208zM388 1794h53q0 -89 56 -138.5t164 -49.5q105 0 162.5 50.5t57.5 137.5h53q0 -109 -74 -176t-199 -67t-199 67t-74 176z" />
<glyph unicode="&#x14f;" horiz-adv-x="1104" d="M88 504v47q0 152 58.5 273t164.5 188.5t241 67.5q133 0 239 -65.5t165 -186t60 -271.5v-47q0 -153 -57.5 -273.5t-164 -188.5t-241 -68t-240.5 67t-165 187t-60 270zM141 510q0 -133 52.5 -243t146 -172t214.5 -62q181 0 295 136.5t114 350.5v31q0 130 -52.5 241 t-146.5 173t-212 62q-182 0 -296.5 -138t-114.5 -348v-31zM281 1458h53q0 -89 56 -138.5t164 -49.5q105 0 162.5 50.5t57.5 137.5h53q0 -109 -74 -176t-199 -67t-199 67t-74 176z" />
<glyph unicode="&#x150;" horiz-adv-x="1336" d="M130 614v206q0 184 66.5 327.5t189.5 221t281 77.5q160 0 283 -77.5t189.5 -221t66.5 -327.5v-213q0 -186 -66 -328.5t-188.5 -220.5t-282.5 -78q-241 0 -390 171.5t-149 462.5zM184 607q0 -171 59.5 -302t169 -201.5t256.5 -70.5q224 0 354 156t130 425v208 q0 259 -131 415.5t-355 156.5q-220 0 -351.5 -155.5t-131.5 -423.5v-208zM482 1540l231 298h75l-238 -298h-68zM712 1540l276 298h78l-282 -298h-72z" />
<glyph unicode="&#x151;" horiz-adv-x="1104" d="M88 504v47q0 152 58.5 273t164.5 188.5t241 67.5q133 0 239 -65.5t165 -186t60 -271.5v-47q0 -153 -57.5 -273.5t-164 -188.5t-241 -68t-240.5 67t-165 187t-60 270zM141 510q0 -133 52.5 -243t146 -172t214.5 -62q181 0 295 136.5t114 350.5v31q0 130 -52.5 241 t-146.5 173t-212 62q-182 0 -296.5 -138t-114.5 -348v-31zM375 1205l231 298h75l-238 -298h-68zM605 1205l276 298h78l-282 -298h-72z" />
<glyph unicode="&#x152;" horiz-adv-x="1835" d="M110 554v308q0 169 63 302.5t179.5 207.5t263.5 74q140 0 326 -19h823v-53h-815v-614h715v-52h-715v-655h815v-53h-823q-195 -21 -324 -21q-147 0 -262.5 73t-179.5 205t-66 297zM163 564q0 -154 57 -276t161 -189t237 -67q175 0 279 13v1336q-105 13 -281 13 q-204 0 -328.5 -145t-124.5 -391v-294z" />
<glyph unicode="&#x153;" horiz-adv-x="1885" d="M90 504v47q0 152 58.5 273t164.5 188.5t241 67.5q162 0 278.5 -93t162.5 -255q45 158 157.5 253t259.5 95q181 0 293.5 -118.5t112.5 -318.5v-78h-795v-75q0 -123 51.5 -229t142.5 -167t198 -61q227 0 335 129l29 -41q-126 -141 -364 -141q-144 0 -260.5 95.5 t-161.5 248.5q-47 -163 -164.5 -253.5t-272.5 -90.5q-135 0 -241 67t-165 187t-60 270zM143 510q0 -133 52.5 -243t146 -172t214.5 -62q181 0 295 136.5t114 350.5v31q0 130 -53 241t-146.5 173t-211.5 62q-182 0 -296.5 -138t-114.5 -348v-31zM1026 618h739v33 q0 165 -99.5 270.5t-253.5 105.5q-155 0 -261 -114t-125 -295z" />
<glyph unicode="&#x154;" horiz-adv-x="1313" d="M191 0v1427h455q214 0 341 -111t127 -301q0 -146 -90.5 -255t-230.5 -136l381 -610v-14h-56l-379 611h-495v-611h-53zM244 663h450q164 0 265.5 100t101.5 252q0 167 -112 263t-307 96h-398v-711zM554 1538l186 261h64l-191 -261h-59z" />
<glyph unicode="&#x155;" horiz-adv-x="671" d="M169 0v1060h52v-220q44 111 130 175.5t216 64.5q46 0 75 -11l-6 -47l-69 6q-135 0 -226 -87.5t-120 -245.5v-695h-52zM365 1223l186 261h64l-191 -261h-59z" />
<glyph unicode="&#x156;" horiz-adv-x="1313" d="M191 0v1427h455q214 0 341 -111t127 -301q0 -146 -90.5 -255t-230.5 -136l381 -610v-14h-56l-379 611h-495v-611h-53zM244 663h450q164 0 265.5 100t101.5 252q0 167 -112 263t-307 96h-398v-711zM501 -378q61 85 67 173l1 109h53v-78q-1 -140 -85 -235z" />
<glyph unicode="&#x157;" horiz-adv-x="671" d="M103 -378q61 85 67 173l1 109h53v-78q-1 -140 -85 -235zM169 0v1060h52v-220q44 111 130 175.5t216 64.5q46 0 75 -11l-6 -47l-69 6q-135 0 -226 -87.5t-120 -245.5v-695h-52z" />
<glyph unicode="&#x158;" horiz-adv-x="1313" d="M191 0v1427h455q214 0 341 -111t127 -301q0 -146 -90.5 -255t-230.5 -136l381 -610v-14h-56l-379 611h-495v-611h-53zM244 663h450q164 0 265.5 100t101.5 252q0 167 -112 263t-307 96h-398v-711zM348 1783v11h56l189 -213l190 213h52v-13l-213 -245h-58z" />
<glyph unicode="&#x159;" horiz-adv-x="671" d="M158 1467v11h56l189 -213l190 213h52v-13l-213 -245h-58zM169 0v1060h52v-220q44 111 130 175.5t216 64.5q46 0 75 -11l-6 -47l-69 6q-135 0 -226 -87.5t-120 -245.5v-695h-52z" />
<glyph unicode="&#x15a;" horiz-adv-x="1186" d="M94 403h53q0 -176 131.5 -273t341.5 -97q188 0 309.5 86t121.5 223q0 91 -43 154.5t-134.5 112t-276.5 99.5t-278 102.5t-136 120.5t-43 167q0 155 131.5 251.5t341.5 96.5q138 0 247 -53t169 -149.5t60 -218.5h-53q0 160 -117.5 264.5t-305.5 104.5t-304 -84t-116 -210 q0 -129 101 -207.5t333 -138.5t340 -140q137 -100 137 -270q0 -108 -60.5 -190.5t-172 -128t-251.5 -45.5q-154 0 -277.5 51.5t-186 146.5t-62.5 225zM580 1558l186 261h64l-191 -261h-59z" />
<glyph unicode="&#x15b;" horiz-adv-x="998" d="M106 270h53q8 -112 98.5 -174.5t245.5 -62.5q142 0 230.5 66.5t88.5 160.5q0 193 -329 262q-198 42 -275.5 108.5t-77.5 181.5q0 117 98.5 192.5t256.5 75.5q171 0 275 -82t104 -221h-54q0 107 -90 178.5t-235 71.5q-139 0 -220.5 -60.5t-81.5 -152.5q0 -71 30.5 -111.5 t99 -73.5t200 -63.5t208 -71.5t110.5 -97.5t34 -137.5q0 -126 -103 -202.5t-269 -76.5q-179 0 -288 81t-109 209zM462 1223l186 261h64l-191 -261h-59z" />
<glyph unicode="&#x15c;" horiz-adv-x="1186" d="M94 403h53q0 -176 131.5 -273t341.5 -97q188 0 309.5 86t121.5 223q0 91 -43 154.5t-134.5 112t-276.5 99.5t-278 102.5t-136 120.5t-43 167q0 155 131.5 251.5t341.5 96.5q138 0 247 -53t169 -149.5t60 -218.5h-53q0 160 -117.5 264.5t-305.5 104.5t-304 -84t-116 -210 q0 -129 101 -207.5t333 -138.5t340 -140q137 -100 137 -270q0 -108 -60.5 -190.5t-172 -128t-251.5 -45.5q-154 0 -277.5 51.5t-186 146.5t-62.5 225zM374 1552v13l225 235h40l229 -238v-10h-67l-183 192l-181 -192h-63z" />
<glyph unicode="&#x15d;" horiz-adv-x="998" d="M106 270h53q8 -112 98.5 -174.5t245.5 -62.5q142 0 230.5 66.5t88.5 160.5q0 193 -329 262q-198 42 -275.5 108.5t-77.5 181.5q0 117 98.5 192.5t256.5 75.5q171 0 275 -82t104 -221h-54q0 107 -90 178.5t-235 71.5q-139 0 -220.5 -60.5t-81.5 -152.5q0 -71 30.5 -111.5 t99 -73.5t200 -63.5t208 -71.5t110.5 -97.5t34 -137.5q0 -126 -103 -202.5t-269 -76.5q-179 0 -288 81t-109 209zM257 1239v13l225 235h40l229 -238v-10h-67l-183 192l-181 -192h-63z" />
<glyph unicode="&#x15e;" horiz-adv-x="1186" d="M94 403h53q0 -176 131.5 -273t341.5 -97q188 0 309.5 86t121.5 223q0 91 -43 154.5t-134.5 112t-276.5 99.5t-278 102.5t-136 120.5t-43 167q0 155 131.5 251.5t341.5 96.5q138 0 247 -53t169 -149.5t60 -218.5h-53q0 160 -117.5 264.5t-305.5 104.5t-304 -84t-116 -210 q0 -129 101 -207.5t333 -138.5t340 -140q137 -100 137 -270q0 -108 -60.5 -190.5t-172 -128t-251.5 -45.5q-154 0 -277.5 51.5t-186 146.5t-62.5 225zM523 -387q99 0 166 38.5t67 99.5q0 55 -38 82.5t-148 38.5l25 119h52l-11 -74q174 -16 174 -166q0 -83 -74.5 -134.5 t-205.5 -51.5z" />
<glyph unicode="&#x15f;" horiz-adv-x="998" d="M106 270h53q8 -112 98.5 -174.5t245.5 -62.5q142 0 230.5 66.5t88.5 160.5q0 193 -329 262q-198 42 -275.5 108.5t-77.5 181.5q0 117 98.5 192.5t256.5 75.5q171 0 275 -82t104 -221h-54q0 107 -90 178.5t-235 71.5q-139 0 -220.5 -60.5t-81.5 -152.5q0 -71 30.5 -111.5 t99 -73.5t200 -63.5t208 -71.5t110.5 -97.5t34 -137.5q0 -126 -103 -202.5t-269 -76.5q-179 0 -288 81t-109 209zM405 -382q99 0 166 38.5t67 99.5q0 55 -38 82.5t-148 38.5l25 119h52l-11 -74q174 -16 174 -166q0 -83 -74.5 -134.5t-205.5 -51.5z" />
<glyph unicode="&#x160;" horiz-adv-x="1186" d="M94 403h53q0 -176 131.5 -273t341.5 -97q188 0 309.5 86t121.5 223q0 91 -43 154.5t-134.5 112t-276.5 99.5t-278 102.5t-136 120.5t-43 167q0 155 131.5 251.5t341.5 96.5q138 0 247 -53t169 -149.5t60 -218.5h-53q0 160 -117.5 264.5t-305.5 104.5t-304 -84t-116 -210 q0 -129 101 -207.5t333 -138.5t340 -140q137 -100 137 -270q0 -108 -60.5 -190.5t-172 -128t-251.5 -45.5q-154 0 -277.5 51.5t-186 146.5t-62.5 225zM373 1803v11h56l189 -213l190 213h52v-13l-213 -245h-58z" />
<glyph unicode="&#x161;" horiz-adv-x="998" d="M106 270h53q8 -112 98.5 -174.5t245.5 -62.5q142 0 230.5 66.5t88.5 160.5q0 193 -329 262q-198 42 -275.5 108.5t-77.5 181.5q0 117 98.5 192.5t256.5 75.5q171 0 275 -82t104 -221h-54q0 107 -90 178.5t-235 71.5q-139 0 -220.5 -60.5t-81.5 -152.5q0 -71 30.5 -111.5 t99 -73.5t200 -63.5t208 -71.5t110.5 -97.5t34 -137.5q0 -126 -103 -202.5t-269 -76.5q-179 0 -288 81t-109 209zM255 1467v11h56l189 -213l190 213h52v-13l-213 -245h-58z" />
<glyph unicode="&#x162;" horiz-adv-x="1199" d="M54 1374v53h1092v-53h-520v-1374h-53v1374h-519zM503 -378q99 0 166 38.5t67 99.5q0 55 -38 82.5t-148 38.5l25 119h52l-11 -74q174 -16 174 -166q0 -83 -74.5 -134.5t-205.5 -51.5z" />
<glyph unicode="&#x163;" horiz-adv-x="635" d="M37 1006v54h196v287h54v-287h241v-54h-241v-752q0 -113 37 -167t123 -54q43 0 105 9l9 -50q-33 -12 -111 -12q-116 0 -166 64.5t-51 202.5v759h-196zM308 -378q99 0 166 38.5t67 99.5q0 55 -38 82.5t-148 38.5l25 119h52l-11 -74q174 -16 174 -166q0 -83 -74.5 -134.5 t-205.5 -51.5z" />
<glyph unicode="&#x164;" horiz-adv-x="1199" d="M54 1374v53h1092v-53h-520v-1374h-53v1374h-519zM351 1775v11h56l189 -213l190 213h52v-13l-213 -245h-58z" />
<glyph unicode="&#x165;" horiz-adv-x="674" d="M37 1006v54h196v287h54v-287h241v-54h-241v-752q0 -113 37 -167t123 -54q43 0 105 9l9 -50q-33 -12 -111 -12q-116 0 -166 64.5t-51 202.5v759h-196zM442 1247q61 85 67 173l1 109h53v-78q-1 -140 -85 -235z" />
<glyph unicode="&#x166;" horiz-adv-x="1199" d="M54 1374v53h1092v-53h-520v-491h244v-53h-244v-830h-53v830h-278v53h278v491h-519z" />
<glyph unicode="&#x167;" horiz-adv-x="635" d="M37 1006v54h196v287h54v-287h241v-54h-241v-332h328v-53h-328v-367q0 -113 37 -167t123 -54q43 0 105 9l9 -50q-33 -12 -111 -12q-114 0 -164 62t-53 195v384h-193v53h193v332h-196z" />
<glyph unicode="&#x168;" horiz-adv-x="1337" d="M181 457v970h53v-964q0 -198 119 -314t316 -116t315.5 116t118.5 315v963h53v-966q0 -227 -131 -354t-355.5 -127t-356 127t-132.5 350zM378 1587q0 79 49 127.5t124 48.5q76 0 150 -61t131 -61q53 0 86 35.5t33 93.5h53q0 -81 -49.5 -132t-122.5 -51q-79 0 -150 61.5 t-131 61.5q-55 0 -87 -33.5t-32 -89.5h-54z" />
<glyph unicode="&#x169;" d="M165 377v683h53v-685q2 -168 76 -255t218 -87q151 0 246.5 71.5t120.5 210.5v745h54v-1060h-54v172q-47 -89 -137 -140.5t-228 -51.5q-174 0 -260.5 101.5t-88.5 295.5zM263 1275q0 79 49 127.5t124 48.5q76 0 150 -61t131 -61q53 0 86 35.5t33 93.5h53q0 -81 -49.5 -132 t-122.5 -51q-79 0 -150 61.5t-131 61.5q-55 0 -87 -33.5t-32 -89.5h-54z" />
<glyph unicode="&#x16a;" horiz-adv-x="1337" d="M181 457v970h53v-964q0 -198 119 -314t316 -116t315.5 116t118.5 315v963h53v-966q0 -227 -131 -354t-355.5 -127t-356 127t-132.5 350zM368 1698v52h615v-52h-615z" />
<glyph unicode="&#x16b;" d="M165 377v683h53v-685q2 -168 76 -255t218 -87q151 0 246.5 71.5t120.5 210.5v745h54v-1060h-54v172q-47 -89 -137 -140.5t-228 -51.5q-174 0 -260.5 101.5t-88.5 295.5zM254 1386v52h615v-52h-615z" />
<glyph unicode="&#x16c;" horiz-adv-x="1337" d="M181 457v970h53v-964q0 -198 119 -314t316 -116t315.5 116t118.5 315v963h53v-966q0 -227 -131 -354t-355.5 -127t-356 127t-132.5 350zM409 1774h53q0 -89 56 -138.5t164 -49.5q105 0 162.5 50.5t57.5 137.5h53q0 -109 -74 -176t-199 -67t-199 67t-74 176z" />
<glyph unicode="&#x16d;" d="M165 377v683h53v-685q2 -168 76 -255t218 -87q151 0 246.5 71.5t120.5 210.5v745h54v-1060h-54v172q-47 -89 -137 -140.5t-228 -51.5q-174 0 -260.5 101.5t-88.5 295.5zM294 1461h53q0 -89 56 -138.5t164 -49.5q105 0 162.5 50.5t57.5 137.5h53q0 -109 -74 -176t-199 -67 t-199 67t-74 176z" />
<glyph unicode="&#x16e;" horiz-adv-x="1337" d="M181 457v970h53v-964q0 -198 119 -314t316 -116t315.5 116t118.5 315v963h53v-966q0 -227 -131 -354t-355.5 -127t-356 127t-132.5 350zM518 1667.5q0 73.5 49.5 122t117.5 48.5q71 0 119.5 -50t48.5 -120.5t-48.5 -118.5t-119.5 -48q-67 0 -117 46.5t-50 120zM571 1667 q0 -51 32 -82t82 -31t82.5 31t32.5 82q0 53 -32.5 85.5t-82.5 32.5t-82 -32.5t-32 -85.5z" />
<glyph unicode="&#x16f;" d="M165 377v683h53v-685q2 -168 76 -255t218 -87q151 0 246.5 71.5t120.5 210.5v745h54v-1060h-54v172q-47 -89 -137 -140.5t-228 -51.5q-174 0 -260.5 101.5t-88.5 295.5zM403 1354.5q0 73.5 49.5 122t117.5 48.5q71 0 119.5 -50t48.5 -120.5t-48.5 -118.5t-119.5 -48 q-67 0 -117 46.5t-50 120zM456 1354q0 -51 32 -82t82 -31t82.5 31t32.5 82q0 53 -32.5 85.5t-82.5 32.5t-82 -32.5t-32 -85.5z" />
<glyph unicode="&#x170;" horiz-adv-x="1337" d="M181 457v970h53v-964q0 -198 119 -314t316 -116t315.5 116t118.5 315v963h53v-966q0 -227 -131 -354t-355.5 -127t-356 127t-132.5 350zM503 1520l231 298h75l-238 -298h-68zM733 1520l276 298h78l-282 -298h-72z" />
<glyph unicode="&#x171;" d="M165 377v683h53v-685q2 -168 76 -255t218 -87q151 0 246.5 71.5t120.5 210.5v745h54v-1060h-54v172q-47 -89 -137 -140.5t-228 -51.5q-174 0 -260.5 101.5t-88.5 295.5zM388 1207l231 298h75l-238 -298h-68zM618 1207l276 298h78l-282 -298h-72z" />
<glyph unicode="&#x172;" horiz-adv-x="1337" d="M181 457v970h53v-964q0 -198 119 -314t316 -116t315.5 116t118.5 315v963h53v-967q0 -161 -65 -268t-174 -160q-109 -85 -146.5 -137.5t-37.5 -103.5q0 -93 91 -93q56 0 108 37l16 -47q-55 -43 -124 -43q-65 0 -104.5 36t-39.5 110q0 88 125 203q-67 -14 -136 -14 q-224 0 -355.5 127t-132.5 350z" />
<glyph unicode="&#x173;" d="M165 377v683h53v-685q2 -168 76 -255t218 -87q151 0 246.5 71.5t120.5 210.5v745h54v-1060h-1q-110 -85 -147 -137.5t-37 -103.5q0 -93 91 -93q56 0 108 37l15 -47q-55 -43 -123 -43q-66 0 -105 35.5t-39 110.5q0 110 184 252v161q-47 -89 -137 -140.5t-228 -51.5 q-174 0 -260.5 101.5t-88.5 295.5z" />
<glyph unicode="&#x174;" horiz-adv-x="1817" d="M60 1427h59l296 -1104l64 -235l65 235l337 1104h59l335 -1104l64 -235l66 235l294 1104h58l-384 -1427h-60l-354 1190l-50 151l-48 -151l-356 -1190h-60zM663 1552v13l225 235h40l229 -238v-10h-67l-183 192l-181 -192h-63z" />
<glyph unicode="&#x175;" horiz-adv-x="1519" d="M81 1060h61l217 -753l57 -229l311 982h54l309 -982l60 229l215 753h62l-309 -1060h-53l-261 797l-50 190l-54 -190l-258 -797h-53zM507 1239v13l225 235h40l229 -238v-10h-67l-183 192l-181 -192h-63z" />
<glyph unicode="&#x176;" horiz-adv-x="1198" d="M32 1427h71l494 -837l500 837h64l-538 -885v-542h-53v542zM351 1552v13l225 235h40l229 -238v-10h-67l-183 192l-181 -192h-63z" />
<glyph unicode="&#x177;" horiz-adv-x="958" d="M42 1060h58l393 -978l7 20l366 958h59l-474 -1244l-24 -59q-76 -185 -253 -185q-56 0 -78 11l-1 49q31 -8 72 -8q83 0 138 48.5t95 157.5l65 176zM264 1239v13l225 235h40l229 -238v-10h-67l-183 192l-181 -192h-63z" />
<glyph unicode="&#x178;" horiz-adv-x="1198" d="M32 1427h71l494 -837l500 837h64l-538 -885v-542h-53v542zM335 1695q0 22 16 38t38.5 16t38.5 -16t16 -38.5t-16 -38t-38.5 -15.5t-38.5 15.5t-16 38.5zM771 1695q0 22 16 38t38.5 16t38.5 -16t16 -38.5t-16 -38t-38.5 -15.5t-38.5 15.5t-16 38.5z" />
<glyph unicode="&#x179;" horiz-adv-x="1199" d="M92 0v43l911 1332h-872v52h945v-37l-911 -1337h942v-53h-1015zM557 1538l186 261h64l-191 -261h-59z" />
<glyph unicode="&#x17a;" horiz-adv-x="958" d="M85 0v43l697 963h-666v54h738v-47l-697 -960h754v-53h-826zM460 1225l186 261h64l-191 -261h-59z" />
<glyph unicode="&#x17b;" horiz-adv-x="1199" d="M92 0v43l911 1332h-872v52h945v-37l-911 -1337h942v-53h-1015zM550 1682q0 23 15.5 39t38 16t39 -16t16.5 -38.5t-16.5 -38.5t-39 -16t-38 16t-15.5 38z" />
<glyph unicode="&#x17c;" horiz-adv-x="958" d="M85 0v43l697 963h-666v54h738v-47l-697 -960h754v-53h-826zM453 1369q0 23 15.5 39t38 16t39 -16t16.5 -38.5t-16.5 -38.5t-39 -16t-38 16t-15.5 38z" />
<glyph unicode="&#x17d;" horiz-adv-x="1199" d="M92 0v43l911 1332h-872v52h945v-37l-911 -1337h942v-53h-1015zM351 1783v11h56l189 -213l190 213h52v-13l-213 -245h-58z" />
<glyph unicode="&#x17e;" horiz-adv-x="958" d="M85 0v43l697 963h-666v54h738v-47l-697 -960h754v-53h-826zM254 1470v11h56l189 -213l190 213h52v-13l-213 -245h-58z" />
<glyph unicode="&#x17f;" horiz-adv-x="413" d="M171 0v1211q0 153 73 234t203 81q73 0 125 -17l-8 -51q-50 15 -116 15q-105 0 -165 -68t-60 -194v-1211h-52z" />
<glyph unicode="&#x18f;" horiz-adv-x="1422" d="M153 581v116h1095v121q0 270 -141 423t-394 153q-144 0 -255 -42.5t-190 -108.5l-30 42l62 48q162 113 413 113q271 0 429 -168t158 -470v-158q0 -192 -72 -345.5t-200.5 -239t-288.5 -85.5q-269 0 -427.5 162.5t-158.5 438.5zM206 572q0 -155 64.5 -278t186 -192 t282.5 -69q148 0 262.5 76.5t180 218t66.5 315.5h-1042v-71z" />
<glyph unicode="&#x192;" horiz-adv-x="631" d="M-88 -409l13 51q47 -17 97 -17q109 0 167.5 74.5t58.5 213.5v1093h-184v54h184v155q1 147 74 229t203 82q73 0 126 -17l-8 -51q-51 15 -117 15q-105 0 -165 -68t-60 -194v-151h280v-54h-280v-1093q0 -167 -73.5 -254t-205.5 -87q-53 0 -110 19z" />
<glyph unicode="&#x1a0;" horiz-adv-x="1421" d="M161 614v206q0 184 66 327.5t189 221t282 77.5q145 0 255 -61.5t181 -171.5q127 2 185 66.5t58 230.5h53q0 -170 -64 -254t-203 -95q72 -146 74 -332v-222q0 -186 -66.5 -328.5t-189 -220.5t-281.5 -78q-241 0 -390 171.5t-149 462.5zM215 607q0 -171 59 -302t169 -201.5 t257 -70.5q223 0 353.5 156t130.5 425v208q0 259 -131.5 415.5t-354.5 156.5q-221 0 -352 -155.5t-131 -423.5v-208z" />
<glyph unicode="&#x1a1;" horiz-adv-x="1099" d="M85 504v47q0 152 58.5 273t165 188.5t240.5 67.5q205 0 334 -146q106 3 152 53.5t46 184.5h54q0 -140 -50.5 -208t-163.5 -81q90 -137 92 -325v-48q0 -153 -57.5 -273.5t-164 -188.5t-241 -68t-240.5 67t-165 187t-60 270zM138 510q0 -133 52.5 -243t146 -172t214.5 -62 q181 0 295 136.5t114 350.5v31q0 130 -52.5 241t-146.5 173t-212 62q-181 0 -296 -138t-115 -348v-31z" />
<glyph unicode="&#x1af;" horiz-adv-x="1337" d="M181 457v970h53v-964q0 -198 119 -314t316 -116t315.5 116t118.5 315v963h53v-204q120 5 175 70.5t55 226.5h53q0 -179 -69 -261.5t-214 -88.5v-709q0 -227 -131 -354t-355.5 -127t-356 127t-132.5 350z" />
<glyph unicode="&#x1b0;" horiz-adv-x="1110" d="M165 377v683h53v-685q2 -168 76 -255t218 -87q151 0 246.5 71.5t120.5 210.5v745h54v-132q93 7 134.5 58t41.5 180h54q0 -145 -55 -213.5t-175 -77.5v-875h-54v172q-47 -89 -137 -140.5t-228 -51.5q-174 0 -260.5 101.5t-88.5 295.5z" />
<glyph unicode="&#x1f0;" horiz-adv-x="413" d="M-154 -409l13 51q47 -17 97 -17q110 0 168 74.5t58 213.5v1147h53v-1147q0 -167 -73.5 -254t-205.5 -87q-53 0 -110 19zM-40 1428v11h56l189 -213l190 213h52v-13l-213 -245h-58z" />
<glyph unicode="&#x1fa;" horiz-adv-x="1198" d="M32 0l534 1427h65l534 -1427h-58l-159 426h-699l-159 -426h-58zM269 479h659l-329 884zM464 1503q0 57 40 98t96.5 41t95.5 -42t39 -97q0 -54 -39 -94.5t-96 -40.5t-96.5 40t-39.5 95zM514 1503q0 -37 25.5 -61.5t61 -24.5t60 24.5t24.5 61.5q0 39 -24.5 64t-60 25 t-61 -25t-25.5 -64zM576 1695l166 187h79l-180 -187h-65z" />
<glyph unicode="&#x1fb;" horiz-adv-x="1059" d="M90 269q0 146 132 233.5t350 89.5h262v155q0 133 -84 206.5t-239 73.5q-145 0 -242 -74.5t-97 -184.5l-53 2q0 130 113.5 220t278.5 90q171 0 272 -86t104 -241v-507q0 -174 27 -237v-9h-60q-20 68 -20 194q-63 -102 -171.5 -158t-246.5 -56q-146 0 -236 80t-90 209z M143 265q0 -97 77.5 -165t195.5 -68q149 0 256.5 67t161.5 187v252h-245q-227 0 -348 -90q-98 -74 -98 -183zM430 1190q0 57 40 98t96.5 41t95.5 -42t39 -97q0 -54 -39 -94.5t-96 -40.5t-96.5 40t-39.5 95zM480 1190q0 -37 25.5 -61.5t61 -24.5t60 24.5t24.5 61.5 q0 39 -24.5 64t-60 25t-61 -25t-25.5 -64zM542 1382l166 187h79l-180 -187h-65z" />
<glyph unicode="&#x1fc;" horiz-adv-x="1779" d="M49 0l863 1427h761v-53h-682l25 -604h576v-53h-574l28 -664h687v-53h-737l-18 416h-614l-251 -416h-64zM395 468h581l-38 902zM912 1538l186 261h64l-191 -261h-59z" />
<glyph unicode="&#x1fd;" horiz-adv-x="1700" d="M91 278q0 155 108.5 246t306.5 93h291v89q0 152 -70.5 236.5t-215.5 84.5q-155 0 -247.5 -74.5t-92.5 -196.5l-52 6q0 143 109 230.5t283 87.5q138 0 223.5 -72.5t108.5 -209.5q55 134 156.5 208t228.5 74q182 0 289 -114t107 -323v-78h-771v-75q0 -214 102 -335.5 t288 -121.5q200 0 325 128l29 -41q-77 -78 -162 -109t-192 -31q-144 0 -242.5 66.5t-149.5 178.5v-11h1q-47 -105 -159.5 -169.5t-253.5 -64.5q-165 0 -256.5 80.5t-91.5 217.5zM145 274q0 -113 75 -178t218 -65q79 0 155.5 28t133 74t70.5 87v344h-295 q-164 -3 -260.5 -81.5t-96.5 -208.5zM802 1224l186 261h64l-191 -261h-59zM856 619h715v32q0 170 -91.5 273t-251.5 103q-150 0 -252 -111t-120 -297z" />
<glyph unicode="&#x1fe;" horiz-adv-x="1336" d="M130 616v204q0 184 66.5 327.5t189.5 221t281 77.5q227 0 375 -153l109 172h64l-137 -215q127 -169 128 -428v-215q0 -186 -66 -328.5t-188.5 -220.5t-282.5 -78q-191 0 -327 110l-104 -164h-65l128 201q-171 173 -171 489zM184 607q0 -279 146 -435l682 1076 q-129 146 -345 146q-220 0 -351.5 -155.5t-131.5 -423.5v-208zM370 134q122 -101 299 -101q224 0 354 156t130 425v208q0 232 -104 380zM658 1598l186 261h64l-191 -261h-59z" />
<glyph unicode="&#x1ff;" d="M85 512v39q0 152 58.5 273t165 188.5t240.5 67.5q117 0 219 -54l83 169h61l-97 -199q93 -69 145.5 -183.5t52.5 -261.5v-41q0 -153 -57.5 -273.5t-164 -188.5t-240.5 -68q-110 0 -206 47l-82 -169h-62l96 197q-101 67 -156.5 187.5t-55.5 269.5zM138 510 q0 -130 48.5 -236t133.5 -169l424 870q-86 52 -195 52q-181 0 -296 -138t-115 -348v-31zM368 75q82 -42 183 -42q181 0 295 136.5t114 350.5v31q0 119 -44.5 223t-125.5 170zM460 1222l186 261h64l-191 -261h-59z" />
<glyph unicode="&#x218;" horiz-adv-x="1186" d="M94 403h53q0 -176 131.5 -273t341.5 -97q188 0 309.5 86t121.5 223q0 91 -43 154.5t-134.5 112t-276.5 99.5t-278 102.5t-136 120.5t-43 167q0 155 131.5 251.5t341.5 96.5q138 0 247 -53t169 -149.5t60 -218.5h-53q0 160 -117.5 264.5t-305.5 104.5t-304 -84t-116 -210 q0 -129 101 -207.5t333 -138.5t340 -140q137 -100 137 -270q0 -108 -60.5 -190.5t-172 -128t-251.5 -45.5q-154 0 -277.5 51.5t-186 146.5t-62.5 225zM526 -378q61 85 67 173l1 109h53v-78q-1 -140 -85 -235z" />
<glyph unicode="&#x219;" horiz-adv-x="998" d="M106 270h53q8 -112 98.5 -174.5t245.5 -62.5q142 0 230.5 66.5t88.5 160.5q0 193 -329 262q-198 42 -275.5 108.5t-77.5 181.5q0 117 98.5 192.5t256.5 75.5q171 0 275 -82t104 -221h-54q0 107 -90 178.5t-235 71.5q-139 0 -220.5 -60.5t-81.5 -152.5q0 -71 30.5 -111.5 t99 -73.5t200 -63.5t208 -71.5t110.5 -97.5t34 -137.5q0 -126 -103 -202.5t-269 -76.5q-179 0 -288 81t-109 209zM409 -378q61 85 67 173l1 109h53v-78q-1 -140 -85 -235z" />
<glyph unicode="&#x21a;" horiz-adv-x="1199" d="M54 1374v53h1092v-53h-520v-1374h-53v1374h-519zM507 -378q61 85 67 173l1 109h53v-78q-1 -140 -85 -235z" />
<glyph unicode="&#x21b;" horiz-adv-x="635" d="M37 1006v54h196v287h54v-287h241v-54h-241v-752q0 -113 37 -167t123 -54q43 0 105 9l9 -50q-33 -12 -111 -12q-116 0 -166 64.5t-51 202.5v759h-196zM312 -378q61 85 67 173l1 109h53v-78q-1 -140 -85 -235z" />
<glyph unicode="&#x2c6;" horiz-adv-x="780" d="M149 1239v13l225 235h40l229 -238v-10h-67l-183 192l-181 -192h-63z" />
<glyph unicode="&#x2c7;" horiz-adv-x="748" d="M133 1465v11h56l189 -213l190 213h52v-13l-213 -245h-58z" />
<glyph unicode="&#x2d8;" horiz-adv-x="839" d="M144 1456h53q0 -89 56 -138.5t164 -49.5q105 0 162.5 50.5t57.5 137.5h53q0 -109 -74 -176t-199 -67t-199 67t-74 176z" />
<glyph unicode="&#x2d9;" horiz-adv-x="413" d="M153 1369q0 23 15.5 39t38 16t39 -16t16.5 -38.5t-16.5 -38.5t-39 -16t-38 16t-15.5 38z" />
<glyph unicode="&#x2da;" horiz-adv-x="574" d="M112 1354.5q0 73.5 49.5 122t117.5 48.5q71 0 119.5 -50t48.5 -120.5t-48.5 -118.5t-119.5 -48q-67 0 -117 46.5t-50 120zM165 1354q0 -51 32 -82t82 -31t82.5 31t32.5 82q0 53 -32.5 85.5t-82.5 32.5t-82 -32.5t-32 -85.5z" />
<glyph unicode="&#x2db;" horiz-adv-x="461" d="M70 -231q0 114 195 251l42 -20q-110 -75 -147.5 -127.5t-37.5 -103.5q0 -93 92 -93q56 0 107 37l16 -47q-55 -43 -123 -43q-66 0 -105 35.5t-39 110.5z" />
<glyph unicode="&#x2dc;" horiz-adv-x="800" d="M88 1260q0 79 49 127.5t124 48.5q76 0 150 -61t131 -61q53 0 86 35.5t33 93.5h53q0 -81 -49.5 -132t-122.5 -51q-79 0 -150 61.5t-131 61.5q-55 0 -87 -33.5t-32 -89.5h-54z" />
<glyph unicode="&#x2dd;" horiz-adv-x="767" d="M143 1207l231 298h75l-238 -298h-68zM373 1207l276 298h78l-282 -298h-72z" />
<glyph unicode="&#x3c0;" horiz-adv-x="1194" d="M61 1006v54h1046v-54h-210v-740q0 -113 36.5 -167t122.5 -54q44 0 105 9l9 -50q-32 -12 -111 -12q-115 0 -165 64.5t-51 202.5v747h-538v-1006h-53v1006h-191z" />
<glyph unicode="&#x400;" horiz-adv-x="1142" d="M196 0v1427h868v-53h-815v-614h715v-52h-715v-655h815v-53h-868zM400 1799h65l184 -261h-58z" />
<glyph unicode="&#x401;" horiz-adv-x="1142" d="M196 0v1427h868v-53h-815v-614h715v-52h-715v-655h815v-53h-868zM346 1706q0 22 16 38t38.5 16t38.5 -16t16 -38.5t-16 -38t-38.5 -15.5t-38.5 15.5t-16 38.5zM782 1706q0 22 16 38t38.5 16t38.5 -16t16 -38.5t-16 -38t-38.5 -15.5t-38.5 15.5t-16 38.5z" />
<glyph unicode="&#x402;" horiz-adv-x="1482" d="M65 1374v53h1091v-53h-597v-601q80 39 182 64t181 25q231 0 351 -116.5t120 -338.5q0 -115 -62.5 -216t-162.5 -151.5t-226 -50.5v50q118 0 207.5 48t140 134t50.5 186q0 194 -108.5 298.5t-309.5 104.5q-168 0 -363 -90v-720h-53v1374h-441z" />
<glyph unicode="&#x403;" horiz-adv-x="1099" d="M189 0v1427h845v-53h-792v-1374h-53zM558 1538l186 261h64l-191 -261h-59z" />
<glyph unicode="&#x404;" horiz-adv-x="1298" d="M141 600v220q0 183 64 326.5t182 221.5t271 78q223 0 355.5 -117.5t152.5 -336.5h-53q-22 197 -137 299.5t-318 102.5q-208 0 -336 -157t-128 -421v-65h631v-53h-631v-91q0 -169 57 -299t163 -202.5t244 -72.5q204 0 319.5 101t135.5 303h53q-20 -220 -151.5 -338.5 t-356.5 -118.5q-152 0 -269.5 77t-182 218.5t-65.5 324.5z" />
<glyph unicode="&#x405;" horiz-adv-x="1186" d="M94 403h53q0 -176 131.5 -273t341.5 -97q188 0 309.5 86t121.5 223q0 91 -43 154.5t-134.5 112t-276.5 99.5t-278 102.5t-136 120.5t-43 167q0 155 131.5 251.5t341.5 96.5q138 0 247 -53t169 -149.5t60 -218.5h-53q0 160 -117.5 264.5t-305.5 104.5t-304 -84t-116 -210 q0 -129 101 -207.5t333 -138.5t340 -140q137 -100 137 -270q0 -108 -60.5 -190.5t-172 -128t-251.5 -45.5q-154 0 -277.5 51.5t-186 146.5t-62.5 225z" />
<glyph unicode="&#x406;" horiz-adv-x="523" d="M235 0v1427h53v-1427h-53z" />
<glyph unicode="&#x407;" horiz-adv-x="523" d="M3 1706q0 22 16 38t38.5 16t38.5 -16t16 -38.5t-16 -38t-38.5 -15.5t-38.5 15.5t-16 38.5zM235 0v1427h53v-1427h-53zM439 1706q0 22 16 38t38.5 16t38.5 -16t16 -38.5t-16 -38t-38.5 -15.5t-38.5 15.5t-16 38.5z" />
<glyph unicode="&#x408;" horiz-adv-x="1102" d="M88 393h53q0 -174 89.5 -267t269.5 -93q157 0 256.5 105t101.5 285v1004h53v-994q0 -207 -112.5 -330t-298.5 -123q-200 0 -306 107t-106 306z" />
<glyph unicode="&#x409;" horiz-adv-x="2086" d="M53 0v53h47q98 3 150.5 62t84 200t50.5 417l46 695h699v-635h376q208 -4 328 -109.5t120 -286.5q0 -180 -122 -287.5t-338 -108.5h-417v1374h-597l-43 -655q-23 -320 -60.5 -458.5t-102.5 -198t-178 -62.5h-43zM1130 53h362q191 0 300 93t109 252q0 152 -107.5 245.5 t-293.5 95.5h-370v-686z" />
<glyph unicode="&#x40a;" horiz-adv-x="2164" d="M191 0v1427h53v-694h911v694h53v-633h377q207 -4 327.5 -109.5t120.5 -287.5q0 -180 -122.5 -288.5t-342.5 -108.5h-413v680h-911v-680h-53zM1208 52h362q189 0 299.5 93t110.5 254q0 153 -107.5 245.5t-285.5 96.5h-379v-689z" />
<glyph unicode="&#x40b;" horiz-adv-x="1596" d="M45 1374v53h1092v-53h-578v-634q228 62 400 62q242 0 355 -105.5t115 -324.5v-372h-53v376q-3 189 -104.5 281t-312.5 92q-189 0 -400 -62v-687h-53v1374h-461z" />
<glyph unicode="&#x40c;" horiz-adv-x="1274" d="M196 0v1427h53v-825l235 230l592 595h76l-636 -640l685 -787h-68l-656 751l-228 -211v-540h-53zM550 1538l186 261h64l-191 -261h-59z" />
<glyph unicode="&#x40d;" horiz-adv-x="1420" d="M196 0v1427h53v-1334l922 1334h53v-1427h-53v1337l-922 -1337h-53zM514 1799h65l184 -261h-58z" />
<glyph unicode="&#x40e;" horiz-adv-x="1257" d="M32 1427h66l557 -985l487 985h64l-586 -1173l-35 -67q-115 -208 -312 -208q-55 0 -85 13l15 50q27 -10 75 -10q86 0 153 51.5t128 171.5l66 130zM359 1774h53q0 -89 56 -138.5t164 -49.5q105 0 162.5 50.5t57.5 137.5h53q0 -109 -74 -176t-199 -67t-199 67t-74 176z" />
<glyph unicode="&#x40f;" horiz-adv-x="1399" d="M191 0v1427h53v-1374h911v1374h53v-1427h-478v-342h-53v342h-486z" />
<glyph unicode="&#x410;" horiz-adv-x="1198" d="M32 0l534 1427h65l534 -1427h-58l-159 426h-699l-159 -426h-58zM269 479h659l-329 884z" />
<glyph unicode="&#x411;" horiz-adv-x="1254" d="M189 0v1427h845v-53h-792v-602h373q209 -3 329.5 -104.5t120.5 -281.5q0 -178 -121 -281.5t-336 -104.5h-419zM242 53h362q194 0 300.5 89.5t106.5 245.5q0 149 -105 239t-294 92h-370v-666z" />
<glyph unicode="&#x412;" horiz-adv-x="1210" d="M196 0v1427h375q231 0 349 -93.5t118 -272.5q0 -129 -66 -214.5t-185 -108.5q135 -18 225 -117.5t90 -227.5q0 -182 -118 -287.5t-328 -105.5h-460zM249 53h413q181 0 284.5 89.5t103.5 248.5q0 135 -100 223t-268 91h-433v-652zM249 758h342q195 0 294 74.5t99 232.5 q0 304 -401 309h-334v-616z" />
<glyph unicode="&#x413;" horiz-adv-x="1099" d="M189 0v1427h845v-53h-792v-1374h-53z" />
<glyph unicode="&#x414;" horiz-adv-x="1396" d="M90 53h75q72 68 140 213.5t108 333t49 374.5l20 453h725v-1374h118v-395h-54v342h-1128v-342h-53v395zM232 53h922v1321h-622l-18 -402q-14 -268 -85.5 -514t-178.5 -384z" />
<glyph unicode="&#x415;" horiz-adv-x="1142" d="M196 0v1427h868v-53h-815v-614h715v-52h-715v-655h815v-53h-868z" />
<glyph unicode="&#x416;" horiz-adv-x="1710" d="M19 0l580 722l-546 705h69l519 -668h183v668h53v-668h182l519 668h68l-545 -705l581 -722h-71l-566 706h-168v-706h-53v706h-169l-566 -706h-70z" />
<glyph unicode="&#x417;" horiz-adv-x="1196" d="M98 396h54q0 -158 122 -261t317 -103q215 0 334 90.5t119 251.5q0 164 -108 244.5t-337 82.5h-193v55h187q211 1 319.5 78t108.5 231q0 158 -112.5 243.5t-317.5 85.5q-179 0 -299 -94.5t-120 -245.5h-53q0 113 61 202.5t171.5 139.5t239.5 50q230 0 356.5 -101 t126.5 -284q0 -118 -77 -206.5t-208 -124.5q308 -65 308 -352q0 -182 -138.5 -290.5t-367.5 -108.5q-140 0 -255 54t-176.5 147t-61.5 216z" />
<glyph unicode="&#x418;" horiz-adv-x="1420" d="M196 0v1427h53v-1334l922 1334h53v-1427h-53v1337l-922 -1337h-53z" />
<glyph unicode="&#x419;" horiz-adv-x="1420" d="M196 0v1427h53v-1334l922 1334h53v-1427h-53v1337l-922 -1337h-53zM447 1774h53q0 -89 56 -138.5t164 -49.5q105 0 162.5 50.5t57.5 137.5h53q0 -109 -74 -176t-199 -67t-199 67t-74 176z" />
<glyph unicode="&#x41a;" horiz-adv-x="1274" d="M196 0v1427h53v-678h233l606 678h69l-631 -712l676 -715h-69l-666 697h-218v-697h-53z" />
<glyph unicode="&#x41b;" horiz-adv-x="1399" d="M33 0v53h47q98 3 150.5 62t84 200t51.5 417l46 695h796v-1427h-53v1374h-694l-44 -655q-23 -320 -60.5 -458.5t-102.5 -198t-178 -62.5h-43z" />
<glyph unicode="&#x41c;" horiz-adv-x="1720" d="M196 0v1427h75l587 -1350l589 1350h78v-1427h-53v1348l-592 -1348h-42l-589 1342v-1342h-53z" />
<glyph unicode="&#x41d;" horiz-adv-x="1409" d="M196 0v1427h53v-667h911v667h53v-1427h-53v708h-911v-708h-53z" />
<glyph unicode="&#x41e;" horiz-adv-x="1336" d="M130 614v206q0 184 66.5 327.5t189.5 221t281 77.5q160 0 283 -77.5t189.5 -221t66.5 -327.5v-213q0 -186 -66 -328.5t-188.5 -220.5t-282.5 -78q-241 0 -390 171.5t-149 462.5zM184 607q0 -171 59.5 -302t169 -201.5t256.5 -70.5q224 0 354 156t130 425v208 q0 259 -131 415.5t-355 156.5q-220 0 -351.5 -155.5t-131.5 -423.5v-208z" />
<glyph unicode="&#x41f;" horiz-adv-x="1409" d="M196 0v1427h1017v-1427h-53v1374h-911v-1374h-53z" />
<glyph unicode="&#x420;" horiz-adv-x="1205" d="M196 0v1427h446q218 0 339 -110.5t121 -306.5q0 -194 -118 -299.5t-335 -107.5h-400v-603h-53zM249 656h393q193 0 300.5 93t107.5 259q0 173 -107.5 269.5t-300.5 96.5h-393v-718z" />
<glyph unicode="&#x421;" horiz-adv-x="1300" d="M141 600v220q0 183 64 326.5t182 221.5t271 78q223 0 355.5 -117.5t152.5 -336.5h-53q-22 197 -137 299.5t-318 102.5q-208 0 -336 -157t-128 -421v-209q0 -169 57 -299t163 -202.5t244 -72.5q204 0 319.5 101t135.5 303h53q-20 -220 -151.5 -338.5t-356.5 -118.5 q-152 0 -269.5 77t-182 218.5t-65.5 324.5z" />
<glyph unicode="&#x422;" horiz-adv-x="1199" d="M54 1374v53h1092v-53h-520v-1374h-53v1374h-519z" />
<glyph unicode="&#x423;" horiz-adv-x="1257" d="M32 1427h66l557 -985l487 985h64l-586 -1173l-35 -67q-115 -208 -312 -208q-55 0 -85 13l15 50q27 -10 75 -10q86 0 153 51.5t128 171.5l66 130z" />
<glyph unicode="&#x424;" horiz-adv-x="1432" d="M69 722q0 155 72 282t205 200t301 76h41v207h54v-207h34q171 -1 305 -72.5t208.5 -199.5t74.5 -284q0 -157 -75 -285.5t-210.5 -200.5t-308.5 -72h-28v-225h-54v225h-31q-172 1 -306 72.5t-208 198.5t-74 285zM122 722q0 -144 66.5 -259t187 -179t277.5 -65h35v1008h-25 q-159 0 -282.5 -64.5t-191 -181t-67.5 -259.5zM742 219h29q158 0 280.5 63t190.5 179.5t68 262.5q0 142 -66 257.5t-188 180t-278 65.5h-36v-1008z" />
<glyph unicode="&#x425;" horiz-adv-x="1198" d="M53 0l512 728l-493 699h66l461 -658l460 658h67l-494 -699l513 -728h-66l-480 687l-482 -687h-64z" />
<glyph unicode="&#x426;" horiz-adv-x="1397" d="M180 0v1427h53v-1374h912v1374h53v-1374h130v-397h-53v344h-1095z" />
<glyph unicode="&#x427;" horiz-adv-x="1298" d="M191 1078v349h53v-357q3 -189 104.5 -280.5t312.5 -91.5q189 0 393 59v670h53v-1427h-53v705q-216 -60 -393 -60q-243 0 -356 105.5t-114 327.5z" />
<glyph unicode="&#x428;" horiz-adv-x="1828" d="M184 0v1427h54v-1374h650v1374h54v-1374h650v1374h52v-1427h-1460z" />
<glyph unicode="&#x429;" horiz-adv-x="1839" d="M184 0v1427h54v-1374h650v1374h54v-1374h650v1374h52v-1374h127v-397h-53v344h-1534z" />
<glyph unicode="&#x42a;" horiz-adv-x="1584" d="M-36 1374v53h608v-655h374q208 -3 329 -104.5t121 -281.5q0 -178 -121.5 -281.5t-336.5 -104.5h-419v1374h-555zM572 53h362q194 0 301 89.5t107 245.5q0 149 -105.5 239t-293.5 92h-371v-666z" />
<glyph unicode="&#x42b;" horiz-adv-x="1615" d="M189 0v1427h53v-655h373q209 -3 329.5 -104.5t120.5 -281.5q0 -178 -121 -281.5t-336 -104.5h-419zM242 53h362q194 0 300.5 89.5t106.5 245.5q0 149 -105 239t-294 92h-370v-666zM1365 0v1427h53v-1427h-53z" />
<glyph unicode="&#x42c;" horiz-adv-x="1198" d="M189 0v1427h53v-655h373q209 -3 329.5 -104.5t120.5 -281.5q0 -178 -121 -281.5t-336 -104.5h-419zM242 53h362q194 0 300.5 89.5t106.5 245.5q0 149 -105 239t-294 92h-370v-666z" />
<glyph unicode="&#x42d;" horiz-adv-x="1298" d="M132 437h53q21 -202 136 -303t320 -101q206 0 334.5 156.5t128.5 424.5v82h-629v53h629v73q0 258 -127.5 415t-335.5 157q-204 0 -318.5 -102.5t-137.5 -299.5h-53q21 219 153 336.5t356 117.5q152 0 269 -76.5t181 -217.5t66 -321v-224q0 -185 -64 -328t-182 -221 t-270 -78q-226 0 -357 119t-152 338z" />
<glyph unicode="&#x42e;" horiz-adv-x="1858" d="M231 0v1427h53v-656h321v40q0 293 148 464t389 171q159 0 282 -77.5t190 -221t67 -327.5v-213q0 -186 -66.5 -328.5t-189 -220.5t-281.5 -78q-241 0 -390 171.5t-149 462.5v104h-321v-718h-53zM659 607q0 -171 59 -302t169 -201.5t257 -70.5q223 0 353.5 156t130.5 425 v208q0 259 -131.5 415.5t-354.5 156.5q-221 0 -352 -155.5t-131 -423.5v-208z" />
<glyph unicode="&#x42f;" horiz-adv-x="1176" d="M93 0l340 619l-5 5q-134 40 -208.5 138t-74.5 236q0 202 123 315.5t345 113.5h414v-1427h-54v607h-492l-327 -607h-61zM198 1000q0 -155 96.5 -247t256.5 -92h422v713h-363q-197 0 -304.5 -96t-107.5 -278z" />
<glyph unicode="&#x430;" horiz-adv-x="1059" d="M90 269q0 146 132 233.5t350 89.5h262v155q0 133 -84 206.5t-239 73.5q-145 0 -242 -74.5t-97 -184.5l-53 2q0 130 113.5 220t278.5 90q171 0 272 -86t104 -241v-507q0 -174 27 -237v-9h-60q-20 68 -20 194q-63 -102 -171.5 -158t-246.5 -56q-146 0 -236 80t-90 209z M143 265q0 -97 77.5 -165t195.5 -68q149 0 256.5 67t161.5 187v252h-245q-227 0 -348 -90q-98 -74 -98 -183z" />
<glyph unicode="&#x431;" horiz-adv-x="1099" d="M95 470v110q0 320 126 520.5t349 232.5q155 21 225 65.5t70 123.5h53q0 -103 -85.5 -163.5t-250.5 -78t-274.5 -150.5t-145.5 -360q58 99 160 155.5t237 56.5q205 0 335 -131t130 -348v-33q0 -141 -59 -253.5t-165 -174.5t-239 -62q-135 0 -242 63t-165.5 174.5 t-58.5 252.5zM148 470q0 -121 52.5 -222t146 -158t214.5 -57q180 0 294.5 125t114.5 322v32q0 114 -52 210.5t-146 151.5t-213 55q-182 0 -296.5 -120t-114.5 -306v-33z" />
<glyph unicode="&#x432;" d="M177 0v1060h365q193 0 295.5 -70t102.5 -204q0 -88 -54.5 -154t-155.5 -88h1q108 -12 181.5 -84.5t73.5 -172.5q0 -136 -100.5 -211.5t-280.5 -75.5h-428zM230 53h380q151 0 237.5 60.5t86.5 172.5q0 100 -87.5 162.5t-239.5 62.5h-377v-458zM230 564h332 q160 0 242.5 56.5t82.5 168.5q0 114 -88.5 165.5t-256.5 51.5h-312v-442z" />
<glyph unicode="&#x433;" horiz-adv-x="849" d="M169 0v1060h637v-54h-585v-1006h-52z" />
<glyph unicode="&#x434;" horiz-adv-x="1089" d="M58 53h70l38 50q144 197 167 571l21 386h569v-1007h84v-365h-52v312h-854v-312h-43v365zM193 53h677v954h-466l-19 -350q-27 -399 -192 -604z" />
<glyph unicode="&#x435;" horiz-adv-x="1011" d="M85 507v44q0 147 59 269.5t162 191t224 68.5q178 0 290.5 -126.5t112.5 -332.5v-56h-795v-57q0 -130 54.5 -240t150 -173t207.5 -63q107 0 182 36t132 110l38 -26q-119 -172 -352 -172q-129 0 -236 69.5t-168 190t-61 267.5zM141 618h739v13q0 108 -45.5 200.5 t-125.5 144t-179 51.5q-155 0 -262.5 -115t-126.5 -294z" />
<glyph unicode="&#x436;" horiz-adv-x="1542" d="M26 0l501 541l-439 519h66l421 -490h161v490h53v-490h164l420 490h68l-442 -519l502 -541h-69l-490 517h-153v-517h-53v517h-152l-488 -517h-70z" />
<glyph unicode="&#x437;" horiz-adv-x="1014" d="M107 295h54q0 -110 98 -185t247 -75q168 0 255 66.5t87 179.5q0 123 -85 178t-254 55h-148v54h158q310 5 310 221q0 113 -83 175.5t-241 62.5q-137 0 -232 -69.5t-95 -174.5h-54q0 128 111.5 212.5t269.5 84.5q180 0 279 -78t99 -216q0 -83 -54 -148t-152 -95 q225 -51 225 -259q0 -139 -107.5 -221t-288.5 -82q-106 0 -199 39.5t-146.5 110t-53.5 164.5z" />
<glyph unicode="&#x438;" d="M169 0v1060h52v-966l656 966h54v-1060h-54v966l-656 -966h-52z" />
<glyph unicode="&#x439;" d="M169 0v1060h52v-966l656 966h54v-1060h-54v966l-656 -966h-52zM269 1438h53q0 -89 56 -138.5t164 -49.5q105 0 162.5 50.5t57.5 137.5h53q0 -109 -74 -176t-199 -67t-199 67t-74 176z" />
<glyph unicode="&#x43a;" horiz-adv-x="995" d="M168 0v1060h53v-490h204l421 490h76l-451 -519l513 -541h-79l-489 518h-195v-518h-53z" />
<glyph unicode="&#x43b;" horiz-adv-x="1099" d="M43 0v52h44q100 4 146.5 105t61.5 337l23 566h613v-1060h-54v1006h-508l-20 -495q-16 -284 -76 -396.5t-193 -114.5h-37z" />
<glyph unicode="&#x43c;" horiz-adv-x="1446" d="M177 0v1060h73l482 -980l482 980h64v-1060h-54v958l-471 -958h-42l-481 982v-982h-53z" />
<glyph unicode="&#x43d;" d="M169 0v1060h52v-489h656v489h54v-1060h-54v518h-656v-518h-52z" />
<glyph unicode="&#x43e;" horiz-adv-x="1104" d="M88 504v47q0 152 58.5 273t164.5 188.5t241 67.5q133 0 239 -65.5t165 -186t60 -271.5v-47q0 -153 -57.5 -273.5t-164 -188.5t-241 -68t-240.5 67t-165 187t-60 270zM141 510q0 -133 52.5 -243t146 -172t214.5 -62q181 0 295 136.5t114 350.5v31q0 130 -52.5 241 t-146.5 173t-212 62q-182 0 -296.5 -138t-114.5 -348v-31z" />
<glyph unicode="&#x43f;" d="M169 0v1060h762v-1060h-54v1006h-656v-1006h-52z" />
<glyph unicode="&#x440;" d="M167 -408v1468h53v-189q54 101 147.5 155t211.5 54q186 0 293 -142.5t107 -400.5v-17q0 -248 -107 -394t-291 -146q-120 0 -214.5 49t-146.5 136v-573h-53zM220 264q41 -110 134.5 -170.5t227.5 -60.5q163 0 253 129.5t90 378.5q0 228 -90.5 357t-254.5 129 q-133 0 -226 -69t-134 -198v-496z" />
<glyph unicode="&#x441;" horiz-adv-x="1018" d="M95 515v36q0 241 117 385t314 144q169 0 278.5 -101t116.5 -269h-53q-7 144 -100.5 230.5t-241.5 86.5q-177 0 -277.5 -128t-100.5 -355v-34q0 -223 101.5 -350t278.5 -127q144 0 237.5 76.5t102.5 211.5h53q-8 -153 -118.5 -247t-274.5 -94q-199 0 -316 144.5 t-117 390.5z" />
<glyph unicode="&#x442;" horiz-adv-x="942" d="M39 1006v54h865v-54h-417v-1006h-53v1006h-395z" />
<glyph unicode="&#x443;" horiz-adv-x="958" d="M42 1060h58l393 -978l7 20l366 958h59l-474 -1244l-24 -59q-76 -185 -253 -185q-56 0 -78 11l-1 49q31 -8 72 -8q83 0 138 48.5t95 157.5l65 176z" />
<glyph unicode="&#x444;" horiz-adv-x="1454" d="M120 531q0 252 100.5 400.5t279.5 148.5q121 0 202 -66v491h53v-490q77 65 200 65q175 0 276 -144.5t104 -391.5v-33q0 -247 -101.5 -389.5t-277.5 -142.5q-119 0 -201 61v-448h-53v448q-85 -61 -204 -61q-167 0 -268 130t-109 360zM174 511q0 -229 85 -354t238 -125 q108 0 184 53l21 15v844q-56 83 -203 83q-151 0 -238 -131.5t-87 -384.5zM755 99q83 -67 202 -67q156 0 240.5 126.5t84.5 372.5q0 229 -86 362.5t-240 133.5q-148 0 -201 -81v-847z" />
<glyph unicode="&#x445;" horiz-adv-x="958" d="M54 0l392 544l-372 516h66l339 -470l338 470h67l-372 -516l392 -544h-66l-360 498l-358 -498h-66z" />
<glyph unicode="&#x446;" horiz-adv-x="1097" d="M169 0v1060h52v-1007h656v1007h54v-1007h89v-368h-53v315h-798z" />
<glyph unicode="&#x447;" horiz-adv-x="1045" d="M115 829v231h53v-231q0 -130 33 -204t105 -106.5t209 -32.5q79 4 168.5 26t140.5 50v498h53v-1060h-53v512q-70 -35 -159 -57t-150 -22q-158 0 -240.5 38t-121 123.5t-38.5 234.5z" />
<glyph unicode="&#x448;" horiz-adv-x="1562" d="M169 0v1060h52v-1007h556v1007h54v-1007h547v1007h53v-1060h-1262z" />
<glyph unicode="&#x449;" horiz-adv-x="1560" d="M169 0v1060h52v-1007h556v1007h54v-1007h547v1007h53v-1007h106v-368h-53v315h-1315z" />
<glyph unicode="&#x44a;" horiz-adv-x="1282" d="M39 1007v53h415v-403h348q169 -3 269 -92t100 -237q0 -147 -99 -236t-270 -92h-401v1007h-362zM454 53h338q153 0 239.5 75t86.5 202q0 122 -84.5 197t-233.5 77h-346v-551z" />
<glyph unicode="&#x44b;" horiz-adv-x="1456" d="M177 0v1060h53v-403h348q170 -3 270 -92t100 -237q0 -147 -99 -236t-271 -92h-401zM230 53h338q153 0 240 75t87 202q0 122 -85 197t-234 77h-346v-551zM1236 0v1060h53v-1060h-53z" />
<glyph unicode="&#x44c;" horiz-adv-x="1058" d="M177 0v1060h53v-403h348q170 -3 270 -92t100 -237q0 -147 -99 -236t-271 -92h-401zM230 53h338q153 0 240 75t87 202q0 122 -85 197t-234 77h-346v-551z" />
<glyph unicode="&#x44d;" horiz-adv-x="1067" d="M120 355h54q0 -147 91 -234.5t241 -87.5q176 0 281 128t107 345h-561v53h561q-2 212 -106 340t-284 128q-148 0 -239 -79.5t-91 -213.5h-54q0 153 110.5 249.5t273.5 96.5q200 0 321.5 -144.5t121.5 -391.5v-34q0 -240 -121.5 -385t-319.5 -145q-174 0 -280 102.5 t-106 272.5z" />
<glyph unicode="&#x44e;" horiz-adv-x="1625" d="M177 0v1060h53v-514h351q0 239 130 386.5t334 147.5q133 0 239 -65.5t165 -186t60 -271.5v-47q0 -153 -57.5 -273.5t-164 -188.5t-240.5 -68q-132 0 -237 64.5t-165 181.5t-64 267h-351v-493h-53zM634 510q0 -133 52.5 -243t146 -172t214.5 -62q181 0 295 136.5 t114 350.5v31q0 130 -53 241t-146.5 173t-211.5 62q-182 0 -296.5 -138t-114.5 -348v-31z" />
<glyph unicode="&#x44f;" horiz-adv-x="1078" d="M136 0l268 446q-115 19 -181.5 100t-66.5 205q0 138 93.5 222t254.5 87h402v-1060h-53v441h-388l-266 -441h-63zM209 749q0 -115 69 -183.5t187 -70.5h388v511h-339q-144 0 -224.5 -68.5t-80.5 -188.5z" />
<glyph unicode="&#x450;" horiz-adv-x="1011" d="M85 507v44q0 147 59 269.5t162 191t224 68.5q178 0 290.5 -126.5t112.5 -332.5v-56h-795v-57q0 -130 54.5 -240t150 -173t207.5 -63q107 0 182 36t132 110l38 -26q-119 -172 -352 -172q-129 0 -236 69.5t-168 190t-61 267.5zM141 618h739v13q0 108 -45.5 200.5 t-125.5 144t-179 51.5q-155 0 -262.5 -115t-126.5 -294zM349 1485h65l184 -261h-58z" />
<glyph unicode="&#x451;" horiz-adv-x="1011" d="M85 507v44q0 147 59 269.5t162 191t224 68.5q178 0 290.5 -126.5t112.5 -332.5v-56h-795v-57q0 -130 54.5 -240t150 -173t207.5 -63q107 0 182 36t132 110l38 -26q-119 -172 -352 -172q-129 0 -236 69.5t-168 190t-61 267.5zM141 618h739v13q0 108 -45.5 200.5 t-125.5 144t-179 51.5q-155 0 -262.5 -115t-126.5 -294zM295 1392q0 22 16 38t38.5 16t38.5 -16t16 -38.5t-16 -38t-38.5 -15.5t-38.5 15.5t-16 38.5zM731 1392q0 22 16 38t38.5 16t38.5 -16t16 -38.5t-16 -38t-38.5 -15.5t-38.5 15.5t-16 38.5z" />
<glyph unicode="&#x452;" d="M-28 1236v53h197v216h52v-216h326v-53h-326v-423q52 124 153 195.5t224 71.5q170 0 253 -96.5t84 -291.5v-779q0 -167 -74 -254t-206 -87q-63 0 -130 19l13 51q53 -17 117 -17q109 0 168 74.5t59 213.5v773q0 175 -68 258.5t-219 83.5q-137 0 -237.5 -97.5t-136.5 -251.5 v-679h-52v1236h-197z" />
<glyph unicode="&#x453;" horiz-adv-x="849" d="M169 0v1060h637v-54h-585v-1006h-52zM374 1202l186 261h64l-191 -261h-59z" />
<glyph unicode="&#x454;" horiz-adv-x="1067" d="M110 515v36q0 241 117 385t314 144q169 0 278.5 -101t116.5 -269h-53q-7 144 -100.5 230.5t-241.5 86.5q-175 0 -275.5 -125.5t-102.5 -342.5h569v-53h-569q0 -218 100.5 -345.5t279.5 -127.5q144 0 237.5 76.5t102.5 211.5h53q-8 -153 -118.5 -247t-274.5 -94 q-199 0 -316 144.5t-117 390.5z" />
<glyph unicode="&#x455;" horiz-adv-x="998" d="M106 270h53q8 -112 98.5 -174.5t245.5 -62.5q142 0 230.5 66.5t88.5 160.5q0 193 -329 262q-198 42 -275.5 108.5t-77.5 181.5q0 117 98.5 192.5t256.5 75.5q171 0 275 -82t104 -221h-54q0 107 -90 178.5t-235 71.5q-139 0 -220.5 -60.5t-81.5 -152.5q0 -71 30.5 -111.5 t99 -73.5t200 -63.5t208 -71.5t110.5 -97.5t34 -137.5q0 -126 -103 -202.5t-269 -76.5q-179 0 -288 81t-109 209z" />
<glyph unicode="&#x456;" horiz-adv-x="413" d="M154 1392q0 22 15.5 38t38 16t39 -16t16.5 -38.5t-16.5 -38t-39 -15.5t-38 15.5t-15.5 38.5zM181 0v1060h53v-1060h-53z" />
<glyph unicode="&#x457;" horiz-adv-x="397" d="M-55 1370q0 22 16 38t38.5 16t38.5 -16t16 -38.5t-16 -38t-38.5 -15.5t-38.5 15.5t-16 38.5zM177 0v1060h53v-1060h-53zM381 1370q0 22 16 38t38.5 16t38.5 -16t16 -38.5t-16 -38t-38.5 -15.5t-38.5 15.5t-16 38.5z" />
<glyph unicode="&#x458;" horiz-adv-x="436" d="M-140 -409l3 51q47 -17 93 -17q110 0 168 65t58 184v1186h53v-1186q0 -147 -73.5 -224.5t-205.5 -77.5q-48 0 -96 19zM160 1392q0 22 15.5 38t38 16t39 -16t16.5 -38.5t-16.5 -38t-39 -15.5t-38 15.5t-15.5 38.5z" />
<glyph unicode="&#x459;" horiz-adv-x="1728" d="M33 0v52h44q100 4 146.5 105t61.5 337l24 566h622v-443h349q168 -3 268 -86.5t100 -221.5q0 -137 -98.5 -221.5t-268.5 -87.5h-404v1006h-517l-21 -495q-16 -284 -76 -396.5t-192 -114.5h-38zM931 53h338q155 0 240.5 70t85.5 188q0 112 -84 181.5t-230 71.5h-350v-511z " />
<glyph unicode="&#x45a;" horiz-adv-x="1728" d="M169 0v1060h52v-441h656v441h54v-443h349q168 -3 268 -86.5t100 -221.5q0 -137 -98.5 -221.5t-268.5 -87.5h-404v566h-656v-566h-52zM931 53h338q155 0 240.5 70t85.5 188q0 112 -84 181.5t-230 71.5h-350v-511z" />
<glyph unicode="&#x45b;" d="M-28 1254v53h197v198h52v-198h326v-53h-326v-441q52 124 153 195.5t224 71.5q170 0 253 -96.5t84 -291.5v-692h-53v694q-1 170 -69.5 252t-217.5 82q-137 0 -237.5 -97.5t-136.5 -251.5v-679h-52v1254h-197z" />
<glyph unicode="&#x45c;" horiz-adv-x="995" d="M168 0v1060h53v-490h204l421 490h76l-451 -519l513 -541h-79l-489 518h-195v-518h-53zM489 1201l186 261h64l-191 -261h-59z" />
<glyph unicode="&#x45d;" d="M169 0v1060h52v-966l656 966h54v-1060h-54v966l-656 -966h-52zM337 1463h65l184 -261h-58z" />
<glyph unicode="&#x45e;" horiz-adv-x="958" d="M42 1060h58l393 -978l7 20l366 958h59l-474 -1244l-24 -59q-76 -185 -253 -185q-56 0 -78 11l-1 49q31 -8 72 -8q83 0 138 48.5t95 157.5l65 176zM234 1461h53q0 -89 56 -138.5t164 -49.5q105 0 162.5 50.5t57.5 137.5h53q0 -109 -74 -176t-199 -67t-199 67t-74 176z" />
<glyph unicode="&#x45f;" d="M169 0v1060h52v-1007h656v1007h54v-1060h-351v-343h-53v343h-358z" />
<glyph unicode="&#x460;" horiz-adv-x="1799" d="M181 413v1014h53v-1013q2 -176 89 -278.5t229 -102.5q143 0 229 104t87 280v1010h53v-1013q2 -175 88 -278t230 -103q143 0 229 104t87 280v1010h53v-1014q-2 -201 -100 -317t-269 -116q-129 0 -218.5 67t-125.5 185q-37 -118 -127 -185t-216 -67q-170 0 -269.5 115 t-101.5 318z" />
<glyph unicode="&#x461;" horiz-adv-x="1758" d="M181 393v667h53v-666q2 -165 82.5 -263.5t215.5 -98.5t216 99t81 272v657h53v-666q2 -165 82.5 -263.5t215.5 -98.5t216 99t81 272v657h53v-664q-1 -192 -93.5 -304.5t-256.5 -112.5q-119 0 -203.5 61.5t-120.5 175.5q-40 -119 -125.5 -178t-198.5 -59 q-162 0 -255.5 110.5t-95.5 303.5z" />
<glyph unicode="&#x462;" horiz-adv-x="1198" d="M37 1128v53h152v246h53v-246h370v-53h-370v-356h373q209 -3 329.5 -104.5t120.5 -281.5q0 -178 -121 -281.5t-336 -104.5h-419v1128h-152zM242 53h362q194 0 300.5 89.5t106.5 245.5q0 149 -105 239t-294 92h-370v-666z" />
<glyph unicode="&#x463;" horiz-adv-x="1058" d="M-23 1060v53h200v394h53v-394h323v-53h-323v-403h348q170 -3 270 -92t100 -237q0 -147 -99 -236t-271 -92h-401v1060h-200zM230 53h338q153 0 240 75t87 202q0 122 -85 197t-234 77h-346v-551z" />
<glyph unicode="&#x464;" horiz-adv-x="1788" d="M232 0v1427h53v-649h314v49q1 181 65 323.5t181.5 219.5t269.5 77q224 0 356 -117.5t153 -336.5h-53q-23 197 -137.5 299.5t-318.5 102.5q-208 0 -335.5 -157t-127.5 -421v-39h509v-53h-509v-117q0 -169 56.5 -299t163 -202.5t243.5 -72.5q205 0 320 101t136 303h53 q-21 -220 -152 -338.5t-357 -118.5q-152 0 -269 77t-181.5 218.5t-65.5 324.5v124h-314v-725h-53z" />
<glyph unicode="&#x465;" horiz-adv-x="1487" d="M175 0v1060h53v-484h300q6 231 122 367.5t309 136.5q169 0 279 -101t116 -269h-53q-6 144 -100 230.5t-242 86.5q-173 0 -272 -120.5t-106 -330.5h497v-53h-497v-13q0 -223 101.5 -350t278.5 -127q144 0 238 76.5t102 211.5h53q-7 -153 -118 -247t-275 -94 q-199 0 -316 144.5t-117 398.5h-300v-523h-53z" />
<glyph unicode="&#x466;" horiz-adv-x="1199" d="M33 0l533 1427h65l534 -1427h-58l-187 498h-301v-498h-53v498h-289l-186 -498h-58zM297 551h604l-272 727l-30 92l-30 -92z" />
<glyph unicode="&#x467;" horiz-adv-x="1045" d="M35 0l452 1058v2h51l452 -1060h-57l-171 387h-219v-387h-53v387h-228l-169 -387h-58zM285 440h454l-174 396l-52 152l-54 -152z" />
<glyph unicode="&#x468;" horiz-adv-x="1757" d="M250 0v1427h53v-876h455l327 876h65l534 -1427h-58l-187 498h-301v-498h-53v498h-289l-186 -498h-58l186 498h-435v-498h-53zM815 551h604l-271 727l-31 92l-29 -92z" />
<glyph unicode="&#x469;" horiz-adv-x="1506" d="M210 0v1060h53v-620h398l264 618v2h51l452 -1060h-57l-171 387h-219v-387h-53v387h-228l-169 -387h-58l165 387h-375v-387h-53zM723 440h454l-173 396l-53 152l-54 -152z" />
<glyph unicode="&#x46a;" horiz-adv-x="1561" d="M164 0v392q3 170 100 256t299 86h157l-463 693h1044l-464 -693h163q200 0 297 -85t99 -257v-392h-52v387q-1 156 -80 224.5t-259 69.5h-199v-681h-53v681h-190q-186 0 -265.5 -69.5t-79.5 -228.5v-383h-54zM355 1374l398 -607l20 -33h11l21 33l396 607h-846z" />
<glyph unicode="&#x46b;" horiz-adv-x="1361" d="M164 0v232q3 170 99.5 255t295.5 86h51l-363 487h871l-362 -487h44q201 0 298 -85t100 -256v-232h-53v233q-3 148 -80.5 216t-253.5 70h-96l-6 -9v-510h-53v511l-6 8h-86q-184 0 -264 -68t-82 -218v-233h-54zM351 1006l315 -422l5 -11h22l6 12l315 421h-663z" />
<glyph unicode="&#x46c;" horiz-adv-x="2076" d="M231 0v1427h53v-693h951l-464 693h1045l-465 -693h163q200 0 297 -85t100 -257v-392h-53v387q-1 156 -80 224.5t-258 69.5h-200v-681h-53v681h-190q-185 0 -265 -69.5t-80 -228.5v-383h-54v392q3 208 148 289h-542v-681h-53zM869 1374l398 -607l21 -33h10l21 33l397 607 h-847z" />
<glyph unicode="&#x46d;" horiz-adv-x="1760" d="M177 0v1060h53v-487h777l-362 487h871l-363 -487h45q200 0 297 -85t100 -256v-232h-52v233q-3 148 -80.5 216t-253.5 70h-96l-7 -9v-510h-52v511l-6 8h-104q-174 -4 -250.5 -71.5t-78.5 -217.5v-230h-53v237q4 201 145 282h-477v-519h-53zM749 1006l315 -422l5 -11h22 l6 12l315 421h-663z" />
<glyph unicode="&#x46e;" horiz-adv-x="1028" d="M150 -139q0 91 60.5 141.5t180.5 50.5h76q216 0 342.5 86.5t126.5 234.5q0 164 -108 244.5t-336 82.5h-132v55h137q206 3 311 80t105 229q0 145 -103.5 226t-295.5 83h-340v53h326q223 0 345 -96.5t122 -269.5q0 -117 -75.5 -205.5t-207.5 -125.5q306 -66 306 -352 q0 -167 -144 -272t-384 -105h-71q-96 0 -142.5 -33t-46.5 -106q0 -55 56 -109.5t120 -71.5l-14 -51q-83 23 -148.5 90.5t-65.5 140.5zM338 1848v11h56l189 -213l190 213h52v-13l-213 -245h-58z" />
<glyph unicode="&#x46f;" horiz-adv-x="976" d="M110 -139q0 192 255 192t362 95q68 60 68 146q0 121 -101.5 172.5t-294.5 51.5h-120v55h138q355 6 355 228q0 96 -89.5 150t-253.5 55h-283v54h284q189 -2 293 -70.5t104 -192.5q0 -83 -57 -149t-166 -100q245 -54 245 -250q0 -132 -127.5 -214.5t-337.5 -82.5h-33 q-96 0 -142.5 -33t-46.5 -106q0 -55 56 -110t121 -71l-16 -51q-81 23 -147 91t-66 140zM180 1538v10h56l189 -212l190 212h52v-12l-213 -245h-58z" />
<glyph unicode="&#x470;" horiz-adv-x="1399" d="M153 922v505h54v-495q0 -209 128.5 -337t336.5 -133v965h54v-965q205 4 336 128.5t134 328.5v508h53v-507q-1 -152 -65.5 -267.5t-183 -178.5t-274.5 -66v-408h-54v408q-235 6 -376 144t-143 370z" />
<glyph unicode="&#x471;" horiz-adv-x="1338" d="M145 568v492h53v-497q3 -249 116.5 -384.5t325.5 -144.5v1026h53v-1027q228 5 345.5 144.5t117.5 398.5q0 247 -149 484h66l48 -92q88 -172 88 -390q0 -284 -132.5 -438t-383.5 -159v-388h-53v388q-238 9 -365.5 159t-129.5 428z" />
<glyph unicode="&#x472;" horiz-adv-x="1336" d="M130 614v206q0 184 66.5 327.5t189.5 221t281 77.5q160 0 283 -77.5t189.5 -221t66.5 -327.5v-213q0 -186 -66 -328.5t-188.5 -220.5t-282.5 -78q-241 0 -390 171.5t-149 462.5zM184 607q0 -171 59.5 -302t169 -201.5t256.5 -70.5q224 0 354 156t130 425v73h-969v-80z M184 740h969v82q0 259 -131 415.5t-355 156.5q-220 0 -351.5 -155.5t-131.5 -423.5v-75z" />
<glyph unicode="&#x473;" horiz-adv-x="1129" d="M85 504v47q0 152 58.5 273t165 188.5t240.5 67.5q133 0 239 -65.5t165 -186t60 -271.5v-47q0 -153 -57.5 -273.5t-164 -188.5t-241 -68t-240.5 67t-165 187t-60 270zM138 503q1 -130 53.5 -238.5t146 -170t213.5 -61.5q117 0 210.5 61t145.5 169.5t53 239.5h-822z M138 556h822q-1 129 -53 238t-146 171t-212.5 62t-211.5 -61.5t-145.5 -171t-53.5 -238.5z" />
<glyph unicode="&#x474;" horiz-adv-x="1208" d="M34 1427h58l436 -1372l30 87l344 1061q38 127 105 185t189 58l-1 -46l-58 -3q-125 -15 -185 -196l-391 -1201h-64z" />
<glyph unicode="&#x475;" horiz-adv-x="971" d="M42 1060h57l339 -988l55 152l231 688q32 93 77.5 130t111.5 37q48 0 82 -19l-13 -44q-29 17 -73 17q-53 0 -82.5 -32.5t-55.5 -100.5l-307 -900h-51v1z" />
<glyph unicode="&#x476;" horiz-adv-x="1208" d="M34 1427h58l436 -1372l30 87l344 1061q38 127 105 185t189 58l-1 -46l-58 -3q-125 -15 -185 -196l-391 -1201h-64zM118 1734h79l285 -261h-72zM387 1734h74l241 -261h-67z" />
<glyph unicode="&#x477;" horiz-adv-x="971" d="M24 1445h79l285 -261h-72zM42 1060h57l339 -988l55 152l231 688q32 93 77.5 130t111.5 37q48 0 82 -19l-13 -44q-29 17 -73 17q-53 0 -82.5 -32.5t-55.5 -100.5l-307 -900h-51v1zM293 1445h74l241 -261h-67z" />
<glyph unicode="&#x478;" horiz-adv-x="2295" d="M130 614v206q0 184 66.5 327.5t189.5 221t281 77.5q160 0 283 -77.5t189.5 -221t66.5 -327.5v-213q0 -186 -66 -328.5t-188.5 -220.5t-282.5 -78q-241 0 -390 171.5t-149 462.5zM184 607q0 -171 59.5 -302t169 -201.5t256.5 -70.5q224 0 354 156t130 425v208 q0 259 -131 415.5t-355 156.5q-220 0 -351.5 -155.5t-131.5 -423.5v-208zM1379 1060h58l393 -978l7 20l366 958h59l-474 -1244l-24 -59q-76 -185 -253 -185q-56 0 -78 11l-1 49q31 -8 72 -8q83 0 138 48.5t95 157.5l65 176z" />
<glyph unicode="&#x479;" horiz-adv-x="2062" d="M88 504v47q0 152 58.5 273t164.5 188.5t241 67.5q133 0 239 -65.5t165 -186t60 -271.5v-47q0 -153 -57.5 -273.5t-164 -188.5t-241 -68t-240.5 67t-165 187t-60 270zM141 510q0 -133 52.5 -243t146 -172t214.5 -62q181 0 295 136.5t114 350.5v31q0 130 -52.5 241 t-146.5 173t-212 62q-182 0 -296.5 -138t-114.5 -348v-31zM1146 1060h58l393 -978l7 20l366 958h59l-474 -1244l-24 -59q-76 -185 -253 -185q-56 0 -78 11l-1 49q31 -8 72 -8q83 0 138 48.5t95 157.5l65 176z" />
<glyph unicode="&#x47a;" horiz-adv-x="1336" d="M130 614v206q0 275 139.5 445.5t372.5 180.5v120h53v-120q232 -10 371.5 -181t139.5 -452v-206q0 -275 -139 -445.5t-372 -180.5v-122h-53v122q-231 10 -371.5 181t-140.5 452zM184 607q0 -252 123.5 -407.5t334.5 -165.5v126h53v-127q211 10 334.5 164t123.5 417v208 q0 250 -123.5 405.5t-334.5 165.5v-128h-53v128q-213 -10 -335.5 -166t-122.5 -412v-208z" />
<glyph unicode="&#x47b;" d="M85 516v35q0 147 55 266t155 187t228 75v114h53v-114q198 -12 317.5 -158t119.5 -376v-35q0 -148 -54.5 -267.5t-155 -187.5t-227.5 -74v-124h-53v124q-198 12 -318 158.5t-120 376.5zM138 510q0 -128 48.5 -235.5t136.5 -170.5t200 -70v124h53v-124q168 9 276 143 t108 341v33q0 124 -49 232.5t-136 172t-199 70.5v-134h-53v134q-169 -11 -277 -145.5t-108 -340.5v-30z" />
<glyph unicode="&#x47c;" horiz-adv-x="1787" d="M181 413v571q0 208 99.5 324.5t271.5 116.5v-53q-143 0 -230.5 -105t-87.5 -285v-562q0 -178 87.5 -283t230.5 -105t229 104.5t87 279.5v504h53v-502q0 -117 40.5 -205.5t112 -134.5t164.5 -46q143 0 230 105t87 285v562q0 178 -87 283t-230 105v53q169 0 268.5 -114.5 t101.5 -318.5v-572q0 -207 -99.5 -324t-270.5 -117q-128 0 -217 66t-126 186q-37 -118 -127 -185t-216 -67q-170 0 -269.5 115t-101.5 319zM672 1528v21q0 100 64 164t168 64q51 0 97.5 -21.5t111.5 -74t117.5 -74.5t125.5 -22v-43h-16q-130 0 -242 91.5t-191 91.5 q-83 0 -132 -49.5t-49 -147.5h-54zM843 1352q68 45 70 126v105h53v-101q0 -50 -29.5 -96.5t-73.5 -70.5z" />
<glyph unicode="&#x47d;" horiz-adv-x="1665" d="M153 393v261q0 196 93.5 308.5t257.5 112.5v-53q-136 0 -216.5 -99t-81.5 -265v-257q0 -169 81 -269t217 -100q135 0 216 99t81 272v247h53v-260q3 -166 82.5 -262t214.5 -96t215.5 99t81.5 266v257q0 168 -80.5 268t-216.5 100v53q161 0 254.5 -110t95.5 -303v-261 q0 -196 -93.5 -309t-256.5 -113q-120 0 -204.5 62.5t-119.5 174.5q-39 -119 -125 -178t-198 -59q-162 0 -255.5 110.5t-95.5 303.5zM595 1234v21q0 100 63.5 164t167.5 64q51 0 97.5 -21.5t112 -74t117.5 -74.5t126 -22v-43h-17q-129 0 -241.5 91.5t-190.5 91.5 q-83 0 -132 -49.5t-49 -147.5h-54zM747 1046q68 45 70 125v105h53v-101q0 -50 -29.5 -96.5t-73.5 -70.5z" />
<glyph unicode="&#x47e;" horiz-adv-x="1799" d="M181 413v1014h53v-1013q2 -176 89 -278.5t229 -102.5q143 0 229 104t87 280v1010h53v-1013q2 -175 88 -278t230 -103q143 0 229 104t87 280v1010h53v-1014q-2 -201 -100 -317t-269 -116q-129 0 -218.5 67t-125.5 185q-37 -118 -127 -185t-216 -67q-170 0 -269.5 115 t-101.5 318zM554 1671v55h685l2 -55h-326v-101h-53v101h-308z" />
<glyph unicode="&#x47f;" horiz-adv-x="1758" d="M181 393v667h53v-666q2 -165 82.5 -263.5t215.5 -98.5t216 99t81 272v657h53v-666q2 -165 82.5 -263.5t215.5 -98.5t216 99t81 272v657h53v-664q-1 -192 -93.5 -304.5t-256.5 -112.5q-119 0 -203.5 61.5t-120.5 175.5q-40 -119 -125.5 -178t-198.5 -59 q-162 0 -255.5 110.5t-95.5 303.5zM512 1372l2 55h686l1 -55h-326v-130h-53v130h-310z" />
<glyph unicode="&#x480;" horiz-adv-x="1236" d="M141 677v84q0 201 66.5 358.5t188.5 242.5t281 85q215 0 340 -117.5t139 -337.5h-53q-22 197 -126.5 300t-299.5 103q-216 0 -349.5 -173.5t-133.5 -465.5v-71q0 -294 128 -473.5t340 -179.5h41v-376h-54v323q-149 3 -264 90t-179 245.5t-65 362.5z" />
<glyph unicode="&#x481;" horiz-adv-x="1027" d="M120 515v36q0 155 54 275.5t155 187t233 66.5q170 0 277.5 -101t107.5 -273h-53q0 147 -91 234t-241 87q-179 0 -283.5 -129.5t-104.5 -354.5v-33q0 -215 101 -344t273 -134h61v-376h-53v323q-194 2 -315 146.5t-121 389.5z" />
<glyph unicode="&#x482;" horiz-adv-x="1196" d="M153 558l37 66l287 -167l231 411l-285 168l40 68l285 -167l213 378h97l-246 -426l288 -168l-43 -65l-282 166l-232 -411l283 -169l-38 -67l-285 167l-187 -342h-100l220 390z" />
<glyph unicode="&#x483;" horiz-adv-x="0" d="M-786 1216v170h471v106h54v-157h-468v-119h-57z" />
<glyph unicode="&#x484;" horiz-adv-x="0" d="M-865 1291v43q73 0 125.5 22t117.5 74.5t111.5 74t97.5 21.5q103 0 167.5 -63.5t64.5 -164.5v-21h-54q0 98 -49 147.5t-132 49.5q-45 0 -87 -20.5t-101.5 -69t-118.5 -71t-142 -22.5z" />
<glyph unicode="&#x485;" horiz-adv-x="0" d="M-625 1470v139h95v-136l63 -124l-36 -27z" />
<glyph unicode="&#x486;" horiz-adv-x="0" d="M-586 1349l63 124v136h95v-139l-123 -148z" />
<glyph unicode="&#x488;" horiz-adv-x="0" d="M-1470 477q0 84 57.5 134.5t148.5 50.5q93 0 150 -51t57 -134h-110q0 48 -26 73.5t-71 25.5t-70 -27t-25 -72h-111zM-1307 -31q0 83 57 133.5t148 50.5q94 0 151 -50.5t57 -133.5h-110q0 48 -26 73.5t-72 25.5q-44 0 -69 -26t-25 -73h-111zM-1298 970q0 83 57 133.5 t150 50.5t150 -50.5t57 -133.5h-110q0 45 -25 72t-72 27q-45 0 -70 -26t-25 -73h-112zM-736 1242q0 82 56.5 133t149.5 51t150 -51t57 -133h-110q0 45 -25 72t-72 27q-45 0 -70 -26t-25 -73h-111zM-731 -310q0 83 56.5 134t149.5 51t150 -51t57 -134h-110q0 45 -25 72 t-72 27q-45 0 -70 -27t-25 -72h-111zM-167 -31q0 83 57.5 133.5t148.5 50.5q93 0 150 -51t57 -133h-110q0 48 -26 73.5t-71 25.5t-70 -27t-25 -72h-111zM-157 970q0 84 57.5 134t148.5 50q93 0 150.5 -50t57.5 -134h-111q0 48 -26 73.5t-71 25.5q-44 0 -69 -26t-25 -73h-112 zM26 477q0 84 57.5 134.5t148.5 50.5q93 0 150 -51t57 -134h-110q0 48 -26 73.5t-71 25.5t-70 -27t-25 -72h-111z" />
<glyph unicode="&#x489;" horiz-adv-x="0" d="M-1470 534v96l339 -69v-137l-13 -11zM-1279 -78l288 196l95 -97l-2 -17l-313 -150zM-1195 1164l64 68l194 -293l-96 -96l-17 2zM-666 -405l68 346h134l11 -14l-119 -332h-94zM-666 1117l119 331h94l-68 -345h-134zM-225 982l2 16l314 150l67 -67l-288 -196zM-185 61 l95 97l16 -2l147 -319l-65 -69zM10 482v136l13 12l326 -121v-96z" />
<glyph unicode="&#x48a;" horiz-adv-x="1420" d="M196 0v1427h53v-1334l922 1334h53v-1427h-53v1337l-922 -1337h-53zM447 1774h53q0 -89 56 -138.5t164 -49.5q105 0 162.5 50.5t57.5 137.5h53q0 -109 -74 -176t-199 -67t-199 67t-74 176zM1136 -243q80 102 86 211l1 164h53v-143q-4 -156 -104 -263z" />
<glyph unicode="&#x48b;" d="M169 0v1060h52v-966l656 966h54v-1060h-54v966l-656 -966h-52zM269 1438h53q0 -89 56 -138.5t164 -49.5q105 0 162.5 50.5t57.5 137.5h53q0 -109 -74 -176t-199 -67t-199 67t-74 176zM842 -243q80 102 86 211l1 164h53v-143q-4 -156 -104 -263z" />
<glyph unicode="&#x48c;" horiz-adv-x="1198" d="M37 1128v53h152v246h53v-246h370v-53h-370v-356h373q209 -3 329.5 -104.5t120.5 -281.5q0 -178 -121 -281.5t-336 -104.5h-419v1128h-152zM242 53h362q194 0 300.5 89.5t106.5 245.5q0 149 -105 239t-294 92h-370v-666z" />
<glyph unicode="&#x48d;" horiz-adv-x="1058" d="M-23 1374v53h200v163h53v-163h323v-53h-323v-717h348q170 -3 270 -92t100 -237q0 -147 -99 -236t-271 -92h-401v1374h-200zM230 53h338q153 0 240 75t87 202q0 122 -85 197t-234 77h-346v-551z" />
<glyph unicode="&#x48e;" horiz-adv-x="1255" d="M189 0v1427h446q219 0 340 -110.5t121 -306.5q0 -226 -159 -332l126 -148l-40 -34l-134 157q-104 -50 -254 -50h-393v-603h-53zM242 656h393q126 0 217 40l-124 146l40 34l132 -155q143 94 143 287q0 173 -107.5 269.5t-300.5 96.5h-393v-718z" />
<glyph unicode="&#x48f;" horiz-adv-x="1127" d="M167 -408v1468h53v-189q54 101 147.5 155t211.5 54q186 0 293 -142.5t107 -400.5v-17q0 -143 -36.5 -254t-105.5 -182l106 -146l-43 -32l-104 143q-91 -69 -215 -69q-120 0 -214.5 49t-146.5 136v-573h-53zM220 264q41 -110 134.5 -170.5t227.5 -60.5q108 0 183 58 l-110 154l44 31l107 -149q119 128 119 399v15q0 228 -90.5 357t-254.5 129q-133 0 -226 -69t-134 -198v-496z" />
<glyph unicode="&#x490;" horiz-adv-x="1099" d="M189 0v1427h792v364h53v-418h-53v1h-739v-1374h-53z" />
<glyph unicode="&#x491;" horiz-adv-x="863" d="M169 0v1060h586v365h53v-419h-587v-1006h-52z" />
<glyph unicode="&#x492;" horiz-adv-x="1099" d="M81 716v53h108v658h845v-53h-792v-605h415v-53h-415v-716h-53v716h-108z" />
<glyph unicode="&#x493;" horiz-adv-x="849" d="M4 515v53h165v492h637v-54h-585v-438h358v-53h-358v-515h-52v515h-165z" />
<glyph unicode="&#x494;" horiz-adv-x="1097" d="M189 0v1427h845v-53h-792v-567h228q276 0 415 -142t139 -412q0 -141 -59 -268.5t-154.5 -192t-217.5 -64.5v50q111 0 196 62t133.5 174t48.5 239q0 242 -129.5 372t-373.5 130h-226v-755h-53z" />
<glyph unicode="&#x495;" horiz-adv-x="988" d="M169 0v1060h637v-54h-585v-412h164q255 0 385 -111.5t130 -324.5l-1 -30q-11 -148 -106.5 -248t-249.5 -130l-16 41q144 29 229 123t91 244q5 184 -114.5 284t-349.5 100h-162v-542h-52z" />
<glyph unicode="&#x496;" horiz-adv-x="1710" d="M19 0l580 722l-546 705h69l519 -668h183v668h53v-668h182l519 668h68l-545 -705l581 -722h-71l-566 706h-168v-706h-53v706h-169l-566 -706h-70zM1640 93h53v-438h-53v438z" />
<glyph unicode="&#x497;" horiz-adv-x="1542" d="M26 0l501 541l-439 519h66l421 -490h161v490h53v-490h164l420 490h68l-442 -519l502 -541h-69l-490 517h-153v-517h-53v517h-152l-488 -517h-70zM1446 93h53v-438h-53v438z" />
<glyph unicode="&#x498;" horiz-adv-x="1196" d="M98 396h54q0 -158 122 -261t317 -103q215 0 334 90.5t119 251.5q0 164 -108 244.5t-337 82.5h-193v55h187q211 1 319.5 78t108.5 231q0 158 -112.5 243.5t-317.5 85.5q-179 0 -299 -94.5t-120 -245.5h-53q0 113 61 202.5t171.5 139.5t239.5 50q230 0 356.5 -101 t126.5 -284q0 -118 -77 -206.5t-208 -124.5q308 -65 308 -352q0 -182 -138.5 -290.5t-367.5 -108.5q-140 0 -255 54t-176.5 147t-61.5 216zM587 16h53v-438h-53v438z" />
<glyph unicode="&#x499;" horiz-adv-x="1014" d="M107 295h54q0 -110 98 -185t247 -75q168 0 255 66.5t87 179.5q0 123 -85 178t-254 55h-148v54h158q310 5 310 221q0 113 -83 175.5t-241 62.5q-137 0 -232 -69.5t-95 -174.5h-54q0 128 111.5 212.5t269.5 84.5q180 0 279 -78t99 -216q0 -83 -54 -148t-152 -95 q225 -51 225 -259q0 -139 -107.5 -221t-288.5 -82q-106 0 -199 39.5t-146.5 110t-53.5 164.5zM467 17h53v-438h-53v438z" />
<glyph unicode="&#x49a;" horiz-adv-x="1274" d="M196 0v1427h53v-678h233l606 678h69l-631 -712l676 -715h-69l-666 697h-218v-697h-53zM1156 60h53v-438h-53v438z" />
<glyph unicode="&#x49b;" horiz-adv-x="995" d="M168 0v1060h53v-490h204l421 490h76l-451 -519l513 -541h-79l-489 518h-195v-518h-53zM928 93h53v-438h-53v438z" />
<glyph unicode="&#x49c;" horiz-adv-x="1198" d="M192 0v1427h53v-668h181v300h54v-300h116l429 668h70l-461 -703l535 -724h-69l-520 707h-100v-318h-54v318h-181v-707h-53z" />
<glyph unicode="&#x49d;" horiz-adv-x="1041" d="M168 0v1060h53v-490h169v263h54v-263h109l311 490h77l-346 -519l409 -541h-81l-380 518h-99v-273h-54v273h-169v-518h-53z" />
<glyph unicode="&#x49e;" horiz-adv-x="1293" d="M-17 1083v53h233v291h53v-291h290v-53h-290v-334h233l605 678h70l-631 -712l676 -715h-70l-665 697h-218v-697h-53v1083h-233z" />
<glyph unicode="&#x49f;" horiz-adv-x="969" d="M42 1239v53h146v213h53v-213h376v-53h-376v-644h125l482 465h69l-492 -483l529 -577h-69l-499 542h-145v-542h-53v1239h-146z" />
<glyph unicode="&#x4a0;" horiz-adv-x="1599" d="M92 1374v53h544v-678h233l606 678h69l-631 -712l677 -715h-70l-665 697h-219v-697h-53v1374h-491z" />
<glyph unicode="&#x4a1;" horiz-adv-x="1265" d="M39 1007v53h435v-490h204l421 490h76l-451 -519l513 -541h-80l-489 518h-194v-518h-54v1007h-381z" />
<glyph unicode="&#x4a2;" horiz-adv-x="1409" d="M196 0v1427h53v-667h911v667h53v-1427h-53v708h-911v-708h-53zM1213 93h53v-438h-53v438z" />
<glyph unicode="&#x4a3;" d="M169 0v1060h52v-489h656v489h54v-1060h-54v518h-656v-518h-52zM929 93h53v-438h-53v438z" />
<glyph unicode="&#x4a4;" horiz-adv-x="2085" d="M191 0v1427h53v-667h911v667h847v-53h-794v-1374h-53v708h-911v-708h-53z" />
<glyph unicode="&#x4a5;" horiz-adv-x="1474" d="M169 0v1060h52v-489h656v489h529v-54h-475v-1006h-54v518h-656v-518h-52z" />
<glyph unicode="&#x4a6;" horiz-adv-x="2037" d="M175 0v1427h1018v-606h204q276 0 415 -141.5t139 -411.5q0 -142 -58.5 -269t-154.5 -192t-218 -65v50q111 0 196 62.5t133.5 174.5t48.5 239q0 242 -129 371.5t-373 129.5h-203v-769h-53v1374h-912v-1374h-53z" />
<glyph unicode="&#x4a7;" horiz-adv-x="1674" d="M169 0v1060h762v-466h155q255 0 384.5 -111.5t129.5 -324.5l-1 -30q-10 -148 -106 -248t-249 -130l-16 41q144 29 229 123t90 244q5 184 -114 284t-349 100h-153v-542h-54v1006h-656v-1006h-52z" />
<glyph unicode="&#x4a8;" horiz-adv-x="1495" d="M130 674v227q0 153 56 278t158.5 196.5t230.5 71.5l4 -52q-170 0 -282.5 -142.5t-112.5 -361.5v-228q0 -180 69.5 -326t194.5 -225.5t284 -79.5q134 0 243 42q-163 86 -254.5 236.5t-91.5 335.5v274q0 231 103 372.5t270 141.5q168 0 274.5 -143t106.5 -378v-271 q0 -194 -74.5 -338.5t-209.5 -228.5q129 -45 297 -45v-52q-193 0 -354 66q-139 -65 -310 -65q-274 0 -438 189.5t-164 505.5zM683 642q0 -182 92 -325t258 -216q139 73 217 212.5t80 320.5v287q0 205 -89 332.5t-239 127.5q-146 0 -232.5 -128.5t-86.5 -341.5v-269z" />
<glyph unicode="&#x4a9;" horiz-adv-x="1174" d="M124 530v84q0 201 91 333.5t235 132.5v-53q-110 0 -190 -117.5t-83 -282.5v-105q0 -219 113.5 -354.5t296.5 -135.5q99 0 180 37q-124 70 -192.5 189.5t-68.5 277.5v106q0 196 78.5 316.5t203 120.5t204.5 -130t80 -335v-93q0 -141 -51 -256t-143 -189q106 -35 224 -35 v-53q-150 0 -277 53q-106 -62 -238 -62q-203 0 -333 154t-130 397zM559 534q0 -151 69 -263t194 -172q93 61 145 172t52 252v101q0 172 -65.5 287t-165.5 115q-104 0 -166.5 -104t-62.5 -284v-104z" />
<glyph unicode="&#x4aa;" horiz-adv-x="1300" d="M141 600v220q0 183 64 326.5t182 221.5t271 78q223 0 355.5 -117.5t152.5 -336.5h-53q-22 197 -137 299.5t-318 102.5q-208 0 -336 -157t-128 -421v-209q0 -169 57 -299t163 -202.5t244 -72.5q204 0 319.5 101t135.5 303h53q-20 -220 -151.5 -338.5t-356.5 -118.5 q-152 0 -269.5 77t-182 218.5t-65.5 324.5zM638 16h53v-438h-53v438z" />
<glyph unicode="&#x4ab;" horiz-adv-x="1018" d="M95 515v36q0 241 117 385t314 144q169 0 278.5 -101t116.5 -269h-53q-7 144 -100.5 230.5t-241.5 86.5q-177 0 -277.5 -128t-100.5 -355v-34q0 -223 101.5 -350t278.5 -127q144 0 237.5 76.5t102.5 211.5h53q-8 -153 -118.5 -247t-274.5 -94q-199 0 -316 144.5 t-117 390.5zM509 16h53v-438h-53v438z" />
<glyph unicode="&#x4ac;" horiz-adv-x="1199" d="M54 1374v53h1092v-53h-520v-1374h-53v1374h-519zM626 93h53v-438h-53v438z" />
<glyph unicode="&#x4ad;" horiz-adv-x="942" d="M39 1006v54h865v-54h-417v-1006h-53v1006h-395zM489 93h53v-438h-53v438z" />
<glyph unicode="&#x4ae;" horiz-adv-x="1198" d="M32 1427h71l494 -837l500 837h64l-538 -885v-542h-53v542z" />
<glyph unicode="&#x4af;" horiz-adv-x="958" d="M42 1060h57l327 -836l53 -151l54 151l326 836h57l-410 -1055v-412h-53v409z" />
<glyph unicode="&#x4b0;" horiz-adv-x="1198" d="M32 1427h71l488 -827h12l494 827h64l-502 -827h220v-53h-253l-3 -5v-542h-53v542l-3 5h-263v53h231z" />
<glyph unicode="&#x4b1;" horiz-adv-x="958" d="M42 1060h57l327 -836l53 -151l54 151l326 836h57l-390 -1001h236v-53h-256v-413h-53v409l-2 4h-264v53h243z" />
<glyph unicode="&#x4b2;" horiz-adv-x="1198" d="M53 0l512 728l-493 699h66l461 -658l460 658h67l-494 -699l513 -728h-66l-480 687l-482 -687h-64zM1097 93h53v-438h-53v438z" />
<glyph unicode="&#x4b3;" horiz-adv-x="958" d="M54 0l392 544l-372 516h66l339 -470l338 470h67l-372 -516l392 -544h-66l-360 498l-358 -498h-66zM872 93h53v-438h-53v438z" />
<glyph unicode="&#x4b4;" horiz-adv-x="1685" d="M18 1373v53h413v1h53v-1h459v-53h-459v-1320h912v1374h52v-1374h131v-397h-53v344h-1095v1373h-413z" />
<glyph unicode="&#x4b5;" horiz-adv-x="1278" d="M25 1007v53h694v-53h-320v-954h655v1007h54v-1007h90v-368h-53v315h-799v1007h-321z" />
<glyph unicode="&#x4b6;" horiz-adv-x="1298" d="M191 1078v349h53v-357q3 -189 104.5 -280.5t312.5 -91.5q189 0 393 59v670h53v-1427h-53v705q-216 -60 -393 -60q-243 0 -356 105.5t-114 327.5zM1106 93h53v-438h-53v438z" />
<glyph unicode="&#x4b7;" horiz-adv-x="1045" d="M115 829v231h53v-231q0 -130 33 -204t105 -106.5t209 -32.5q79 4 168.5 26t140.5 50v498h53v-1060h-53v512q-70 -35 -159 -57t-150 -22q-158 0 -240.5 38t-121 123.5t-38.5 234.5zM876 93h53v-438h-53v438z" />
<glyph unicode="&#x4b8;" horiz-adv-x="1298" d="M191 1066v361h53v-349q1 -189 98 -282.5t300 -97.5v363h54v-363q179 6 358 59v670h53v-1427h-53v705q-204 -55 -358 -60v-252h-54v252q-230 4 -338.5 108t-112.5 313z" />
<glyph unicode="&#x4b9;" horiz-adv-x="1099" d="M169 829v231h52v-231q0 -130 33.5 -204t105.5 -106.5t213 -32.5v297h55v-292q151 21 250 71v498h53v-1060h-53v512q-123 -59 -250 -75v-199h-55v195q-162 0 -244.5 38t-121 123.5t-38.5 234.5z" />
<glyph unicode="&#x4ba;" horiz-adv-x="1298" d="M191 0v1427h53v-705q217 60 394 60q242 0 354.5 -105.5t114.5 -323.5v-353h-53v357q-2 189 -103.5 280.5t-312.5 91.5q-189 0 -394 -59v-670h-53z" />
<glyph unicode="&#x4bb;" d="M169 0v1505h52v-692q52 124 153 195.5t224 71.5q170 0 253 -96.5t84 -291.5v-692h-53v694q-1 170 -69.5 252t-217.5 82q-137 0 -237.5 -97.5t-136.5 -251.5v-679h-52z" />
<glyph unicode="&#x4bc;" horiz-adv-x="1478" d="M10 1053h54q0 -113 60 -177.5t179 -73.5v53q0 167 66.5 303t186.5 212t268 76q236 0 379.5 -156.5t147.5 -424.5v-117h-995v-200q0 -240 134 -377.5t378 -137.5q260 0 428 148l29 -42q-92 -84 -204.5 -121.5t-252.5 -37.5q-262 0 -413.5 153t-151.5 421v194 q-140 11 -216.5 87.5t-76.5 217.5zM356 802h942v50q0 155 -58 279.5t-166.5 192.5t-249.5 68q-210 0 -339 -151.5t-129 -395.5v-43z" />
<glyph unicode="&#x4bd;" horiz-adv-x="1178" d="M14 835h54q0 -178 158 -208q24 200 147.5 326.5t293.5 126.5q178 0 290.5 -126.5t112.5 -332.5v-56h-795v-57q0 -130 54.5 -240t150 -173t207.5 -63q107 0 182 36t133 110l37 -26q-119 -172 -352 -172q-128 0 -235.5 69.5t-168.5 190t-61 267.5v67q-99 17 -153.5 82.5 t-54.5 178.5zM279 622h11v-4h727v13q0 108 -45.5 200.5t-125.5 144t-179 51.5q-152 0 -259.5 -112.5t-128.5 -292.5z" />
<glyph unicode="&#x4be;" horiz-adv-x="1478" d="M10 1053h54q0 -113 60 -177.5t179 -73.5v53q0 167 66.5 303t186.5 212t268 76q236 0 379.5 -156.5t147.5 -424.5v-117h-995v-200q0 -240 134 -377.5t378 -137.5q260 0 428 148l29 -42q-92 -84 -204.5 -121.5t-252.5 -37.5q-262 0 -413.5 153t-151.5 421v194 q-140 11 -216.5 87.5t-76.5 217.5zM356 802h942v50q0 155 -58 279.5t-166.5 192.5t-249.5 68q-210 0 -339 -151.5t-129 -395.5v-43zM841 -18h53v-438h-53v438z" />
<glyph unicode="&#x4bf;" horiz-adv-x="1178" d="M14 835h54q0 -178 158 -208q24 200 147.5 326.5t293.5 126.5q178 0 290.5 -126.5t112.5 -332.5v-56h-795v-57q0 -130 54.5 -240t150 -173t207.5 -63q107 0 182 36t133 110l37 -26q-119 -172 -352 -172q-128 0 -235.5 69.5t-168.5 190t-61 267.5v67q-99 17 -153.5 82.5 t-54.5 178.5zM279 622h11v-4h727v13q0 108 -45.5 200.5t-125.5 144t-179 51.5q-152 0 -259.5 -112.5t-128.5 -292.5zM649 25h53v-438h-53v438z" />
<glyph unicode="&#x4c0;" horiz-adv-x="523" d="M235 0v1427h53v-1427h-53z" />
<glyph unicode="&#x4c1;" horiz-adv-x="1710" d="M19 0l580 722l-546 705h69l519 -668h183v668h53v-668h182l519 668h68l-545 -705l581 -722h-71l-566 706h-168v-706h-53v706h-169l-566 -706h-70zM575 1774h53q0 -89 56 -138.5t164 -49.5q105 0 162.5 50.5t57.5 137.5h53q0 -109 -74 -176t-199 -67t-199 67t-74 176z" />
<glyph unicode="&#x4c2;" horiz-adv-x="1542" d="M26 0l501 541l-439 519h66l421 -490h161v490h53v-490h164l420 490h68l-442 -519l502 -541h-69l-490 517h-153v-517h-53v517h-152l-488 -517h-70zM485 1438h53q0 -89 56 -138.5t164 -49.5q105 0 162.5 50.5t57.5 137.5h53q0 -109 -74 -176t-199 -67t-199 67t-74 176z" />
<glyph unicode="&#x4c3;" horiz-adv-x="1198" d="M192 0v1427h53v-668h214l566 668h70l-565 -668h58q275 0 414.5 -142t139.5 -412q0 -141 -59 -268.5t-154.5 -192t-218.5 -64.5v50q111 0 196.5 62t134 174t48.5 239q0 242 -129.5 372t-373.5 130h-341v-707h-53z" />
<glyph unicode="&#x4c4;" horiz-adv-x="1025" d="M168 0v1060h53v-488h177l448 488h76l-451 -489q229 -10 347.5 -121.5t118.5 -316.5q3 -93 -43 -183.5t-126 -147t-188 -76.5l-16 41q145 28 229.5 123t90.5 243q5 186 -115.5 286t-345.5 100l-1 -1h-201v-518h-53z" />
<glyph unicode="&#x4c5;" horiz-adv-x="1399" d="M33 0v53h47q98 3 150.5 62t84 200t51.5 417l46 695h796v-1427h-53v1374h-694l-44 -655q-23 -320 -60.5 -458.5t-102.5 -198t-178 -62.5h-43zM1120 -243q80 102 86 211l1 164h53v-143q-4 -156 -104 -263z" />
<glyph unicode="&#x4c6;" horiz-adv-x="1099" d="M43 0v52h44q100 4 146.5 105t61.5 337l23 566h613v-1060h-54v1006h-508l-20 -495q-16 -284 -76 -396.5t-193 -114.5h-37zM842 -243q80 102 86 211l1 164h53v-143q-4 -156 -104 -263z" />
<glyph unicode="&#x4c7;" horiz-adv-x="1399" d="M191 0v1427h53v-693h911v693h53v-1514q0 -167 -73.5 -254t-204.5 -87q-54 0 -111 19l14 51q44 -17 97 -17q108 0 166.5 74.5t58.5 213.5v768h-911v-681h-53z" />
<glyph unicode="&#x4c8;" d="M169 0v1060h52v-489h656v489h54v-1147q0 -167 -74 -254t-206 -87q-53 0 -110 19l13 51q44 -17 97 -17q109 0 167.5 74.5t58.5 213.5v605h-656v-518h-52z" />
<glyph unicode="&#x4c9;" horiz-adv-x="1409" d="M196 0v1427h53v-667h911v667h53v-1427h-53v708h-911v-708h-53zM1125 -243q80 102 86 211l1 164h53v-143q-4 -156 -104 -263z" />
<glyph unicode="&#x4ca;" d="M169 0v1060h52v-489h656v489h54v-1060h-54v518h-656v-518h-52zM841 -243q80 102 86 211l1 164h53v-143q-4 -156 -104 -263z" />
<glyph unicode="&#x4cb;" horiz-adv-x="1298" d="M191 1078v349h53v-357q3 -189 104.5 -280.5t312.5 -91.5q189 0 393 59v670h53v-1427h-53v705q-216 -60 -393 -60q-243 0 -356 105.5t-114 327.5zM1000 93h53v-438h-53v438z" />
<glyph unicode="&#x4cc;" horiz-adv-x="1045" d="M115 829v231h53v-231q0 -130 33 -204t105 -106.5t209 -32.5q79 4 168.5 26t140.5 50v498h53v-1060h-53v512q-70 -35 -159 -57t-150 -22q-158 0 -240.5 38t-121 123.5t-38.5 234.5zM772 93h53v-438h-53v438z" />
<glyph unicode="&#x4cd;" horiz-adv-x="1720" d="M196 0v1427h75l587 -1350l589 1350h78v-1427h-53v1348l-592 -1348h-42l-589 1342v-1342h-53zM1437 -243q80 102 86 211l1 164h53v-143q-4 -156 -104 -263z" />
<glyph unicode="&#x4ce;" horiz-adv-x="1446" d="M177 0v1060h73l482 -980l482 980h64v-1060h-54v958l-471 -958h-42l-481 982v-982h-53zM1191 -243q80 102 86 211l1 164h53v-143q-4 -156 -104 -263z" />
<glyph unicode="&#x4cf;" horiz-adv-x="523" d="M235 0v1427h53v-1427h-53z" />
<glyph unicode="&#x4d0;" horiz-adv-x="1198" d="M32 0l534 1427h65l534 -1427h-58l-159 426h-699l-159 -426h-58zM269 479h659l-329 884zM325 1774h53q0 -89 56 -138.5t164 -49.5q105 0 162.5 50.5t57.5 137.5h53q0 -109 -74 -176t-199 -67t-199 67t-74 176z" />
<glyph unicode="&#x4d1;" horiz-adv-x="1059" d="M90 269q0 146 132 233.5t350 89.5h262v155q0 133 -84 206.5t-239 73.5q-145 0 -242 -74.5t-97 -184.5l-53 2q0 130 113.5 220t278.5 90q171 0 272 -86t104 -241v-507q0 -174 27 -237v-9h-60q-20 68 -20 194q-63 -102 -171.5 -158t-246.5 -56q-146 0 -236 80t-90 209z M143 265q0 -97 77.5 -165t195.5 -68q149 0 256.5 67t161.5 187v252h-245q-227 0 -348 -90q-98 -74 -98 -183zM291 1460h53q0 -89 56 -138.5t164 -49.5q105 0 162.5 50.5t57.5 137.5h53q0 -109 -74 -176t-199 -67t-199 67t-74 176z" />
<glyph unicode="&#x4d2;" horiz-adv-x="1198" d="M32 0l534 1427h65l534 -1427h-58l-159 426h-699l-159 -426h-58zM269 479h659l-329 884zM339 1706q0 22 16 38t38.5 16t38.5 -16t16 -38.5t-16 -38t-38.5 -15.5t-38.5 15.5t-16 38.5zM775 1706q0 22 16 38t38.5 16t38.5 -16t16 -38.5t-16 -38t-38.5 -15.5t-38.5 15.5 t-16 38.5z" />
<glyph unicode="&#x4d3;" horiz-adv-x="1059" d="M90 269q0 146 132 233.5t350 89.5h262v155q0 133 -84 206.5t-239 73.5q-145 0 -242 -74.5t-97 -184.5l-53 2q0 130 113.5 220t278.5 90q171 0 272 -86t104 -241v-507q0 -174 27 -237v-9h-60q-20 68 -20 194q-63 -102 -171.5 -158t-246.5 -56q-146 0 -236 80t-90 209z M143 265q0 -97 77.5 -165t195.5 -68q149 0 256.5 67t161.5 187v252h-245q-227 0 -348 -90q-98 -74 -98 -183zM304 1393q0 22 16 38t38.5 16t38.5 -16t16 -38.5t-16 -38t-38.5 -15.5t-38.5 15.5t-16 38.5zM740 1393q0 22 16 38t38.5 16t38.5 -16t16 -38.5t-16 -38 t-38.5 -15.5t-38.5 15.5t-16 38.5z" />
<glyph unicode="&#x4d4;" horiz-adv-x="1779" d="M49 0l863 1427h761v-53h-682l25 -604h576v-53h-574l28 -664h687v-53h-737l-18 416h-614l-251 -416h-64zM395 468h581l-38 902z" />
<glyph unicode="&#x4d5;" horiz-adv-x="1700" d="M91 278q0 155 108.5 246t306.5 93h291v89q0 152 -70.5 236.5t-215.5 84.5q-155 0 -247.5 -74.5t-92.5 -196.5l-52 6q0 143 109 230.5t283 87.5q138 0 223.5 -72.5t108.5 -209.5q55 134 156.5 208t228.5 74q182 0 289 -114t107 -323v-78h-771v-75q0 -214 102 -335.5 t288 -121.5q200 0 325 128l29 -41q-77 -78 -162 -109t-192 -31q-144 0 -242.5 66.5t-149.5 178.5v-11h1q-47 -105 -159.5 -169.5t-253.5 -64.5q-165 0 -256.5 80.5t-91.5 217.5zM145 274q0 -113 75 -178t218 -65q79 0 155.5 28t133 74t70.5 87v344h-295 q-164 -3 -260.5 -81.5t-96.5 -208.5zM856 619h715v32q0 170 -91.5 273t-251.5 103q-150 0 -252 -111t-120 -297z" />
<glyph unicode="&#x4d6;" horiz-adv-x="1142" d="M196 0v1427h868v-53h-815v-614h715v-52h-715v-655h815v-53h-868zM332 1774h53q0 -89 56 -138.5t164 -49.5q105 0 162.5 50.5t57.5 137.5h53q0 -109 -74 -176t-199 -67t-199 67t-74 176z" />
<glyph unicode="&#x4d7;" horiz-adv-x="1011" d="M85 507v44q0 147 59 269.5t162 191t224 68.5q178 0 290.5 -126.5t112.5 -332.5v-56h-795v-57q0 -130 54.5 -240t150 -173t207.5 -63q107 0 182 36t132 110l38 -26q-119 -172 -352 -172q-129 0 -236 69.5t-168 190t-61 267.5zM141 618h739v13q0 108 -45.5 200.5 t-125.5 144t-179 51.5q-155 0 -262.5 -115t-126.5 -294zM281 1459h53q0 -89 56 -138.5t164 -49.5q105 0 162.5 50.5t57.5 137.5h53q0 -109 -74 -176t-199 -67t-199 67t-74 176z" />
<glyph unicode="&#x4d8;" horiz-adv-x="1422" d="M153 581v116h1095v121q0 270 -141 423t-394 153q-144 0 -255 -42.5t-190 -108.5l-30 42l62 48q162 113 413 113q271 0 429 -168t158 -470v-158q0 -192 -72 -345.5t-200.5 -239t-288.5 -85.5q-269 0 -427.5 162.5t-158.5 438.5zM206 572q0 -155 64.5 -278t186 -192 t282.5 -69q148 0 262.5 76.5t180 218t66.5 315.5h-1042v-71z" />
<glyph unicode="&#x4d9;" horiz-adv-x="1011" d="M85 416v78h794l1 75q0 125 -51.5 230.5t-142 166.5t-198.5 61q-110 0 -192 -30t-143 -99l-29 41q127 141 364 141q118 0 221.5 -68t163.5 -185t60 -256v-64q0 -148 -58.5 -269.5t-160 -190t-223.5 -68.5q-181 0 -293.5 119t-112.5 318zM138 409q0 -166 99.5 -271.5 t253.5 -105.5t260.5 114.5t124.5 294.5h-738v-32z" />
<glyph unicode="&#x4da;" horiz-adv-x="1422" d="M153 581v116h1095v121q0 270 -141 423t-394 153q-144 0 -255 -42.5t-190 -108.5l-30 42l62 48q162 113 413 113q271 0 429 -168t158 -470v-158q0 -192 -72 -345.5t-200.5 -239t-288.5 -85.5q-269 0 -427.5 162.5t-158.5 438.5zM206 572q0 -155 64.5 -278t186 -192 t282.5 -69q148 0 262.5 76.5t180 218t66.5 315.5h-1042v-71zM418 1661q0 22 16 38t38.5 16t38.5 -16t16 -38.5t-16 -38t-38.5 -15.5t-38.5 15.5t-16 38.5zM854 1661q0 22 16 38t38.5 16t38.5 -16t16 -38.5t-16 -38t-38.5 -15.5t-38.5 15.5t-16 38.5z" />
<glyph unicode="&#x4db;" horiz-adv-x="1011" d="M85 416v78h794l1 75q0 125 -51.5 230.5t-142 166.5t-198.5 61q-110 0 -192 -30t-143 -99l-29 41q127 141 364 141q118 0 221.5 -68t163.5 -185t60 -256v-64q0 -148 -58.5 -269.5t-160 -190t-223.5 -68.5q-181 0 -293.5 119t-112.5 318zM138 409q0 -166 99.5 -271.5 t253.5 -105.5t260.5 114.5t124.5 294.5h-738v-32zM295 1392q0 22 16 38t38.5 16t38.5 -16t16 -38.5t-16 -38t-38.5 -15.5t-38.5 15.5t-16 38.5zM731 1392q0 22 16 38t38.5 16t38.5 -16t16 -38.5t-16 -38t-38.5 -15.5t-38.5 15.5t-16 38.5z" />
<glyph unicode="&#x4dc;" horiz-adv-x="1710" d="M19 0l580 722l-546 705h69l519 -668h183v668h53v-668h182l519 668h68l-545 -705l581 -722h-71l-566 706h-168v-706h-53v706h-169l-566 -706h-70zM589 1706q0 22 16 38t38.5 16t38.5 -16t16 -38.5t-16 -38t-38.5 -15.5t-38.5 15.5t-16 38.5zM1025 1706q0 22 16 38t38.5 16 t38.5 -16t16 -38.5t-16 -38t-38.5 -15.5t-38.5 15.5t-16 38.5z" />
<glyph unicode="&#x4dd;" horiz-adv-x="1542" d="M26 0l501 541l-439 519h66l421 -490h161v490h53v-490h164l420 490h68l-442 -519l502 -541h-69l-490 517h-153v-517h-53v517h-152l-488 -517h-70zM498 1370q0 22 16 38t38.5 16t38.5 -16t16 -38.5t-16 -38t-38.5 -15.5t-38.5 15.5t-16 38.5zM934 1370q0 22 16 38t38.5 16 t38.5 -16t16 -38.5t-16 -38t-38.5 -15.5t-38.5 15.5t-16 38.5z" />
<glyph unicode="&#x4de;" horiz-adv-x="1196" d="M98 396h54q0 -158 122 -261t317 -103q215 0 334 90.5t119 251.5q0 164 -108 244.5t-337 82.5h-193v55h187q211 1 319.5 78t108.5 231q0 158 -112.5 243.5t-317.5 85.5q-179 0 -299 -94.5t-120 -245.5h-53q0 113 61 202.5t171.5 139.5t239.5 50q230 0 356.5 -101 t126.5 -284q0 -118 -77 -206.5t-208 -124.5q308 -65 308 -352q0 -182 -138.5 -290.5t-367.5 -108.5q-140 0 -255 54t-176.5 147t-61.5 216zM352 1726q0 22 16 38t38.5 16t38.5 -16t16 -38.5t-16 -38t-38.5 -15.5t-38.5 15.5t-16 38.5zM788 1726q0 22 16 38t38.5 16t38.5 -16 t16 -38.5t-16 -38t-38.5 -15.5t-38.5 15.5t-16 38.5z" />
<glyph unicode="&#x4df;" horiz-adv-x="1014" d="M107 295h54q0 -110 98 -185t247 -75q168 0 255 66.5t87 179.5q0 123 -85 178t-254 55h-148v54h158q310 5 310 221q0 113 -83 175.5t-241 62.5q-137 0 -232 -69.5t-95 -174.5h-54q0 128 111.5 212.5t269.5 84.5q180 0 279 -78t99 -216q0 -83 -54 -148t-152 -95 q225 -51 225 -259q0 -139 -107.5 -221t-288.5 -82q-106 0 -199 39.5t-146.5 110t-53.5 164.5zM233 1390q0 22 16 38t38.5 16t38.5 -16t16 -38.5t-16 -38t-38.5 -15.5t-38.5 15.5t-16 38.5zM669 1390q0 22 16 38t38.5 16t38.5 -16t16 -38.5t-16 -38t-38.5 -15.5t-38.5 15.5 t-16 38.5z" />
<glyph unicode="&#x4e0;" horiz-adv-x="1142" d="M120 396h54q0 -159 106.5 -261.5t281.5 -102.5t273.5 91t98.5 251q0 197 -91.5 293t-284.5 96h-99v54l476 557h-795v53h852l3 -67l-472 -550h45q213 -2 316 -113.5t103 -318.5q0 -183 -117.5 -291t-307.5 -108q-124 0 -226.5 52t-159 145.5t-56.5 219.5z" />
<glyph unicode="&#x4e1;" horiz-adv-x="1142" d="M120 28h54q0 -157 106.5 -259.5t281.5 -102.5t273.5 90.5t98.5 250.5q0 189 -102.5 289t-306.5 100h-66v55l477 555h-796v54h852l3 -66l-473 -551q228 0 346.5 -113t118.5 -319q0 -182 -117 -290t-308 -108q-124 0 -226.5 52t-159 145t-56.5 218z" />
<glyph unicode="&#x4e2;" horiz-adv-x="1420" d="M196 0v1427h53v-1334l922 1334h53v-1427h-53v1337l-922 -1337h-53zM407 1698v52h615v-52h-615z" />
<glyph unicode="&#x4e3;" d="M169 0v1060h52v-966l656 966h54v-1060h-54v966l-656 -966h-52zM229 1363v52h615v-52h-615z" />
<glyph unicode="&#x4e4;" horiz-adv-x="1420" d="M196 0v1427h53v-1334l922 1334h53v-1427h-53v1337l-922 -1337h-53zM460 1706q0 22 16 38t38.5 16t38.5 -16t16 -38.5t-16 -38t-38.5 -15.5t-38.5 15.5t-16 38.5zM896 1706q0 22 16 38t38.5 16t38.5 -16t16 -38.5t-16 -38t-38.5 -15.5t-38.5 15.5t-16 38.5z" />
<glyph unicode="&#x4e5;" d="M169 0v1060h52v-966l656 966h54v-1060h-54v966l-656 -966h-52zM283 1370q0 22 16 38t38.5 16t38.5 -16t16 -38.5t-16 -38t-38.5 -15.5t-38.5 15.5t-16 38.5zM719 1370q0 22 16 38t38.5 16t38.5 -16t16 -38.5t-16 -38t-38.5 -15.5t-38.5 15.5t-16 38.5z" />
<glyph unicode="&#x4e6;" horiz-adv-x="1336" d="M130 614v206q0 184 66.5 327.5t189.5 221t281 77.5q160 0 283 -77.5t189.5 -221t66.5 -327.5v-213q0 -186 -66 -328.5t-188.5 -220.5t-282.5 -78q-241 0 -390 171.5t-149 462.5zM184 607q0 -171 59.5 -302t169 -201.5t256.5 -70.5q224 0 354 156t130 425v208 q0 259 -131 415.5t-355 156.5q-220 0 -351.5 -155.5t-131.5 -423.5v-208zM401 1726q0 22 16 38t38.5 16t38.5 -16t16 -38.5t-16 -38t-38.5 -15.5t-38.5 15.5t-16 38.5zM837 1726q0 22 16 38t38.5 16t38.5 -16t16 -38.5t-16 -38t-38.5 -15.5t-38.5 15.5t-16 38.5z" />
<glyph unicode="&#x4e7;" horiz-adv-x="1104" d="M88 504v47q0 152 58.5 273t164.5 188.5t241 67.5q133 0 239 -65.5t165 -186t60 -271.5v-47q0 -153 -57.5 -273.5t-164 -188.5t-241 -68t-240.5 67t-165 187t-60 270zM141 510q0 -133 52.5 -243t146 -172t214.5 -62q181 0 295 136.5t114 350.5v31q0 130 -52.5 241 t-146.5 173t-212 62q-182 0 -296.5 -138t-114.5 -348v-31zM295 1391q0 22 16 38t38.5 16t38.5 -16t16 -38.5t-16 -38t-38.5 -15.5t-38.5 15.5t-16 38.5zM731 1391q0 22 16 38t38.5 16t38.5 -16t16 -38.5t-16 -38t-38.5 -15.5t-38.5 15.5t-16 38.5z" />
<glyph unicode="&#x4e8;" horiz-adv-x="1336" d="M130 614v206q0 184 66.5 327.5t189.5 221t281 77.5q160 0 283 -77.5t189.5 -221t66.5 -327.5v-213q0 -186 -66 -328.5t-188.5 -220.5t-282.5 -78q-241 0 -390 171.5t-149 462.5zM184 607q0 -171 59.5 -302t169 -201.5t256.5 -70.5q224 0 354 156t130 425v73h-969v-80z M184 740h969v82q0 259 -131 415.5t-355 156.5q-220 0 -351.5 -155.5t-131.5 -423.5v-75z" />
<glyph unicode="&#x4e9;" horiz-adv-x="1129" d="M85 504v47q0 152 58.5 273t165 188.5t240.5 67.5q133 0 239 -65.5t165 -186t60 -271.5v-47q0 -153 -57.5 -273.5t-164 -188.5t-241 -68t-240.5 67t-165 187t-60 270zM138 503q1 -130 53.5 -238.5t146 -170t213.5 -61.5q117 0 210.5 61t145.5 169.5t53 239.5h-822z M138 556h822q-1 129 -53 238t-146 171t-212.5 62t-211.5 -61.5t-145.5 -171t-53.5 -238.5z" />
<glyph unicode="&#x4ea;" horiz-adv-x="1336" d="M130 614v206q0 184 66.5 327.5t189.5 221t281 77.5q160 0 283 -77.5t189.5 -221t66.5 -327.5v-213q0 -186 -66 -328.5t-188.5 -220.5t-282.5 -78q-241 0 -390 171.5t-149 462.5zM184 607q0 -171 59.5 -302t169 -201.5t256.5 -70.5q224 0 354 156t130 425v73h-969v-80z M184 740h969v82q0 259 -131 415.5t-355 156.5q-220 0 -351.5 -155.5t-131.5 -423.5v-75zM435 1701q0 22 16 38t38.5 16t38.5 -16t16 -38.5t-16 -38t-38.5 -15.5t-38.5 15.5t-16 38.5zM871 1701q0 22 16 38t38.5 16t38.5 -16t16 -38.5t-16 -38t-38.5 -15.5t-38.5 15.5 t-16 38.5z" />
<glyph unicode="&#x4eb;" horiz-adv-x="1129" d="M85 504v47q0 152 58.5 273t165 188.5t240.5 67.5q133 0 239 -65.5t165 -186t60 -271.5v-47q0 -153 -57.5 -273.5t-164 -188.5t-241 -68t-240.5 67t-165 187t-60 270zM138 503q1 -130 53.5 -238.5t146 -170t213.5 -61.5q117 0 210.5 61t145.5 169.5t53 239.5h-822z M138 556h822q-1 129 -53 238t-146 171t-212.5 62t-211.5 -61.5t-145.5 -171t-53.5 -238.5zM287 1417q0 22 16 38t38.5 16t38.5 -16t16 -38.5t-16 -38t-38.5 -15.5t-38.5 15.5t-16 38.5zM723 1417q0 22 16 38t38.5 16t38.5 -16t16 -38.5t-16 -38t-38.5 -15.5t-38.5 15.5 t-16 38.5z" />
<glyph unicode="&#x4ec;" horiz-adv-x="1298" d="M132 437h53q21 -202 136 -303t320 -101q206 0 334.5 156.5t128.5 424.5v82h-629v53h629v73q0 258 -127.5 415t-335.5 157q-204 0 -318.5 -102.5t-137.5 -299.5h-53q21 219 153 336.5t356 117.5q152 0 269 -76.5t181 -217.5t66 -321v-224q0 -185 -64 -328t-182 -221 t-270 -78q-226 0 -357 119t-152 338zM417 1727q0 22 16 38t38.5 16t38.5 -16t16 -38.5t-16 -38t-38.5 -15.5t-38.5 15.5t-16 38.5zM853 1727q0 22 16 38t38.5 16t38.5 -16t16 -38.5t-16 -38t-38.5 -15.5t-38.5 15.5t-16 38.5z" />
<glyph unicode="&#x4ed;" horiz-adv-x="1067" d="M120 355h54q0 -147 91 -234.5t241 -87.5q176 0 281 128t107 345h-561v53h561q-2 212 -106 340t-284 128q-148 0 -239 -79.5t-91 -213.5h-54q0 153 110.5 249.5t273.5 96.5q200 0 321.5 -144.5t121.5 -391.5v-34q0 -240 -121.5 -385t-319.5 -145q-174 0 -280 102.5 t-106 272.5zM275 1391q0 22 16 38t38.5 16t38.5 -16t16 -38.5t-16 -38t-38.5 -15.5t-38.5 15.5t-16 38.5zM711 1391q0 22 16 38t38.5 16t38.5 -16t16 -38.5t-16 -38t-38.5 -15.5t-38.5 15.5t-16 38.5z" />
<glyph unicode="&#x4ee;" horiz-adv-x="1257" d="M32 1427h66l557 -985l487 985h64l-586 -1173l-35 -67q-115 -208 -312 -208q-55 0 -85 13l15 50q27 -10 75 -10q86 0 153 51.5t128 171.5l66 130zM318 1698v52h615v-52h-615z" />
<glyph unicode="&#x4ef;" horiz-adv-x="958" d="M42 1060h58l393 -978l7 20l366 958h59l-474 -1244l-24 -59q-76 -185 -253 -185q-56 0 -78 11l-1 49q31 -8 72 -8q83 0 138 48.5t95 157.5l65 176zM194 1386v52h615v-52h-615z" />
<glyph unicode="&#x4f0;" horiz-adv-x="1257" d="M32 1427h66l557 -985l487 985h64l-586 -1173l-35 -67q-115 -208 -312 -208q-55 0 -85 13l15 50q27 -10 75 -10q86 0 153 51.5t128 171.5l66 130zM372 1706q0 22 16 38t38.5 16t38.5 -16t16 -38.5t-16 -38t-38.5 -15.5t-38.5 15.5t-16 38.5zM808 1706q0 22 16 38t38.5 16 t38.5 -16t16 -38.5t-16 -38t-38.5 -15.5t-38.5 15.5t-16 38.5z" />
<glyph unicode="&#x4f1;" horiz-adv-x="958" d="M42 1060h58l393 -978l7 20l366 958h59l-474 -1244l-24 -59q-76 -185 -253 -185q-56 0 -78 11l-1 49q31 -8 72 -8q83 0 138 48.5t95 157.5l65 176zM248 1393q0 22 16 38t38.5 16t38.5 -16t16 -38.5t-16 -38t-38.5 -15.5t-38.5 15.5t-16 38.5zM684 1393q0 22 16 38t38.5 16 t38.5 -16t16 -38.5t-16 -38t-38.5 -15.5t-38.5 15.5t-16 38.5z" />
<glyph unicode="&#x4f2;" horiz-adv-x="1257" d="M32 1427h66l557 -985l487 985h64l-586 -1173l-35 -67q-115 -208 -312 -208q-55 0 -85 13l15 50q27 -10 75 -10q86 0 153 51.5t128 171.5l66 130zM453 1520l231 298h75l-238 -298h-68zM683 1520l276 298h78l-282 -298h-72z" />
<glyph unicode="&#x4f3;" horiz-adv-x="958" d="M42 1060h58l393 -978l7 20l366 958h59l-474 -1244l-24 -59q-76 -185 -253 -185q-56 0 -78 11l-1 49q31 -8 72 -8q83 0 138 48.5t95 157.5l65 176zM328 1207l231 298h75l-238 -298h-68zM558 1207l276 298h78l-282 -298h-72z" />
<glyph unicode="&#x4f4;" horiz-adv-x="1298" d="M191 1078v349h53v-357q3 -189 104.5 -280.5t312.5 -91.5q189 0 393 59v670h53v-1427h-53v705q-216 -60 -393 -60q-243 0 -356 105.5t-114 327.5zM413 1706q0 22 16 38t38.5 16t38.5 -16t16 -38.5t-16 -38t-38.5 -15.5t-38.5 15.5t-16 38.5zM849 1706q0 22 16 38t38.5 16 t38.5 -16t16 -38.5t-16 -38t-38.5 -15.5t-38.5 15.5t-16 38.5z" />
<glyph unicode="&#x4f5;" horiz-adv-x="1045" d="M115 829v231h53v-231q0 -130 33 -204t105 -106.5t209 -32.5q79 4 168.5 26t140.5 50v498h53v-1060h-53v512q-70 -35 -159 -57t-150 -22q-158 0 -240.5 38t-121 123.5t-38.5 234.5zM226 1370q0 22 16 38t38.5 16t38.5 -16t16 -38.5t-16 -38t-38.5 -15.5t-38.5 15.5 t-16 38.5zM662 1370q0 22 16 38t38.5 16t38.5 -16t16 -38.5t-16 -38t-38.5 -15.5t-38.5 15.5t-16 38.5z" />
<glyph unicode="&#x4f6;" horiz-adv-x="1099" d="M189 0v1427h845v-53h-792v-1374h-53zM243 93h53v-438h-53v438z" />
<glyph unicode="&#x4f7;" horiz-adv-x="849" d="M169 0v1060h637v-54h-585v-1006h-52zM220 93h53v-438h-53v438z" />
<glyph unicode="&#x4f8;" horiz-adv-x="1615" d="M189 0v1427h53v-655h373q209 -3 329.5 -104.5t120.5 -281.5q0 -178 -121 -281.5t-336 -104.5h-419zM242 53h362q194 0 300.5 89.5t106.5 245.5q0 149 -105 239t-294 92h-370v-666zM596 1706q0 22 16 38t38.5 16t38.5 -16t16 -38.5t-16 -38t-38.5 -15.5t-38.5 15.5 t-16 38.5zM1032 1706q0 22 16 38t38.5 16t38.5 -16t16 -38.5t-16 -38t-38.5 -15.5t-38.5 15.5t-16 38.5zM1365 0v1427h53v-1427h-53z" />
<glyph unicode="&#x4f9;" horiz-adv-x="1456" d="M177 0v1060h53v-403h348q170 -3 270 -92t100 -237q0 -147 -99 -236t-271 -92h-401zM230 53h338q153 0 240 75t87 202q0 122 -85 197t-234 77h-346v-551zM527 1370q0 22 16 38t38.5 16t38.5 -16t16 -38.5t-16 -38t-38.5 -15.5t-38.5 15.5t-16 38.5zM963 1370q0 22 16 38 t38.5 16t38.5 -16t16 -38.5t-16 -38t-38.5 -15.5t-38.5 15.5t-16 38.5zM1235 0v1060h53v-1060h-53z" />
<glyph unicode="&#x4fa;" horiz-adv-x="1099" d="M-108 -409l13 51q50 -18 97 -18q110 0 168 75t58 214v203h53v-208q-1 -164 -74.5 -250t-204.5 -86q-53 0 -110 19zM-7 778v53h575v-53h-575zM189 0v1427h845v-53h-792v-1374h-53z" />
<glyph unicode="&#x4fb;" horiz-adv-x="826" d="M-116 -409l13 51q50 -18 97 -18q110 0 168 75t58 214v203h53v-208q-1 -164 -74.5 -250t-204.5 -86q-53 0 -110 19zM1 578v53h575v-53h-575zM169 0v1060h637v-54h-585v-1006h-52z" />
<glyph unicode="&#x4fc;" horiz-adv-x="1198" d="M53 0l512 728l-493 699h66l461 -658l460 658h67l-494 -699l513 -728h-66l-480 687l-482 -687h-64zM761 -409l13 51q50 -18 97 -18q110 0 168 75t58 214v203h53v-208q-1 -164 -74.5 -250t-204.5 -86q-53 0 -110 19z" />
<glyph unicode="&#x4fd;" horiz-adv-x="958" d="M54 0l392 544l-372 516h66l339 -470l338 470h67l-372 -516l392 -544h-66l-360 498l-358 -498h-66zM536 -409l13 51q50 -18 97 -18q110 0 168 75t58 214v203h53v-208q-1 -164 -74.5 -250t-204.5 -86q-53 0 -110 19z" />
<glyph unicode="&#x4fe;" horiz-adv-x="1198" d="M53 0l499 709h-245v52h235l-470 666h66l461 -658l460 658h67l-470 -666h226v-52h-236l499 -709h-66l-480 687l-482 -687h-64z" />
<glyph unicode="&#x4ff;" horiz-adv-x="958" d="M54 0l372 517h-230v53h230l-352 490h66l339 -470l338 470h67l-354 -490h241v-53h-241l374 -517h-66l-360 498l-358 -498h-66z" />
<glyph unicode="&#x1e00;" horiz-adv-x="1198" d="M32 0l534 1427h65l534 -1427h-58l-159 426h-699l-159 -426h-58zM269 479h659l-329 884zM493 -208q0 47 38 82.5t94 35.5q54 0 92 -35.5t38 -82.5q0 -48 -39 -80.5t-91 -32.5q-54 0 -93 32.5t-39 80.5zM550 -208q0 -25 21.5 -41.5t53 -16.5t53 16.5t21.5 41.5 q0 27 -21.5 44t-53 17t-53 -17t-21.5 -44z" />
<glyph unicode="&#x1e01;" horiz-adv-x="1059" d="M90 269q0 146 132 233.5t350 89.5h262v155q0 133 -84 206.5t-239 73.5q-145 0 -242 -74.5t-97 -184.5l-53 2q0 130 113.5 220t278.5 90q171 0 272 -86t104 -241v-507q0 -174 27 -237v-9h-60q-20 68 -20 194q-63 -102 -171.5 -158t-246.5 -56q-146 0 -236 80t-90 209z M143 265q0 -97 77.5 -165t195.5 -68q149 0 256.5 67t161.5 187v252h-245q-227 0 -348 -90q-98 -74 -98 -183zM364 -208q0 47 38 82.5t94 35.5q54 0 92 -35.5t38 -82.5q0 -48 -39 -80.5t-91 -32.5q-54 0 -93 32.5t-39 80.5zM421 -208q0 -25 21.5 -41.5t53 -16.5t53 16.5 t21.5 41.5q0 27 -21.5 44t-53 17t-53 -17t-21.5 -44z" />
<glyph unicode="&#x1e3e;" horiz-adv-x="1720" d="M196 0v1427h75l587 -1350l589 1350h78v-1427h-53v1348l-592 -1348h-42l-589 1342v-1342h-53zM833 1538l186 261h64l-191 -261h-59z" />
<glyph unicode="&#x1e3f;" horiz-adv-x="1799" d="M158 0v1060h54v-251q54 130 154 200.5t221 70.5q133 0 218 -59t111 -192q47 115 153 183t237 68q172 0 255.5 -97t84.5 -291v-692h-53v688q0 174 -70 258t-220 82q-193 -3 -305 -154q-65 -87 -71 -168v-706h-53v712q-1 160 -70 238t-220 78q-174 0 -285 -154 q-66 -92 -87 -204v-670h-54zM858 1223l186 261h64l-191 -261h-59z" />
<glyph unicode="&#x1e80;" horiz-adv-x="1817" d="M60 1427h59l296 -1104l64 -235l65 235l337 1104h59l335 -1104l64 -235l66 235l294 1104h58l-384 -1427h-60l-354 1190l-50 151l-48 -151l-356 -1190h-60zM701 1799h65l184 -261h-58z" />
<glyph unicode="&#x1e81;" horiz-adv-x="1519" d="M81 1060h61l217 -753l57 -229l311 982h54l309 -982l60 229l215 753h62l-309 -1060h-53l-261 797l-50 190l-54 -190l-258 -797h-53zM545 1486h65l184 -261h-58z" />
<glyph unicode="&#x1e82;" horiz-adv-x="1817" d="M60 1427h59l296 -1104l64 -235l65 235l337 1104h59l335 -1104l64 -235l66 235l294 1104h58l-384 -1427h-60l-354 1190l-50 151l-48 -151l-356 -1190h-60zM868 1538l186 261h64l-191 -261h-59z" />
<glyph unicode="&#x1e83;" horiz-adv-x="1519" d="M81 1060h61l217 -753l57 -229l311 982h54l309 -982l60 229l215 753h62l-309 -1060h-53l-261 797l-50 190l-54 -190l-258 -797h-53zM712 1225l186 261h64l-191 -261h-59z" />
<glyph unicode="&#x1e84;" horiz-adv-x="1817" d="M60 1427h59l296 -1104l64 -235l65 235l337 1104h59l335 -1104l64 -235l66 235l294 1104h58l-384 -1427h-60l-354 1190l-50 151l-48 -151l-356 -1190h-60zM646 1706q0 22 16 38t38.5 16t38.5 -16t16 -38.5t-16 -38t-38.5 -15.5t-38.5 15.5t-16 38.5zM1082 1706q0 22 16 38 t38.5 16t38.5 -16t16 -38.5t-16 -38t-38.5 -15.5t-38.5 15.5t-16 38.5z" />
<glyph unicode="&#x1e85;" horiz-adv-x="1519" d="M81 1060h61l217 -753l57 -229l311 982h54l309 -982l60 229l215 753h62l-309 -1060h-53l-261 797l-50 190l-54 -190l-258 -797h-53zM491 1393q0 22 16 38t38.5 16t38.5 -16t16 -38.5t-16 -38t-38.5 -15.5t-38.5 15.5t-16 38.5zM927 1393q0 22 16 38t38.5 16t38.5 -16 t16 -38.5t-16 -38t-38.5 -15.5t-38.5 15.5t-16 38.5z" />
<glyph unicode="&#x1ea0;" horiz-adv-x="1198" d="M32 0l534 1427h65l534 -1427h-58l-159 426h-699l-159 -426h-58zM269 479h659l-329 884zM567 -214q0 23 15.5 39t38 16t38.5 -16t16 -38.5t-16 -38.5t-38.5 -16t-38 16t-15.5 38z" />
<glyph unicode="&#x1ea1;" horiz-adv-x="1059" d="M90 269q0 146 132 233.5t350 89.5h262v155q0 133 -84 206.5t-239 73.5q-145 0 -242 -74.5t-97 -184.5l-53 2q0 130 113.5 220t278.5 90q171 0 272 -86t104 -241v-507q0 -174 27 -237v-9h-60q-20 68 -20 194q-63 -102 -171.5 -158t-246.5 -56q-146 0 -236 80t-90 209z M143 265q0 -97 77.5 -165t195.5 -68q149 0 256.5 67t161.5 187v252h-245q-227 0 -348 -90q-98 -74 -98 -183zM438 -214q0 23 15.5 39t38 16t38.5 -16t16 -38.5t-16 -38.5t-38.5 -16t-38 16t-15.5 38z" />
<glyph unicode="&#x1ea2;" horiz-adv-x="1198" d="M32 0l534 1427h65l534 -1427h-58l-159 426h-699l-159 -426h-58zM269 479h659l-329 884zM530 1872l7 48q121 0 200 -41t79 -115q0 -68 -49 -108.5t-144 -47.5v-53h-47v97q97 8 141 32.5t44 79.5q0 50 -62.5 79t-168.5 29z" />
<glyph unicode="&#x1ea3;" horiz-adv-x="1059" d="M90 269q0 146 132 233.5t350 89.5h262v155q0 133 -84 206.5t-239 73.5q-145 0 -242 -74.5t-97 -184.5l-53 2q0 130 113.5 220t278.5 90q171 0 272 -86t104 -241v-507q0 -174 27 -237v-9h-60q-20 68 -20 194q-63 -102 -171.5 -158t-246.5 -56q-146 0 -236 80t-90 209z M143 265q0 -97 77.5 -165t195.5 -68q149 0 256.5 67t161.5 187v252h-245q-227 0 -348 -90q-98 -74 -98 -183zM496 1558l7 48q121 0 200 -41t79 -115q0 -68 -49 -108.5t-144 -47.5v-53h-47v97q97 8 141 32.5t44 79.5q0 50 -62.5 79t-168.5 29z" />
<glyph unicode="&#x1ea4;" horiz-adv-x="1198" d="M32 0l534 1427h65l534 -1427h-58l-159 426h-699l-159 -426h-58zM269 479h659l-329 884zM314 1513l243 218h78l243 -218h-82l-200 182l-200 -182h-82zM828 1667l150 200h71l-159 -200h-62z" />
<glyph unicode="&#x1ea5;" horiz-adv-x="1059" d="M90 269q0 146 132 233.5t350 89.5h262v155q0 133 -84 206.5t-239 73.5q-145 0 -242 -74.5t-97 -184.5l-53 2q0 130 113.5 220t278.5 90q171 0 272 -86t104 -241v-507q0 -174 27 -237v-9h-60q-20 68 -20 194q-63 -102 -171.5 -158t-246.5 -56q-146 0 -236 80t-90 209z M143 265q0 -97 77.5 -165t195.5 -68q149 0 256.5 67t161.5 187v252h-245q-227 0 -348 -90q-98 -74 -98 -183zM280 1199l243 218h78l243 -218h-82l-200 182l-200 -182h-82zM794 1353l150 200h71l-159 -200h-62z" />
<glyph unicode="&#x1ea6;" horiz-adv-x="1198" d="M32 0l534 1427h65l534 -1427h-58l-159 426h-699l-159 -426h-58zM140 1867h72l150 -200h-62zM269 479h659l-329 884zM312 1513l243 218h78l243 -218h-82l-200 182l-200 -182h-82z" />
<glyph unicode="&#x1ea7;" horiz-adv-x="1059" d="M90 269q0 146 132 233.5t350 89.5h262v155q0 133 -84 206.5t-239 73.5q-145 0 -242 -74.5t-97 -184.5l-53 2q0 130 113.5 220t278.5 90q171 0 272 -86t104 -241v-507q0 -174 27 -237v-9h-60q-20 68 -20 194q-63 -102 -171.5 -158t-246.5 -56q-146 0 -236 80t-90 209z M106 1553h72l150 -200h-62zM143 265q0 -97 77.5 -165t195.5 -68q149 0 256.5 67t161.5 187v252h-245q-227 0 -348 -90q-98 -74 -98 -183zM278 1199l243 218h78l243 -218h-82l-200 182l-200 -182h-82z" />
<glyph unicode="&#x1ea8;" horiz-adv-x="1198" d="M32 0l534 1427h65l534 -1427h-58l-159 426h-699l-159 -426h-58zM269 479h659l-329 884zM319 1560l243 219h78l243 -219h-82l-201 182l-199 -182h-82zM842 1929l5 54q103 0 170 -35t67 -97q0 -121 -161 -134v-43h-45v91q89 6 117.5 23t28.5 56q0 85 -182 85z" />
<glyph unicode="&#x1ea9;" horiz-adv-x="1059" d="M90 269q0 146 132 233.5t350 89.5h262v155q0 133 -84 206.5t-239 73.5q-145 0 -242 -74.5t-97 -184.5l-53 2q0 130 113.5 220t278.5 90q171 0 272 -86t104 -241v-507q0 -174 27 -237v-9h-60q-20 68 -20 194q-63 -102 -171.5 -158t-246.5 -56q-146 0 -236 80t-90 209z M143 265q0 -97 77.5 -165t195.5 -68q149 0 256.5 67t161.5 187v252h-245q-227 0 -348 -90q-98 -74 -98 -183zM284 1247l243 219h78l243 -219h-82l-201 182l-199 -182h-82zM807 1616l5 54q103 0 170 -35t67 -97q0 -121 -161 -134v-43h-45v91q89 6 117.5 23t28.5 56 q0 85 -182 85z" />
<glyph unicode="&#x1eaa;" horiz-adv-x="1198" d="M32 0l534 1427h65l534 -1427h-58l-159 426h-699l-159 -426h-58zM269 479h659l-329 884zM315 1531l253 219h58l253 -219h-82l-201 182l-199 -182h-82zM388 1798q0 62 38 107.5t89 45.5q38 0 64.5 -16.5t48 -35.5t43.5 -35t52 -16q78 0 78 95l50 -8q0 -60 -36.5 -98.5 t-91.5 -38.5q-39 0 -64.5 16t-47 35.5t-43.5 35t-53 15.5q-37 0 -57 -31.5t-20 -78.5z" />
<glyph unicode="&#x1eab;" horiz-adv-x="1059" d="M90 269q0 146 132 233.5t350 89.5h262v155q0 133 -84 206.5t-239 73.5q-145 0 -242 -74.5t-97 -184.5l-53 2q0 130 113.5 220t278.5 90q171 0 272 -86t104 -241v-507q0 -174 27 -237v-9h-60q-20 68 -20 194q-63 -102 -171.5 -158t-246.5 -56q-146 0 -236 80t-90 209z M143 265q0 -97 77.5 -165t195.5 -68q149 0 256.5 67t161.5 187v252h-245q-227 0 -348 -90q-98 -74 -98 -183zM281 1218l253 219h58l253 -219h-82l-201 182l-199 -182h-82zM354 1485q0 62 38 107.5t89 45.5q38 0 64.5 -16.5t48 -35.5t43.5 -35t52 -16q78 0 78 95l50 -8 q0 -60 -36.5 -98.5t-91.5 -38.5q-39 0 -64.5 16t-47 35.5t-43.5 35t-53 15.5q-37 0 -57 -31.5t-20 -78.5z" />
<glyph unicode="&#x1eac;" horiz-adv-x="1198" d="M32 0l534 1427h65l534 -1427h-58l-159 426h-699l-159 -426h-58zM269 479h659l-329 884zM355 1552v13l225 235h40l229 -238v-10h-67l-183 192l-181 -192h-63zM567 -214q0 23 15.5 39t38 16t38.5 -16t16 -38.5t-16 -38.5t-38.5 -16t-38 16t-15.5 38z" />
<glyph unicode="&#x1ead;" horiz-adv-x="1059" d="M90 269q0 146 132 233.5t350 89.5h262v155q0 133 -84 206.5t-239 73.5q-145 0 -242 -74.5t-97 -184.5l-53 2q0 130 113.5 220t278.5 90q171 0 272 -86t104 -241v-507q0 -174 27 -237v-9h-60q-20 68 -20 194q-63 -102 -171.5 -158t-246.5 -56q-146 0 -236 80t-90 209z M143 265q0 -97 77.5 -165t195.5 -68q149 0 256.5 67t161.5 187v252h-245q-227 0 -348 -90q-98 -74 -98 -183zM321 1239v13l225 235h40l229 -238v-10h-67l-183 192l-181 -192h-63zM438 -214q0 23 15.5 39t38 16t38.5 -16t16 -38.5t-16 -38.5t-38.5 -16t-38 16t-15.5 38z" />
<glyph unicode="&#x1eae;" horiz-adv-x="1198" d="M32 0l534 1427h65l534 -1427h-58l-159 426h-699l-159 -426h-58zM269 479h659l-329 884zM315 1760h53q0 -77 58 -118t165 -41q106 0 164 42.5t58 116.5h54q0 -91 -74 -147.5t-202 -56.5t-202 56.5t-74 147.5zM529 1729l162 208h64l-172 -208h-54z" />
<glyph unicode="&#x1eaf;" horiz-adv-x="1059" d="M90 269q0 146 132 233.5t350 89.5h262v155q0 133 -84 206.5t-239 73.5q-145 0 -242 -74.5t-97 -184.5l-53 2q0 130 113.5 220t278.5 90q171 0 272 -86t104 -241v-507q0 -174 27 -237v-9h-60q-20 68 -20 194q-63 -102 -171.5 -158t-246.5 -56q-146 0 -236 80t-90 209z M143 265q0 -97 77.5 -165t195.5 -68q149 0 256.5 67t161.5 187v252h-245q-227 0 -348 -90q-98 -74 -98 -183zM280 1447h53q0 -77 58 -118t165 -41q106 0 164 42.5t58 116.5h54q0 -91 -74 -147.5t-202 -56.5t-202 56.5t-74 147.5zM494 1416l162 208h64l-172 -208h-54z" />
<glyph unicode="&#x1eb0;" horiz-adv-x="1198" d="M32 0l534 1427h65l534 -1427h-58l-159 426h-699l-159 -426h-58zM269 479h659l-329 884zM315 1760h53q0 -77 58 -118t165 -41q106 0 164 42.5t58 116.5h54q0 -91 -74 -147.5t-202 -56.5t-202 56.5t-74 147.5zM421 1937h64l162 -208h-54z" />
<glyph unicode="&#x1eb1;" horiz-adv-x="1059" d="M90 269q0 146 132 233.5t350 89.5h262v155q0 133 -84 206.5t-239 73.5q-145 0 -242 -74.5t-97 -184.5l-53 2q0 130 113.5 220t278.5 90q171 0 272 -86t104 -241v-507q0 -174 27 -237v-9h-60q-20 68 -20 194q-63 -102 -171.5 -158t-246.5 -56q-146 0 -236 80t-90 209z M143 265q0 -97 77.5 -165t195.5 -68q149 0 256.5 67t161.5 187v252h-245q-227 0 -348 -90q-98 -74 -98 -183zM280 1447h53q0 -77 58 -118t165 -41q106 0 164 42.5t58 116.5h54q0 -91 -74 -147.5t-202 -56.5t-202 56.5t-74 147.5zM386 1624h64l162 -208h-54z" />
<glyph unicode="&#x1eb2;" horiz-adv-x="1198" d="M32 0l534 1427h65l534 -1427h-58l-159 426h-699l-159 -426h-58zM269 479h659l-329 884zM318 1749h52q0 -76 56.5 -115.5t160.5 -39.5q101 0 157 41.5t56 113.5h54q0 -89 -72.5 -144.5t-194.5 -55.5q-124 0 -196.5 55.5t-72.5 144.5zM522 2012l7 42q126 0 197 -38t71 -99 q0 -125 -186 -139v-46h-45v87q94 6 136 27t42 71q0 44 -59 69.5t-163 25.5z" />
<glyph unicode="&#x1eb3;" horiz-adv-x="1059" d="M90 269q0 146 132 233.5t350 89.5h262v155q0 133 -84 206.5t-239 73.5q-145 0 -242 -74.5t-97 -184.5l-53 2q0 130 113.5 220t278.5 90q171 0 272 -86t104 -241v-507q0 -174 27 -237v-9h-60q-20 68 -20 194q-63 -102 -171.5 -158t-246.5 -56q-146 0 -236 80t-90 209z M143 265q0 -97 77.5 -165t195.5 -68q149 0 256.5 67t161.5 187v252h-245q-227 0 -348 -90q-98 -74 -98 -183zM284 1436h52q0 -76 56.5 -115.5t160.5 -39.5q101 0 157 41.5t56 113.5h54q0 -89 -72.5 -144.5t-194.5 -55.5q-124 0 -196.5 55.5t-72.5 144.5zM488 1699l7 42 q126 0 197 -38t71 -99q0 -125 -186 -139v-46h-45v87q94 6 136 27t42 71q0 44 -59 69.5t-163 25.5z" />
<glyph unicode="&#x1eb4;" horiz-adv-x="1198" d="M32 0l534 1427h65l534 -1427h-58l-159 426h-699l-159 -426h-58zM269 479h659l-329 884zM338 1738h53q0 -78 52.5 -119.5t150.5 -41.5q94 0 148 42.5t54 118.5h55q0 -93 -69.5 -150.5t-187.5 -57.5q-119 0 -187.5 58t-68.5 150zM341 1823q0 59 43.5 97t107.5 38 q32 0 55 -10t59.5 -38t54 -34.5t38.5 -6.5q43 0 74 28t31 75l47 -9q0 -61 -43 -101t-109 -40q-31 0 -53.5 8.5t-60.5 37t-54.5 35t-38.5 6.5q-44 0 -74 -25t-30 -70z" />
<glyph unicode="&#x1eb5;" horiz-adv-x="1059" d="M90 269q0 146 132 233.5t350 89.5h262v155q0 133 -84 206.5t-239 73.5q-145 0 -242 -74.5t-97 -184.5l-53 2q0 130 113.5 220t278.5 90q171 0 272 -86t104 -241v-507q0 -174 27 -237v-9h-60q-20 68 -20 194q-63 -102 -171.5 -158t-246.5 -56q-146 0 -236 80t-90 209z M143 265q0 -97 77.5 -165t195.5 -68q149 0 256.5 67t161.5 187v252h-245q-227 0 -348 -90q-98 -74 -98 -183zM304 1425h53q0 -78 52.5 -119.5t150.5 -41.5q94 0 148 42.5t54 118.5h55q0 -93 -69.5 -150.5t-187.5 -57.5q-119 0 -187.5 58t-68.5 150zM307 1510q0 59 43.5 97 t107.5 38q32 0 55 -10t59.5 -38t54 -34.5t38.5 -6.5q43 0 74 28t31 75l47 -9q0 -61 -43 -101t-109 -40q-31 0 -53.5 8.5t-60.5 37t-54.5 35t-38.5 6.5q-44 0 -74 -25t-30 -70z" />
<glyph unicode="&#x1eb6;" horiz-adv-x="1198" d="M32 0l534 1427h65l534 -1427h-58l-159 426h-699l-159 -426h-58zM269 479h659l-329 884zM325 1774h53q0 -89 56 -138.5t164 -49.5q105 0 162.5 50.5t57.5 137.5h53q0 -109 -74 -176t-199 -67t-199 67t-74 176zM567 -214q0 23 15.5 39t38 16t38.5 -16t16 -38.5t-16 -38.5 t-38.5 -16t-38 16t-15.5 38z" />
<glyph unicode="&#x1eb7;" horiz-adv-x="1059" d="M90 269q0 146 132 233.5t350 89.5h262v155q0 133 -84 206.5t-239 73.5q-145 0 -242 -74.5t-97 -184.5l-53 2q0 130 113.5 220t278.5 90q171 0 272 -86t104 -241v-507q0 -174 27 -237v-9h-60q-20 68 -20 194q-63 -102 -171.5 -158t-246.5 -56q-146 0 -236 80t-90 209z M143 265q0 -97 77.5 -165t195.5 -68q149 0 256.5 67t161.5 187v252h-245q-227 0 -348 -90q-98 -74 -98 -183zM291 1460h53q0 -89 56 -138.5t164 -49.5q105 0 162.5 50.5t57.5 137.5h53q0 -109 -74 -176t-199 -67t-199 67t-74 176zM438 -214q0 23 15.5 39t38 16t38.5 -16 t16 -38.5t-16 -38.5t-38.5 -16t-38 16t-15.5 38z" />
<glyph unicode="&#x1eb8;" horiz-adv-x="1142" d="M196 0v1427h868v-53h-815v-614h715v-52h-715v-655h815v-53h-868zM548 -204q0 23 15.5 39t38 16t38.5 -16t16 -38.5t-16 -38.5t-38.5 -16t-38 16t-15.5 38z" />
<glyph unicode="&#x1eb9;" horiz-adv-x="1011" d="M85 507v44q0 147 59 269.5t162 191t224 68.5q178 0 290.5 -126.5t112.5 -332.5v-56h-795v-57q0 -130 54.5 -240t150 -173t207.5 -63q107 0 182 36t132 110l38 -26q-119 -172 -352 -172q-129 0 -236 69.5t-168 190t-61 267.5zM141 618h739v13q0 108 -45.5 200.5 t-125.5 144t-179 51.5q-155 0 -262.5 -115t-126.5 -294zM495 -210q0 23 15.5 39t38 16t38.5 -16t16 -38.5t-16 -38.5t-38.5 -16t-38 16t-15.5 38z" />
<glyph unicode="&#x1eba;" horiz-adv-x="1142" d="M196 0v1427h868v-53h-815v-614h715v-52h-715v-655h815v-53h-868zM537 1872l7 48q121 0 200 -41t79 -115q0 -68 -49 -108.5t-144 -47.5v-53h-47v97q97 8 141 32.5t44 79.5q0 50 -62.5 79t-168.5 29z" />
<glyph unicode="&#x1ebb;" horiz-adv-x="1011" d="M85 507v44q0 147 59 269.5t162 191t224 68.5q178 0 290.5 -126.5t112.5 -332.5v-56h-795v-57q0 -130 54.5 -240t150 -173t207.5 -63q107 0 182 36t132 110l38 -26q-119 -172 -352 -172q-129 0 -236 69.5t-168 190t-61 267.5zM141 618h739v13q0 108 -45.5 200.5 t-125.5 144t-179 51.5q-155 0 -262.5 -115t-126.5 -294zM486 1557l7 48q121 0 200 -41t79 -115q0 -68 -49 -108.5t-144 -47.5v-53h-47v97q97 8 141 32.5t44 79.5q0 50 -62.5 79t-168.5 29z" />
<glyph unicode="&#x1ebc;" horiz-adv-x="1142" d="M196 0v1427h868v-53h-815v-614h715v-52h-715v-655h815v-53h-868zM302 1587q0 79 49 127.5t124 48.5q76 0 150 -61t131 -61q53 0 86 35.5t33 93.5h53q0 -81 -49.5 -132t-122.5 -51q-79 0 -150 61.5t-131 61.5q-55 0 -87 -33.5t-32 -89.5h-54z" />
<glyph unicode="&#x1ebd;" horiz-adv-x="1011" d="M85 507v44q0 147 59 269.5t162 191t224 68.5q178 0 290.5 -126.5t112.5 -332.5v-56h-795v-57q0 -130 54.5 -240t150 -173t207.5 -63q107 0 182 36t132 110l38 -26q-119 -172 -352 -172q-129 0 -236 69.5t-168 190t-61 267.5zM141 618h739v13q0 108 -45.5 200.5 t-125.5 144t-179 51.5q-155 0 -262.5 -115t-126.5 -294zM251 1273q0 79 49 127.5t124 48.5q76 0 150 -61t131 -61q53 0 86 35.5t33 93.5h53q0 -81 -49.5 -132t-122.5 -51q-79 0 -150 61.5t-131 61.5q-55 0 -87 -33.5t-32 -89.5h-54z" />
<glyph unicode="&#x1ebe;" horiz-adv-x="1142" d="M196 0v1427h868v-53h-815v-614h715v-52h-715v-655h815v-53h-868zM321 1513l243 218h78l243 -218h-82l-200 182l-200 -182h-82zM835 1667l150 200h71l-159 -200h-62z" />
<glyph unicode="&#x1ebf;" horiz-adv-x="1011" d="M85 507v44q0 147 59 269.5t162 191t224 68.5q178 0 290.5 -126.5t112.5 -332.5v-56h-795v-57q0 -130 54.5 -240t150 -173t207.5 -63q107 0 182 36t132 110l38 -26q-119 -172 -352 -172q-129 0 -236 69.5t-168 190t-61 267.5zM141 618h739v13q0 108 -45.5 200.5 t-125.5 144t-179 51.5q-155 0 -262.5 -115t-126.5 -294zM270 1198l243 218h78l243 -218h-82l-200 182l-200 -182h-82zM784 1352l150 200h71l-159 -200h-62z" />
<glyph unicode="&#x1ec0;" horiz-adv-x="1142" d="M147 1867h72l150 -200h-62zM196 0v1427h868v-53h-815v-614h715v-52h-715v-655h815v-53h-868zM319 1513l243 218h78l243 -218h-82l-200 182l-200 -182h-82z" />
<glyph unicode="&#x1ec1;" horiz-adv-x="1011" d="M85 507v44q0 147 59 269.5t162 191t224 68.5q178 0 290.5 -126.5t112.5 -332.5v-56h-795v-57q0 -130 54.5 -240t150 -173t207.5 -63q107 0 182 36t132 110l38 -26q-119 -172 -352 -172q-129 0 -236 69.5t-168 190t-61 267.5zM96 1552h72l150 -200h-62zM141 618h739v13 q0 108 -45.5 200.5t-125.5 144t-179 51.5q-155 0 -262.5 -115t-126.5 -294zM268 1198l243 218h78l243 -218h-82l-200 182l-200 -182h-82z" />
<glyph unicode="&#x1ec2;" horiz-adv-x="1142" d="M196 0v1427h868v-53h-815v-614h715v-52h-715v-655h815v-53h-868zM326 1560l243 219h78l243 -219h-82l-201 182l-199 -182h-82zM849 1929l5 54q103 0 170 -35t67 -97q0 -121 -161 -134v-43h-45v91q89 6 117.5 23t28.5 56q0 85 -182 85z" />
<glyph unicode="&#x1ec3;" horiz-adv-x="1011" d="M85 507v44q0 147 59 269.5t162 191t224 68.5q178 0 290.5 -126.5t112.5 -332.5v-56h-795v-57q0 -130 54.5 -240t150 -173t207.5 -63q107 0 182 36t132 110l38 -26q-119 -172 -352 -172q-129 0 -236 69.5t-168 190t-61 267.5zM141 618h739v13q0 108 -45.5 200.5 t-125.5 144t-179 51.5q-155 0 -262.5 -115t-126.5 -294zM275 1246l243 219h78l243 -219h-82l-201 182l-199 -182h-82zM798 1615l5 54q103 0 170 -35t67 -97q0 -121 -161 -134v-43h-45v91q89 6 117.5 23t28.5 56q0 85 -182 85z" />
<glyph unicode="&#x1ec4;" horiz-adv-x="1142" d="M196 0v1427h868v-53h-815v-614h715v-52h-715v-655h815v-53h-868zM322 1531l253 219h58l253 -219h-82l-201 182l-199 -182h-82zM395 1798q0 62 38 107.5t89 45.5q38 0 64.5 -16.5t48 -35.5t43.5 -35t52 -16q78 0 78 95l50 -8q0 -60 -36.5 -98.5t-91.5 -38.5 q-39 0 -64.5 16t-47 35.5t-43.5 35t-53 15.5q-37 0 -57 -31.5t-20 -78.5z" />
<glyph unicode="&#x1ec5;" horiz-adv-x="1011" d="M85 507v44q0 147 59 269.5t162 191t224 68.5q178 0 290.5 -126.5t112.5 -332.5v-56h-795v-57q0 -130 54.5 -240t150 -173t207.5 -63q107 0 182 36t132 110l38 -26q-119 -172 -352 -172q-129 0 -236 69.5t-168 190t-61 267.5zM141 618h739v13q0 108 -45.5 200.5 t-125.5 144t-179 51.5q-155 0 -262.5 -115t-126.5 -294zM271 1217l253 219h58l253 -219h-82l-201 182l-199 -182h-82zM344 1484q0 62 38 107.5t89 45.5q38 0 64.5 -16.5t48 -35.5t43.5 -35t52 -16q78 0 78 95l50 -8q0 -60 -36.5 -98.5t-91.5 -38.5q-39 0 -64.5 16t-47 35.5 t-43.5 35t-53 15.5q-37 0 -57 -31.5t-20 -78.5z" />
<glyph unicode="&#x1ec6;" horiz-adv-x="1142" d="M196 0v1427h868v-53h-815v-614h715v-52h-715v-655h815v-53h-868zM362 1552v13l225 235h40l229 -238v-10h-67l-183 192l-181 -192h-63zM548 -204q0 23 15.5 39t38 16t38.5 -16t16 -38.5t-16 -38.5t-38.5 -16t-38 16t-15.5 38z" />
<glyph unicode="&#x1ec7;" horiz-adv-x="1011" d="M85 507v44q0 147 59 269.5t162 191t224 68.5q178 0 290.5 -126.5t112.5 -332.5v-56h-795v-57q0 -130 54.5 -240t150 -173t207.5 -63q107 0 182 36t132 110l38 -26q-119 -172 -352 -172q-129 0 -236 69.5t-168 190t-61 267.5zM141 618h739v13q0 108 -45.5 200.5 t-125.5 144t-179 51.5q-155 0 -262.5 -115t-126.5 -294zM311 1239v13l225 235h40l229 -238v-10h-67l-183 192l-181 -192h-63zM495 -210q0 23 15.5 39t38 16t38.5 -16t16 -38.5t-16 -38.5t-38.5 -16t-38 16t-15.5 38z" />
<glyph unicode="&#x1ec8;" horiz-adv-x="523" d="M193 1872l7 48q121 0 200 -41t79 -115q0 -68 -49 -108.5t-144 -47.5v-53h-47v97q97 8 141 32.5t44 79.5q0 50 -62.5 79t-168.5 29zM235 0v1427h53v-1427h-53z" />
<glyph unicode="&#x1ec9;" horiz-adv-x="397" d="M135 1536l7 48q121 0 200 -41t79 -115q0 -68 -49 -108.5t-144 -47.5v-53h-47v97q97 8 141 32.5t44 79.5q0 50 -62.5 79t-168.5 29zM177 0v1060h53v-1060h-53z" />
<glyph unicode="&#x1eca;" horiz-adv-x="523" d="M204 -214q0 23 15.5 39t38 16t38.5 -16t16 -38.5t-16 -38.5t-38.5 -16t-38 16t-15.5 38zM235 0v1427h53v-1427h-53z" />
<glyph unicode="&#x1ecb;" horiz-adv-x="413" d="M147 -204q0 23 15.5 39t38 16t38.5 -16t16 -38.5t-16 -38.5t-38.5 -16t-38 16t-15.5 38zM154 1392q0 22 15.5 38t38 16t39 -16t16.5 -38.5t-16.5 -38t-39 -15.5t-38 15.5t-15.5 38.5zM181 0v1060h53v-1060h-53z" />
<glyph unicode="&#x1ecc;" horiz-adv-x="1336" d="M130 614v206q0 184 66.5 327.5t189.5 221t281 77.5q160 0 283 -77.5t189.5 -221t66.5 -327.5v-213q0 -186 -66 -328.5t-188.5 -220.5t-282.5 -78q-241 0 -390 171.5t-149 462.5zM184 607q0 -171 59.5 -302t169 -201.5t256.5 -70.5q224 0 354 156t130 425v208 q0 259 -131 415.5t-355 156.5q-220 0 -351.5 -155.5t-131.5 -423.5v-208zM611 -215q0 23 15.5 39t38 16t38.5 -16t16 -38.5t-16 -38.5t-38.5 -16t-38 16t-15.5 38z" />
<glyph unicode="&#x1ecd;" horiz-adv-x="1104" d="M88 504v47q0 152 58.5 273t164.5 188.5t241 67.5q133 0 239 -65.5t165 -186t60 -271.5v-47q0 -153 -57.5 -273.5t-164 -188.5t-241 -68t-240.5 67t-165 187t-60 270zM141 510q0 -133 52.5 -243t146 -172t214.5 -62q181 0 295 136.5t114 350.5v31q0 130 -52.5 241 t-146.5 173t-212 62q-182 0 -296.5 -138t-114.5 -348v-31zM497 -223q0 23 15.5 39t38 16t38.5 -16t16 -38.5t-16 -38.5t-38.5 -16t-38 16t-15.5 38z" />
<glyph unicode="&#x1ece;" horiz-adv-x="1336" d="M130 614v206q0 184 66.5 327.5t189.5 221t281 77.5q160 0 283 -77.5t189.5 -221t66.5 -327.5v-213q0 -186 -66 -328.5t-188.5 -220.5t-282.5 -78q-241 0 -390 171.5t-149 462.5zM184 607q0 -171 59.5 -302t169 -201.5t256.5 -70.5q224 0 354 156t130 425v208 q0 259 -131 415.5t-355 156.5q-220 0 -351.5 -155.5t-131.5 -423.5v-208zM593 1892l7 48q121 0 200 -41t79 -115q0 -68 -49 -108.5t-144 -47.5v-53h-47v97q97 8 141 32.5t44 79.5q0 50 -62.5 79t-168.5 29z" />
<glyph unicode="&#x1ecf;" horiz-adv-x="1104" d="M88 504v47q0 152 58.5 273t164.5 188.5t241 67.5q133 0 239 -65.5t165 -186t60 -271.5v-47q0 -153 -57.5 -273.5t-164 -188.5t-241 -68t-240.5 67t-165 187t-60 270zM141 510q0 -133 52.5 -243t146 -172t214.5 -62q181 0 295 136.5t114 350.5v31q0 130 -52.5 241 t-146.5 173t-212 62q-182 0 -296.5 -138t-114.5 -348v-31zM486 1556l7 48q121 0 200 -41t79 -115q0 -68 -49 -108.5t-144 -47.5v-53h-47v97q97 8 141 32.5t44 79.5q0 50 -62.5 79t-168.5 29z" />
<glyph unicode="&#x1ed0;" horiz-adv-x="1336" d="M130 614v206q0 184 66.5 327.5t189.5 221t281 77.5q160 0 283 -77.5t189.5 -221t66.5 -327.5v-213q0 -186 -66 -328.5t-188.5 -220.5t-282.5 -78q-241 0 -390 171.5t-149 462.5zM184 607q0 -171 59.5 -302t169 -201.5t256.5 -70.5q224 0 354 156t130 425v208 q0 259 -131 415.5t-355 156.5q-220 0 -351.5 -155.5t-131.5 -423.5v-208zM377 1533l243 218h78l243 -218h-82l-200 182l-200 -182h-82zM891 1687l150 200h71l-159 -200h-62z" />
<glyph unicode="&#x1ed1;" horiz-adv-x="1104" d="M88 504v47q0 152 58.5 273t164.5 188.5t241 67.5q133 0 239 -65.5t165 -186t60 -271.5v-47q0 -153 -57.5 -273.5t-164 -188.5t-241 -68t-240.5 67t-165 187t-60 270zM141 510q0 -133 52.5 -243t146 -172t214.5 -62q181 0 295 136.5t114 350.5v31q0 130 -52.5 241 t-146.5 173t-212 62q-182 0 -296.5 -138t-114.5 -348v-31zM270 1198l243 218h78l243 -218h-82l-200 182l-200 -182h-82zM784 1352l150 200h71l-159 -200h-62z" />
<glyph unicode="&#x1ed2;" horiz-adv-x="1336" d="M130 614v206q0 184 66.5 327.5t189.5 221t281 77.5q160 0 283 -77.5t189.5 -221t66.5 -327.5v-213q0 -186 -66 -328.5t-188.5 -220.5t-282.5 -78q-241 0 -390 171.5t-149 462.5zM184 607q0 -171 59.5 -302t169 -201.5t256.5 -70.5q224 0 354 156t130 425v208 q0 259 -131 415.5t-355 156.5q-220 0 -351.5 -155.5t-131.5 -423.5v-208zM203 1887h72l150 -200h-62zM375 1533l243 218h78l243 -218h-82l-200 182l-200 -182h-82z" />
<glyph unicode="&#x1ed3;" horiz-adv-x="1104" d="M88 504v47q0 152 58.5 273t164.5 188.5t241 67.5q133 0 239 -65.5t165 -186t60 -271.5v-47q0 -153 -57.5 -273.5t-164 -188.5t-241 -68t-240.5 67t-165 187t-60 270zM96 1552h72l150 -200h-62zM141 510q0 -133 52.5 -243t146 -172t214.5 -62q181 0 295 136.5t114 350.5 v31q0 130 -52.5 241t-146.5 173t-212 62q-182 0 -296.5 -138t-114.5 -348v-31zM268 1198l243 218h78l243 -218h-82l-200 182l-200 -182h-82z" />
<glyph unicode="&#x1ed4;" horiz-adv-x="1336" d="M130 614v206q0 184 66.5 327.5t189.5 221t281 77.5q160 0 283 -77.5t189.5 -221t66.5 -327.5v-213q0 -186 -66 -328.5t-188.5 -220.5t-282.5 -78q-241 0 -390 171.5t-149 462.5zM184 607q0 -171 59.5 -302t169 -201.5t256.5 -70.5q224 0 354 156t130 425v208 q0 259 -131 415.5t-355 156.5q-220 0 -351.5 -155.5t-131.5 -423.5v-208zM382 1581l243 219h78l243 -219h-82l-201 182l-199 -182h-82zM905 1950l5 54q103 0 170 -35t67 -97q0 -121 -161 -134v-43h-45v91q89 6 117.5 23t28.5 56q0 85 -182 85z" />
<glyph unicode="&#x1ed5;" horiz-adv-x="1104" d="M88 504v47q0 152 58.5 273t164.5 188.5t241 67.5q133 0 239 -65.5t165 -186t60 -271.5v-47q0 -153 -57.5 -273.5t-164 -188.5t-241 -68t-240.5 67t-165 187t-60 270zM141 510q0 -133 52.5 -243t146 -172t214.5 -62q181 0 295 136.5t114 350.5v31q0 130 -52.5 241 t-146.5 173t-212 62q-182 0 -296.5 -138t-114.5 -348v-31zM275 1245l243 219h78l243 -219h-82l-201 182l-199 -182h-82zM798 1614l5 54q103 0 170 -35t67 -97q0 -121 -161 -134v-43h-45v91q89 6 117.5 23t28.5 56q0 85 -182 85z" />
<glyph unicode="&#x1ed6;" horiz-adv-x="1336" d="M130 614v206q0 184 66.5 327.5t189.5 221t281 77.5q160 0 283 -77.5t189.5 -221t66.5 -327.5v-213q0 -186 -66 -328.5t-188.5 -220.5t-282.5 -78q-241 0 -390 171.5t-149 462.5zM184 607q0 -171 59.5 -302t169 -201.5t256.5 -70.5q224 0 354 156t130 425v208 q0 259 -131 415.5t-355 156.5q-220 0 -351.5 -155.5t-131.5 -423.5v-208zM378 1551l253 219h58l253 -219h-82l-201 182l-199 -182h-82zM451 1818q0 62 38 107.5t89 45.5q38 0 64.5 -16.5t48 -35.5t43.5 -35t52 -16q78 0 78 95l50 -8q0 -60 -36.5 -98.5t-91.5 -38.5 q-39 0 -64.5 16t-47 35.5t-43.5 35t-53 15.5q-37 0 -57 -31.5t-20 -78.5z" />
<glyph unicode="&#x1ed7;" horiz-adv-x="1104" d="M88 504v47q0 152 58.5 273t164.5 188.5t241 67.5q133 0 239 -65.5t165 -186t60 -271.5v-47q0 -153 -57.5 -273.5t-164 -188.5t-241 -68t-240.5 67t-165 187t-60 270zM141 510q0 -133 52.5 -243t146 -172t214.5 -62q181 0 295 136.5t114 350.5v31q0 130 -52.5 241 t-146.5 173t-212 62q-182 0 -296.5 -138t-114.5 -348v-31zM271 1216l253 219h58l253 -219h-82l-201 182l-199 -182h-82zM344 1483q0 62 38 107.5t89 45.5q38 0 64.5 -16.5t48 -35.5t43.5 -35t52 -16q78 0 78 95l50 -8q0 -60 -36.5 -98.5t-91.5 -38.5q-39 0 -64.5 16 t-47 35.5t-43.5 35t-53 15.5q-37 0 -57 -31.5t-20 -78.5z" />
<glyph unicode="&#x1ed8;" horiz-adv-x="1336" d="M130 614v206q0 184 66.5 327.5t189.5 221t281 77.5q160 0 283 -77.5t189.5 -221t66.5 -327.5v-213q0 -186 -66 -328.5t-188.5 -220.5t-282.5 -78q-241 0 -390 171.5t-149 462.5zM184 607q0 -171 59.5 -302t169 -201.5t256.5 -70.5q224 0 354 156t130 425v208 q0 259 -131 415.5t-355 156.5q-220 0 -351.5 -155.5t-131.5 -423.5v-208zM418 1552v13l225 235h40l229 -238v-10h-67l-183 192l-181 -192h-63zM611 -215q0 23 15.5 39t38 16t38.5 -16t16 -38.5t-16 -38.5t-38.5 -16t-38 16t-15.5 38z" />
<glyph unicode="&#x1ed9;" horiz-adv-x="1104" d="M88 504v47q0 152 58.5 273t164.5 188.5t241 67.5q133 0 239 -65.5t165 -186t60 -271.5v-47q0 -153 -57.5 -273.5t-164 -188.5t-241 -68t-240.5 67t-165 187t-60 270zM141 510q0 -133 52.5 -243t146 -172t214.5 -62q181 0 295 136.5t114 350.5v31q0 130 -52.5 241 t-146.5 173t-212 62q-182 0 -296.5 -138t-114.5 -348v-31zM311 1239v13l225 235h40l229 -238v-10h-67l-183 192l-181 -192h-63zM497 -223q0 23 15.5 39t38 16t38.5 -16t16 -38.5t-16 -38.5t-38.5 -16t-38 16t-15.5 38z" />
<glyph unicode="&#x1eda;" horiz-adv-x="1421" d="M161 614v206q0 184 66 327.5t189 221t282 77.5q145 0 255 -61.5t181 -171.5q127 2 185 66.5t58 230.5h53q0 -170 -64 -254t-203 -95q72 -146 74 -332v-222q0 -186 -66.5 -328.5t-189 -220.5t-281.5 -78q-241 0 -390 171.5t-149 462.5zM215 607q0 -171 59 -302t169 -201.5 t257 -70.5q223 0 353.5 156t130.5 425v208q0 259 -131.5 415.5t-354.5 156.5q-221 0 -352 -155.5t-131 -423.5v-208zM672 1547l186 261h64l-191 -261h-59z" />
<glyph unicode="&#x1edb;" horiz-adv-x="1099" d="M85 504v47q0 152 58.5 273t165 188.5t240.5 67.5q205 0 334 -146q106 3 152 53.5t46 184.5h54q0 -140 -50.5 -208t-163.5 -81q90 -137 92 -325v-48q0 -153 -57.5 -273.5t-164 -188.5t-241 -68t-240.5 67t-165 187t-60 270zM138 510q0 -133 52.5 -243t146 -172t214.5 -62 q181 0 295 136.5t114 350.5v31q0 130 -52.5 241t-146.5 173t-212 62q-181 0 -296 -138t-115 -348v-31zM531 1223l186 261h64l-191 -261h-59z" />
<glyph unicode="&#x1edc;" horiz-adv-x="1421" d="M161 614v206q0 184 66 327.5t189 221t282 77.5q145 0 255 -61.5t181 -171.5q127 2 185 66.5t58 230.5h53q0 -170 -64 -254t-203 -95q72 -146 74 -332v-222q0 -186 -66.5 -328.5t-189 -220.5t-281.5 -78q-241 0 -390 171.5t-149 462.5zM215 607q0 -171 59 -302t169 -201.5 t257 -70.5q223 0 353.5 156t130.5 425v208q0 259 -131.5 415.5t-354.5 156.5q-221 0 -352 -155.5t-131 -423.5v-208zM505 1808h65l184 -261h-58z" />
<glyph unicode="&#x1edd;" horiz-adv-x="1099" d="M85 504v47q0 152 58.5 273t165 188.5t240.5 67.5q205 0 334 -146q106 3 152 53.5t46 184.5h54q0 -140 -50.5 -208t-163.5 -81q90 -137 92 -325v-48q0 -153 -57.5 -273.5t-164 -188.5t-241 -68t-240.5 67t-165 187t-60 270zM138 510q0 -133 52.5 -243t146 -172t214.5 -62 q181 0 295 136.5t114 350.5v31q0 130 -52.5 241t-146.5 173t-212 62q-181 0 -296 -138t-115 -348v-31zM364 1484h65l184 -261h-58z" />
<glyph unicode="&#x1ede;" horiz-adv-x="1421" d="M161 614v206q0 184 66 327.5t189 221t282 77.5q145 0 255 -61.5t181 -171.5q127 2 185 66.5t58 230.5h53q0 -170 -64 -254t-203 -95q72 -146 74 -332v-222q0 -186 -66.5 -328.5t-189 -220.5t-281.5 -78q-241 0 -390 171.5t-149 462.5zM215 607q0 -171 59 -302t169 -201.5 t257 -70.5q223 0 353.5 156t130.5 425v208q0 259 -131.5 415.5t-354.5 156.5q-221 0 -352 -155.5t-131 -423.5v-208zM642 1882l7 48q121 0 200 -41t79 -115q0 -68 -49 -108.5t-144 -47.5v-53h-47v97q97 8 141 32.5t44 79.5q0 50 -62.5 79t-168.5 29z" />
<glyph unicode="&#x1edf;" horiz-adv-x="1099" d="M85 504v47q0 152 58.5 273t165 188.5t240.5 67.5q205 0 334 -146q106 3 152 53.5t46 184.5h54q0 -140 -50.5 -208t-163.5 -81q90 -137 92 -325v-48q0 -153 -57.5 -273.5t-164 -188.5t-241 -68t-240.5 67t-165 187t-60 270zM138 510q0 -133 52.5 -243t146 -172t214.5 -62 q181 0 295 136.5t114 350.5v31q0 130 -52.5 241t-146.5 173t-212 62q-181 0 -296 -138t-115 -348v-31zM501 1556l7 48q121 0 200 -41t79 -115q0 -68 -49 -108.5t-144 -47.5v-53h-47v97q97 8 141 32.5t44 79.5q0 50 -62.5 79t-168.5 29z" />
<glyph unicode="&#x1ee0;" horiz-adv-x="1421" d="M161 614v206q0 184 66 327.5t189 221t282 77.5q145 0 255 -61.5t181 -171.5q127 2 185 66.5t58 230.5h53q0 -170 -64 -254t-203 -95q72 -146 74 -332v-222q0 -186 -66.5 -328.5t-189 -220.5t-281.5 -78q-241 0 -390 171.5t-149 462.5zM215 607q0 -171 59 -302t169 -201.5 t257 -70.5q223 0 353.5 156t130.5 425v208q0 259 -131.5 415.5t-354.5 156.5q-221 0 -352 -155.5t-131 -423.5v-208zM406 1597q0 79 49 127.5t124 48.5q76 0 150 -61t131 -61q53 0 86 35.5t33 93.5h53q0 -81 -49.5 -132t-122.5 -51q-79 0 -150 61.5t-131 61.5 q-55 0 -87 -33.5t-32 -89.5h-54z" />
<glyph unicode="&#x1ee1;" horiz-adv-x="1099" d="M85 504v47q0 152 58.5 273t165 188.5t240.5 67.5q205 0 334 -146q106 3 152 53.5t46 184.5h54q0 -140 -50.5 -208t-163.5 -81q90 -137 92 -325v-48q0 -153 -57.5 -273.5t-164 -188.5t-241 -68t-240.5 67t-165 187t-60 270zM138 510q0 -133 52.5 -243t146 -172t214.5 -62 q181 0 295 136.5t114 350.5v31q0 130 -52.5 241t-146.5 173t-212 62q-181 0 -296 -138t-115 -348v-31zM265 1272q0 79 49 127.5t124 48.5q76 0 150 -61t131 -61q53 0 86 35.5t33 93.5h53q0 -81 -49.5 -132t-122.5 -51q-79 0 -150 61.5t-131 61.5q-55 0 -87 -33.5t-32 -89.5 h-54z" />
<glyph unicode="&#x1ee2;" horiz-adv-x="1421" d="M161 614v206q0 184 66 327.5t189 221t282 77.5q145 0 255 -61.5t181 -171.5q127 2 185 66.5t58 230.5h53q0 -170 -64 -254t-203 -95q72 -146 74 -332v-222q0 -186 -66.5 -328.5t-189 -220.5t-281.5 -78q-241 0 -390 171.5t-149 462.5zM215 607q0 -171 59 -302t169 -201.5 t257 -70.5q223 0 353.5 156t130.5 425v208q0 259 -131.5 415.5t-354.5 156.5q-221 0 -352 -155.5t-131 -423.5v-208zM620 -214q0 23 15.5 39t38 16t38.5 -16t16 -38.5t-16 -38.5t-38.5 -16t-38 16t-15.5 38z" />
<glyph unicode="&#x1ee3;" horiz-adv-x="1099" d="M85 504v47q0 152 58.5 273t165 188.5t240.5 67.5q205 0 334 -146q106 3 152 53.5t46 184.5h54q0 -140 -50.5 -208t-163.5 -81q90 -137 92 -325v-48q0 -153 -57.5 -273.5t-164 -188.5t-241 -68t-240.5 67t-165 187t-60 270zM138 510q0 -133 52.5 -243t146 -172t214.5 -62 q181 0 295 136.5t114 350.5v31q0 130 -52.5 241t-146.5 173t-212 62q-181 0 -296 -138t-115 -348v-31zM512 -223q0 23 15.5 39t38 16t38.5 -16t16 -38.5t-16 -38.5t-38.5 -16t-38 16t-15.5 38z" />
<glyph unicode="&#x1ee4;" horiz-adv-x="1337" d="M181 457v970h53v-964q0 -198 119 -314t316 -116t315.5 116t118.5 315v963h53v-966q0 -227 -131 -354t-355.5 -127t-356 127t-132.5 350zM611 -214q0 23 15.5 39t38 16t38.5 -16t16 -38.5t-16 -38.5t-38.5 -16t-38 16t-15.5 38z" />
<glyph unicode="&#x1ee5;" d="M165 377v683h53v-685q2 -168 76 -255t218 -87q151 0 246.5 71.5t120.5 210.5v745h54v-1060h-54v172q-47 -89 -137 -140.5t-228 -51.5q-174 0 -260.5 101.5t-88.5 295.5zM445 -214q0 23 15.5 39t38 16t38.5 -16t16 -38.5t-16 -38.5t-38.5 -16t-38 16t-15.5 38z" />
<glyph unicode="&#x1ee6;" horiz-adv-x="1337" d="M181 457v970h53v-964q0 -198 119 -314t316 -116t315.5 116t118.5 315v963h53v-966q0 -227 -131 -354t-355.5 -127t-356 127t-132.5 350zM614 1872l7 48q121 0 200 -41t79 -115q0 -68 -49 -108.5t-144 -47.5v-53h-47v97q97 8 141 32.5t44 79.5q0 50 -62.5 79t-168.5 29z " />
<glyph unicode="&#x1ee7;" d="M165 377v683h53v-685q2 -168 76 -255t218 -87q151 0 246.5 71.5t120.5 210.5v745h54v-1060h-54v172q-47 -89 -137 -140.5t-228 -51.5q-174 0 -260.5 101.5t-88.5 295.5zM499 1559l7 48q121 0 200 -41t79 -115q0 -68 -49 -108.5t-144 -47.5v-53h-47v97q97 8 141 32.5 t44 79.5q0 50 -62.5 79t-168.5 29z" />
<glyph unicode="&#x1ee8;" horiz-adv-x="1337" d="M181 457v970h53v-964q0 -198 119 -314t316 -116t315.5 116t118.5 315v963h53v-204q120 5 175 70.5t55 226.5h53q0 -179 -69 -261.5t-214 -88.5v-709q0 -227 -131 -354t-355.5 -127t-356 127t-132.5 350zM612 1538l186 261h64l-191 -261h-59z" />
<glyph unicode="&#x1ee9;" horiz-adv-x="1110" d="M165 377v683h53v-685q2 -168 76 -255t218 -87q151 0 246.5 71.5t120.5 210.5v745h54v-132q93 7 134.5 58t41.5 180h54q0 -145 -55 -213.5t-175 -77.5v-875h-54v172q-47 -89 -137 -140.5t-228 -51.5q-174 0 -260.5 101.5t-88.5 295.5zM529 1202l186 261h64l-191 -261h-59z " />
<glyph unicode="&#x1eea;" horiz-adv-x="1337" d="M181 457v970h53v-964q0 -198 119 -314t316 -116t315.5 116t118.5 315v963h53v-204q120 5 175 70.5t55 226.5h53q0 -179 -69 -261.5t-214 -88.5v-709q0 -227 -131 -354t-355.5 -127t-356 127t-132.5 350zM445 1799h65l184 -261h-58z" />
<glyph unicode="&#x1eeb;" horiz-adv-x="1110" d="M165 377v683h53v-685q2 -168 76 -255t218 -87q151 0 246.5 71.5t120.5 210.5v745h54v-132q93 7 134.5 58t41.5 180h54q0 -145 -55 -213.5t-175 -77.5v-875h-54v172q-47 -89 -137 -140.5t-228 -51.5q-174 0 -260.5 101.5t-88.5 295.5zM362 1463h65l184 -261h-58z" />
<glyph unicode="&#x1eec;" horiz-adv-x="1337" d="M181 457v970h53v-964q0 -198 119 -314t316 -116t315.5 116t118.5 315v963h53v-204q120 5 175 70.5t55 226.5h53q0 -179 -69 -261.5t-214 -88.5v-709q0 -227 -131 -354t-355.5 -127t-356 127t-132.5 350zM582 1872l7 48q121 0 200 -41t79 -115q0 -68 -49 -108.5 t-144 -47.5v-53h-47v97q97 8 141 32.5t44 79.5q0 50 -62.5 79t-168.5 29z" />
<glyph unicode="&#x1eed;" horiz-adv-x="1110" d="M165 377v683h53v-685q2 -168 76 -255t218 -87q151 0 246.5 71.5t120.5 210.5v745h54v-132q93 7 134.5 58t41.5 180h54q0 -145 -55 -213.5t-175 -77.5v-875h-54v172q-47 -89 -137 -140.5t-228 -51.5q-174 0 -260.5 101.5t-88.5 295.5zM499 1536l7 48q121 0 200 -41 t79 -115q0 -68 -49 -108.5t-144 -47.5v-53h-47v97q97 8 141 32.5t44 79.5q0 50 -62.5 79t-168.5 29z" />
<glyph unicode="&#x1eee;" horiz-adv-x="1337" d="M181 457v970h53v-964q0 -198 119 -314t316 -116t315.5 116t118.5 315v963h53v-204q120 5 175 70.5t55 226.5h53q0 -179 -69 -261.5t-214 -88.5v-709q0 -227 -131 -354t-355.5 -127t-356 127t-132.5 350zM347 1587q0 79 49 127.5t124 48.5q76 0 150 -61t131 -61 q53 0 86 35.5t33 93.5h53q0 -81 -49.5 -132t-122.5 -51q-79 0 -150 61.5t-131 61.5q-55 0 -87 -33.5t-32 -89.5h-54z" />
<glyph unicode="&#x1eef;" horiz-adv-x="1110" d="M165 377v683h53v-685q2 -168 76 -255t218 -87q151 0 246.5 71.5t120.5 210.5v745h54v-132q93 7 134.5 58t41.5 180h54q0 -145 -55 -213.5t-175 -77.5v-875h-54v172q-47 -89 -137 -140.5t-228 -51.5q-174 0 -260.5 101.5t-88.5 295.5zM263 1252q0 79 49 127.5t124 48.5 q76 0 150 -61t131 -61q53 0 86 35.5t33 93.5h53q0 -81 -49.5 -132t-122.5 -51q-79 0 -150 61.5t-131 61.5q-55 0 -87 -33.5t-32 -89.5h-54z" />
<glyph unicode="&#x1ef0;" horiz-adv-x="1337" d="M181 457v970h53v-964q0 -198 119 -314t316 -116t315.5 116t118.5 315v963h53v-204q120 5 175 70.5t55 226.5h53q0 -179 -69 -261.5t-214 -88.5v-709q0 -227 -131 -354t-355.5 -127t-356 127t-132.5 350zM580 -214q0 23 15.5 39t38 16t38.5 -16t16 -38.5t-16 -38.5 t-38.5 -16t-38 16t-15.5 38z" />
<glyph unicode="&#x1ef1;" horiz-adv-x="1110" d="M165 377v683h53v-685q2 -168 76 -255t218 -87q151 0 246.5 71.5t120.5 210.5v745h54v-132q93 7 134.5 58t41.5 180h54q0 -145 -55 -213.5t-175 -77.5v-875h-54v172q-47 -89 -137 -140.5t-228 -51.5q-174 0 -260.5 101.5t-88.5 295.5zM445 -214q0 23 15.5 39t38 16 t38.5 -16t16 -38.5t-16 -38.5t-38.5 -16t-38 16t-15.5 38z" />
<glyph unicode="&#x1ef2;" horiz-adv-x="1198" d="M32 1427h71l494 -837l500 837h64l-538 -885v-542h-53v542zM389 1788h65l184 -261h-58z" />
<glyph unicode="&#x1ef3;" horiz-adv-x="958" d="M42 1060h58l393 -978l7 20l366 958h59l-474 -1244l-24 -59q-76 -185 -253 -185q-56 0 -78 11l-1 49q31 -8 72 -8q83 0 138 48.5t95 157.5l65 176zM302 1486h65l184 -261h-58z" />
<glyph unicode="&#x1ef4;" horiz-adv-x="1198" d="M32 1427h71l494 -837l500 837h64l-538 -885v-542h-53v542zM541 -204q0 23 15.5 39t38 16t38.5 -16t16 -38.5t-16 -38.5t-38.5 -16t-38 16t-15.5 38z" />
<glyph unicode="&#x1ef5;" horiz-adv-x="958" d="M42 1060h58l393 -978l7 20l366 958h59l-474 -1244l-24 -59q-76 -185 -253 -185q-56 0 -78 11l-1 49q31 -8 72 -8q83 0 138 48.5t95 157.5l65 176zM644 -368q0 23 15.5 39t38 16t38.5 -16t16 -38.5t-16 -38.5t-38.5 -16t-38 16t-15.5 38z" />
<glyph unicode="&#x1ef6;" horiz-adv-x="1198" d="M32 1427h71l494 -837l500 837h64l-538 -885v-542h-53v542zM526 1861l7 48q121 0 200 -41t79 -115q0 -68 -49 -108.5t-144 -47.5v-53h-47v97q97 8 141 32.5t44 79.5q0 50 -62.5 79t-168.5 29z" />
<glyph unicode="&#x1ef7;" horiz-adv-x="958" d="M42 1060h58l393 -978l7 20l366 958h59l-474 -1244l-24 -59q-76 -185 -253 -185q-56 0 -78 11l-1 49q31 -8 72 -8q83 0 138 48.5t95 157.5l65 176zM439 1559l7 48q121 0 200 -41t79 -115q0 -68 -49 -108.5t-144 -47.5v-53h-47v97q97 8 141 32.5t44 79.5q0 50 -62.5 79 t-168.5 29z" />
<glyph unicode="&#x1ef8;" horiz-adv-x="1198" d="M32 1427h71l494 -837l500 837h64l-538 -885v-542h-53v542zM291 1577q0 79 49 127.5t124 48.5q76 0 150 -61t131 -61q53 0 86 35.5t33 93.5h53q0 -81 -49.5 -132t-122.5 -51q-79 0 -150 61.5t-131 61.5q-55 0 -87 -33.5t-32 -89.5h-54z" />
</font>
</defs>
</svg>
